<?xml version="1.0" encoding="UTF-8"?>
<svg version="1.1" xmlns="http://www.w3.org/2000/svg" width="512" height="512">
<path d="M0 0 C3.81531852 1.58674462 6.29327431 4.02564144 9.25 6.875 C22.44477586 19.20226385 37.09761946 28.52834538 53 37 C54.04414062 37.56412598 54.04414062 37.56412598 55.109375 38.13964844 C89.17330097 56.27868902 130.80462459 64.27011058 169.10546875 64.09765625 C170.3106868 64.0962413 171.51590485 64.09482635 172.75764465 64.09336853 C176.56762281 64.08781771 180.37753992 64.07527459 184.1875 64.0625 C186.78710852 64.05747864 189.38671797 64.05291685 191.98632812 64.04882812 C198.32423921 64.03786444 204.66211524 64.02117606 211 64 C211.04573416 93.12163441 211.08107538 122.24326529 211.10213066 151.36492851 C211.10463174 154.8116451 211.10722042 158.25836163 211.10986328 161.70507812 C211.11065021 162.73424376 211.11065021 162.73424376 211.11145304 163.78420062 C211.12012945 174.85891119 211.13588401 185.93360076 211.15430559 197.00829892 C211.1730819 208.3921311 211.18398351 219.77594633 211.18817699 231.15979445 C211.19077429 237.54541747 211.19683826 243.93099305 211.21146011 250.3166008 C211.22513842 256.33952746 211.22920212 262.36238758 211.22621536 268.38532829 C211.22676097 270.58374965 211.23067686 272.78217347 211.23841095 274.98058128 C211.29289389 291.28095309 211.1841668 307.77285633 206.375 323.5 C206.11557617 324.37180908 205.85615234 325.24361816 205.58886719 326.1418457 C197.58273459 352.05828962 183.16970875 375.09401753 165.40893555 395.38598633 C164.41882981 396.52020726 163.43658866 397.66131825 162.46020508 398.80737305 C157.58400004 404.48713678 152.36596906 409.78290252 147.0625 415.0625 C146.20720703 415.92166016 145.35191406 416.78082031 144.47070312 417.66601562 C139.47685473 422.65224564 134.38141057 427.43537741 129 432 C128.07316406 432.79664063 127.14632813 433.59328125 126.19140625 434.4140625 C95.76092549 460.00641333 62.42349894 481.12259643 27.4375 499.875 C26.84244659 500.19401276 26.24739319 500.51302551 25.63430786 500.84170532 C22.80182344 502.35778706 19.96446482 503.86374811 17.12060547 505.35839844 C15.12232173 506.40960012 13.13098031 507.4741731 11.14892578 508.55566406 C2.86837667 512.95813796 2.86837667 512.95813796 -2 512 C-5.11808938 510.79528365 -8.04384934 509.30557795 -11 507.75 C-11.87374268 507.30035889 -12.74748535 506.85071777 -13.64770508 506.38745117 C-16.44053876 504.94101602 -19.22133644 503.4734529 -22 502 C-22.88349121 501.53480957 -23.76698242 501.06961914 -24.67724609 500.59033203 C-46.58079535 489.01430019 -67.79401115 476.34115223 -88 462 C-88.75861328 461.46665039 -89.51722656 460.93330078 -90.29882812 460.38378906 C-104.10999784 450.66460158 -117.49327389 440.36533557 -130 429 C-130.90105469 428.19046875 -131.80210937 427.3809375 -132.73046875 426.546875 C-146.94678026 413.6754415 -160.58116741 400.44458247 -172 385 C-173.12728516 383.58267578 -173.12728516 383.58267578 -174.27734375 382.13671875 C-196.17716056 354.30971074 -209.2395032 320.39211455 -209.12025452 284.907547 C-209.12110894 283.95484773 -209.12196337 283.00214846 -209.12284368 282.02057952 C-209.12447674 278.86241408 -209.11901309 275.70430303 -209.11352539 272.54614258 C-209.11324302 270.26868694 -209.11340222 267.99123122 -209.1139679 265.71377563 C-209.11425393 259.55552448 -209.1083885 253.39729294 -209.10139394 247.23904634 C-209.09512816 240.79418682 -209.09455405 234.34932681 -209.09336853 227.90446472 C-209.090617 217.09507875 -209.08437755 206.2857008 -209.07543945 195.47631836 C-209.06624677 184.34741247 -209.05917504 173.21850853 -209.05493164 162.08959961 C-209.05466892 161.40249359 -209.05440619 160.71538757 -209.05413551 160.00746015 C-209.05283038 156.56011669 -209.05156669 153.1127732 -209.05032361 149.66542971 C-209.03997329 121.11028164 -209.02229968 92.5551411 -209 64 C-208.05636848 64.00999275 -208.05636848 64.00999275 -207.09367371 64.02018738 C-200.390709 64.0879078 -193.68784508 64.13234949 -186.98461914 64.16479492 C-184.50150593 64.17964283 -182.01841774 64.19992624 -179.53540039 64.22631836 C-112.62225603 64.91838292 -49.10836777 46.50004787 0 0 Z " fill="#C85162" transform="translate(255,0)"/>
<path d="M0 0 C3.81531852 1.58674462 6.29327431 4.02564144 9.25 6.875 C22.44477586 19.20226385 37.09761946 28.52834538 53 37 C54.04414062 37.56412598 54.04414062 37.56412598 55.109375 38.13964844 C89.17330097 56.27868902 130.80462459 64.27011058 169.10546875 64.09765625 C170.3106868 64.0962413 171.51590485 64.09482635 172.75764465 64.09336853 C176.56762281 64.08781771 180.37753992 64.07527459 184.1875 64.0625 C186.78710852 64.05747864 189.38671797 64.05291685 191.98632812 64.04882812 C198.32423921 64.03786444 204.66211524 64.02117606 211 64 C211.04573416 93.12163441 211.08107538 122.24326529 211.10213066 151.36492851 C211.10463174 154.8116451 211.10722042 158.25836163 211.10986328 161.70507812 C211.11065021 162.73424376 211.11065021 162.73424376 211.11145304 163.78420062 C211.12012945 174.85891119 211.13588401 185.93360076 211.15430559 197.00829892 C211.1730819 208.3921311 211.18398351 219.77594633 211.18817699 231.15979445 C211.19077429 237.54541747 211.19683826 243.93099305 211.21146011 250.3166008 C211.22513842 256.33952746 211.22920212 262.36238758 211.22621536 268.38532829 C211.22676097 270.58374965 211.23067686 272.78217347 211.23841095 274.98058128 C211.29289389 291.28095309 211.1841668 307.77285633 206.375 323.5 C206.11557617 324.37180908 205.85615234 325.24361816 205.58886719 326.1418457 C197.58273459 352.05828962 183.16970875 375.09401753 165.40893555 395.38598633 C164.41882981 396.52020726 163.43658866 397.66131825 162.46020508 398.80737305 C157.58400004 404.48713678 152.36596906 409.78290252 147.0625 415.0625 C146.20720703 415.92166016 145.35191406 416.78082031 144.47070312 417.66601562 C139.47685473 422.65224564 134.38141057 427.43537741 129 432 C128.07316406 432.79664063 127.14632813 433.59328125 126.19140625 434.4140625 C95.76092549 460.00641333 62.42349894 481.12259643 27.4375 499.875 C26.84244659 500.19401276 26.24739319 500.51302551 25.63430786 500.84170532 C22.80182344 502.35778706 19.96446482 503.86374811 17.12060547 505.35839844 C15.12232173 506.40960012 13.13098031 507.4741731 11.14892578 508.55566406 C2.86837667 512.95813796 2.86837667 512.95813796 -2 512 C-5.11808938 510.79528365 -8.04384934 509.30557795 -11 507.75 C-11.87374268 507.30035889 -12.74748535 506.85071777 -13.64770508 506.38745117 C-16.44053876 504.94101602 -19.22133644 503.4734529 -22 502 C-22.88349121 501.53480957 -23.76698242 501.06961914 -24.67724609 500.59033203 C-46.58079535 489.01430019 -67.79401115 476.34115223 -88 462 C-88.75861328 461.46665039 -89.51722656 460.93330078 -90.29882812 460.38378906 C-104.10999784 450.66460158 -117.49327389 440.36533557 -130 429 C-130.90105469 428.19046875 -131.80210937 427.3809375 -132.73046875 426.546875 C-146.94678026 413.6754415 -160.58116741 400.44458247 -172 385 C-173.12728516 383.58267578 -173.12728516 383.58267578 -174.27734375 382.13671875 C-196.17716056 354.30971074 -209.2395032 320.39211455 -209.12025452 284.907547 C-209.12110894 283.95484773 -209.12196337 283.00214846 -209.12284368 282.02057952 C-209.12447674 278.86241408 -209.11901309 275.70430303 -209.11352539 272.54614258 C-209.11324302 270.26868694 -209.11340222 267.99123122 -209.1139679 265.71377563 C-209.11425393 259.55552448 -209.1083885 253.39729294 -209.10139394 247.23904634 C-209.09512816 240.79418682 -209.09455405 234.34932681 -209.09336853 227.90446472 C-209.090617 217.09507875 -209.08437755 206.2857008 -209.07543945 195.47631836 C-209.06624677 184.34741247 -209.05917504 173.21850853 -209.05493164 162.08959961 C-209.05466892 161.40249359 -209.05440619 160.71538757 -209.05413551 160.00746015 C-209.05283038 156.56011669 -209.05156669 153.1127732 -209.05032361 149.66542971 C-209.03997329 121.11028164 -209.02229968 92.5551411 -209 64 C-208.05636848 64.00999275 -208.05636848 64.00999275 -207.09367371 64.02018738 C-200.390709 64.0879078 -193.68784508 64.13234949 -186.98461914 64.16479492 C-184.50150593 64.17964283 -182.01841774 64.19992624 -179.53540039 64.22631836 C-112.62225603 64.91838292 -49.10836777 46.50004787 0 0 Z M-1.671875 75.6171875 C-2.35765625 76.36226563 -3.0434375 77.10734375 -3.75 77.875 C-21.14868775 95.57892789 -45.7473134 106.99177791 -69.4375 113.3125 C-70.29287354 113.54283936 -71.14824707 113.77317871 -72.02954102 114.01049805 C-89.79087138 118.46267588 -107.51143774 119.49167425 -125.75 119.6875 C-127.92319617 119.72078143 -130.09637404 119.75528042 -132.26953125 119.79101562 C-137.51291703 119.87465192 -142.75627029 119.94202815 -148 120 C-148.04681153 141.54956604 -148.0820336 163.09912363 -148.10362434 184.64873028 C-148.11391771 194.65556734 -148.1279408 204.66237273 -148.15087891 214.66918945 C-148.17087234 223.39557521 -148.18373052 232.12193802 -148.18817699 240.84834605 C-148.19077432 245.46485634 -148.19683839 250.08130099 -148.21146011 254.69779015 C-148.22513828 259.05207066 -148.22920217 263.40625913 -148.22621536 267.76055908 C-148.22676098 269.34992283 -148.23067701 270.93929 -148.23841095 272.52863503 C-148.29569173 284.91841134 -147.49439255 296.94268849 -143.4375 308.75 C-143.18210449 309.50095947 -142.92670898 310.25191895 -142.66357422 311.02563477 C-138.12774188 323.77683695 -131.42296378 335.42649228 -123 346 C-122.30261719 346.88816406 -121.60523438 347.77632813 -120.88671875 348.69140625 C-93.94065226 382.33809318 -59.28654297 406.09436717 -22 427 C-21.07799805 427.51900879 -20.15599609 428.03801758 -19.20605469 428.57275391 C-16.37740216 430.15262227 -13.53543285 431.70520238 -10.6875 433.25 C-9.81005127 433.74040771 -8.93260254 434.23081543 -8.02856445 434.73608398 C-6.78272583 435.40039429 -6.78272583 435.40039429 -5.51171875 436.078125 C-4.78428467 436.47418945 -4.05685059 436.87025391 -3.30737305 437.27832031 C0.72356047 438.53907997 3.94480084 437.44861253 7.73803711 435.8359375 C9.1187439 435.11277344 9.1187439 435.11277344 10.52734375 434.375 C11.55867432 433.83834717 12.59000488 433.30169434 13.65258789 432.7487793 C14.73660889 432.17168213 15.82062988 431.59458496 16.9375 431 C18.06341553 430.40550049 19.18933105 429.81100098 20.34936523 429.19848633 C41.98218907 417.69636822 62.94986511 404.44236186 82 389 C82.88816406 388.30261719 83.77632812 387.60523438 84.69140625 386.88671875 C116.56117749 361.51151515 144.81689601 328.7530323 150 287 C150.08486173 284.607253 150.12205606 282.21250327 150.12025452 279.81825256 C150.12110894 279.13031835 150.12196337 278.44238413 150.12284368 277.73360342 C150.12447998 275.44745646 150.11900767 273.16138424 150.11352539 270.87524414 C150.11324309 269.22891237 150.11340209 267.58258048 150.1139679 265.93624878 C150.11425421 261.48018275 150.10838431 257.02414376 150.10139394 252.568084 C150.09513275 247.90626619 150.09455441 243.24444771 150.09336853 238.58262634 C150.09026337 229.76073604 150.08206096 220.93885817 150.07201904 212.11697334 C150.0608326 202.07105463 150.05534108 192.02513532 150.05032361 181.97921193 C150.03987767 161.31946769 150.022294 140.65973463 150 120 C149.44143625 119.99121921 148.88287251 119.98243841 148.30738258 119.97339153 C142.42737386 119.87950856 136.54760867 119.77530849 130.6678772 119.66545105 C128.48143958 119.62590488 126.2949547 119.58887956 124.10842896 119.55455017 C108.73924682 119.31102362 93.98331122 118.73489427 79 115 C78.11393066 114.78714355 77.22786133 114.57428711 76.31494141 114.35498047 C48.06259513 107.41430223 22.44909807 94.91385029 2 74 C-0.14808513 73.76824881 -0.14808513 73.76824881 -1.671875 75.6171875 Z " fill="#DF4F5F" transform="translate(255,0)"/>
<path d="M0 0 C9.04499008 5.50973408 17.51853837 11.67038019 26 18 C24.50465704 22.44449157 22.05886488 25.87153286 19.25 29.5625 C14.74425342 35.59283824 10.36573396 41.69852378 6.0625 47.875 C5.47065918 48.72368652 4.87881836 49.57237305 4.26904297 50.44677734 C3.08332572 52.14717939 1.89777691 53.8476989 0.71240234 55.54833984 C-1.88733214 59.27040054 -4.50466412 62.97992544 -7.125 66.6875 C-7.61218506 67.3769873 -8.09937012 68.06647461 -8.60131836 68.77685547 C-9.57817403 70.15909731 -10.55514286 71.54125919 -11.53222656 72.92333984 C-14.02320986 76.44767516 -16.51144903 79.97394701 -19 83.5 C-19.99998722 84.91667568 -20.99998722 86.33334236 -22 87.75 C-22.7425 88.801875 -22.7425 88.801875 -23.5 89.875 C-28 96.25 -28 96.25 -29.49951172 98.37426758 C-30.50119043 99.79333958 -31.5028179 101.21244775 -32.50439453 102.6315918 C-34.97829495 106.13675274 -37.45303366 109.64131515 -39.9296875 113.14453125 C-44.7069458 119.90384353 -49.4747084 126.66951388 -54.21777344 133.45288086 C-55.39901441 135.14108457 -56.58193832 136.82811206 -57.76660156 138.51391602 C-60.68435006 142.66874771 -63.57476942 146.83796336 -66.4140625 151.046875 C-66.95546875 151.83964844 -67.496875 152.63242187 -68.0546875 153.44921875 C-69.07870592 154.94958405 -70.09228616 156.45714316 -71.09375 157.97265625 C-72.4765625 159.984375 -72.4765625 159.984375 -75 163 C-79.8868428 163 -81.50400734 161.27423777 -84.9375 158.1875 C-86.10005844 157.17294559 -87.26282474 156.15862933 -88.42578125 155.14453125 C-89.0182666 154.62197754 -89.61075195 154.09942383 -90.22119141 153.56103516 C-92.99193648 151.12950291 -95.80769133 148.75224937 -98.625 146.375 C-99.16568115 145.91697998 -99.7063623 145.45895996 -100.26342773 144.98706055 C-104.53020385 141.37770117 -108.8531714 137.84044188 -113.1875 134.3125 C-116.88014364 131.27632634 -120.52121788 128.1815003 -124.1640625 125.0859375 C-128.44740948 121.45219765 -132.787994 117.89337563 -137.14453125 114.34765625 C-142.48130877 109.95996366 -147.73738641 105.47614988 -153 101 C-152.41334724 97.92226513 -151.55427593 96.13655541 -149.48828125 93.79296875 C-148.97716797 93.20580078 -148.46605469 92.61863281 -147.93945312 92.01367188 C-147.40255859 91.41103516 -146.86566406 90.80839844 -146.3125 90.1875 C-145.79494141 89.59646484 -145.27738281 89.00542969 -144.74414062 88.39648438 C-143.69992631 87.20402543 -142.65321594 86.01374755 -141.60400391 84.82568359 C-139.04081892 81.90825629 -136.52017074 78.95458566 -134 76 C-130.1402227 77.8158486 -127.13735361 80.27968892 -123.9375 83.0625 C-122.77018032 84.06455869 -121.60220174 85.06585029 -120.43359375 86.06640625 C-119.85335449 86.56414551 -119.27311523 87.06188477 -118.67529297 87.57470703 C-116.3120876 89.58525686 -113.90856471 91.54414643 -111.5 93.5 C-107.98581651 96.35847578 -104.50852587 99.25347671 -101.06005859 102.19042969 C-98.38191299 104.47046208 -95.69258226 106.73704811 -93 109 C-92.1028125 109.75539063 -91.205625 110.51078125 -90.28125 111.2890625 C-89.4871875 111.93617188 -88.693125 112.58328125 -87.875 113.25 C-86.85019531 114.09304688 -86.85019531 114.09304688 -85.8046875 114.953125 C-85.20914063 115.29859375 -84.61359375 115.6440625 -84 116 C-80.58093816 114.86031272 -80.20612617 114.24110751 -78.28515625 111.34375 C-77.5125647 110.19398682 -77.5125647 110.19398682 -76.72436523 109.02099609 C-76.17594971 108.18906738 -75.62753418 107.35713867 -75.0625 106.5 C-73.889126 104.75186186 -72.71462385 103.00448047 -71.5390625 101.2578125 C-70.94641602 100.37383789 -70.35376953 99.48986328 -69.74316406 98.57910156 C-67.19364072 94.80694966 -64.57285747 91.08748501 -61.9375 87.375 C-61.44709229 86.68277344 -60.95668457 85.99054688 -60.45141602 85.27734375 C-59.46268278 83.88217279 -58.47350833 82.4873144 -57.48388672 81.09277344 C-54.98327166 77.56607513 -52.49215484 74.0326791 -50 70.5 C-49.00004472 69.08330177 -48.00004474 67.66663508 -47 66.25 C-46.505 65.54875 -46.01 64.8475 -45.5 64.125 C-40 56.33333333 -34.5 48.54166667 -29 40.75 C-28.50467773 40.0482666 -28.00935547 39.3465332 -27.49902344 38.62353516 C-26.50238095 37.21167908 -25.50563671 35.79989482 -24.50878906 34.38818359 C-21.95656554 30.77350731 -19.40630524 27.15747082 -16.859375 23.5390625 C-11.30118883 15.64647282 -5.71393248 7.78103159 0 0 Z " fill="#FEFDFD" transform="translate(318,173)"/>
</svg>
