<?xml version="1.0" encoding="UTF-8"?>
<svg version="1.1" xmlns="http://www.w3.org/2000/svg" width="512" height="512">
<path d="M0 0 C7.93214371 6.79167373 15.27682406 14.15551202 22.625 21.5625 C23.73543961 22.67797083 24.84611538 23.79320661 25.95703125 24.90820312 C28.64074159 27.60277631 31.32126936 30.30047673 34 33 C38.36652601 31.34025594 41.11196118 28.06908901 44.27734375 24.77734375 C45.52639142 23.50295984 46.77575106 22.22888164 48.02539062 20.95507812 C49.97081165 18.96051679 51.91290083 16.96296009 53.84887695 14.95922852 C62.00722866 6.53394118 69.98836138 -0.82361919 80 -7 C81.14722534 -7.70854126 81.14722534 -7.70854126 82.31762695 -8.43139648 C109.33026661 -24.40856217 143.30462126 -30.18848945 173.96826172 -22.54345703 C197.22007602 -16.3239739 216.57607306 -5.63622681 234 11 C234.59941406 11.53625 235.19882812 12.0725 235.81640625 12.625 C253.95375448 29.45780579 265.03001772 54.93579975 269 79 C269.27457031 80.51980469 269.27457031 80.51980469 269.5546875 82.0703125 C274.70124581 127.4864323 260.46826948 174.98045065 232.52758789 210.95092773 C222.49775995 223.48166779 211.10845991 235.12081576 198.47265625 245.03125 C195.88295411 247.09319294 193.44327054 249.26702661 191 251.5 C187.60401318 254.59555196 184.13828469 257.55151207 180.5625 260.4375 C176.75912497 263.51336588 173.09917348 266.68753166 169.5 270 C165.0301488 274.11378909 160.40955107 277.97087297 155.68359375 281.78515625 C153.05291443 283.95632827 150.52057576 286.20241357 148 288.5 C143.70008209 292.41891252 139.24080453 296.09170869 134.71875 299.75 C131.22091849 302.64475711 127.88214596 305.69589539 124.52734375 308.75390625 C121.93037607 311.06187598 119.26595987 313.25555863 116.5625 315.4375 C112.75912497 318.51336588 109.09917348 321.68753166 105.5 325 C101.0301488 329.11378909 96.40955107 332.97087297 91.68359375 336.78515625 C89.05291443 338.95632827 86.52057576 341.20241357 84 343.5 C79.70008209 347.41891252 75.24080453 351.09170869 70.71875 354.75 C68.07852271 356.93501569 65.5327028 359.19171391 63 361.5 C58.64962527 365.4567694 54.18592452 369.23570397 49.59765625 372.9140625 C47.97848318 374.21427065 46.37813371 375.53872909 44.80859375 376.8984375 C41.67295281 379.51249433 39.14465695 381.38784551 35 381.75 C29.83742596 381.26258935 26.7733877 378.3266186 23 375 C21.88507207 374.04185346 20.76909612 373.08492572 19.65234375 372.12890625 C17.07052789 369.90994019 14.50029453 367.67840374 11.9375 365.4375 C8.2677097 362.22913716 4.57738963 359.04565794 0.875 355.875 C0.29927246 355.38177246 -0.27645508 354.88854492 -0.86962891 354.38037109 C-5.26794231 350.61694251 -9.68567414 346.87681718 -14.1081543 343.1418457 C-19.84191018 338.29594194 -25.53831897 333.4067871 -31.23388672 328.51611328 C-34.15442275 326.00899015 -37.07732311 323.50462672 -40 321 C-41.16667816 320.00001341 -42.33334482 319.0000134 -43.5 318 C-44.0775 317.505 -44.655 317.01 -45.25 316.5 C-65.66666667 299 -86.08333333 281.5 -106.5 264 C-107.3667334 263.25713745 -107.3667334 263.25713745 -108.25097656 262.49926758 C-109.41452598 261.5018699 -110.57793804 260.50431197 -111.74121094 259.5065918 C-114.70445065 256.96542699 -117.6702197 254.42731801 -120.640625 251.89453125 C-126.75729639 246.67436795 -132.82646815 241.41816662 -138.7734375 236.00390625 C-140.81535638 234.16617925 -142.89950826 232.39493626 -145 230.625 C-177.18000245 202.37882551 -196.94795209 157.24441242 -200 115 C-201.45709218 78.14128198 -194.56429392 45.13223584 -169.5625 16.875 C-168.04903526 15.24313496 -166.52834475 13.61793737 -165 12 C-164.31421875 11.24976563 -163.6284375 10.49953125 -162.921875 9.7265625 C-122.00763823 -33.46068743 -45.89989404 -37.57044391 0 0 Z " fill="#A30000" transform="translate(221,78)"/>
</svg>
