<?xml version="1.0" encoding="UTF-8"?>
<svg version="1.1" xmlns="http://www.w3.org/2000/svg" width="512" height="512">
<path d="M0 0 C7.10647238 -0.13817711 14.03952396 0.26359602 21.10595703 0.99389648 C22.16745972 1.09957947 23.2289624 1.20526245 24.32263184 1.31414795 C27.80152049 1.66171608 31.27965263 2.01631303 34.7578125 2.37109375 C37.19054156 2.61572606 39.62331206 2.85994663 42.05612183 3.10377502 C48.44192241 3.74502985 54.82708982 4.39239443 61.2121582 5.04089355 C66.41927363 5.56868784 71.62682929 6.09205748 76.83441353 6.6152029 C83.05903509 7.24062796 89.28344904 7.8681058 95.5078125 8.49609375 C97.28013433 8.67479917 97.28013433 8.67479917 99.08826065 8.85711479 C102.44323011 9.19588147 105.79805472 9.5360453 109.15283203 9.87670898 C110.13694061 9.97597183 111.12104919 10.07523468 112.13497925 10.17750549 C113.93821829 10.36119316 115.74105201 10.54892602 117.54335403 10.7415905 C119.14666348 10.9102393 120.75144444 11.06558266 122.35749435 11.20575142 C127.71570857 11.73033173 127.71570857 11.73033173 130.58203125 14.44921875 C131.31808594 15.51785156 132.05414063 16.58648438 132.8125 17.6875 C133.66404714 18.88245035 134.51695917 20.076429 135.37109375 21.26953125 C135.80276855 21.88779785 136.23444336 22.50606445 136.67919922 23.14306641 C138.807674 26.13552096 141.09134904 29.00032007 143.375 31.875 C144.30208769 33.05338199 145.22917097 34.23176744 146.15625 35.41015625 C148.54934667 38.43871263 150.96394625 41.44948415 153.38305664 44.45727539 C158.15307933 50.38877635 162.83601442 56.37416316 167.4375 62.4375 C172.20998428 68.72461783 177.11828174 74.87841971 182.12475586 80.98022461 C186.01916125 85.74512349 189.78354299 90.59537163 193.5 95.5 C198.31970751 101.86035621 203.27676832 108.08661094 208.33374023 114.25952148 C211.64587594 118.31025191 214.89040072 122.401279 218.0625 126.5625 C221.582849 131.17869957 225.17046523 135.72936275 228.8125 140.25 C233.22497161 145.73266062 237.54523878 151.27860193 241.8125 156.875 C242.35986816 157.59196045 242.90723633 158.3089209 243.47119141 159.04760742 C245.75979186 162.04864395 248.04081807 165.05444715 250.3046875 168.07421875 C250.92601562 168.89535156 251.54734375 169.71648437 252.1875 170.5625 C252.95126953 171.58537109 252.95126953 171.58537109 253.73046875 172.62890625 C254.35888672 173.30759766 254.35888672 173.30759766 255 174 C255.66 174 256.32 174 257 174 C258.29833417 172.651491 258.29833417 172.651491 259.58203125 170.84375 C260.09507812 170.15925781 260.608125 169.47476563 261.13671875 168.76953125 C261.68972656 168.02058594 262.24273437 167.27164063 262.8125 166.5 C267.26360106 160.56851042 271.78773062 154.72630203 276.5 149 C280.94697874 143.58198045 285.26679232 138.08658702 289.5 132.5 C294.31970751 126.13964379 299.27676832 119.91338906 304.33374023 113.74047852 C307.64587594 109.68974809 310.89040072 105.598721 314.0625 101.4375 C317.58284562 96.82130486 321.17033813 92.27053089 324.8125 87.75 C329.10672005 82.41710081 333.29925961 77.01719909 337.4375 71.5625 C342.20987405 65.27530136 347.11828515 59.12157614 352.12475586 53.01977539 C356.57812503 47.57097084 360.85130524 41.99855848 365.09863281 36.38842773 C369.58606288 30.48416605 374.2326016 24.72079244 378.95117188 19 C381.74848901 15.68489321 381.74848901 15.68489321 384 12 C385.78179073 11.58490658 385.78179073 11.58490658 388.15306091 11.34861755 C389.49653847 11.20782776 389.49653847 11.20782776 390.86715698 11.06419373 C391.85773102 10.9700972 392.84830505 10.87600067 393.86889648 10.77905273 C395.42509956 10.62009018 395.42509956 10.62009018 397.01274109 10.45791626 C400.46469164 10.10756272 403.91781412 9.7705741 407.37109375 9.43359375 C409.76717704 9.19304158 412.1631774 8.95166207 414.55909729 8.70948792 C420.88875036 8.0719625 427.21947255 7.44572945 433.55047607 6.82177734 C439.96075773 6.18804674 446.36998085 5.54380077 452.77929688 4.90039062 C464.97436017 3.67772553 477.17030355 2.46411284 489.36739922 1.26188469 C491.17692869 1.08187712 492.98616746 0.89893073 494.79515266 0.7135334 C496.13001119 0.5770857 496.13001119 0.5770857 497.49183655 0.43788147 C498.28369386 0.35605149 499.07555117 0.27422152 499.89140415 0.18991184 C503.9302735 -0.17385114 507.95130993 -0.05783843 512 0 C512.13817711 7.10647238 511.73640398 14.03952396 511.00610352 21.10595703 C510.90042053 22.16745972 510.79473755 23.2289624 510.68585205 24.32263184 C510.33828392 27.80152049 509.98368697 31.27965263 509.62890625 34.7578125 C509.38427394 37.19054156 509.14005337 39.62331206 508.89622498 42.05612183 C508.25497015 48.44192241 507.60760557 54.82708982 506.95910645 61.2121582 C506.43131216 66.41927363 505.90794252 71.62682929 505.3847971 76.83441353 C504.75937204 83.05903509 504.1318942 89.28344904 503.50390625 95.5078125 C503.38476931 96.68936039 503.26563236 97.87090828 503.14288521 99.08826065 C502.80411853 102.44323011 502.4639547 105.79805472 502.12329102 109.15283203 C502.02402817 110.13694061 501.92476532 111.12104919 501.82249451 112.13497925 C501.63880684 113.93821829 501.45107398 115.74105201 501.2584095 117.54335403 C501.0897607 119.14666348 500.93441734 120.75144444 500.79424858 122.35749435 C500.26966827 127.71570857 500.26966827 127.71570857 497.55078125 130.58203125 C496.48214844 131.31808594 495.41351563 132.05414063 494.3125 132.8125 C493.11754965 133.66404714 491.923571 134.51695917 490.73046875 135.37109375 C490.11220215 135.80276855 489.49393555 136.23444336 488.85693359 136.67919922 C485.86447904 138.807674 482.99967993 141.09134904 480.125 143.375 C478.94661801 144.30208769 477.76823256 145.22917097 476.58984375 146.15625 C473.56128737 148.54934667 470.55051585 150.96394625 467.54272461 153.38305664 C461.61122365 158.15307933 455.62583684 162.83601442 449.5625 167.4375 C443.27538217 172.20998428 437.12158029 177.11828174 431.01977539 182.12475586 C426.25487651 186.01916125 421.40462837 189.78354299 416.5 193.5 C410.13964379 198.31970751 403.91338906 203.27676832 397.74047852 208.33374023 C393.68974809 211.64587594 389.598721 214.89040072 385.4375 218.0625 C380.82130486 221.58284562 376.27053089 225.17033813 371.75 228.8125 C366.41709005 233.1067287 361.01694652 237.29891459 355.5625 241.4375 C349.69953915 245.89310795 343.90851539 250.42581277 338.1875 255.0625 C337.52371338 255.59866943 336.85992676 256.13483887 336.17602539 256.68725586 C332.94908691 259.31842611 329.87654533 261.97854055 327 265 C327.66644531 265.84820312 328.33289063 266.69640625 329.01953125 267.5703125 C329.67864502 268.40925049 329.67864502 268.40925049 330.35107422 269.26513672 C331.34081126 270.52471185 332.33072541 271.78414783 333.32080078 273.04345703 C335.79212537 276.18729326 338.26139077 279.3326555 340.72265625 282.484375 C347.703833 291.41432451 354.8292093 300.22176655 362 309 C362.69037354 308.29391602 363.38074707 307.58783203 364.09204102 306.86035156 C366.67666252 304.22107434 369.27149154 301.59202948 371.86938477 298.96582031 C372.98836837 297.83183087 374.10463492 296.69515317 375.21801758 295.55566406 C376.82691886 293.91001672 378.44562636 292.2745647 380.06640625 290.640625 C380.79966881 289.88413666 380.79966881 289.88413666 381.54774475 289.11236572 C386.35244714 284.30539504 392.19798501 279.89436176 399.1875 279.75 C404.51653641 279.84394135 408.75607826 280.85738398 412.73046875 284.65234375 C416.6466019 289.05217981 418.15395557 292.27537839 418.3125 298.25 C418.34988281 299.16265625 418.38726562 300.0753125 418.42578125 301.015625 C417.45248461 307.83763083 412.92285326 312.47799824 408.10546875 317.01171875 C406.97437893 318.10978872 405.84352622 319.20810297 404.71289062 320.30664062 C402.94143564 322.00942116 401.16608898 323.70787225 399.38598633 325.40161133 C397.65680095 327.05263876 395.94308874 328.7185398 394.23046875 330.38671875 C393.6910112 330.89095871 393.15155365 331.39519867 392.5957489 331.91471863 C390.93093855 333.48773713 390.93093855 333.48773713 389 336 C389.01348245 339.20226405 390.53954075 340.96027345 392.625 343.28515625 C393.43046265 344.19599976 393.43046265 344.19599976 394.25219727 345.12524414 C395.11735962 346.08418579 395.11735962 346.08418579 396 347.0625 C397.19781327 348.4156065 398.39442346 349.76977893 399.58984375 351.125 C400.17620605 351.78757812 400.76256836 352.45015625 401.36669922 353.1328125 C403.49175849 355.56217771 405.53404354 358.05214505 407.5625 360.5625 C410.97136988 364.77198519 414.46399068 368.89760971 418 373 C422.29977994 377.98936093 426.50485562 383.04221344 430.65625 388.15625 C433.39302049 391.47686486 436.1910295 394.74046782 439 398 C443.29734242 402.98664046 447.50103948 408.03582685 451.6484375 413.1484375 C454.93156103 417.1296338 458.29795605 421.03804423 461.69702148 424.9206543 C464.5924377 428.25161079 467.11989156 431.62808583 469.5625 435.3125 C471.47812884 437.83428193 472.34432956 438.84184307 475.4453125 439.58984375 C477.30665165 439.69855444 479.17085743 439.76483804 481.03515625 439.79296875 C489.48118652 440.38274425 497.01618485 444.93456951 503.0234375 450.6796875 C511.46167189 460.58544092 512.73724231 470.47641399 512.18798828 482.99609375 C511.79387343 487.1972557 510.22624074 490.48284884 508 494 C507.4225 495.03125 506.845 496.0625 506.25 497.125 C500.56754445 504.38591543 493.70980037 509.09673321 485 512 C470.66596989 512.78049169 460.4484154 511.33683712 449.2734375 501.4765625 C444.24745871 496.19284121 440.11868725 488.52885546 439.92578125 481.16796875 C439.95027344 480.26691406 439.97476562 479.36585938 440 478.4375 C439.80453442 474.44195358 439.18702328 473.20618316 436.4453125 470.18359375 C433.65649485 467.7229476 430.71269149 465.48052218 427.71923828 463.27587891 C425.26452259 461.45418845 422.91762813 459.51048229 420.5625 457.5625 C419.67691406 456.84191406 418.79132813 456.12132812 417.87890625 455.37890625 C413.9359872 452.12078183 410.0661729 448.78052945 406.19165039 445.44165039 C402.66701081 442.41054711 399.10960118 439.43014684 395.5 436.5 C390.65403211 432.5662143 385.91901472 428.51552241 381.19140625 424.44140625 C377.66682097 421.41041716 374.10951168 418.43007419 370.5 415.5 C366.27204443 412.06789489 362.12535524 408.55378331 358 405 C355.66861892 402.99771384 353.33518381 400.99784968 351 399 C350.46213867 398.53932129 349.92427734 398.07864258 349.37011719 397.60400391 C347.8783765 396.33234848 346.37692316 395.07211289 344.875 393.8125 C344.02679688 393.09707031 343.17859375 392.38164062 342.3046875 391.64453125 C339.41680361 389.50300166 339.41680361 389.50300166 336 389 C333.82767336 390.76088651 332.03188465 392.45893413 330.1328125 394.484375 C329.57560516 395.05577209 329.01839783 395.62716919 328.44430542 396.21588135 C326.6589449 398.04916745 324.89095595 399.89802879 323.125 401.75 C321.36464494 403.58601225 319.60073032 405.41805952 317.82711792 407.24127197 C316.7237148 408.37645415 315.62798519 409.51916225 314.54129028 410.67034912 C310.6713967 414.66511268 306.89738092 417.58492577 301.21875 418.3984375 C294.82297615 418.34330152 290.09920724 418.09189779 285.34375 413.34765625 C281.52329493 409.08568632 279.85748273 406.01843809 279.75 400.1875 C279.72421875 399.35605469 279.6984375 398.52460938 279.671875 397.66796875 C281.35011221 384.02230195 299.7967812 371.10020361 309 362 C301.07150126 355.1744839 293.00897008 348.61874574 284.68115234 342.28564453 C281.72719306 340.02663355 278.80065418 337.73297642 275.875 335.4375 C275.29250488 334.98342773 274.71000977 334.52935547 274.10986328 334.06152344 C271.29779441 331.85830183 268.53636089 329.62225386 265.84765625 327.26953125 C264.88730469 326.43808594 263.92695313 325.60664063 262.9375 324.75 C262.10089844 324.00234375 261.26429688 323.2546875 260.40234375 322.484375 C258.13759574 320.81485512 258.13759574 320.81485512 255.65625 320.8984375 C251.70997483 322.53498103 248.79355671 325.11857061 245.5625 327.875 C244.12973176 329.06869987 242.69612304 330.26139158 241.26171875 331.453125 C240.5454834 332.05189453 239.82924805 332.65066406 239.09130859 333.26757812 C236.06272957 335.77642669 232.97573192 338.2062965 229.875 340.625 C229.03014038 341.28628906 229.03014038 341.28628906 228.16821289 341.9609375 C227.03019372 342.85143384 225.89176587 343.74140813 224.75292969 344.63085938 C221.66585286 347.04204696 218.58252235 349.45799431 215.5 351.875 C214.93651855 352.31537598 214.37303711 352.75575195 213.79248047 353.20947266 C213.25252441 353.63276855 212.71256836 354.05606445 212.15625 354.4921875 C211.69025391 354.85683105 211.22425781 355.22147461 210.74414062 355.59716797 C208.13368995 357.69678297 205.57011428 359.85122327 203 362 C203.70608398 362.69561035 204.41216797 363.3912207 205.13964844 364.10791016 C207.77632548 366.70818595 210.4062133 369.31523994 213.03417969 371.92431641 C214.16907804 373.04920285 215.30577081 374.17228209 216.44433594 375.29345703 C218.08752322 376.91218356 219.72398986 378.53745833 221.359375 380.1640625 C221.86370056 380.65806549 222.36802612 381.15206848 222.88763428 381.66104126 C228.25916694 387.03088412 232.08431538 392.01574222 232.3125 399.75 C232.23514175 405.65501286 230.75476728 409.23084752 226.50390625 413.50390625 C222.35805676 417.1328169 219.1523154 418.16914247 213.75 418.3125 C212.83734375 418.34988281 211.9246875 418.38726562 210.984375 418.42578125 C204.16236917 417.45248461 199.52200176 412.92285326 194.98828125 408.10546875 C193.89021128 406.97437893 192.79189703 405.84352622 191.69335938 404.71289062 C189.99057884 402.94143564 188.29212775 401.16608898 186.59838867 399.38598633 C184.94736124 397.65680095 183.2814602 395.94308874 181.61328125 394.23046875 C181.10904129 393.6910112 180.60480133 393.15155365 180.08528137 392.5957489 C178.51226287 390.93093855 178.51226287 390.93093855 176 389 C172.79773595 389.01348245 171.03972655 390.53954075 168.71484375 392.625 C167.80400024 393.43046265 167.80400024 393.43046265 166.87475586 394.25219727 C166.23546143 394.82897217 165.59616699 395.40574707 164.9375 396 C163.5843935 397.19781327 162.23022107 398.39442346 160.875 399.58984375 C160.21242187 400.17620605 159.54984375 400.76256836 158.8671875 401.36669922 C156.43782229 403.49175849 153.94785495 405.53404354 151.4375 407.5625 C147.22801481 410.97136988 143.10239029 414.46399068 139 418 C134.01063907 422.29977994 128.95778656 426.50485562 123.84375 430.65625 C120.52313514 433.39302049 117.25953218 436.1910295 114 439 C109.01335954 443.29734242 103.96417315 447.50103948 98.8515625 451.6484375 C94.8703662 454.93156103 90.96195577 458.29795605 87.0793457 461.69702148 C83.74838921 464.5924377 80.37191417 467.11989156 76.6875 469.5625 C74.16571807 471.47812884 73.15815693 472.34432956 72.41015625 475.4453125 C72.30144556 477.30665165 72.23516196 479.17085743 72.20703125 481.03515625 C71.61725575 489.48118652 67.06543049 497.01618485 61.3203125 503.0234375 C51.41455908 511.46167189 41.52358601 512.73724231 29.00390625 512.18798828 C24.8027443 511.79387343 21.51715116 510.22624074 18 508 C16.96875 507.4225 15.9375 506.845 14.875 506.25 C7.61408457 500.56754445 2.90326679 493.70980037 0 485 C-0.78049169 470.66596989 0.66316288 460.4484154 10.5234375 449.2734375 C15.80715879 444.24745871 23.47114454 440.11868725 30.83203125 439.92578125 C31.73308594 439.95027344 32.63414063 439.97476562 33.5625 440 C37.55804642 439.80453442 38.79381684 439.18702328 41.81640625 436.4453125 C44.2770524 433.65649485 46.51947782 430.71269149 48.72412109 427.71923828 C50.54581155 425.26452259 52.48951771 422.91762813 54.4375 420.5625 C55.15808594 419.67691406 55.87867188 418.79132813 56.62109375 417.87890625 C59.87921817 413.9359872 63.21947055 410.0661729 66.55834961 406.19165039 C69.58945289 402.66701081 72.56985316 399.10960118 75.5 395.5 C79.4337857 390.65403211 83.48447759 385.91901472 87.55859375 381.19140625 C90.58958284 377.66682097 93.56992581 374.10951168 96.5 370.5 C99.93210511 366.27204443 103.44621669 362.12535524 107 358 C109.00228616 355.66861892 111.00215032 353.33518381 113 351 C113.46067871 350.46213867 113.92135742 349.92427734 114.39599609 349.37011719 C115.66765152 347.8783765 116.92788711 346.37692316 118.1875 344.875 C118.90292969 344.02679688 119.61835937 343.17859375 120.35546875 342.3046875 C122.49699834 339.41680361 122.49699834 339.41680361 123 336 C121.23911349 333.82767336 119.54106587 332.03188465 117.515625 330.1328125 C116.65852936 329.2970015 116.65852936 329.2970015 115.78411865 328.44430542 C113.95083255 326.6589449 112.10197121 324.89095595 110.25 323.125 C108.41398775 321.36464494 106.58194048 319.60073032 104.75872803 317.82711792 C103.62354585 316.7237148 102.48083775 315.62798519 101.32965088 314.54129028 C97.33488732 310.6713967 94.41507423 306.89738092 93.6015625 301.21875 C93.65674278 294.81783808 93.93097057 290.14316058 98.6171875 285.34375 C103.07719981 281.28571305 106.32055634 279.87746197 112.375 279.75 C113.10460937 279.72421875 113.83421875 279.6984375 114.5859375 279.671875 C128.09794651 281.50845875 140.96236836 299.86006149 150 309 C155.8996797 302.14695 161.67605479 295.24637048 167.14013672 288.03857422 C171.00789095 282.94651698 175.0163057 277.97213693 179.06616211 273.02392578 C179.54964111 272.42692871 180.03312012 271.82993164 180.53125 271.21484375 C180.95986328 270.69011475 181.38847656 270.16538574 181.83007812 269.62475586 C183.11933463 267.83427129 184.06267613 265.99397795 185 264 C176.48948763 257.02990129 167.9468354 250.12935708 159.203125 243.453125 C151.5639524 237.61803744 144.03311069 231.64132115 136.54272461 225.61694336 C130.61122365 220.84692067 124.62583684 216.16398558 118.5625 211.5625 C112.27538217 206.79001572 106.12158029 201.88171826 100.01977539 196.87524414 C95.25487651 192.98083875 90.40462837 189.21645701 85.5 185.5 C79.13964379 180.68029249 72.91338906 175.72323168 66.74047852 170.66625977 C62.68974809 167.35412406 58.598721 164.10959928 54.4375 160.9375 C49.82130053 157.41715108 45.27062933 153.82954508 40.75 150.1875 C27.70957137 139.44083087 27.70957137 139.44083087 13.94470501 129.69062901 C11.56789075 127.62434589 11.40906283 126.69249527 11.10810852 123.60643005 C11.01149933 122.70802902 10.91489014 121.80962799 10.81535339 120.88400269 C10.72844742 119.9006192 10.64154144 118.91723572 10.55200195 117.90405273 C10.44573486 116.86629196 10.33946777 115.82853119 10.22998047 114.75932312 C9.88205103 111.31889729 9.56013634 107.87654869 9.23828125 104.43359375 C9.00136555 102.04029268 8.76283286 99.64715117 8.52275085 97.25416565 C7.89382938 90.94167674 7.2868888 84.62725856 6.68444824 78.31219482 C6.07030854 71.91451996 5.43572377 65.5188793 4.80273438 59.12304688 C3.78072155 48.77157544 2.77136686 38.41896366 1.77806091 28.06469727 C1.68991119 27.14655746 1.60176147 26.22841766 1.51094055 25.28245544 C1.42686762 24.40611891 1.34279469 23.52978237 1.25617409 22.62689018 C0.91416526 19.11982338 0.55435959 15.61462947 0.19102764 12.10971165 C-0.17470361 8.07057119 -0.05784417 4.04909159 0 0 Z " fill="#8FB9E0" transform="translate(0,0)"/>
<path d="M0 0 C7.10647238 -0.13817711 14.03952396 0.26359602 21.10595703 0.99389648 C22.16745972 1.09957947 23.2289624 1.20526245 24.32263184 1.31414795 C27.80152049 1.66171608 31.27965263 2.01631303 34.7578125 2.37109375 C37.19054156 2.61572606 39.62331206 2.85994663 42.05612183 3.10377502 C48.44192241 3.74502985 54.82708982 4.39239443 61.2121582 5.04089355 C66.41927363 5.56868784 71.62682929 6.09205748 76.83441353 6.6152029 C83.05903509 7.24062796 89.28344904 7.8681058 95.5078125 8.49609375 C97.28013433 8.67479917 97.28013433 8.67479917 99.08826065 8.85711479 C102.44323011 9.19588147 105.79805472 9.5360453 109.15283203 9.87670898 C110.13694061 9.97597183 111.12104919 10.07523468 112.13497925 10.17750549 C113.93821829 10.36119316 115.74105201 10.54892602 117.54335403 10.7415905 C119.14666348 10.9102393 120.75144444 11.06558266 122.35749435 11.20575142 C127.71570857 11.73033173 127.71570857 11.73033173 130.58203125 14.44921875 C131.31808594 15.51785156 132.05414063 16.58648438 132.8125 17.6875 C133.66404714 18.88245035 134.51695917 20.076429 135.37109375 21.26953125 C135.80276855 21.88779785 136.23444336 22.50606445 136.67919922 23.14306641 C138.807674 26.13552096 141.09134904 29.00032007 143.375 31.875 C144.30208769 33.05338199 145.22917097 34.23176744 146.15625 35.41015625 C148.54934667 38.43871263 150.96394625 41.44948415 153.38305664 44.45727539 C158.15307933 50.38877635 162.83601442 56.37416316 167.4375 62.4375 C172.20998428 68.72461783 177.11828174 74.87841971 182.12475586 80.98022461 C186.01916125 85.74512349 189.78354299 90.59537163 193.5 95.5 C198.31970751 101.86035621 203.27676832 108.08661094 208.33374023 114.25952148 C211.64587594 118.31025191 214.89040072 122.401279 218.0625 126.5625 C221.582849 131.17869957 225.17046523 135.72936275 228.8125 140.25 C233.22497161 145.73266062 237.54523878 151.27860193 241.8125 156.875 C242.35986816 157.59196045 242.90723633 158.3089209 243.47119141 159.04760742 C245.75979186 162.04864395 248.04081807 165.05444715 250.3046875 168.07421875 C250.92601562 168.89535156 251.54734375 169.71648437 252.1875 170.5625 C252.95126953 171.58537109 252.95126953 171.58537109 253.73046875 172.62890625 C254.35888672 173.30759766 254.35888672 173.30759766 255 174 C255.66 174 256.32 174 257 174 C258.29833417 172.651491 258.29833417 172.651491 259.58203125 170.84375 C260.09507812 170.15925781 260.608125 169.47476563 261.13671875 168.76953125 C261.68972656 168.02058594 262.24273437 167.27164063 262.8125 166.5 C267.26360106 160.56851042 271.78773062 154.72630203 276.5 149 C280.94697874 143.58198045 285.26679232 138.08658702 289.5 132.5 C294.31970751 126.13964379 299.27676832 119.91338906 304.33374023 113.74047852 C307.64587594 109.68974809 310.89040072 105.598721 314.0625 101.4375 C317.58284562 96.82130486 321.17033813 92.27053089 324.8125 87.75 C329.10672005 82.41710081 333.29925961 77.01719909 337.4375 71.5625 C342.20987405 65.27530136 347.11828515 59.12157614 352.12475586 53.01977539 C356.57812503 47.57097084 360.85130524 41.99855848 365.09863281 36.38842773 C369.58606288 30.48416605 374.2326016 24.72079244 378.95117188 19 C381.74848901 15.68489321 381.74848901 15.68489321 384 12 C385.78179073 11.58490658 385.78179073 11.58490658 388.15306091 11.34861755 C389.49653847 11.20782776 389.49653847 11.20782776 390.86715698 11.06419373 C391.85773102 10.9700972 392.84830505 10.87600067 393.86889648 10.77905273 C395.42509956 10.62009018 395.42509956 10.62009018 397.01274109 10.45791626 C400.46469164 10.10756272 403.91781412 9.7705741 407.37109375 9.43359375 C409.76717704 9.19304158 412.1631774 8.95166207 414.55909729 8.70948792 C420.88875036 8.0719625 427.21947255 7.44572945 433.55047607 6.82177734 C439.96075773 6.18804674 446.36998085 5.54380077 452.77929688 4.90039062 C464.97436017 3.67772553 477.17030355 2.46411284 489.36739922 1.26188469 C491.17692869 1.08187712 492.98616746 0.89893073 494.79515266 0.7135334 C496.13001119 0.5770857 496.13001119 0.5770857 497.49183655 0.43788147 C498.28369386 0.35605149 499.07555117 0.27422152 499.89140415 0.18991184 C503.9302735 -0.17385114 507.95130993 -0.05783843 512 0 C512.13817711 7.10647238 511.73640398 14.03952396 511.00610352 21.10595703 C510.90042053 22.16745972 510.79473755 23.2289624 510.68585205 24.32263184 C510.33828392 27.80152049 509.98368697 31.27965263 509.62890625 34.7578125 C509.38427394 37.19054156 509.14005337 39.62331206 508.89622498 42.05612183 C508.25497015 48.44192241 507.60760557 54.82708982 506.95910645 61.2121582 C506.43131216 66.41927363 505.90794252 71.62682929 505.3847971 76.83441353 C504.75937204 83.05903509 504.1318942 89.28344904 503.50390625 95.5078125 C503.38476931 96.68936039 503.26563236 97.87090828 503.14288521 99.08826065 C502.80411853 102.44323011 502.4639547 105.79805472 502.12329102 109.15283203 C502.02402817 110.13694061 501.92476532 111.12104919 501.82249451 112.13497925 C501.63880684 113.93821829 501.45107398 115.74105201 501.2584095 117.54335403 C501.0897607 119.14666348 500.93441734 120.75144444 500.79424858 122.35749435 C500.26966827 127.71570857 500.26966827 127.71570857 497.55078125 130.58203125 C496.48214844 131.31808594 495.41351563 132.05414063 494.3125 132.8125 C493.11754965 133.66404714 491.923571 134.51695917 490.73046875 135.37109375 C490.11220215 135.80276855 489.49393555 136.23444336 488.85693359 136.67919922 C485.86447904 138.807674 482.99967993 141.09134904 480.125 143.375 C478.94661801 144.30208769 477.76823256 145.22917097 476.58984375 146.15625 C473.56128737 148.54934667 470.55051585 150.96394625 467.54272461 153.38305664 C461.61122365 158.15307933 455.62583684 162.83601442 449.5625 167.4375 C443.27538217 172.20998428 437.12158029 177.11828174 431.01977539 182.12475586 C426.25487651 186.01916125 421.40462837 189.78354299 416.5 193.5 C410.13964379 198.31970751 403.91338906 203.27676832 397.74047852 208.33374023 C393.68974809 211.64587594 389.598721 214.89040072 385.4375 218.0625 C380.82130486 221.58284562 376.27053089 225.17033813 371.75 228.8125 C366.41709005 233.1067287 361.01694652 237.29891459 355.5625 241.4375 C349.69953915 245.89310795 343.90851539 250.42581277 338.1875 255.0625 C337.52371338 255.59866943 336.85992676 256.13483887 336.17602539 256.68725586 C332.94908691 259.31842611 329.87654533 261.97854055 327 265 C327.66644531 265.84820312 328.33289063 266.69640625 329.01953125 267.5703125 C329.459021 268.12968506 329.89851074 268.68905762 330.35131836 269.26538086 C331.34032749 270.52407468 332.32942509 271.78269899 333.31860352 273.04125977 C335.80035691 276.19910804 338.28105126 279.35776554 340.7578125 282.51953125 C341.65100868 283.65888003 342.54423769 284.79820307 343.4375 285.9375 C343.88053467 286.50331787 344.32356934 287.06913574 344.7800293 287.65209961 C347.27023115 290.82489034 349.78380066 293.97660863 352.32421875 297.109375 C352.874729 297.79008057 353.42523926 298.47078613 353.99243164 299.17211914 C355.05952094 300.48942469 356.13017969 301.80384889 357.20483398 303.11499023 C359.31936013 305.72763464 360.9277267 307.78318011 362 311 C353.75 319.25 345.5 327.5 337 336 C333.65170424 334.32585212 332.05120967 333.30502002 329.5131073 330.78726196 C328.84144531 330.1255751 328.16978333 329.46388824 327.47776794 328.78215027 C326.75186966 328.05691666 326.02597137 327.33168304 325.27807617 326.58447266 C324.5053537 325.8200737 323.73263123 325.05567474 322.93649292 324.26811218 C320.38316592 321.73888886 317.8375713 319.20206136 315.29296875 316.6640625 C313.52516879 314.90522529 311.75728953 313.1464678 309.98933411 311.38778687 C306.2861095 307.70105353 302.58730334 304.00994708 298.89086914 300.31640625 C294.6150252 296.0442048 290.32620486 291.7853372 286.03133219 287.53227389 C281.90060869 283.44036154 277.78367438 279.33480264 273.67174721 275.22401047 C271.91946021 273.47594324 270.1630313 271.7320181 268.4024868 269.99226761 C265.94805852 267.56454464 263.50976115 265.12169217 261.07495117 262.67431641 C259.97092201 261.59253868 259.97092201 261.59253868 258.84458923 260.48890686 C257.85824493 259.4879171 257.85824493 259.4879171 256.85197449 258.46670532 C256.2736748 257.89041697 255.69537512 257.31412861 255.0995512 256.72037697 C254 255 254 255 254.29050159 252.98645592 C254.52463607 252.33092546 254.75877054 251.67539501 255 251 C255.49886321 247.75738916 255.82947236 245.24542938 253.93995285 242.40836906 C247.28571509 235.05091814 240.22611661 228.08609755 233.20800781 221.07861328 C231.704266 219.57351495 230.20073669 218.06820429 228.69740295 216.56269836 C224.63189633 212.4926492 220.56325273 208.42574975 216.49388599 204.35956049 C212.23235933 200.10057153 207.97327973 195.83913657 203.71380615 191.57809448 C196.56702363 184.42949538 189.41814099 177.28300157 182.26806641 170.13769531 C173.9971656 161.87224655 165.72988746 153.60318744 157.46446157 145.33226407 C150.36468535 138.22795457 143.26296818 131.12558974 136.15961528 124.02485645 C131.91810946 119.78491088 127.6772852 115.54428956 123.43820953 111.30191422 C119.45795694 107.31877946 115.47527848 103.33808653 111.49069023 99.35928917 C110.02686943 97.89679366 108.56390456 96.43344088 107.10184669 94.96918297 C105.1109059 92.97552193 103.11693047 90.9849471 101.12213135 88.99514771 C100.54032962 88.41111526 99.95852789 87.82708281 99.35909581 87.22535241 C94.98676113 82.57596315 94.98676113 82.57596315 89.125 80.8125 C86.07953835 80.848367 86.07953835 80.848367 83.671875 81.8359375 C81 82 81 82 78.0703125 79.83203125 C77.0727842 78.84113545 76.09135534 77.83382 75.125 76.8125 C74.61453125 76.31685547 74.1040625 75.82121094 73.578125 75.31054688 C72.1328125 73.83203125 72.1328125 73.83203125 70 71 C70.1484375 68.83984375 70.1484375 68.83984375 71 67 C71.51118304 63.67731024 71.74419265 61.20863405 69.9296875 58.26171875 C68.05195485 56.05844953 66.05592077 54.03973242 64 52 C62.82849983 50.80559627 61.65801082 49.61020031 60.48828125 48.4140625 C58.00569268 45.89267346 55.51909149 43.37566903 53.01171875 40.87890625 C52.21447388 40.08335327 52.21447388 40.08335327 51.40112305 39.27172852 C48.19389215 36.36068726 45.17466087 36.85604618 41 37 C40.34465271 37.23496185 39.68930542 37.46992371 39.01409912 37.71200562 C37 38 37 38 35.11431885 36.72232056 C34.46590027 36.06581512 33.81748169 35.40930969 33.14941406 34.73291016 C32.40894836 33.99529449 31.66848267 33.25767883 30.90557861 32.49771118 C30.11689392 31.68635712 29.32820923 30.87500305 28.515625 30.0390625 C27.70003113 29.21876556 26.88443726 28.39846863 26.04412842 27.55331421 C23.4342164 24.92199 20.84243561 22.27353233 18.25 19.625 C16.48676882 17.84527189 14.72245916 16.06661155 12.95703125 14.2890625 C9.7427892 11.04077406 6.5288652 7.79226501 3.33300781 4.52587891 C2.68777161 3.86778229 2.0425354 3.20968567 1.37774658 2.53164673 C0 1 0 1 0 0 Z " fill="#AFD2EF" transform="translate(0,0)"/>
<path d="M0 0 C0.10983171 6.74171346 -0.30362731 13.28884219 -0.99389648 19.99243164 C-1.09957947 21.0537883 -1.20526245 22.11514496 -1.31414795 23.20866394 C-1.66218501 26.69293888 -2.0165572 30.17653716 -2.37109375 33.66015625 C-2.61568243 36.09431896 -2.85990383 38.5285186 -3.10377502 40.9627533 C-3.61475796 46.05430092 -4.12859863 51.1455486 -4.64477539 56.23657227 C-5.30532058 62.75154274 -5.96117859 69.26697334 -6.6152029 75.78260136 C-7.24070014 82.01276746 -7.86820118 88.24273116 -8.49609375 94.47265625 C-8.61523069 95.65571917 -8.73436764 96.83878208 -8.85711479 98.05769539 C-9.19589887 101.4175616 -9.53606482 104.77728482 -9.87670898 108.13696289 C-9.97597183 109.12264252 -10.07523468 110.10832214 -10.17750549 111.12387085 C-10.36118554 112.92986102 -10.54891747 114.73544584 -10.7415905 116.54049873 C-10.91017856 118.1450936 -11.06552983 119.75115066 -11.20575142 121.35847282 C-11.7302213 126.71559215 -11.7302213 126.71559215 -14.44921875 129.58203125 C-15.51785156 130.31808594 -16.58648437 131.05414063 -17.6875 131.8125 C-18.88245035 132.66404714 -20.076429 133.51695917 -21.26953125 134.37109375 C-21.88779785 134.80276855 -22.50606445 135.23444336 -23.14306641 135.67919922 C-26.13552096 137.807674 -29.00032007 140.09134904 -31.875 142.375 C-33.05338199 143.30208769 -34.23176744 144.22917097 -35.41015625 145.15625 C-38.43871263 147.54934667 -41.44948415 149.96394625 -44.45727539 152.38305664 C-50.38877635 157.15307933 -56.37416316 161.83601442 -62.4375 166.4375 C-68.72461783 171.20998428 -74.87841971 176.11828174 -80.98022461 181.12475586 C-85.74512349 185.01916125 -90.59537163 188.78354299 -95.5 192.5 C-101.86035621 197.31970751 -108.08661094 202.27676832 -114.25952148 207.33374023 C-118.31025191 210.64587594 -122.401279 213.89040072 -126.5625 217.0625 C-131.17869514 220.58284562 -135.72946911 224.17033813 -140.25 227.8125 C-145.58289797 232.10671906 -150.98275969 236.29931387 -156.4375 240.4375 C-163.65405871 245.9143304 -170.70398317 251.57387255 -177.70703125 257.3203125 C-180.09457146 259.27625632 -182.50691359 261.17885376 -185 263 C-189.46039864 261.43938771 -191.787693 257.85378003 -194.5625 254.25 C-195.0877124 253.5804126 -195.6129248 252.9108252 -196.15405273 252.22094727 C-197.24387245 250.83026209 -198.33051895 249.43708467 -199.4140625 248.04150391 C-200.88309027 246.15049249 -202.36086832 244.26687526 -203.84375 242.38671875 C-205.65078994 240.09528768 -207.45442037 237.80127489 -209.25390625 235.50390625 C-211.17532106 233.05096245 -213.10007729 230.6006928 -215.02734375 228.15234375 C-215.77359009 227.20403687 -215.77359009 227.20403687 -216.53491211 226.23657227 C-217.4846585 225.02980403 -218.43467437 223.82324781 -219.38500977 222.61694336 C-221.62458006 219.76951969 -223.84229963 216.91005642 -226 214 C-224.42019505 210.13334384 -221.80095502 207.52333174 -218.88233948 204.63510132 C-218.35596907 204.1063165 -217.82959866 203.57753167 -217.28727764 203.03272307 C-215.52249689 201.26230714 -213.75065892 199.49912925 -211.97875977 197.73583984 C-210.71198997 196.46799712 -209.44565324 195.19972157 -208.17971802 193.93104553 C-204.74010154 190.48657942 -201.29426342 187.0483997 -197.8471539 183.61143446 C-194.2431226 180.01618139 -190.644359 176.41566266 -187.04490662 172.81582642 C-180.99973211 166.77158864 -174.95069586 160.7312377 -168.89916992 154.69335938 C-161.89875097 147.70866955 -154.90357589 140.71876332 -147.91138417 133.72583807 C-141.18943565 127.00327956 -134.46463535 120.28358181 -127.73823357 113.56547928 C-124.87348184 110.70426161 -122.00958405 107.84219319 -119.14633369 104.97947311 C-115.77608421 101.61022692 -112.40330017 98.24353842 -109.02852249 94.87882805 C-107.78885802 93.6420885 -106.55004195 92.40449789 -105.31212807 91.16600609 C-103.62526736 89.47865586 -101.93537289 87.79440454 -100.24464417 86.1109314 C-99.7528146 85.61755323 -99.26098503 85.12417506 -98.75425154 84.61584604 C-96.58527481 82.46227072 -94.55706878 80.70471252 -92 79 C-90.30142618 79.27131961 -88.61375993 79.61409843 -86.9375 80 C-82.89213292 80.4914932 -81.44923052 80.30321588 -78.01953125 77.98828125 C-75.36704055 75.42557867 -73.01554995 73.09266724 -71 70 C-71.09565892 67.86160134 -71.09565892 67.86160134 -72 66 C-72.50661998 62.70697015 -72.74771256 60.23019878 -70.96484375 57.296875 C-69.07896128 55.07818974 -67.06798503 53.05212625 -65 51 C-63.75433247 49.73132814 -62.50962676 48.46171153 -61.265625 47.19140625 C-58.59690503 44.4837574 -55.92402061 41.78062105 -53.23046875 39.09765625 C-52.37038208 38.23926147 -52.37038208 38.23926147 -51.49291992 37.36352539 C-50 36 -50 36 -48 35 C-46.14068525 35.1269874 -44.28230204 35.2677804 -42.42456055 35.41601562 C-37.6176094 35.44360137 -35.09230777 34.95376922 -31.44067383 31.78710938 C-29.99837065 30.33624657 -28.58805407 28.85306021 -27.20703125 27.34375 C-26.44952072 26.56688843 -25.69201019 25.79002686 -24.9115448 24.98962402 C-22.51525778 22.51996973 -20.16405462 20.01221086 -17.8125 17.5 C-16.19234523 15.81102306 -14.56932316 14.12479163 -12.94335938 12.44140625 C-10.66546854 10.08269567 -8.39284401 7.72066436 -6.14179993 5.33630371 C-5.1489222 4.28521423 -5.1489222 4.28521423 -4.13598633 3.21289062 C-3.26095207 2.28023376 -3.26095207 2.28023376 -2.36824036 1.32873535 C-1 0 -1 0 0 0 Z " fill="#8FB9E0" transform="translate(512,1)"/>
<path d="M0 0 C4.90438132 2.86860039 8.49863147 6.49589442 10.3125 11.9375 C10.48198727 13.68238531 10.57849563 15.43501946 10.625 17.1875 C10.68107422 18.55648438 10.68107422 18.55648438 10.73828125 19.953125 C9.76498461 26.77513083 5.23535326 31.41549824 0.41796875 35.94921875 C-0.71312107 37.04728872 -1.84397378 38.14560297 -2.97460938 39.24414062 C-4.74606436 40.94692116 -6.52141102 42.64537225 -8.30151367 44.33911133 C-10.03069905 45.99013876 -11.74441126 47.6560398 -13.45703125 49.32421875 C-13.9964888 49.82845871 -14.53594635 50.33269867 -15.0917511 50.85221863 C-16.75656145 52.42523713 -16.75656145 52.42523713 -18.6875 54.9375 C-18.67401755 58.13976405 -17.14795925 59.89777345 -15.0625 62.22265625 C-14.5255249 62.82988525 -13.9885498 63.43711426 -13.43530273 64.06274414 C-12.85852783 64.70203857 -12.28175293 65.34133301 -11.6875 66 C-10.48968673 67.3531065 -9.29307654 68.70727893 -8.09765625 70.0625 C-7.51129395 70.72507812 -6.92493164 71.38765625 -6.32080078 72.0703125 C-4.19574151 74.49967771 -2.15345646 76.98964505 -0.125 79.5 C3.28386988 83.70948519 6.77649068 87.83510971 10.3125 91.9375 C14.61227994 96.92686093 18.81735562 101.97971344 22.96875 107.09375 C25.70552049 110.41436486 28.5035295 113.67796782 31.3125 116.9375 C35.60984242 121.92414046 39.81353948 126.97332685 43.9609375 132.0859375 C47.24406103 136.0671338 50.61045605 139.97554423 54.00952148 143.8581543 C56.9049377 147.18911079 59.43239156 150.56558583 61.875 154.25 C63.79062884 156.77178193 64.65682956 157.77934307 67.7578125 158.52734375 C69.61915165 158.63605444 71.48335743 158.70233804 73.34765625 158.73046875 C81.79368652 159.32024425 89.32868485 163.87206951 95.3359375 169.6171875 C103.77417189 179.52294092 105.04974231 189.41391399 104.50048828 201.93359375 C104.10637343 206.1347557 102.53874074 209.42034884 100.3125 212.9375 C99.735 213.96875 99.1575 215 98.5625 216.0625 C92.88004445 223.32341543 86.02230037 228.03423321 77.3125 230.9375 C62.97846989 231.71799169 52.7609154 230.27433712 41.5859375 220.4140625 C36.55995871 215.13034121 32.43118725 207.46635546 32.23828125 200.10546875 C32.26277344 199.20441406 32.28726563 198.30335938 32.3125 197.375 C32.11703442 193.37945358 31.49952328 192.14368316 28.7578125 189.12109375 C25.96899485 186.6604476 23.02519149 184.41802218 20.03173828 182.21337891 C17.57702259 180.39168845 15.23012813 178.44798229 12.875 176.5 C11.54662109 175.41912109 11.54662109 175.41912109 10.19140625 174.31640625 C6.2484872 171.05828183 2.3786729 167.71802945 -1.49584961 164.37915039 C-5.02048919 161.34804711 -8.57789882 158.36764684 -12.1875 155.4375 C-17.03346789 151.5037143 -21.76848528 147.45302241 -26.49609375 143.37890625 C-30.02067903 140.34791716 -33.57798832 137.36757419 -37.1875 134.4375 C-41.41545557 131.00539489 -45.56214476 127.49128331 -49.6875 123.9375 C-52.01888108 121.93521384 -54.35231619 119.93534968 -56.6875 117.9375 C-57.22536133 117.47682129 -57.76322266 117.01614258 -58.31738281 116.54150391 C-59.8091235 115.26984848 -61.31057684 114.00961289 -62.8125 112.75 C-63.66070312 112.03457031 -64.50890625 111.31914062 -65.3828125 110.58203125 C-68.27069639 108.44050166 -68.27069639 108.44050166 -71.6875 107.9375 C-73.85982664 109.69838651 -75.65561535 111.39643413 -77.5546875 113.421875 C-78.11189484 113.99327209 -78.66910217 114.56466919 -79.24319458 115.15338135 C-81.0285551 116.98666745 -82.79654405 118.83552879 -84.5625 120.6875 C-86.32285506 122.52351225 -88.08676968 124.35555952 -89.86038208 126.17877197 C-90.9637852 127.31395415 -92.05951481 128.45666225 -93.14620972 129.60784912 C-97.0161033 133.60261268 -100.79011908 136.52242577 -106.46875 137.3359375 C-112.86452385 137.28080152 -117.58829276 137.02939779 -122.34375 132.28515625 C-126.16420507 128.02318632 -127.83001727 124.95593809 -127.9375 119.125 C-127.96328125 118.29355469 -127.9890625 117.46210938 -128.015625 116.60546875 C-126.66387506 105.61445436 -114.51607445 96.68203781 -107.125 89.25 C-106.41714355 88.53739014 -105.70928711 87.82478027 -104.97998047 87.09057617 C-104.28404785 86.39681885 -103.58811523 85.70306152 -102.87109375 84.98828125 C-102.25806396 84.37637939 -101.64503418 83.76447754 -101.01342773 83.1340332 C-99.06878336 81.29757205 -97.08868304 79.55335653 -95.06103516 77.81103516 C-89.99413372 73.39973965 -85.27065603 68.66414646 -80.52734375 63.91015625 C-79.5692014 62.95268975 -78.61091084 61.99537155 -77.65248108 61.03819275 C-75.65658713 59.04376253 -73.66248548 57.04756259 -71.66967773 55.05004883 C-69.13608137 52.51075601 -66.59802017 49.97598097 -64.05858517 47.44252872 C-62.08259297 45.47017816 -60.10902321 43.49541737 -58.13614082 41.51995659 C-56.75339401 40.13623372 -55.3686607 38.75449686 -53.98387146 37.37281799 C-49.54963808 32.9222284 -45.26076227 28.41240634 -41.16603088 23.64732361 C-37.85698723 19.82063251 -34.25095814 16.27487397 -30.6875 12.6875 C-29.53507812 11.50414062 -29.53507812 11.50414062 -28.359375 10.296875 C-24.06428063 5.9725623 -20.15715151 2.64441937 -14.6875 -0.0625 C-10.14026111 -2.33611945 -4.70447535 -1.3555268 0 0 Z " fill="#59474D" transform="translate(407.6875,281.0625)"/>
<path d="M0 0 C1.09441406 -0.03867187 1.09441406 -0.03867187 2.2109375 -0.078125 C13.04805621 1.39488143 21.96332298 13.50382963 29.3125 20.8125 C30.02510986 21.52035645 30.73771973 22.22821289 31.47192383 22.95751953 C32.16568115 23.65345215 32.85943848 24.34938477 33.57421875 25.06640625 C34.49207153 25.98595093 34.49207153 25.98595093 35.4284668 26.92407227 C37.26492795 28.86871664 39.00914347 30.84881696 40.75146484 32.87646484 C45.16276035 37.94336628 49.89835354 42.66684397 54.65234375 47.41015625 C55.60981025 48.3682986 56.56712845 49.32658916 57.52430725 50.28501892 C59.51873747 52.28091287 61.51493741 54.27501452 63.51245117 56.26782227 C66.05174399 58.80141863 68.58651903 61.33947983 71.11997128 63.87891483 C73.09232184 65.85490703 75.06708263 67.82847679 77.04254341 69.80135918 C78.42626628 71.18410599 79.80800314 72.5688393 81.18968201 73.95362854 C85.64008364 78.38767464 90.15029364 82.67475671 94.91517639 86.76924133 C98.75041005 90.09066902 102.28789437 93.72838363 105.875 97.3125 C107.05835938 98.47749023 107.05835938 98.47749023 108.265625 99.66601562 C119.67329318 111.04477924 119.67329318 111.04477924 119.9375 120 C119.86014175 125.90501286 118.37976728 129.48084752 114.12890625 133.75390625 C109.98305676 137.3828169 106.7773154 138.41914247 101.375 138.5625 C100.46234375 138.59988281 99.5496875 138.63726562 98.609375 138.67578125 C91.78736917 137.70248461 87.14700176 133.17285326 82.61328125 128.35546875 C81.51521128 127.22437893 80.41689703 126.09352622 79.31835938 124.96289062 C77.61557884 123.19143564 75.91712775 121.41608898 74.22338867 119.63598633 C72.57236124 117.90680095 70.9064602 116.19308874 69.23828125 114.48046875 C68.73404129 113.9410112 68.22980133 113.40155365 67.71028137 112.8457489 C66.13726287 111.18093855 66.13726287 111.18093855 63.625 109.25 C60.42273595 109.26348245 58.66472655 110.78954075 56.33984375 112.875 C55.73261475 113.4119751 55.12538574 113.9489502 54.49975586 114.50219727 C53.86046143 115.07897217 53.22116699 115.65574707 52.5625 116.25 C51.2093935 117.44781327 49.85522107 118.64442346 48.5 119.83984375 C47.83742187 120.42620605 47.17484375 121.01256836 46.4921875 121.61669922 C44.06282229 123.74175849 41.57285495 125.78404354 39.0625 127.8125 C34.85301481 131.22136988 30.72739029 134.71399068 26.625 138.25 C21.63563907 142.54977994 16.58278656 146.75485562 11.46875 150.90625 C8.14813514 153.64302049 4.88453218 156.4410295 1.625 159.25 C-3.36164046 163.54734242 -8.41082685 167.75103948 -13.5234375 171.8984375 C-17.5046338 175.18156103 -21.41304423 178.54795605 -25.2956543 181.94702148 C-28.62661079 184.8424377 -32.00308583 187.36989156 -35.6875 189.8125 C-38.20928193 191.72812884 -39.21684307 192.59432956 -39.96484375 195.6953125 C-40.07355444 197.55665165 -40.13983804 199.42085743 -40.16796875 201.28515625 C-40.75774425 209.73118652 -45.30956951 217.26618485 -51.0546875 223.2734375 C-60.96044092 231.71167189 -70.85141399 232.98724231 -83.37109375 232.43798828 C-87.5722557 232.04387343 -90.85784884 230.47624074 -94.375 228.25 C-95.40625 227.6725 -96.4375 227.095 -97.5 226.5 C-104.76091543 220.81754445 -109.47173321 213.95980037 -112.375 205.25 C-113.15549169 190.91596989 -111.71183712 180.6984154 -101.8515625 169.5234375 C-96.56784121 164.49745871 -88.90385546 160.36868725 -81.54296875 160.17578125 C-80.64191406 160.20027344 -79.74085937 160.22476563 -78.8125 160.25 C-74.81695358 160.05453442 -73.58118316 159.43702328 -70.55859375 156.6953125 C-68.0979476 153.90649485 -65.85552218 150.96269149 -63.65087891 147.96923828 C-61.82918845 145.51452259 -59.88548229 143.16762813 -57.9375 140.8125 C-57.21691406 139.92691406 -56.49632812 139.04132813 -55.75390625 138.12890625 C-52.49578183 134.1859872 -49.15552945 130.3161729 -45.81665039 126.44165039 C-42.78554711 122.91701081 -39.80514684 119.35960118 -36.875 115.75 C-32.9412143 110.90403211 -28.89052241 106.16901472 -24.81640625 101.44140625 C-21.78541716 97.91682097 -18.80507419 94.35951168 -15.875 90.75 C-12.44289489 86.52204443 -8.92878331 82.37535524 -5.375 78.25 C-3.37271384 75.91861892 -1.37284968 73.58518381 0.625 71.25 C1.08567871 70.71213867 1.54635742 70.17427734 2.02099609 69.62011719 C3.29265152 68.1283765 4.55288711 66.62692316 5.8125 65.125 C6.52792969 64.27679688 7.24335937 63.42859375 7.98046875 62.5546875 C10.12199834 59.66680361 10.12199834 59.66680361 10.625 56.25 C8.86411349 54.07767336 7.16606587 52.28188465 5.140625 50.3828125 C4.56922791 49.82560516 3.99783081 49.26839783 3.40911865 48.69430542 C1.57583255 46.9089449 -0.27302879 45.14095595 -2.125 43.375 C-3.96101225 41.61464494 -5.79305952 39.85073032 -7.61627197 38.07711792 C-8.75145415 36.9737148 -9.89416225 35.87798519 -11.04534912 34.79129028 C-15.04011268 30.9213967 -17.95992577 27.14738092 -18.7734375 21.46875 C-18.71825722 15.06783808 -18.44402943 10.39316058 -13.7578125 5.59375 C-9.29780019 1.53571305 -6.05444366 0.12746197 0 0 Z " fill="#59474D" transform="translate(112.375,279.75)"/>
<path d="M0 0 C4.90438132 2.86860039 8.49863147 6.49589442 10.3125 11.9375 C10.48198727 13.68238531 10.57849563 15.43501946 10.625 17.1875 C10.68107422 18.55648438 10.68107422 18.55648438 10.73828125 19.953125 C9.77377255 26.71353463 5.21900336 31.47016231 0.515625 36.0625 C-0.03683899 36.61309082 -0.58930298 37.16368164 -1.1585083 37.73095703 C-2.32156241 38.88733093 -3.48818775 40.04012311 -4.65820312 41.18945312 C-6.42573286 42.92593952 -8.18247877 44.67275631 -9.9375 46.421875 C-11.07750823 47.55270545 -12.21811444 48.68293345 -13.359375 49.8125 C-14.13169464 50.57844482 -14.13169464 50.57844482 -14.9196167 51.35986328 C-17.6934499 54.08113547 -20.52941794 56.686506 -23.4753418 59.22094727 C-28.33721358 63.44017072 -32.86533641 67.9717696 -37.41015625 72.52734375 C-38.31446884 73.43069962 -39.21878143 74.33405548 -40.15049744 75.26478577 C-42.05184943 77.16546068 -43.95217553 79.06709608 -45.85083008 80.97045898 C-48.26335861 83.38868392 -50.68035081 85.80238958 -53.09871769 88.21477413 C-55.43414575 90.54568401 -57.76572177 92.88043956 -60.09765625 95.21484375 C-61.3838662 96.49801735 -61.3838662 96.49801735 -62.69606018 97.80711365 C-67.00944779 102.13719388 -71.16533067 106.53644503 -75.15107727 111.16978455 C-78.96886348 115.56229942 -83.14841001 119.62531872 -87.25 123.75 C-88.16974609 124.69037109 -89.08949219 125.63074219 -90.03710938 126.59960938 C-91.38192383 127.9521582 -91.38192383 127.9521582 -92.75390625 129.33203125 C-93.55771729 130.14518799 -94.36152832 130.95834473 -95.18969727 131.79614258 C-100.59572548 136.43071138 -105.1564202 137.44886941 -112.07421875 137.21484375 C-118.39165574 136.54438332 -121.60304139 133.30630086 -125.48828125 128.65625 C-127.63023138 125.58635405 -127.87049529 122.76000532 -127.9375 119.125 C-127.96328125 118.29355469 -127.9890625 117.46210938 -128.015625 116.60546875 C-126.66387506 105.61445436 -114.51607445 96.68203781 -107.125 89.25 C-106.41714355 88.53739014 -105.70928711 87.82478027 -104.97998047 87.09057617 C-104.28404785 86.39681885 -103.58811523 85.70306152 -102.87109375 84.98828125 C-102.25806396 84.37637939 -101.64503418 83.76447754 -101.01342773 83.1340332 C-99.06878336 81.29757205 -97.08868304 79.55335653 -95.06103516 77.81103516 C-89.99413372 73.39973965 -85.27065603 68.66414646 -80.52734375 63.91015625 C-79.5692014 62.95268975 -78.61091084 61.99537155 -77.65248108 61.03819275 C-75.65658713 59.04376253 -73.66248548 57.04756259 -71.66967773 55.05004883 C-69.13608137 52.51075601 -66.59802017 49.97598097 -64.05858517 47.44252872 C-62.08259297 45.47017816 -60.10902321 43.49541737 -58.13614082 41.51995659 C-56.75339401 40.13623372 -55.3686607 38.75449686 -53.98387146 37.37281799 C-49.54963808 32.9222284 -45.26076227 28.41240634 -41.16603088 23.64732361 C-37.85698723 19.82063251 -34.25095814 16.27487397 -30.6875 12.6875 C-29.53507812 11.50414062 -29.53507812 11.50414062 -28.359375 10.296875 C-24.06428063 5.9725623 -20.15715151 2.64441937 -14.6875 -0.0625 C-10.14026111 -2.33611945 -4.70447535 -1.3555268 0 0 Z " fill="#EFC319" transform="translate(407.6875,281.0625)"/>
<path d="M0 0 C0.72960937 -0.02578125 1.45921875 -0.0515625 2.2109375 -0.078125 C13.04805621 1.39488143 21.96332298 13.50382963 29.3125 20.8125 C30.38141479 21.87428467 30.38141479 21.87428467 31.47192383 22.95751953 C32.16568115 23.65345215 32.85943848 24.34938477 33.57421875 25.06640625 C34.18612061 25.67943604 34.79802246 26.29246582 35.4284668 26.92407227 C37.26492795 28.86871664 39.00914347 30.84881696 40.75146484 32.87646484 C45.16276035 37.94336628 49.89835354 42.66684397 54.65234375 47.41015625 C55.60981025 48.3682986 56.56712845 49.32658916 57.52430725 50.28501892 C59.51873747 52.28091287 61.51493741 54.27501452 63.51245117 56.26782227 C66.05174399 58.80141863 68.58651903 61.33947983 71.11997128 63.87891483 C73.09232184 65.85490703 75.06708263 67.82847679 77.04254341 69.80135918 C78.42626628 71.18410599 79.80800314 72.5688393 81.18968201 73.95362854 C85.64008364 78.38767464 90.15029364 82.67475671 94.91517639 86.76924133 C98.75041005 90.09066902 102.28789437 93.72838363 105.875 97.3125 C107.05835938 98.47749023 107.05835938 98.47749023 108.265625 99.66601562 C119.67329318 111.04477924 119.67329318 111.04477924 119.9375 120 C119.86014175 125.90501286 118.37976728 129.48084752 114.12890625 133.75390625 C109.98305676 137.3828169 106.7773154 138.41914247 101.375 138.5625 C100.46234375 138.59988281 99.5496875 138.63726562 98.609375 138.67578125 C91.84896537 137.71127255 87.09233769 133.15650336 82.5 128.453125 C81.94940918 127.90066101 81.39881836 127.34819702 80.83154297 126.7789917 C79.67516907 125.61593759 78.52237689 124.44931225 77.37304688 123.27929688 C75.63656048 121.51176714 73.88974369 119.75502123 72.140625 118 C71.00979455 116.85999177 69.87956655 115.71938556 68.75 114.578125 C68.23937012 114.06324524 67.72874023 113.54836548 67.20263672 113.0178833 C64.48136453 110.2440501 61.875994 107.40808206 59.34155273 104.4621582 C55.12232928 99.60028642 50.5907304 95.07216359 46.03515625 90.52734375 C45.13180038 89.62303116 44.22844452 88.71871857 43.29771423 87.78700256 C41.39703932 85.88565057 39.49540392 83.98532447 37.59204102 82.08666992 C35.17381608 79.67414139 32.76011042 77.25714919 30.34772587 74.83878231 C28.01681599 72.50335425 25.68206044 70.17177823 23.34765625 67.83984375 C22.06448265 66.5536338 22.06448265 66.5536338 20.75538635 65.24143982 C16.42530612 60.92805221 12.02605497 56.77216933 7.39271545 52.78642273 C3.00020058 48.96863652 -1.06281872 44.78908999 -5.1875 40.6875 C-6.12787109 39.76775391 -7.06824219 38.84800781 -8.03710938 37.90039062 C-8.93880859 37.00384766 -9.84050781 36.10730469 -10.76953125 35.18359375 C-11.98926636 33.9778772 -11.98926636 33.9778772 -13.23364258 32.74780273 C-17.86821138 27.34177452 -18.88636941 22.7810798 -18.65234375 15.86328125 C-17.98664204 9.59068347 -14.77341537 6.35468961 -10.19140625 2.44921875 C-6.98572075 0.33277693 -3.77610343 0.07949691 0 0 Z " fill="#EFC319" transform="translate(112.375,279.75)"/>
<path d="M0 0 C3.87114278 0.34327421 4.88475695 1.17283332 7.64143276 3.84533787 C8.94096543 5.08903991 8.94096543 5.08903991 10.26675129 6.35786724 C11.25022479 7.33258696 12.23264916 8.30836599 13.21420193 9.28501987 C14.32726152 10.37504347 15.44076359 11.46461537 16.55464268 12.55380154 C20.52128428 16.45057985 24.44966734 20.38510914 28.37850857 24.31993198 C29.8855248 25.82559094 31.39275319 27.33103756 32.90017605 28.83628941 C36.96590244 32.89748346 41.02849159 36.96180197 45.09036088 41.02685332 C49.34713479 45.28616887 53.60635911 49.54303295 57.86518764 53.80029392 C65.00602933 60.93932076 72.14476943 68.080444 79.28231716 75.22276402 C87.54100813 83.48691298 95.80331789 91.74743084 104.06748396 100.00610441 C111.16841989 107.10250956 118.26741437 114.20085246 125.36477464 121.30083376 C129.60186373 125.53948367 133.83962999 129.7774506 138.07914829 134.01367092 C142.0565593 137.98820318 146.03153505 141.9651547 150.0046072 145.94402409 C151.4659111 147.40665485 152.92807517 148.86842678 154.39114094 150.32929516 C156.38066249 152.31610278 158.36710788 154.30593459 160.35276699 156.2966013 C160.93834804 156.87995162 161.52392909 157.46330195 162.12725502 158.06432956 C167.07258213 163.03404503 167.07258213 163.03404503 167.58920193 167.59751987 C167.21420193 171.28501987 167.21420193 171.28501987 165.15170193 174.22251987 C162.21420193 176.28501987 162.21420193 176.28501987 158.90170193 177.03501987 C148.73396817 174.96700623 139.36959247 161.58060151 132.20101833 154.40123081 C130.68606792 152.8876369 129.17090518 151.37425549 127.65554714 149.86106968 C123.55863922 145.76870454 119.46488127 141.6732021 115.37183332 137.57697678 C111.0848171 133.28742295 106.79535499 129.00031606 102.50628567 124.71281528 C95.3106081 117.51895434 88.1170359 110.32299317 80.92465115 103.12584019 C72.6046708 94.80040785 64.28108014 86.47859805 55.95562518 78.15864062 C48.80460696 71.01215565 41.65553336 63.86372975 34.50809133 56.71366811 C30.2402001 52.44421661 25.97163305 48.1754467 21.70131207 43.90842533 C17.69191253 39.90190791 13.68495468 35.89296465 9.67989254 31.88211155 C8.2077217 30.40861539 6.73469355 28.93597522 5.26076031 27.46424198 C3.25396219 25.46016401 1.25024997 23.45305141 -0.7526865 21.44511509 C-1.3406099 20.85942241 -1.92853329 20.27372974 -2.53427255 19.6702888 C-8.5875967 13.58748605 -8.5875967 13.58748605 -9.22329807 9.41001987 C-8.64461369 5.27656002 -6.89702397 3.94094442 -3.78579807 1.28501987 C-2.78579807 0.28501987 -2.78579807 0.28501987 0 0 Z " fill="#405D6D" transform="translate(88.78579807281494,79.71498012542725)"/>
<path d="M0 0 C9.7492585 -0.53000261 17.883298 2.7075189 25.41796875 8.8515625 C32.69470312 15.81076664 36.58545114 24.19202696 36.83496094 34.16674805 C36.90381297 41.71178333 36.69247842 47.67091354 32.54296875 54.2265625 C31.67671875 55.7734375 31.67671875 55.7734375 30.79296875 57.3515625 C25.1105132 64.61247793 18.25276912 69.32329571 9.54296875 72.2265625 C-4.79106136 73.00705419 -15.00861585 71.56339962 -26.18359375 61.703125 C-32.06907264 55.51582668 -35.7131475 47.1386911 -35.89453125 38.6015625 C-35.79410572 36.80677797 -35.64918491 35.0138548 -35.45703125 33.2265625 C-35.37324219 32.38222656 -35.28945313 31.53789062 -35.203125 30.66796875 C-33.72959629 20.72552769 -28.44730424 13.26311314 -20.8203125 6.91796875 C-14.23019038 2.20140201 -7.97930438 0.73577052 0 0 Z " fill="#EFC319" transform="translate(475.45703125,439.7734375)"/>
<path d="M0 0 C8.66390421 5.47284246 15.02979802 13.04296399 17.34765625 23.18359375 C17.59692971 24.86553363 17.8047478 26.55409322 17.97265625 28.24609375 C18.06675781 29.12136719 18.16085938 29.99664062 18.2578125 30.8984375 C18.79595214 40.5159587 15.39073956 48.71023438 9.34765625 56.12109375 C2.38845211 63.39782812 -5.99280821 67.28857614 -15.9675293 67.53808594 C-23.51256458 67.60693797 -29.47169479 67.39560342 -36.02734375 63.24609375 C-37.57421875 62.37984375 -37.57421875 62.37984375 -39.15234375 61.49609375 C-46.41325918 55.8136382 -51.12407696 48.95589412 -54.02734375 40.24609375 C-54.80783544 25.91206364 -53.36418087 15.69450915 -43.50390625 4.51953125 C-31.55541156 -6.84611004 -14.11065007 -7.65846415 0 0 Z " fill="#EFC319" transform="translate(54.02734375,444.75390625)"/>
<path d="M0 0 C4.34015209 1.12245313 5.98490787 2.33737436 8.625 5.9375 C9.06448685 9.45532915 9.06324166 11.26934163 7.09880161 14.26439476 C6.37707736 15.00829775 5.65535311 15.75220074 4.91175842 16.51864624 C4.08383852 17.38378216 3.25591862 18.24891808 2.40291023 19.14027023 C1.48619986 20.06335606 0.56948948 20.98644188 -0.375 21.9375 C-1.32326584 22.9076092 -2.27096761 23.87827003 -3.21814156 24.84944534 C-6.44171723 28.13759682 -9.70190783 31.38842259 -12.96313477 34.63916016 C-14.20604091 35.88178359 -15.44872563 37.12462852 -16.69120789 38.36767578 C-20.03544135 41.71219395 -23.3827298 45.05363888 -26.73061109 48.39450502 C-30.23977026 51.89737588 -33.7460622 55.40311449 -37.25267029 58.90853882 C-43.88023202 65.53300329 -50.51033674 72.15491644 -57.14137834 78.77589738 C-64.69603227 86.3193401 -72.24781727 93.86565215 -79.79937279 101.4121964 C-95.32141091 116.92380652 -110.84701534 132.43184285 -126.375 147.9375 C-129.38999971 144.95703143 -132.18899576 142.05318023 -134.6875 138.625 C-135.19925781 137.92761719 -135.71101563 137.23023438 -136.23828125 136.51171875 C-136.61339844 135.99222656 -136.98851562 135.47273437 -137.375 134.9375 C-135.79519505 131.07084384 -133.17595502 128.46083174 -130.25733948 125.57260132 C-129.73096907 125.0438165 -129.20459866 124.51503167 -128.66227764 123.97022307 C-126.89749689 122.19980714 -125.12565892 120.43662925 -123.35375977 118.67333984 C-122.08698997 117.40549712 -120.82065324 116.13722157 -119.55471802 114.86854553 C-116.11510154 111.42407942 -112.66926342 107.9858997 -109.2221539 104.54893446 C-105.6181226 100.95368139 -102.019359 97.35316266 -98.41990662 93.75332642 C-92.37473211 87.70908864 -86.32569586 81.6687377 -80.27416992 75.63085938 C-73.27375097 68.64616955 -66.27857589 61.65626332 -59.28638417 54.66333807 C-52.56443565 47.94077956 -45.83963535 41.22108181 -39.11323357 34.50297928 C-36.24848184 31.64176161 -33.38458405 28.77969319 -30.52133369 25.91697311 C-27.15108421 22.54772692 -23.77830017 19.18103842 -20.40352249 15.81632805 C-19.16385802 14.5795885 -17.92504195 13.34199789 -16.68712807 12.10350609 C-15.00026736 10.41615586 -13.31037289 8.73190454 -11.61964417 7.0484314 C-11.1278146 6.55505323 -10.63598503 6.06167506 -10.12925154 5.55334604 C-4.45313521 -0.08246547 -4.45313521 -0.08246547 0 0 Z " fill="#405D6D" transform="translate(423.375,80.0625)"/>
<path d="M0 0 C4.5872826 2.49493739 8.4816311 5.05512142 12.4375 8.5 C19.67683638 14.70548499 27.33354993 20.33772342 35 26 C33.51657 29.44677 31.56949812 31.67343301 28.91748047 34.30957031 C28.07675995 35.15013977 27.23603943 35.99070923 26.36984253 36.85675049 C25.46146637 37.75480408 24.55309021 38.65285767 23.6171875 39.578125 C22.68778351 40.5046991 21.75837952 41.43127319 20.80081177 42.38592529 C18.3359615 44.84315789 15.86516334 47.29432361 13.39306641 49.7442627 C10.86909235 52.24773809 8.35080612 54.75692063 5.83203125 57.265625 C0.89356403 62.18267525 -4.051212 67.09333788 -9 72 C-12.8431223 70.21627154 -15.48441391 67.7737487 -18.421875 64.7734375 C-18.92672424 64.26575836 -19.43157349 63.75807922 -19.95172119 63.23501587 C-21.55592096 61.61966158 -23.15300856 59.99747791 -24.75 58.375 C-25.83938107 57.27558302 -26.9292199 56.17661941 -28.01953125 55.078125 C-30.68501885 52.3906398 -33.34415143 49.69700979 -36 47 C-33.38812303 42.15284228 -30.53028665 38.00477098 -26.875 33.875 C-22.23606454 28.51395143 -17.85996928 23.00935388 -13.5703125 17.3671875 C-10.7126499 13.60852069 -7.7961288 9.8969373 -4.875 6.1875 C-4.38902344 5.57011963 -3.90304688 4.95273926 -3.40234375 4.31665039 C-2.26879021 2.87732489 -1.13448278 1.43859318 0 0 Z " fill="#AFD2EF" transform="translate(186,264)"/>
<path d="M0 0 C4.36775158 3.14884416 7.96773395 6.77820184 9.6875 11.9375 C10.30164103 17.87419663 9.50096858 21.7660739 6.3671875 26.8828125 C3.00083904 31.00071783 -1.23895018 33.30120133 -6.42578125 34.375 C-11.58702505 34.69569864 -15.37953798 33.06664496 -19.3125 29.9375 C-23.73728317 25.55845102 -25.46175099 21.83705462 -25.625 15.625 C-25.57157223 10.56271913 -24.79131166 7.79239941 -21.3125 3.9375 C-14.83374371 -1.76997578 -8.31345484 -2.66657985 0 0 Z " fill="#E57F24" transform="translate(484.3125,460.0625)"/>
<path d="M0 0 C5.67458259 1.89152753 9.32628019 5.65256038 12 11 C12.52779267 17.2117137 12.74403643 22.758349 9 28 C4.82833896 32.18334636 1.19466767 34.7396157 -4.6875 35.4375 C-9.91937734 35.26180263 -13.97875972 33.28732571 -18 30 C-21.20413233 26.08052649 -23.24590164 21.9702549 -23.5625 16.875 C-22.69036687 10.86697179 -20.47704502 7.06155322 -15.875 3.125 C-10.67852542 -0.71587251 -6.33487223 -0.48453697 0 0 Z " fill="#E57F24" transform="translate(41,459)"/>
<path d="M0 0 C2.5 1.5 2.5 1.5 4 4 C4.71664047 7.908948 4.99459089 10.3188445 2.953125 13.76953125 C1.08253135 15.98242426 -0.92774525 17.97224151 -3 20 C-4.24656131 21.2664898 -5.49117818 22.53489493 -6.734375 23.8046875 C-9.40263622 26.51412262 -12.0751332 29.21887771 -14.76953125 31.90234375 C-15.34292236 32.47460693 -15.91631348 33.04687012 -16.50708008 33.63647461 C-18.84582374 35.77251441 -20.08339138 36.00944053 -23.3125 36.375 C-27 36 -27 36 -29.9375 33.9375 C-32 31 -32 31 -32.75 27.6875 C-31.64741748 22.2664693 -28.86483672 19.8351984 -25 16 C-23.75433247 14.73132814 -22.50962676 13.46171153 -21.265625 12.19140625 C-18.59690503 9.4837574 -15.92402061 6.78062105 -13.23046875 4.09765625 C-12.65707764 3.52539307 -12.08368652 2.95312988 -11.49291992 2.36352539 C-8.14961409 -0.69000905 -4.30451642 -0.58697951 0 0 Z " fill="#405D6D" transform="translate(472,36)"/>
<path d="M0 0 C5.4210307 1.10258252 7.8523016 3.88516328 11.6875 7.75 C12.95617186 8.99566753 14.22578847 10.24037324 15.49609375 11.484375 C18.2037426 14.15309497 20.90687895 16.82597939 23.58984375 19.51953125 C24.16210693 20.09292236 24.73437012 20.66631348 25.32397461 21.25708008 C27.46001441 23.59582374 27.69694053 24.83339138 28.0625 28.0625 C27.6875 31.75 27.6875 31.75 25.625 34.6875 C22.6875 36.75 22.6875 36.75 19.375 37.5 C13.9539693 36.39741748 11.5226984 33.61483672 7.6875 29.75 C6.41882814 28.50433247 5.14921153 27.25962676 3.87890625 26.015625 C1.1712574 23.34690503 -1.53187895 20.67402061 -4.21484375 17.98046875 C-5.07323853 17.12038208 -5.07323853 17.12038208 -5.94897461 16.24291992 C-8.08501441 13.90417626 -8.32194053 12.66660862 -8.6875 9.4375 C-8.3125 5.75 -8.3125 5.75 -6.25 2.8125 C-3.3125 0.75 -3.3125 0.75 0 0 Z " fill="#405D6D" transform="translate(44.3125,35.25)"/>
</svg>
