<?xml version="1.0" encoding="UTF-8"?>
<svg version="1.1" xmlns="http://www.w3.org/2000/svg" width="512" height="512">
<path d="M0 0 C1.11310547 0.39058594 2.22621094 0.78117188 3.37304688 1.18359375 C4.96922852 1.75787109 4.96922852 1.75787109 6.59765625 2.34375 C7.55293213 2.68599609 8.50820801 3.02824219 9.49243164 3.38085938 C12.70143327 4.84966252 14.3666127 6.35822541 15.9375 9.5 C15.61757258 16.11183327 14.03218928 21.68758184 11.77734375 27.8984375 C10.78389424 30.52019332 10.78389424 30.52019332 10.9375 33.5 C14.2375 34.49 17.5375 35.48 20.9375 36.5 C21.68 35.55125 22.4225 34.6025 23.1875 33.625 C25.81776337 30.26410791 28.2016938 28.75526562 32.4609375 28.12890625 C41.23336465 27.92461685 47.92386822 30.18074423 55.9375 33.5 C56.22109375 32.73042969 56.5046875 31.96085937 56.796875 31.16796875 C58.67206091 26.78183184 61.44904951 24.24422525 65.6875 22.125 C71.16313752 21.07199278 75.84476268 21.4758945 80.875 23.9375 C84.62195998 27.07271141 88.00344152 30.48524681 91.41796875 33.9765625 C94.18100697 36.7438845 97.07344715 39.28800469 100.04296875 41.828125 C103.15287263 44.57253502 106.04673774 47.52793506 108.9375 50.5 C109.80375 49.71625 110.67 48.9325 111.5625 48.125 C115.82505404 44.62751976 119.58741871 43.2308661 125.125 43.625 C129.85599474 44.26649081 134.070058 45.92199397 138.45703125 47.7578125 C141.17996083 48.57254734 142.33277255 48.55297493 144.9375 47.5 C146.6200613 46.18678142 148.28747172 44.85386936 149.9375 43.5 C157.6282011 40.93643297 164.7215205 42.93401258 172.125 45.5625 C172.98802734 45.83771484 173.85105469 46.11292969 174.74023438 46.39648438 C180.70404919 48.47264026 184.53180698 51.11005952 187.9375 56.5 C189.37644446 60.81683339 188.99607593 64.98965367 188.9375 69.5 C189.51009048 69.58292297 190.08268097 69.66584595 190.67262268 69.75128174 C199.42274275 71.17233326 207.8404706 73.59860371 216.34953117 76.03209686 C219.07600913 76.81077374 221.80465339 77.58137168 224.53407288 78.34967041 C232.28568216 80.53239595 240.03479153 82.72370395 247.77856445 84.93408203 C252.53402607 86.29086518 257.29325312 87.63364097 262.05520821 88.96744537 C263.86483925 89.47728761 265.67297324 89.99247473 267.47953606 90.51308441 C269.99578118 91.23776534 272.51641505 91.94456729 275.03881836 92.64746094 C275.78326706 92.86657639 276.52771576 93.08569183 277.29472351 93.31144714 C281.29677714 94.41145541 281.29677714 94.41145541 285.30226135 93.71734619 C286.54929171 92.78899995 287.77884173 91.8371247 289 90.875 C295.73041783 87.72459165 302.63487204 89.18298369 309.4375 91.5 C310.4171875 91.87125 311.396875 92.2425 312.40625 92.625 C314.96369269 93.66335489 314.96369269 93.66335489 317.9375 93.5 C318.453125 92.63375 318.96875 91.7675 319.5 90.875 C322.8747853 85.49324011 328.44484265 82.67941284 334.33203125 80.69140625 C343.98822105 78.97306066 353.9107855 83.42123375 362.9375 86.5 C363.07027344 85.89285156 363.20304687 85.28570312 363.33984375 84.66015625 C364.36984223 80.93735127 366.33705279 78.42620116 369.69921875 76.48046875 C378.91107585 72.51701746 388.10913643 76.50638182 396.9765625 79.8203125 C402.47632541 82.03403745 406.24069828 84.69658846 409.375 89.875 C410.74630833 96.27443886 409.90691333 101.59120389 407.8494873 107.72607422 C407.62489192 108.40669576 407.40029655 109.0873173 407.16889524 109.78856373 C406.42014747 112.04789037 405.65449329 114.30109654 404.88867188 116.5546875 C404.34577531 118.18111865 403.8039378 119.80790363 403.26307678 121.43501282 C401.79657568 125.83680597 400.3153558 130.23351751 398.83139992 134.62945175 C397.28129592 139.22966327 395.74483581 143.83442702 394.20690918 148.4387207 C391.29470842 157.15048481 388.37029886 165.85809877 385.44145727 174.56428051 C382.10675776 184.47887751 378.78573014 194.39803571 375.4658308 204.31759644 C368.63823119 224.71683497 361.79352251 245.11029805 354.9375 265.5 C355.85569519 265.49111755 356.77389038 265.48223511 357.71990967 265.4730835 C366.37170505 265.39294579 375.02337584 265.33203974 383.675457 265.29275131 C388.12364277 265.27187362 392.57152194 265.24355298 397.01953125 265.19824219 C401.31189234 265.15479043 405.60395848 265.13086426 409.89652252 265.12049103 C411.53442275 265.1130984 413.17230677 265.09866225 414.81008148 265.07707977 C417.10388609 265.04805353 419.39647106 265.04404349 421.69042969 265.04589844 C422.99614929 265.03701599 424.3018689 265.02813354 425.64715576 265.01898193 C429.47458748 265.57851725 430.64038457 266.45229184 432.9375 269.5 C433.46875 271.5 433.46875 271.5 433.4375 273.5 C433.4478125 274.16 433.458125 274.82 433.46875 275.5 C432.66499506 278.52590094 431.42378852 279.5947222 428.9375 281.5 C426.0317827 281.89191383 423.50593951 282.03756943 420.60094452 282.00336456 C419.74827556 282.00917833 418.89560661 282.01499209 418.0170992 282.02098203 C415.14030784 282.03565953 412.26435936 282.02166075 409.38757324 282.00793457 C407.31219275 282.01254042 405.23681551 282.0188912 403.16144514 282.02684355 C397.44312523 282.04360337 391.72507097 282.0352603 386.00674987 282.02289867 C379.84579491 282.01387767 373.6848868 282.02780322 367.52394104 282.03881836 C356.14713646 282.05560882 344.77044066 282.05410903 333.39363874 282.04317249 C322.88448193 282.03311933 312.37535631 282.03047921 301.86619568 282.03526306 C300.82148022 282.03572137 300.82148022 282.03572137 299.7556594 282.03618894 C296.92859511 282.03743425 294.10153083 282.03870784 291.27446657 282.040028 C264.7420218 282.05227031 238.20963124 282.04116017 211.67719483 282.01964041 C188.09287297 282.00065728 164.5086375 282.00235576 140.92431641 282.02148438 C114.44111381 282.04289228 87.95795914 282.05140217 61.47474909 282.03903532 C58.65276751 282.03775241 55.83078592 282.03650105 53.00880432 282.03526306 C52.31393532 282.03494675 51.61906632 282.03463044 50.90314069 282.03430455 C40.39931679 282.02975026 29.89552748 282.03508393 19.39170837 282.04518127 C7.45111948 282.0566024 -4.48936735 282.05340684 -16.42995226 282.0320583 C-22.52658675 282.02151875 -28.62304555 282.01747546 -34.71967888 282.03065491 C-40.29455946 282.04252451 -45.86910058 282.03610627 -51.44395012 282.0147447 C-53.46676513 282.01025551 -55.48960849 282.01259636 -57.51240546 282.02224785 C-60.25066633 282.03431656 -62.98774655 282.02203445 -65.72594452 282.00336456 C-66.91894599 282.01741156 -66.91894599 282.01741156 -68.1360485 282.03174233 C-71.70510045 281.98271344 -73.67628429 281.79596253 -76.55033159 279.59353971 C-78.18887243 277.32504217 -78.60571572 276.26580608 -78.5625 273.5 C-78.57796875 272.51 -78.57796875 272.51 -78.59375 271.5 C-77.80991082 268.54907603 -76.42709632 267.40361842 -74.0625 265.5 C-71.12913489 264.99679399 -71.12913489 264.99679399 -67.63570786 264.99219131 C-66.98951048 264.98588756 -66.3433131 264.97958381 -65.67753398 264.97308904 C-63.50306722 264.95677131 -61.32969393 264.9690118 -59.1552124 264.98101807 C-57.58432875 264.97514506 -56.01345083 264.9675192 -54.44258332 264.958287 C-50.11892237 264.93796891 -45.79558842 264.94259564 -41.47190142 264.95119452 C-36.8120402 264.95612709 -32.15226242 264.93806977 -27.49243164 264.92277527 C-19.4166449 264.89942922 -11.34094804 264.89071622 -3.26512909 264.89188385 C8.41119174 264.89355099 20.08739253 264.87323979 31.76368138 264.84752855 C50.70670622 264.8064144 69.64970951 264.78312623 88.59277344 264.77099609 C106.99644035 264.75917331 125.40006667 264.73898759 143.80371094 264.70751953 C144.93771836 264.70558343 146.07172579 264.70364733 147.24009708 264.70165256 C152.92896186 264.69188819 158.61782634 264.68195905 164.30669069 264.67194796 C211.51694054 264.58908208 258.72719215 264.53512397 305.9375 264.5 C305.9375 260.87 305.9375 257.24 305.9375 253.5 C304.79152344 253.12488281 303.64554687 252.74976563 302.46484375 252.36328125 C300.9346876 251.84697089 299.40475122 251.33000889 297.875 250.8125 C297.12283203 250.56822266 296.37066406 250.32394531 295.59570312 250.07226562 C288.86630125 247.77086845 282.69834984 244.76908076 279.0625 238.375 C278.47855469 237.38113281 278.47855469 237.38113281 277.8828125 236.3671875 C276.0222761 232.69224371 275.68051486 229.37148318 275.375 225.3125 C275.29121094 224.22582031 275.20742188 223.13914062 275.12109375 222.01953125 C275.06050781 221.18808594 274.99992187 220.35664063 274.9375 219.5 C273.76832031 219.12488281 272.59914063 218.74976563 271.39453125 218.36328125 C269.84609355 217.84713535 268.29793068 217.33016447 266.75 216.8125 C265.98107422 216.56822266 265.21214844 216.32394531 264.41992188 216.07226562 C258.18484731 213.95822747 254.54673261 211.2190482 251.125 205.4375 C249.9375 202.5 249.9375 202.5 249.9375 198.5 C249.41720215 198.36537354 248.8969043 198.23074707 248.36083984 198.09204102 C239.46932956 195.61701752 231.06803263 191.97720902 222.5625 188.4375 C220.87253867 187.73839005 219.18234817 187.03983384 217.49194336 186.34179688 C214.81688338 185.23704215 212.14199361 184.13189082 209.46781921 183.0249939 C199.48281619 178.89252386 189.47995631 174.80389359 179.47650146 170.71633911 C175.59480795 169.13009577 171.7136094 167.54264343 167.83241272 165.95518494 C164.20087896 164.46986935 160.56919283 162.98492659 156.9375 161.5 C156.65003906 162.27988281 156.36257812 163.05976563 156.06640625 163.86328125 C154.36704861 167.83236917 152.0199307 169.45643428 148.20703125 171.3671875 C139.01867011 174.53068514 127.54558578 169.33041684 119.125 165.5 C113.77385529 162.14241901 111.4905232 158.5826742 109.9375 152.5 C109.9375 151.18 109.9375 149.86 109.9375 148.5 C108.019375 148.12875 108.019375 148.12875 106.0625 147.75 C98.16315142 145.94621174 91.44627626 143.90947764 85.99609375 137.671875 C84.38540242 134.36728319 84.27455966 131.15084843 83.9375 127.5 C82.78302368 127.63631836 82.78302368 127.63631836 81.60522461 127.77539062 C43.55577337 132.21330793 43.55577337 132.21330793 36.75 128.9375 C32.44567731 125.20708701 30.16438908 122.25986391 29.69921875 116.6015625 C29.68875436 113.88779846 29.76124111 111.20753237 29.9375 108.5 C28.76832031 108.12488281 27.59914063 107.74976563 26.39453125 107.36328125 C24.84609355 106.84713535 23.29793068 106.33016447 21.75 105.8125 C20.98107422 105.56822266 20.21214844 105.32394531 19.41992188 105.07226562 C13.26876878 102.98668153 9.70199233 100.23800534 6.125 94.6875 C4.63032228 90.67547034 4.71728043 87.75757839 4.9375 83.5 C-0.5075 82.51 -0.5075 82.51 -6.0625 81.5 C-6.43761719 82.74136719 -6.81273438 83.98273438 -7.19921875 85.26171875 C-7.7153333 86.90390142 -8.23230584 88.54581461 -8.75 90.1875 C-8.99427734 91.00412109 -9.23855469 91.82074219 -9.49023438 92.66210938 C-11.09798612 97.68887748 -12.58439691 101.35443688 -17.0625 104.5 C-22.49498803 104.96403984 -27.00056159 103.85802368 -32.078125 102.0859375 C-32.81577087 101.833815 -33.55341675 101.5816925 -34.31341553 101.32192993 C-35.86166011 100.78793014 -37.40789356 100.24806677 -38.95214844 99.70263672 C-41.31207913 98.87514757 -43.68220463 98.08363278 -46.0546875 97.29296875 C-47.5632519 96.76777982 -49.07109256 96.24050637 -50.578125 95.7109375 C-51.63752289 95.36366104 -51.63752289 95.36366104 -52.71832275 95.0093689 C-56.35627983 93.68335175 -57.91529115 92.73002754 -60.02832031 89.42822266 C-61.05011714 86.5350614 -61.35421167 85.38741904 -60.5625 82.5 C-60.35882813 81.74847656 -60.15515625 80.99695313 -59.9453125 80.22265625 C-58.12122676 74.59704669 -56.12760807 69.04111059 -54.0625 63.5 C-55.279375 63.273125 -56.49625 63.04625 -57.75 62.8125 C-74.47842894 59.08916128 -74.47842894 59.08916128 -79.0625 53.5 C-80.09092733 45.57945083 -77.55864072 38.63756373 -75.00976562 31.22338867 C-74.31002409 29.18027079 -73.63822648 27.12937988 -72.96875 25.07617188 C-72.52767179 23.76247239 -72.08501812 22.44930059 -71.640625 21.13671875 C-71.24262695 19.95811279 -70.84462891 18.77950684 -70.43457031 17.56518555 C-69.01331879 14.39012988 -67.79486718 12.63123349 -65.0625 10.5 C-58.65039347 9.73273939 -53.55727987 11.3325063 -47.5625 13.5 C-46.74007812 13.78617188 -45.91765625 14.07234375 -45.0703125 14.3671875 C-43.06383589 15.0671212 -41.06258974 15.78201907 -39.0625 16.5 C-38.87139648 15.90985107 -38.68029297 15.31970215 -38.48339844 14.71166992 C-37.6070148 12.03216123 -36.71004646 9.35999038 -35.8125 6.6875 C-35.51214844 5.75873047 -35.21179687 4.82996094 -34.90234375 3.87304688 C-34.59941406 2.98037109 -34.29648437 2.08769531 -33.984375 1.16796875 C-33.71206055 0.34578857 -33.43974609 -0.4763916 -33.15917969 -1.32348633 C-27.09158362 -13.36547629 -9.07948993 -3.28880508 0 0 Z " fill="#2D4356" transform="translate(79.0625,230.5)"/>
<path d="M0 0 C5.81216007 3.51229458 10.57023702 8.99194094 12.5625 15.5 C12.828125 18.83984375 12.828125 18.83984375 12.8125 22.4375 C12.82023437 24.21447266 12.82023437 24.21447266 12.828125 26.02734375 C12.56243706 29.50082283 11.80870553 32.26085468 10.5625 35.5 C11.2946875 35.75523438 12.026875 36.01046875 12.78125 36.2734375 C20.18850676 39.54012096 26.16857625 46.22146473 29.5625 53.5 C30.06453784 55.09715666 30.5438496 56.70163744 31 58.3125 C32.10301064 62.0185645 32.10301064 62.0185645 35.4375 64.1875 C36.46875 64.620625 37.5 65.05375 38.5625 65.5 C42.59772886 69.43838337 44.72742945 72.77473048 44.94921875 78.40625 C44.88194943 85.17288197 42.47713206 90.09838292 39.375 96 C38.40131765 97.92656509 37.42865779 99.85364729 36.45703125 101.78125 C35.97830566 102.71582031 35.49958008 103.65039062 35.00634766 104.61328125 C32.72205333 109.1803249 30.63545315 113.83400609 28.5625 118.5 C29.449375 118.70625 30.33625 118.9125 31.25 119.125 C35.87056999 121.04297245 38.30164994 123.97829987 40.5625 128.5 C40.64676094 130.1674606 40.66975143 131.83825187 40.66015625 133.5078125 C40.65532227 134.98701172 40.65532227 134.98701172 40.65039062 136.49609375 C40.63782227 138.04490234 40.63782227 138.04490234 40.625 139.625 C40.62048828 140.66527344 40.61597656 141.70554688 40.61132812 142.77734375 C40.59951952 145.35161962 40.58305075 147.92578146 40.5625 150.5 C41.94695312 150.67595703 41.94695312 150.67595703 43.359375 150.85546875 C47.56219351 151.70115784 49.52585539 153.53237004 52.5625 156.5 C55.95193156 161.740832 54.97257311 168.30601025 55 174.3125 C55.03287109 175.57126953 55.06574219 176.83003906 55.09960938 178.12695312 C55.14301631 185.61267625 54.87457978 190.03971241 49.5625 195.5 C45.78143218 197.94193963 43.05613976 198.89649763 38.5625 198.5 C38.7175853 199.01256348 38.87267059 199.52512695 39.03245544 200.05322266 C39.72626306 203.2559586 39.86817538 206.37523223 40.04321289 209.6484375 C40.0823732 210.36126389 40.12153351 211.07409027 40.16188049 211.80851746 C40.29020914 214.16381954 40.41283295 216.51937896 40.53515625 218.875 C40.62315744 220.52206744 40.71141316 222.1691213 40.7999115 223.81616211 C40.98475606 227.27265896 41.1668381 230.72928718 41.34692383 234.18603516 C41.57632263 238.58606385 41.81198413 242.985729 42.04970646 247.38531494 C42.23311437 250.79127625 42.41337614 254.19739866 42.59271049 257.60357666 C42.67832858 259.22370127 42.76483063 260.84377944 42.85228157 262.46380615 C43.33693741 271.4807245 43.69507088 280.46627075 43.5625 289.5 C42.21937744 289.53806763 42.21937744 289.53806763 40.84912109 289.5769043 C31.85059203 289.8916791 25.41996029 292.00699485 18.12890625 297.25 C14.77212168 298.88496357 13.48304468 298.30970907 10 297.125 C0.08004522 294.31333184 -9.38056146 295.53329177 -18.4375 300.5 C-19.81147186 301.60072417 -21.16648315 302.7255979 -22.5 303.875 C-25.81819796 306.51898244 -25.81819796 306.51898244 -28.4765625 306.4375 C-29.95522015 306.05036054 -31.42416167 305.62474349 -32.8828125 305.16796875 C-39.27393997 303.49689414 -46.68993117 303.47081067 -52.8125 306.0625 C-57.14278507 307.77968201 -59.00904534 307.51485419 -63.4375 306.5 C-63.63905047 294.48871156 -63.00512102 282.55849689 -62.34375 270.5703125 C-62.23132215 268.48283617 -62.1192266 266.39534192 -62.00744629 264.30783081 C-61.71483024 258.85966024 -61.4177521 253.41174216 -61.11968994 247.96386719 C-60.8153376 242.38621537 -60.51528062 236.80833259 -60.21484375 231.23046875 C-59.62655917 220.32008445 -59.03355237 209.4099625 -58.4375 198.5 C-59.52546875 198.37753906 -60.6134375 198.25507813 -61.734375 198.12890625 C-66.10224364 197.38710577 -68.67648295 195.88332978 -71.4375 192.5 C-74.28536036 186.35213084 -74.90421025 181.22541838 -74.8125 174.5 C-74.82990234 173.22382813 -74.82990234 173.22382813 -74.84765625 171.921875 C-74.82231035 166.41336565 -74.35607538 161.29330054 -71.4375 156.5 C-70.39980469 155.70207031 -69.36210937 154.90414062 -68.29296875 154.08203125 C-65.21499115 151.29879843 -65.02037927 150.99313604 -64.73828125 147.13671875 C-64.71318796 145.48716539 -64.71790988 143.83693208 -64.75 142.1875 C-64.79019164 134.91281365 -64.65384974 128.27509201 -59.68359375 122.44140625 C-59.08675781 121.98636719 -58.48992187 121.53132813 -57.875 121.0625 C-57.27558594 120.58941406 -56.67617188 120.11632812 -56.05859375 119.62890625 C-54.4375 118.5 -54.4375 118.5 -52.4375 117.5 C-52.88665771 116.54222656 -53.33581543 115.58445312 -53.79858398 114.59765625 C-55.47411318 111.01707487 -57.13479956 107.42976987 -58.79125977 103.84033203 C-59.50797809 102.29258211 -60.22862141 100.7466431 -60.95336914 99.20263672 C-61.9990193 96.97316378 -63.03002279 94.73739454 -64.05859375 92.5 C-64.54301186 91.47918335 -64.54301186 91.47918335 -65.03721619 90.43774414 C-67.41612538 85.20761503 -68.99908488 79.95546617 -68.0546875 74.14453125 C-66.23864663 69.66177774 -64.28208849 66.61228592 -60.4375 63.5 C-59.59832031 63.2215625 -58.75914062 62.943125 -57.89453125 62.65625 C-55.29365922 61.72675116 -55.29365922 61.72675116 -54.28515625 59.3984375 C-54.02605469 58.56570312 -53.76695312 57.73296875 -53.5 56.875 C-50.42941464 48.37278157 -44.86590582 41.68785427 -37.4375 36.5 C-35.1953125 35.80859375 -35.1953125 35.80859375 -33.4375 35.5 C-33.66566406 34.73816406 -33.89382813 33.97632813 -34.12890625 33.19140625 C-36.67968788 24.02918164 -37.47366179 17.76883249 -32.875 9.25 C-26.02213088 -1.3934658 -11.70217901 -5.2291233 0 0 Z " fill="#2E4456" transform="translate(418.4375,1.5)"/>
<path d="M0 0 C9.9163613 1.76419801 19.54588386 4.51709505 29.24609375 7.19140625 C31.10783927 7.70209486 32.96966207 8.21250183 34.83155823 8.72264099 C38.71436924 9.78722179 42.59656561 10.85400417 46.47827148 11.92260742 C51.45637548 13.29302973 56.43549344 14.65972156 61.41500759 16.02501011 C66.17153018 17.3292842 70.92759689 18.63521661 75.68359375 19.94140625 C76.59056944 20.19038729 77.49754513 20.43936832 78.43200493 20.69589424 C80.99064649 21.39865038 83.54896617 22.10256515 86.10717773 22.80688477 C86.86614349 23.01521439 87.62510925 23.22354401 88.40707397 23.43818665 C91.29567452 24.23455514 94.15675304 25.05225101 97 26 C96.29386451 29.99899891 95.17464665 33.74116112 93.89868164 37.59448242 C93.68716965 38.23573563 93.47565765 38.87698883 93.25773621 39.53767395 C92.56170785 41.64466854 91.86121328 43.75014243 91.16015625 45.85546875 C90.67304281 47.32323825 90.18601919 48.79103757 89.69908142 50.25886536 C88.67985946 53.32848374 87.65817413 56.39726976 86.63500977 59.46557617 C85.32304271 63.40127345 84.01937384 67.33966516 82.71778202 71.27880383 C81.71559702 74.30755971 80.70798533 77.33448922 79.69882011 80.36092567 C79.2156568 81.81277863 78.73444326 83.26528194 78.25520515 84.71843529 C77.58604037 86.7454644 76.90936337 88.76983157 76.23071289 90.79370117 C75.65565758 92.52314217 75.65565758 92.52314217 75.06898499 94.28752136 C74 97 74 97 72 99 C71.09088867 98.62528564 70.18177734 98.25057129 69.24511719 97.86450195 C65.5966829 96.36132671 61.94729012 94.86048878 58.29766846 93.36019897 C56.59983295 92.6619839 54.90220083 91.96327407 53.20477295 91.2640686 C41.78629107 86.56174988 30.34234677 81.92954125 18.8671875 77.3671875 C15.297199 75.94308916 11.72749594 74.51827725 8.15783691 73.09335327 C5.79965309 72.15494017 3.43986034 71.22056036 1.07849121 70.29019165 C-2.25115623 68.9780293 -5.57519009 67.6524899 -8.8984375 66.32421875 C-9.90705841 65.9310849 -10.91567932 65.53795105 -11.9548645 65.13290405 C-13.3295137 64.57924667 -13.3295137 64.57924667 -14.73193359 64.0144043 C-15.53585541 63.69626266 -16.33977722 63.37812103 -17.1680603 63.05033875 C-19 62 -19 62 -20 59 C-19.49505615 56.80160522 -19.49505615 56.80160522 -18.60058594 54.21240234 C-18.10446808 52.75475967 -18.10446808 52.75475967 -17.59832764 51.26766968 C-17.04692108 49.69271225 -17.04692108 49.69271225 -16.484375 48.0859375 C-16.11274231 47.00172516 -15.74110962 45.91751282 -15.35821533 44.80044556 C-14.16392868 41.32232074 -12.9572059 37.84865932 -11.75 34.375 C-10.95098728 32.05627737 -10.1528002 29.73727005 -9.35546875 27.41796875 C-7.88115625 23.13148757 -6.40141572 18.84695386 -4.91699219 14.56396484 C-3.24181416 9.72094082 -1.61011636 4.8650227 0 0 Z " fill="#D58651" transform="translate(261,315)"/>
<path d="M0 0 C21.12 0 42.24 0 64 0 C65.65 30.69 67.3 61.38 69 93 C57.23597233 100.0584166 57.23597233 100.0584166 54.6015625 99.40625 C53.61929688 99.1071875 52.63703125 98.808125 51.625 98.5 C41.60472472 95.89904338 32.1139913 97.00200477 23 102 C21.62602814 103.10072417 20.27101685 104.2255979 18.9375 105.375 C15.63766784 108.00826606 15.63766784 108.00826606 12.890625 107.97265625 C10.6875 107.4375 10.6875 107.4375 8.453125 106.72265625 C4.076589 105.43339007 -0.46915551 105.34228947 -5 105 C-5.11818991 93.55634623 -4.76779938 82.18812951 -4.16015625 70.76171875 C-4.07257449 69.06217447 -3.9852955 67.36261456 -3.89830017 65.66304016 C-3.71672914 62.1325628 -3.53243805 58.60224232 -3.34594727 55.07202148 C-3.1085467 50.57631855 -2.87670873 46.08035032 -2.6467371 41.58426189 C-2.46743865 38.08635983 -2.28588663 34.58857763 -2.10360527 31.09082985 C-2.01737684 29.43367026 -1.9316663 27.77648364 -1.84651375 26.11926842 C-1.72674735 23.79773582 -1.60410971 21.47637143 -1.48071289 19.1550293 C-1.41187393 17.84205368 -1.34303497 16.52907806 -1.27210999 15.17631531 C-0.94204704 10.11054416 -0.45960584 5.05566429 0 0 Z " fill="#FEDA7F" transform="translate(377,200)"/>
<path d="M0 0 C3.23736846 1.24839699 6.45070033 2.53639685 9.6484375 3.8828125 C9.01783801 10.32458765 7.08146 16.12820586 5.01831055 22.24316406 C4.64420044 23.36768478 4.27009033 24.49220551 3.88464355 25.65080261 C2.861982 28.72069687 1.83401493 31.78874985 0.80353522 34.85602665 C-0.27845326 38.0805903 -1.35381248 41.30736372 -2.42997742 44.53387451 C-4.23929805 49.95539738 -6.05304177 55.37542327 -7.86987305 60.79443359 C-10.19188928 67.72029366 -12.50709159 74.64841026 -14.81994343 81.57733536 C-16.81888183 87.56580112 -18.82048108 93.55337689 -20.82275367 99.54072857 C-21.24981753 100.81788868 -21.67679462 102.0950778 -22.10368371 103.37229633 C-23.51135216 107.58389347 -24.92167249 111.79459507 -26.33325195 116.00488281 C-26.68197861 117.04837387 -27.03070526 118.09186493 -27.38999939 119.16697693 C-29.60937426 125.77729888 -31.93790056 132.34095047 -34.3515625 138.8828125 C-51.36359476 135.6891932 -51.36359476 135.6891932 -55.3515625 129.8828125 C-56.03289967 123.24396964 -53.94507014 117.68076703 -51.83496094 111.44311523 C-51.46099686 110.31056305 -51.08703278 109.17801086 -50.70173645 108.01113892 C-49.67834481 104.91971992 -48.64563519 101.83162018 -47.60805416 98.74494052 C-46.52105335 95.50546541 -45.44459401 92.26248772 -44.36651611 89.02003479 C-42.55467472 83.57636282 -40.73422927 78.13562612 -38.90869141 72.6965332 C-36.80207259 66.41960237 -34.70943043 60.13814454 -32.62416625 53.85409015 C-30.61312538 47.79488038 -28.59190359 41.73911297 -26.56616974 35.6848011 C-25.70644504 33.11469745 -24.85031805 30.54343762 -23.99712372 27.97115898 C-22.80207664 24.37547697 -21.59549047 20.78387338 -20.38574219 17.19311523 C-20.03544449 16.1316478 -19.68514679 15.07018036 -19.32423401 13.97654724 C-15.75344815 3.46072541 -12.29420677 -4.09806892 0 0 Z " fill="#D58651" transform="translate(426.3515625,329.1171875)"/>
<path d="M0 0 C5.44224594 1.06198657 10.10774926 2.24026881 15 5 C13.36662532 13.44300211 10.64018933 21.48184544 7.90771484 29.61743164 C7.38487204 31.1851127 6.86242691 32.75292643 6.34034729 34.32086182 C4.92924775 38.55501754 3.51262492 42.78730642 2.09497023 47.01927114 C0.61164169 51.45044223 -0.86655464 55.88332472 -2.3453064 60.31602478 C-5.14303159 68.69989392 -7.94533977 77.08222358 -10.74931562 85.46400398 C-13.94271129 95.01060337 -17.13096686 104.5589167 -20.31880116 114.10737431 C-26.87350085 133.74015609 -33.43462215 153.37078673 -40 173 C-45.78292031 172.10144467 -50.6301586 170.24952815 -56 168 C-54.06414765 160.63189208 -51.89099401 153.38682685 -49.46923828 146.16479492 C-49.1287999 145.14158142 -48.78836151 144.11836792 -48.43760681 143.06414795 C-47.3180983 139.70193926 -46.19429168 136.34118528 -45.0703125 132.98046875 C-44.27597435 130.59865019 -43.48186049 128.21675682 -42.68795776 125.83479309 C-41.02039196 120.83365767 -39.35089598 115.8331711 -37.6796875 110.83325195 C-35.57783347 104.54487179 -33.48007223 98.25513375 -31.38353348 91.96497917 C-23.81633349 69.26383497 -16.23459045 46.56788029 -8.4921875 23.92578125 C-8.22633976 23.14753683 -7.96049202 22.36929241 -7.68658829 21.56746483 C-5.21656862 14.34299837 -2.7435534 7.12640601 0 0 Z " fill="#FBD87F" transform="translate(457,322)"/>
<path d="M0 0 C3.00077036 1.4369079 5.06631746 2.83583981 7.390625 5.23046875 C8.01396729 5.86533203 8.63730957 6.50019531 9.27954102 7.15429688 C10.25491821 8.16073242 10.25491821 8.16073242 11.25 9.1875 C17.22353065 15.28671423 17.22353065 15.28671423 23.5625 21 C24.71268008 21.99499739 25.8580946 22.99551701 27 24 C27.5726358 24.49000992 28.14527161 24.98001984 28.73526001 25.48487854 C30.53427286 27.24534471 31.83509552 28.76152931 33 31 C32.96738685 34.49701042 31.78910547 37.42175866 30.5234375 40.65234375 C30.20420319 41.55247696 29.88496887 42.45261017 29.55606079 43.38002014 C28.53037102 46.24649314 27.45393541 49.09069648 26.375 51.9375 C25.66974659 53.87961707 24.96788177 55.82296824 24.26953125 57.76757812 C22.55198316 62.52692104 20.78869118 67.2669599 19 72 C13.53769013 72.57293494 8.07504346 73.14250277 2.61206055 73.70898438 C0.75454275 73.90207422 -1.10288051 74.09607586 -2.96020508 74.29101562 C-5.63338136 74.57142373 -8.30688302 74.84852652 -10.98046875 75.125 C-11.80773972 75.21249512 -12.63501068 75.29999023 -13.48735046 75.39013672 C-14.26778214 75.47021973 -15.04821381 75.55030273 -15.85229492 75.6328125 C-16.87488655 75.73940186 -16.87488655 75.73940186 -17.9181366 75.84814453 C-20.28446275 76.02074931 -22.62822526 76.02429094 -25 76 C-22.7326016 68.22825149 -20.2263342 60.54739523 -17.65625 52.87109375 C-17.24588501 51.64141373 -16.83552002 50.4117337 -16.41271973 49.14479065 C-15.33021283 45.90105227 -14.24590788 42.65791786 -13.16119385 39.41491699 C-12.06340712 36.13179189 -10.96731604 32.84810085 -9.87109375 29.56445312 C-8.26068668 24.741147 -6.64935532 19.91815079 -5.03710938 15.09545898 C-3.35534132 10.06454683 -1.67655143 5.03265289 0 0 Z " fill="#FEDA7F" transform="translate(150,269)"/>
<path d="M0 0 C1.73017508 0.45451184 3.45909877 0.91378857 5.1875 1.375 C6.63189453 1.75785156 6.63189453 1.75785156 8.10546875 2.1484375 C10.82210207 2.94766296 13.39137175 3.9031362 16 5 C15.57809415 9.6409644 14.50143605 13.60108447 12.9375 18 C11.35385178 22.6180107 10.27750714 26.14897653 11 31 C13.21191506 33.84123915 15.50867652 34.73915064 18.88671875 35.82421875 C19.82451172 36.13037109 20.76230469 36.43652344 21.72851562 36.75195312 C22.70498047 37.06068359 23.68144531 37.36941406 24.6875 37.6875 C25.67556641 38.00783203 26.66363281 38.32816406 27.68164062 38.65820312 C30.11859142 39.44697464 32.55794494 40.22720579 35 41 C34.7049618 42.41629698 34.40438638 43.83144101 34.1015625 45.24609375 C33.93479004 46.0342749 33.76801758 46.82245605 33.59619141 47.63452148 C32.75742401 50.9624565 31.45316485 53.89551145 30 57 C24.67080216 55.59548244 19.41378853 54.18530589 14.25 52.25 C10.18101338 50.87908694 7.18315386 50.66139077 3 52 C-0.08472573 56.14786879 -1.54307098 60.96853995 -3.1875 65.8125 C-3.46013672 66.60076172 -3.73277344 67.38902344 -4.01367188 68.20117188 C-4.68081726 70.13238221 -5.34110418 72.06595951 -6 74 C-10.46321565 73.47588939 -14.30099267 72.694099 -18.4375 70.9375 C-19.30246094 70.57527344 -20.16742188 70.21304688 -21.05859375 69.83984375 C-22.01958984 69.42412109 -22.01958984 69.42412109 -23 69 C-21.59096347 63.65365573 -20.17108215 58.3753071 -18.25 53.1875 C-16.9863831 49.45013574 -16.63366415 46.82574039 -18 43 C-20.72311292 40.60273933 -23.34988356 39.33625751 -26.765625 38.17578125 C-27.65507813 37.86962891 -28.54453125 37.56347656 -29.4609375 37.24804688 C-30.38132812 36.93931641 -31.30171875 36.63058594 -32.25 36.3125 C-33.18585937 35.99216797 -34.12171875 35.67183594 -35.0859375 35.34179688 C-37.38850003 34.55469642 -39.69312779 33.77435917 -42 33 C-41.54548816 31.26982492 -41.08621143 29.54090123 -40.625 27.8125 C-40.36976562 26.84957031 -40.11453125 25.88664062 -39.8515625 24.89453125 C-39.05233704 22.17789793 -38.0968638 19.60862825 -37 17 C-36.46632813 17.18175781 -35.93265625 17.36351562 -35.3828125 17.55078125 C-32.92588917 18.37967407 -30.46317674 19.18988854 -28 20 C-26.74123047 20.42925781 -26.74123047 20.42925781 -25.45703125 20.8671875 C-20.11630428 22.60602884 -15.62020994 23.69020122 -10 23 C-6.24188509 20.03092654 -5.26372482 14.25432586 -3.875 9.8125 C-3.35411984 8.17236272 -2.83081161 6.5329939 -2.3046875 4.89453125 C-1.9641333 3.80942261 -1.9641333 3.80942261 -1.61669922 2.70239258 C-1 1 -1 1 0 0 Z " fill="#FDD97F" transform="translate(60,242)"/>
<path d="M0 0 C1.73017508 0.45451184 3.45909877 0.91378857 5.1875 1.375 C6.63189453 1.75785156 6.63189453 1.75785156 8.10546875 2.1484375 C10.82210207 2.94766296 13.39137175 3.9031362 16 5 C13.37105793 14.11727914 10.34759315 23.10309635 7.34375 32.1015625 C6.79463102 33.74959449 6.24560103 35.39765615 5.69665527 37.04574585 C4.55118539 40.48362229 3.40464266 43.92113849 2.25732422 47.35839844 C0.79272795 51.74648247 -0.66916573 56.13546126 -2.13025665 60.52471352 C-3.26161514 63.92241523 -4.39441164 67.31963618 -5.52763367 70.71671677 C-6.06707186 72.3343682 -6.60607095 73.95216614 -7.14460754 75.57011795 C-7.89898401 77.83580881 -8.65530323 80.1008424 -9.41210938 82.36572266 C-9.63037888 83.02255539 -9.84864838 83.67938812 -10.0735321 84.35612488 C-11.61080795 88.94732426 -13.28092793 93.47467568 -15 98 C-20.11152332 96.91948349 -25.0704601 95.76957843 -30 94 C-29.38597306 88.45028571 -28.01579575 83.49700375 -26.22436523 78.21899414 C-25.94136566 77.36941132 -25.65836609 76.51982849 -25.36679077 75.64450073 C-24.4364056 72.85611651 -23.49756922 70.07065821 -22.55859375 67.28515625 C-21.90931138 65.34477481 -21.26056107 63.40421526 -20.61231995 61.46348572 C-18.90953181 56.37035143 -17.19954833 51.27966161 -15.48803711 46.18945312 C-13.74091388 40.9890919 -12.00063136 35.78644295 -10.25976562 30.58398438 C-6.84652152 20.38707684 -3.42566889 10.19273954 0 0 Z " fill="#FCD97F" transform="translate(376,336)"/>
<path d="M0 0 C10.55808656 3.07517084 10.55808656 3.07517084 15 5 C14.38649292 10.43421508 13.09405465 15.31126316 11.36376953 20.48974609 C11.09534241 21.30846191 10.82691528 22.12717773 10.550354 22.97070312 C9.66748949 25.6570784 8.77572507 28.34038668 7.8828125 31.0234375 C7.26348474 32.8942794 6.64433659 34.76518077 6.02536011 36.63613892 C4.72999448 40.54612963 3.42971294 44.45444639 2.12646484 48.36181641 C0.45412477 53.37842835 -1.20157809 58.40036186 -2.85317802 63.42383385 C-4.12493349 67.28345301 -5.40750644 71.13941134 -6.6932106 74.99440384 C-7.30868606 76.84556161 -7.92025482 78.69802291 -8.52788925 80.55176926 C-9.3756321 83.13397926 -10.23828054 85.71072292 -11.10498047 88.28662109 C-11.35444427 89.05749054 -11.60390808 89.82835999 -11.8609314 90.62258911 C-12.48410857 92.44824011 -13.23141301 94.23064266 -14 96 C-17.78595108 97.26198369 -19.36715204 96.53040494 -23.125 95.3125 C-24.20007813 94.97863281 -25.27515625 94.64476562 -26.3828125 94.30078125 C-29 93 -29 93 -29.80841064 91.3971405 C-30.0974627 87.78055973 -28.85842214 84.71091465 -27.68261719 81.3449707 C-27.42423569 80.57855759 -27.16585419 79.81214447 -26.89964294 79.02250671 C-26.04200057 76.48676506 -25.16951587 73.95639651 -24.296875 71.42578125 C-23.69635923 69.65975394 -23.09678368 67.89340667 -22.49810791 66.12675476 C-20.91713656 61.46962534 -19.32358922 56.81689484 -17.72735596 52.16497803 C-16.11421142 47.45690895 -14.51256889 42.74493331 -12.91015625 38.03320312 C-10.31414265 30.40344201 -7.71190946 22.77584263 -5.0978241 15.1522522 C-3.37140785 10.11045045 -1.67878044 5.05785464 0 0 Z " fill="#FCD97F" transform="translate(236,289)"/>
<path d="M0 0 C31.68 0 63.36 0 96 0 C96 5.28 96 10.56 96 16 C64.32 16 32.64 16 0 16 C0 10.72 0 5.44 0 0 Z " fill="#D58650" transform="translate(361,168)"/>
<path d="M0 0 C2.97 0 5.94 0 9 0 C9.32871094 0.70125 9.65742188 1.4025 9.99609375 2.125 C14.58103457 11.27003102 19.89417191 17.65677263 29.5625 21.5 C39.0713417 24.44603118 46.93059645 22.92340619 56 19 C63.42752232 14.30253425 67.33255581 7.82388095 71 0 C73.97 0 76.94 0 80 0 C78.51752858 4.83316657 76.55424548 9.24407489 74.33984375 13.76953125 C73.9899086 14.49113937 73.63997345 15.2127475 73.2794342 15.95622253 C72.54408344 17.4706108 71.8069473 18.9841333 71.06811523 20.49682617 C69.93353694 22.82061695 68.80522344 25.147372 67.67773438 27.47460938 C66.96130265 28.94809426 66.24451833 30.42140778 65.52734375 31.89453125 C65.18879868 32.59238235 64.8502536 33.29023346 64.50144958 34.00923157 C62.11583322 38.88416678 62.11583322 38.88416678 61 40 C59.64905018 40.09268999 58.29332909 40.11747326 56.93920898 40.11352539 C56.07839218 40.11344986 55.21757538 40.11337433 54.33067322 40.11329651 C53.39526199 40.10813522 52.45985077 40.10297394 51.49609375 40.09765625 C50.54307877 40.0962413 49.59006378 40.09482635 48.60816956 40.09336853 C45.55124835 40.08775152 42.49439923 40.07519616 39.4375 40.0625 C37.37044376 40.05748719 35.30338638 40.05292391 33.23632812 40.04882812 C28.15752412 40.03777656 23.0787743 40.02050055 18 40 C11.57125507 26.82639963 5.36636664 13.64485717 0 0 Z " fill="#D38551" transform="translate(367,80)"/>
<path d="M0 0 C5.03749652 3.66282758 8.68745922 7.07411425 11 13 C9.906875 13.0825 8.81375 13.165 7.6875 13.25 C4.09891735 13.67829111 4.09891735 13.67829111 2.1875 15.5 C1.048952 17.89694316 0.60859525 19.7871119 0.125 22.375 C-0.86576667 27.27244828 -2.33282189 29.57730043 -6 33 C-10.77653043 35.65362802 -14.55882279 36.68014715 -20 36 C-24.92410339 34.07182478 -28.00090107 31.38471959 -31 27 C-32.046875 23.66796875 -32.046875 23.66796875 -32.75 20.1875 C-32.99234375 19.02605469 -33.2346875 17.86460938 -33.484375 16.66796875 C-33.65453125 15.78753906 -33.8246875 14.90710938 -34 14 C-36.64 13.34 -39.28 12.68 -42 12 C-39.81758021 5.40679494 -34.89755056 1.44711075 -29.12109375 -2.1796875 C-20.09587731 -6.2731982 -8.22017184 -5.39053577 0 0 Z " fill="#FDD97F" transform="translate(423,52)"/>
<path d="M0 0 C3 1.9375 3 1.9375 5 5 C4.75163799 12.45132101 2.59002374 18.91325612 0.10546875 25.89453125 C-0.28315842 27.00430832 -0.67178558 28.11408539 -1.07218933 29.25749207 C-1.89202291 31.58962028 -2.71676227 33.92002912 -3.54614258 36.2487793 C-4.81285377 39.81349555 -6.05668447 43.38564398 -7.29882812 46.95898438 C-8.10019734 49.22964892 -8.90288631 51.49984822 -9.70703125 53.76953125 C-10.26195 55.36955742 -10.26195 55.36955742 -10.82807922 57.00190735 C-11.18492294 57.99361435 -11.54176666 58.98532135 -11.90942383 60.00708008 C-12.21729324 60.87706131 -12.52516266 61.74704254 -12.84236145 62.64338684 C-14.17903488 65.3644626 -15.71167812 67.02766372 -18 69 C-21.6540408 69.9063734 -25.01659991 69.42866158 -28.4375 67.9375 C-30.69379157 65.13969845 -31.07243424 62.50311623 -31 59 C-30.14942 55.18158353 -28.84545476 51.55540797 -27.51953125 47.87890625 C-27.15027023 46.82017807 -26.78100922 45.76144989 -26.40055847 44.67063904 C-25.61820063 42.43667575 -24.82850774 40.2052695 -24.03198242 37.97631836 C-22.81972928 34.58273764 -21.62962885 31.18203664 -20.44335938 27.77929688 C-19.67837267 25.60371288 -18.91213716 23.4285675 -18.14453125 21.25390625 C-17.79018509 20.24534073 -17.43583893 19.23677521 -17.070755 18.19764709 C-10.11142571 -1.22034448 -10.11142571 -1.22034448 0 0 Z " fill="#2C4255" transform="translate(190,160)"/>
<path d="M0 0 C5.43445998 0.6864581 10.22452295 2.30614115 15 5 C13.47901247 12.64460234 11.16950043 19.89594746 8.68359375 27.27734375 C8.26707047 28.52504044 7.85054718 29.77273712 7.42140198 31.0582428 C6.54580489 33.68046326 5.66729536 36.30168164 4.78637695 38.92211914 C3.65687093 42.28216398 2.53268576 45.64395814 1.41038418 49.00641537 C0.33668686 52.22236174 -0.73982342 55.4373621 -1.81640625 58.65234375 C-2.22057266 59.86059311 -2.62473907 61.06884247 -3.04115295 62.31370544 C-3.41501633 63.42568802 -3.7888797 64.53767059 -4.17407227 65.68334961 C-4.5033522 66.66436142 -4.83263214 67.64537323 -5.17189026 68.65611267 C-6 71 -6 71 -7 73 C-8.75140143 72.54705135 -10.50107344 72.08741252 -12.25 71.625 C-13.22453125 71.36976563 -14.1990625 71.11453125 -15.203125 70.8515625 C-17.65837303 70.10401491 -19.75617405 69.22876183 -22 68 C-21.37642265 62.02015727 -19.7329227 56.67805797 -17.796875 51 C-17.47720764 50.04665771 -17.15754028 49.09331543 -16.82818604 48.11108398 C-15.80777461 45.07212022 -14.77907584 42.03603933 -13.75 39 C-13.07366028 36.99107335 -12.39787396 34.9819603 -11.72265625 32.97265625 C-10.41858967 29.09373083 -9.11023611 25.21629274 -7.79882812 21.33984375 C-6.66447136 17.98209969 -5.54159707 14.62107945 -4.43554688 11.25390625 C-4.08704681 10.19514282 -4.08704681 10.19514282 -3.73150635 9.11499023 C-3.12492824 7.26754769 -2.52179241 5.41897589 -1.91894531 3.5703125 C-1 1 -1 1 0 0 Z " fill="#D28551" transform="translate(202,291)"/>
<path d="M0 0 C23.76 0 47.52 0 72 0 C72 5.28 72 10.56 72 16 C48.24 16 24.48 16 0 16 C0 10.72 0 5.44 0 0 Z " fill="#F9D67E" transform="translate(371,136)"/>
<path d="M0 0 C2.4375 2 2.4375 2 4 5 C4.16446721 11.60163492 1.97996868 17.76921528 -0.23828125 23.890625 C-0.56032028 24.79826599 -0.88235931 25.70590698 -1.2141571 26.64105225 C-1.8927497 28.54530475 -2.57623972 30.44781851 -3.2644043 32.34863281 C-4.31279276 35.25081042 -5.33992421 38.15991281 -6.36523438 41.0703125 C-7.02999065 42.92753458 -7.69596464 44.78432134 -8.36328125 46.640625 C-8.66760574 47.50528381 -8.97193024 48.36994263 -9.28547668 49.26080322 C-10.94545677 53.79943589 -12.5579878 57.47665273 -16 61 C-19.09354032 61.92588355 -21.86140452 61.69554955 -25 61 C-27.625 59.0625 -27.625 59.0625 -29 56 C-29.10131114 49.37735685 -26.98928635 43.25649745 -24.76171875 37.109375 C-24.43967972 36.20173401 -24.11764069 35.29409302 -23.7858429 34.35894775 C-23.1072503 32.45469525 -22.42376028 30.55218149 -21.7355957 28.65136719 C-20.68720724 25.74918958 -19.66007579 22.84008719 -18.63476562 19.9296875 C-17.97000935 18.07246542 -17.30403536 16.21567866 -16.63671875 14.359375 C-16.33239426 13.49471619 -16.02806976 12.63005737 -15.71452332 11.73919678 C-14.056991 7.20725667 -12.46347193 3.49409922 -9 0 C-5.39297148 -1.20234284 -3.64185324 -1.0405295 0 0 Z " fill="#2C4255" transform="translate(221,171)"/>
<path d="M0 0 C9.9163613 1.76419801 19.54588386 4.51709505 29.24609375 7.19140625 C31.10783927 7.70209486 32.96966207 8.21250183 34.83155823 8.72264099 C38.71436924 9.78722179 42.59656561 10.85400417 46.47827148 11.92260742 C51.45637548 13.29302973 56.43549344 14.65972156 61.41500759 16.02501011 C66.17153018 17.3292842 70.92759689 18.63521661 75.68359375 19.94140625 C76.59056944 20.19038729 77.49754513 20.43936832 78.43200493 20.69589424 C80.99064649 21.39865038 83.54896617 22.10256515 86.10717773 22.80688477 C86.86614349 23.01521439 87.62510925 23.22354401 88.40707397 23.43818665 C91.29567452 24.23455514 94.15675304 25.05225101 97 26 C96.47731534 28.76276177 95.89130413 31.3260876 95 34 C81.40109615 30.91872938 67.98375593 27.37585967 54.6171875 23.40625 C41.58669527 19.54371529 28.5065089 15.99395734 15.33129883 12.66479492 C14.07470459 12.34615479 12.81811035 12.02751465 11.5234375 11.69921875 C10.40888184 11.41908936 9.29432617 11.13895996 8.14599609 10.8503418 C5.05074799 10.01371684 2.03059105 9.04492313 -1 8 C-0.67 5.36 -0.34 2.72 0 0 Z " fill="#D79B71" transform="translate(261,315)"/>
<path d="M0 0 C31.68 0 63.36 0 96 0 C96 2.64 96 5.28 96 8 C64.32 8 32.64 8 0 8 C0 5.36 0 2.72 0 0 Z " fill="#D99C72" transform="translate(361,168)"/>
<path d="M0 0 C0.53326904 0.22437744 1.06653809 0.44875488 1.6159668 0.67993164 C18.97130434 7.97109835 36.40840845 15.05322703 53.85974121 22.11062622 C62.34774715 25.54368222 70.83034418 28.99002103 79.3125 32.4375 C80.70897989 33.00497522 82.10546413 33.57243976 83.50195312 34.13989258 C86.66803152 35.42644064 89.83403995 36.71316073 93 38 C92.25 43.75 92.25 43.75 90 46 C89.09088867 45.62528564 88.18177734 45.25057129 87.24511719 44.86450195 C83.5966829 43.36132671 79.94729012 41.86048878 76.29766846 40.36019897 C74.59983295 39.6619839 72.90220083 38.96327407 71.20477295 38.2640686 C59.78629107 33.56174988 48.34234677 28.92954125 36.8671875 24.3671875 C33.297199 22.94308916 29.72749594 21.51827725 26.15783691 20.09335327 C23.79965309 19.15494017 21.43986034 18.22056036 19.07849121 17.29019165 C15.74884377 15.9780293 12.42480991 14.6524899 9.1015625 13.32421875 C8.09294159 12.9310849 7.08432068 12.53795105 6.0451355 12.13290405 C4.6704863 11.57924667 4.6704863 11.57924667 3.26806641 11.0144043 C2.46414459 10.69626266 1.66022278 10.37812103 0.8319397 10.05033875 C-1 9 -1 9 -2 6 C-1.0625 2.8125 -1.0625 2.8125 0 0 Z " fill="#AC6D43" transform="translate(243,368)"/>
<path d="M0 0 C1.41629698 0.2950382 2.83144101 0.59561362 4.24609375 0.8984375 C5.42836548 1.14859619 5.42836548 1.14859619 6.63452148 1.40380859 C9.9624565 2.24257599 12.89551145 3.54683515 16 5 C13.63796596 14.41906887 10.50379662 23.52697462 7.3125 32.6875 C6.79589521 34.17892263 6.27961686 35.67045837 5.76367188 37.16210938 C4.51286802 40.77605254 3.25767814 44.38844368 2 48 C0.57316134 47.70559997 -0.8523744 47.40488129 -2.27734375 47.1015625 C-3.46831665 46.85140381 -3.46831665 46.85140381 -4.68334961 46.59619141 C-7.7015204 45.81946329 -10.29386282 44.52653892 -13 43 C-12.3908448 37.5239157 -11.05951506 32.64493636 -9.27734375 27.44140625 C-9.01240616 26.65225327 -8.74746857 25.86310028 -8.47450256 25.05003357 C-7.63449458 22.55223852 -6.78614657 20.05737155 -5.9375 17.5625 C-5.36337702 15.86021322 -4.78980368 14.15774095 -4.21679688 12.45507812 C-2.81754566 8.30121323 -1.4108123 4.14995182 0 0 Z " fill="#D38651" transform="translate(114,275)"/>
<path d="M0 0 C23.76 0 47.52 0 72 0 C72 2.64 72 5.28 72 8 C48.24 8 24.48 8 0 8 C0 5.36 0 2.72 0 0 Z " fill="#FCE3A7" transform="translate(371,136)"/>
<path d="M0 0 C3.23736846 1.24839699 6.45070033 2.53639685 9.6484375 3.8828125 C9.3184375 6.1928125 8.9884375 8.5028125 8.6484375 10.8828125 C5.13498742 10.46119849 1.93652062 9.98275971 -1.4140625 8.8203125 C-4.66839123 7.78169695 -6.96053602 7.4405047 -10.3515625 7.8828125 C-13.63707859 10.60509726 -15.0757929 13.05550369 -16.4140625 17.0703125 C-16.71441406 17.95074219 -17.01476562 18.83117187 -17.32421875 19.73828125 C-17.66324219 20.77597656 -18.00226563 21.81367188 -18.3515625 22.8828125 C-18.78163872 24.17738712 -19.21273792 25.47162209 -19.64453125 26.765625 C-19.90355225 27.54284912 -20.16257324 28.32007324 -20.42944336 29.12084961 C-21.53131334 32.42120838 -22.63691163 35.72031153 -23.7421875 39.01953125 C-24.69596165 41.86957484 -25.64892002 44.71989046 -26.6015625 47.5703125 C-26.85534668 48.32938904 -27.10913086 49.08846558 -27.37060547 49.87054443 C-30.73555901 59.94277434 -34.05860625 70.02781089 -37.3359375 80.12890625 C-37.67022766 81.15841904 -38.00451782 82.18793182 -38.34893799 83.24864197 C-39.99547982 88.32139752 -41.63788729 93.39544035 -43.27441406 98.47143555 C-43.88334958 100.35078563 -44.49239402 102.23010042 -45.1015625 104.109375 C-45.37095642 104.94975815 -45.64035034 105.7901413 -45.91790771 106.6559906 C-47.81832173 112.50367993 -50.0067191 118.19933275 -52.3515625 123.8828125 C-53.0115625 123.5528125 -53.6715625 123.2228125 -54.3515625 122.8828125 C-52.95982656 116.09063678 -51.07739576 109.61529031 -48.88330078 103.04223633 C-48.53830536 101.99717422 -48.19330994 100.95211212 -47.83786011 99.87538147 C-46.70393795 96.44527796 -45.56333138 93.01744681 -44.421875 89.58984375 C-43.62705528 87.19573773 -42.83236942 84.80158726 -42.03781128 82.40739441 C-40.37492604 77.40081589 -38.70838653 72.39546659 -37.03955078 67.39086914 C-35.11475583 61.61828958 -33.20004908 55.8424311 -31.2899915 50.0649603 C-29.44515658 44.48642526 -27.59033286 38.91125292 -25.73174667 33.337286 C-24.94502664 30.97358876 -24.16122103 28.6089194 -23.38040543 26.24326515 C-22.28834163 22.93766295 -21.18492504 19.63606149 -20.07861328 16.33520508 C-19.75950989 15.36103638 -19.44040649 14.38686768 -19.1116333 13.38317871 C-15.61330861 3.03229128 -11.95627935 -3.98542645 0 0 Z " fill="#D39870" transform="translate(426.3515625,329.1171875)"/>
<path d="M0 0 C1.73017508 0.45451184 3.45909877 0.91378857 5.1875 1.375 C6.63189453 1.75785156 6.63189453 1.75785156 8.10546875 2.1484375 C10.82210207 2.94766296 13.39137175 3.9031362 16 5 C15.74438677 7.3431213 15.40729228 9.67843403 15 12 C11.8568669 13.57156655 9.634536 12.11705576 6.375 11.0625 C5.18648437 10.68222656 3.99796875 10.30195313 2.7734375 9.91015625 C1.85820313 9.60980469 0.94296875 9.30945313 0 9 C-0.1858667 9.58491211 -0.3717334 10.16982422 -0.56323242 10.77246094 C-1.42083825 13.437514 -2.30382395 16.09348319 -3.1875 18.75 C-3.47947266 19.67039062 -3.77144531 20.59078125 -4.07226562 21.5390625 C-5.42519915 25.55422007 -6.55088563 28.48630224 -9.36328125 31.703125 C-14.83165479 34.39275465 -20.54720037 31.25773004 -25.9921875 29.42382812 C-26.94351563 29.09833984 -27.89484375 28.77285156 -28.875 28.4375 C-29.84953125 28.10814453 -30.8240625 27.77878906 -31.828125 27.43945312 C-34.22016694 26.63038012 -36.61069897 25.8171244 -39 25 C-38.25 19.25 -38.25 19.25 -36 17 C-34.7934375 17.433125 -33.586875 17.86625 -32.34375 18.3125 C-30.72939255 18.87564795 -29.11479629 19.43811164 -27.5 20 C-26.31277344 20.42925781 -26.31277344 20.42925781 -25.1015625 20.8671875 C-19.86773662 22.66899641 -15.53973652 23.67440271 -10 23 C-6.24188509 20.03092654 -5.26372482 14.25432586 -3.875 9.8125 C-3.35411984 8.17236272 -2.83081161 6.5329939 -2.3046875 4.89453125 C-1.9641333 3.80942261 -1.9641333 3.80942261 -1.61669922 2.70239258 C-1 1 -1 1 0 0 Z " fill="#F8E1A6" transform="translate(60,242)"/>
<path d="M0 0 C4.33080585 1.01726928 8.42242568 2.52828074 12.55908203 4.14892578 C13.4246875 4.47828125 14.29029297 4.80763672 15.18212891 5.14697266 C17.29073486 5.95080587 19.39517552 6.76399698 21.49658203 7.58642578 C21.16658203 9.56642578 20.83658203 11.54642578 20.49658203 13.58642578 C17.15397747 14.7006273 16.64825754 14.52500786 13.51220703 13.33642578 C12.74134766 13.05798828 11.97048828 12.77955078 11.17626953 12.49267578 C9.57018642 11.89362227 7.96597008 11.2895373 6.36376953 10.68017578 C1.41605507 8.90491611 -2.30068411 7.91318474 -7.50341797 9.58642578 C-10.79103965 13.39120143 -12.08850717 18.67873793 -13.69091797 23.39892578 C-13.96355469 24.1871875 -14.23619141 24.97544922 -14.51708984 25.78759766 C-15.18423523 27.71880799 -15.84452214 29.65238529 -16.50341797 31.58642578 C-20.96663362 31.06231517 -24.80441064 30.28052478 -28.94091797 28.52392578 C-29.80587891 28.16169922 -30.67083984 27.79947266 -31.56201172 27.42626953 C-32.20267578 27.14912109 -32.84333984 26.87197266 -33.50341797 26.58642578 C-32.84341797 23.94642578 -32.18341797 21.30642578 -31.50341797 18.58642578 C-26.55341797 20.23642578 -21.60341797 21.88642578 -16.50341797 23.58642578 C-16.25591797 22.32830078 -16.00841797 21.07017578 -15.75341797 19.77392578 C-10.9130196 -1.76925569 -10.9130196 -1.76925569 0 0 Z " fill="#D7B86E" transform="translate(70.50341796875,284.41357421875)"/>
<path d="M0 0 C5.03749652 3.66282758 8.68745922 7.07411425 11 13 C7.41898052 13.33311809 5.61261844 13.46360314 2.6875 11.25 C1.800625 10.5075 0.91375 9.765 0 9 C-7.21539293 4.41683196 -14.63487287 4.02439048 -23 5 C-27.262686 6.23774877 -30.72690958 7.98152767 -34.1875 10.75 C-36.78073972 12.53844119 -38.93428741 12.20902586 -42 12 C-39.81758021 5.40679494 -34.89755056 1.44711075 -29.12109375 -2.1796875 C-20.09587731 -6.2731982 -8.22017184 -5.39053577 0 0 Z " fill="#F9E1A6" transform="translate(423,52)"/>
<path d="M0 0 C-0.99 2.64 -1.98 5.28 -3 8 C-8.46230987 8.57293494 -13.92495654 9.14250277 -19.38793945 9.70898438 C-21.24545725 9.90207422 -23.10288051 10.09607586 -24.96020508 10.29101562 C-27.63338136 10.57142373 -30.30688302 10.84852652 -32.98046875 11.125 C-34.2213752 11.25624268 -34.2213752 11.25624268 -35.48735046 11.39013672 C-36.65799797 11.51026123 -36.65799797 11.51026123 -37.85229492 11.6328125 C-38.53402267 11.70387207 -39.21575043 11.77493164 -39.9181366 11.84814453 C-42.27304398 12.0199164 -44.63883623 12 -47 12 C-46.01 8.7 -45.02 5.4 -44 2 C-42.49308594 2.03222656 -40.98617187 2.06445312 -39.43359375 2.09765625 C-30.93386784 2.09901817 -22.553871 0.96078814 -14.12304688 -0.02148438 C-12.87716797 -0.16005859 -11.63128906 -0.29863281 -10.34765625 -0.44140625 C-9.22367432 -0.57232666 -8.09969238 -0.70324707 -6.94165039 -0.83813477 C-4 -1 -4 -1 0 0 Z " fill="#D6B76D" transform="translate(172,333)"/>
<path d="M0 0 C3.02977429 1.35231187 5.08472613 2.85480543 7.390625 5.23046875 C8.01396729 5.86533203 8.63730957 6.50019531 9.27954102 7.15429688 C9.92979248 7.82525391 10.58004395 8.49621094 11.25 9.1875 C15.80595607 13.82724754 20.37157301 18.31180112 25.34765625 22.50390625 C28.20076177 25.08721456 30.56908178 28.02212518 33 31 C32.34 32.65 31.68 34.3 31 36 C24.864144 31.7074854 19.64621363 26.86426798 14.4375 21.5 C13.00120434 20.02879887 11.56243425 18.56000904 10.12109375 17.09375 C9.43523193 16.39523926 8.74937012 15.69672852 8.04272461 14.97705078 C5.577599 12.59117924 2.96130501 10.46315161 0.22851562 8.39208984 C-1 7 -1 7 -0.9375 3.125 C-0.628125 2.09375 -0.31875 1.0625 0 0 Z " fill="#F8E0A5" transform="translate(150,269)"/>
<path d="M0 0 C4.0743356 0.84881992 5.54405875 2.30225596 8 5.625 C8.625 8.625 8.625 8.625 8 11.625 C5.54405875 14.94774404 4.0743356 16.40118008 0 17.25 C-4.0743356 16.40118008 -5.54405875 14.94774404 -8 11.625 C-8.625 8.625 -8.625 8.625 -8 5.625 C-5.54405875 2.30225596 -4.0743356 0.84881992 0 0 Z " fill="#D28551" transform="translate(407,15.375)"/>
<path d="M0 0 C3.2591716 1.03566238 6.50507885 2.10809441 9.75 3.1875 C11.13058594 3.62545898 11.13058594 3.62545898 12.5390625 4.07226562 C17.66472771 5.79939195 21.21119085 7.05620196 24 12 C24.25 14.8125 24.25 14.8125 24 17 C20.9313757 17 19.86820629 16.60928526 17.1875 15.3125 C10.95475329 12.43346634 4.47967481 10.24899097 -2 8 C-1.34 5.36 -0.68 2.72 0 0 Z " fill="#D8B96E" transform="translate(20,267)"/>
<path d="M0 0 C0.94939453 0.38285156 0.94939453 0.38285156 1.91796875 0.7734375 C6.04042027 2.41405826 10.17649506 4.01891126 14.3125 5.625 C15.14845703 5.94984375 15.98441406 6.2746875 16.84570312 6.609375 C18.89705013 7.40646983 20.94848475 8.20333833 23 9 C22.34 11.31 21.68 13.62 21 16 C13.81981817 14.70994369 4.745753 13.06155368 0 7 C-0.1875 3.3125 -0.1875 3.3125 0 0 Z " fill="#AB6E45" transform="translate(371,452)"/>
<path d="M0 0 C5.43445998 0.6864581 10.22452295 2.30614115 15 5 C14.67 6.98 14.34 8.96 14 11 C11.13421241 12.16161779 9.98369837 11.9946154 6.984375 11.00390625 C5.91703125 10.52824219 4.8496875 10.05257813 3.75 9.5625 C2.13351563 8.85287109 2.13351563 8.85287109 0.484375 8.12890625 C-0.33546875 7.75636719 -1.1553125 7.38382812 -2 7 C-1.125 1.125 -1.125 1.125 0 0 Z " fill="#D59971" transform="translate(202,291)"/>
<path d="M0 0 C1.73017508 0.45451184 3.45909877 0.91378857 5.1875 1.375 C6.15042969 1.63023437 7.11335938 1.88546875 8.10546875 2.1484375 C10.82210207 2.94766296 13.39137175 3.9031362 16 5 C15.34 7.31 14.68 9.62 14 12 C8.54520815 11.43179252 4.08940744 10.05362055 -1 8 C-0.67 5.36 -0.34 2.72 0 0 Z " fill="#F7E0A5" transform="translate(376,336)"/>
<path d="M0 0 C5.44567686 1.02862785 10.11817117 2.24614784 15 5 C14.67 6.98 14.34 8.96 14 11 C10.21404892 12.26198369 8.63284796 11.53040494 4.875 10.3125 C3.79992187 9.97863281 2.72484375 9.64476562 1.6171875 9.30078125 C-1 8 -1 8 -1.9921875 6.10546875 C-2.00160319 3.56794047 -1.30477283 2.1490376 0 0 Z " fill="#F6DFA5" transform="translate(457,322)"/>
<path d="M0 0 C10.55808656 3.07517084 10.55808656 3.07517084 15 5 C14.67 7.31 14.34 9.62 14 12 C8.34979382 11.39891424 3.33835539 9.92471317 -2 8 C-1.125 2.25 -1.125 2.25 0 0 Z " fill="#F6DFA5" transform="translate(236,289)"/>
<path d="M0 0 C5.69139902 1.09698167 10.74567937 2.54053077 16 5 C15.34 7.31 14.68 9.62 14 12 C8.88634986 10.9318153 3.92772031 9.76892524 -1 8 C-0.67 5.36 -0.34 2.72 0 0 Z " fill="#D59971" transform="translate(114,275)"/>
<path d="M0 0 C5.28 1.98 10.56 3.96 16 6 C15.34 8.31 14.68 10.62 14 13 C8.23955788 12.39363767 3.27985631 10.24341721 -2 8 C-1.34 5.36 -0.68 2.72 0 0 Z " fill="#D5B76D" transform="translate(403,482)"/>
<path d="M0 0 C0.66 0.66 1.32 1.32 2 2 C5.09188951 3.03207532 8.21143741 3.91714876 11.34765625 4.8046875 C14 6 14 6 14.99609375 7.8828125 C15.00078499 10.42546283 14.30754962 11.84638887 13 14 C11.24859857 13.54705135 9.49892656 13.08741252 7.75 12.625 C6.28820312 12.24214844 6.28820312 12.24214844 4.796875 11.8515625 C2 11 2 11 -2 9 C-1.34 6.03 -0.68 3.06 0 0 Z " fill="#D6B76E" transform="translate(208,372)"/>
<path d="M0 0 C4.95 1.65 9.9 3.3 15 5 C14.67 6.98 14.34 8.96 14 11 C10.11764181 12.49828872 7.56550712 11.43110582 3.75 10.0625 C2.67234375 9.68222656 1.5946875 9.30195313 0.484375 8.91015625 C-0.33546875 8.60980469 -1.1553125 8.30945313 -2 8 C-1.125 1.125 -1.125 1.125 0 0 Z " fill="#D6B76D" transform="translate(348,422)"/>
<path d="M0 0 C5.69139902 1.09698167 10.74567937 2.54053077 16 5 C15.34 7.31 14.68 9.62 14 12 C12.24859857 11.54705135 10.49892656 11.08741252 8.75 10.625 C7.28820312 10.24214844 7.28820312 10.24214844 5.796875 9.8515625 C3.34162697 9.10401491 1.24382595 8.22876183 -1 7 C-0.67 4.69 -0.34 2.38 0 0 Z " fill="#AB6D43" transform="translate(181,352)"/>
<path d="M0 0 C5.54436129 1.28708387 10.70201036 2.91864693 16 5 C15.34 7.31 14.68 9.62 14 12 C8.55432314 10.97137215 3.88182883 9.75385216 -1 7 C-0.67 4.69 -0.34 2.38 0 0 Z " fill="#AB6D43" transform="translate(102,311)"/>
</svg>
