<?xml version="1.0" encoding="UTF-8"?>
<svg version="1.1" xmlns="http://www.w3.org/2000/svg" width="512" height="512">
<path d="M0 0 C3.3524496 0.7449888 5.10055949 1.47892034 7.8125 3.625 C9.24915164 6.38303303 10.12762831 9.29059711 11.0625 12.25 C20.03171034 38.3436061 36.52799281 61.95210889 61.66796875 74.55517578 C68.25506723 77.68819039 74.73215725 79.96674979 81.8125 81.625 C77.11619215 72.34952576 72.56756951 63.59635626 65.8125 55.625 C63.66334215 52.40126323 63.42963197 51.35796326 63.8125 47.625 C65.8125 45.625 65.8125 45.625 68.9375 45.37109375 C73.10052969 45.64387291 76.84439869 46.47949613 80.8125 47.6875 C81.54364014 47.9043042 82.27478027 48.1211084 83.02807617 48.34448242 C88.9416126 50.17839902 94.47880616 52.57765479 99.99023438 55.38891602 C103.30565543 57.05912883 104.98815133 57.625 108.8125 57.625 C108.94205078 56.11873047 108.94205078 56.11873047 109.07421875 54.58203125 C110.33056894 41.74074337 113.23769025 30.62528964 121.8125 20.625 C122.70001953 19.42037109 122.70001953 19.42037109 123.60546875 18.19140625 C129.30932332 11.55878244 138.66030426 5.77146151 146.8125 2.625 C150.25 2.75 150.25 2.75 152.8125 3.625 C154.19622721 6.39245443 153.82001573 8.91778648 153.74707031 11.94873047 C153.51837933 21.74307783 153.33261926 31.45489147 159 39.875 C159.598125 40.4525 160.19625 41.03 160.8125 41.625 C165.75612083 41.20126107 167.45889336 39.1310433 170.8125 35.625 C185.06622284 22.80580601 204.06985923 16.87935959 222.8125 14.625 C224.14861328 14.45871094 224.14861328 14.45871094 225.51171875 14.2890625 C238.90023103 12.90726346 252.48884289 13.22957031 265.875 14.4375 C266.72578125 14.50751221 267.5765625 14.57752441 268.453125 14.6496582 C269.24332031 14.73046631 270.03351563 14.81127441 270.84765625 14.89453125 C271.5425415 14.96260986 272.23742676 15.03068848 272.95336914 15.10083008 C275.32023805 15.76815346 276.31522455 16.69389932 277.8125 18.625 C278 21.4375 278 21.4375 276.8125 24.625 C274.93619645 26.34893551 272.96073461 27.75763317 270.86328125 29.203125 C266.55535527 32.18995368 263.28299362 36.13284292 259.9375 40.125 C259.32132812 40.8571875 258.70515625 41.589375 258.0703125 42.34375 C256.54006382 44.60176615 256.54006382 44.60176615 257.1171875 47.40625 C257.34664063 48.1384375 257.57609375 48.870625 257.8125 49.625 C258.79605469 49.480625 259.77960938 49.33625 260.79296875 49.1875 C301.50355723 43.58444005 338.42131931 53.97291368 371.8125 77.625 C376.56791386 75.45770961 379.99896596 72.13654148 383.8125 68.625 C384.41964844 68.08359375 385.02679688 67.5421875 385.65234375 66.984375 C402.30568665 51.35206158 413.30679761 30.6436564 421.9921875 9.79296875 C425.16117589 2.18985319 425.16117589 2.18985319 428.8125 0.625 C432.32290758 -0.05007838 434.62465778 -0.10952284 437.7265625 1.80859375 C459.22759221 19.66901086 469.51504693 47.7733051 472.36279297 74.82104492 C474.56503529 100.29511227 468.03623502 126.3050091 451.51367188 146.18798828 C443.7419489 155.22828197 435.26313672 163.70586344 424.8125 169.625 C424.1525 169.625 423.4925 169.625 422.8125 169.625 C425.49316702 173.75616493 428.34631927 177.59617932 431.4375 181.4375 C444.04819482 197.58568536 452.51796913 215.97369629 458.8125 235.375 C459.11567139 236.30401123 459.41884277 237.23302246 459.73120117 238.19018555 C461.14401381 242.72653814 462.41680931 246.82074101 461.8125 251.625 C459.8125 253.625 459.8125 253.625 456.75390625 253.87890625 C451.44612367 253.53697774 446.5339591 252.27639491 441.39648438 250.95898438 C436.84722484 249.8611529 433.4605669 249.44253178 428.8125 250.625 C429.24715789 255.53042474 431.35207927 257.62645393 434.75 261.0625 C459.45258481 287.05738105 473.00190363 322.58131827 472.99780273 358.2878418 C473.00001201 360.44924981 473.01827701 362.61016486 473.03710938 364.77148438 C473.04003971 366.1458316 473.04202691 367.52018123 473.04296875 368.89453125 C473.04707764 370.13823486 473.05118652 371.38193848 473.05541992 372.66333008 C472.8125 375.625 472.8125 375.625 470.8125 377.625 C466.1082293 378.12020824 463.20943239 377.165219 459.08203125 374.96484375 C458.03208984 374.41892578 456.98214844 373.87300781 455.90039062 373.31054688 C454.27907227 372.44526367 454.27907227 372.44526367 452.625 371.5625 C450.46960832 370.41677262 448.30964541 369.27959049 446.14453125 368.15234375 C445.19296143 367.64437256 444.2413916 367.13640137 443.26098633 366.61303711 C440.7412186 365.28861639 440.7412186 365.28861639 437.8125 366.625 C436.95738932 368.94258245 436.95738932 368.94258245 436.48828125 371.8203125 C436.26865723 372.91746582 436.0490332 374.01461914 435.82275391 375.14501953 C435.59249512 376.33466309 435.36223633 377.52430664 435.125 378.75 C427.9558916 413.16445488 413.01482888 443.429868 390.8125 470.625 C390.3071875 471.24600586 389.801875 471.86701172 389.28125 472.50683594 C372.14402974 493.40398017 372.14402974 493.40398017 362.8125 499.625 C359.9375 499.875 359.9375 499.875 356.8125 498.625 C355.41052768 496.31614129 354.38073876 493.91992671 353.28125 491.453125 C350.67182532 486.4285945 346.78844637 482.60094637 342.8125 478.625 C342.09191406 477.90441406 341.37132812 477.18382812 340.62890625 476.44140625 C336.94881953 472.71776899 336.94881953 472.71776899 332.078125 471.4453125 C331.33046875 471.50460937 330.5828125 471.56390625 329.8125 471.625 C329.503125 472.615 329.503125 472.615 329.1875 473.625 C327.28469039 477.77658461 324.7031164 481.10774648 321.8125 484.625 C321.33167969 485.21539062 320.85085938 485.80578125 320.35546875 486.4140625 C306.27180495 502.03088464 282.53728106 507.07319107 262.8125 510.625 C262.07789551 510.75922363 261.34329102 510.89344727 260.58642578 511.03173828 C249.26229582 512.97794481 237.76724118 512.82597069 226.3125 512.875 C225.51372437 512.8804483 224.71494873 512.88589661 223.89196777 512.89151001 C221.60487173 512.90312605 219.31834792 512.89965895 217.03125 512.890625 C216.33312195 512.89456772 215.6349939 512.89851044 214.91571045 512.90257263 C210.04311066 512.85561066 210.04311066 512.85561066 207.8125 510.625 C207.57421875 508.375 207.57421875 508.375 207.5 505.625 C206.92887621 498.59649273 205.20665375 492.51562545 199.6796875 487.80859375 C189.22031659 481.09912592 175.27414352 476.78668663 162.8125 478.625 C159.0852115 482.26354354 157.75863853 486.550257 156.8125 491.625 C156.88706105 496.51289075 157.56943618 500.28242845 159.8125 504.625 C160.1875 507.1875 160.1875 507.1875 159.8125 509.625 C157.72012706 511.63101916 156.42960132 512.56137724 153.52026367 512.86132812 C152.68213135 512.79365234 151.84399902 512.72597656 150.98046875 512.65625 C150.02873779 512.58253174 149.07700684 512.50881348 148.09643555 512.43286133 C147.07461182 512.33126709 146.05278809 512.22967285 145 512.125 C143.93628174 512.02533936 142.87256348 511.92567871 141.77661133 511.82299805 C112.16279961 508.75648555 84.86662646 499.6847553 61.8125 480.625 C61.06355469 480.02945312 60.31460938 479.43390625 59.54296875 478.8203125 C41.40108957 463.86310245 30.27730112 441.16405515 24.07421875 418.99609375 C23.17249507 415.7777909 22.14972614 412.69496988 20.8125 409.625 C13.49071845 410.30708736 9.60617058 414.33097997 4.8125 419.625 C3.2916758 422.13044348 3.2916758 422.13044348 2.125 424.625 C1.03125 426.86328125 1.03125 426.86328125 -0.1875 428.625 C-3.875 429.8125 -3.875 429.8125 -7.1875 429.625 C-17.11191157 419.70058843 -14.45485005 391.55682622 -14.5 378.25 C-14.49578358 345.48248011 -9.16448368 313.52261489 -0.69067383 281.93066406 C-0.4308094 280.94280914 -0.4308094 280.94280914 -0.16569519 279.93499756 C0.30584219 278.14546478 0.78805872 276.35875564 1.27099609 274.57226562 C1.78887823 271.75356718 2.02554483 270.21060088 0.8125 267.625 C-5.74537023 265.43904326 -13.41795425 268.6621907 -19.42578125 271.609375 C-21.54314428 272.6840625 -23.63799384 273.78521356 -25.7175293 274.93139648 C-29.32178257 276.88171462 -32.05130281 278.32185931 -36.1875 277.625 C-38.1875 275.625 -38.1875 275.625 -38.43774414 273.78393555 C-38.36788049 268.18804247 -37.75806484 262.91537065 -36.625 257.4375 C-36.44864014 256.58091797 -36.27228027 255.72433594 -36.09057617 254.84179688 C-28.91686872 221.63898168 -13.5086352 194.36333579 6.8125 167.625 C6.09707031 167.38007813 5.38164063 167.13515625 4.64453125 166.8828125 C-12.76275449 159.15157663 -26.35698543 138.76588776 -33.1875 121.625 C-41.16195788 98.9714445 -42.24259052 73.70947244 -35.1875 50.625 C-34.97851074 49.93696289 -34.76952148 49.24892578 -34.55419922 48.54003906 C-29.71654135 33.2262247 -17.42056404 3.41579687 0 0 Z " fill="#CB4B4C" transform="translate(39.1875,-0.625)"/>
<path d="M0 0 C1.63334224 1.19012374 3.23562251 2.42351473 4.8125 3.6875 C24.01483631 17.83253651 46.76282993 20.42680686 70 19 C71.48659572 18.74026939 72.97135949 18.46959692 74.453125 18.18359375 C78 18 78 18 80.5390625 19.921875 C81.22742188 20.85515625 81.91578125 21.7884375 82.625 22.75 C83.37394531 23.76320312 84.12289062 24.77640625 84.89453125 25.8203125 C87.93185897 30.40729722 90.57948743 35.06245135 93 40 C93.37898437 40.70253906 93.75796875 41.40507812 94.1484375 42.12890625 C102.10591074 57.89427617 102.42113019 79.41179107 97.390625 96.0859375 C90.23636951 117.30311013 76.66904087 133.39664212 57.3828125 144.5078125 C38.09267967 154.06273811 17.02703396 155.93363335 -3.48046875 149.61328125 C-14.58035323 145.84560392 -24.29356597 139.83888901 -33 132 C-34.02480469 131.11441406 -34.02480469 131.11441406 -35.0703125 130.2109375 C-45.79674951 120.32578967 -51.60041947 107.6314872 -56 94 C-56.56654297 92.37964844 -56.56654297 92.37964844 -57.14453125 90.7265625 C-58.29476786 85.71594274 -58.29873167 80.93640572 -58.25 75.8125 C-58.24250732 74.78527832 -58.23501465 73.75805664 -58.22729492 72.69970703 C-57.87833085 48.1162605 -47.98447316 29.98447316 -30.9375 12.9375 C-23.77196082 6.24966343 -9.87832598 -4.93916299 0 0 Z " fill="#FEFDFE" transform="translate(314,147)"/>
<path d="M0 0 C3.9947954 0.89560064 7.3614884 2.27775068 10.93359375 4.21484375 C11.58070313 4.56353516 12.2278125 4.91222656 12.89453125 5.27148438 C19.78887141 9.16563525 25.24690907 14.1990134 30.74609375 19.83984375 C31.41125 20.49597656 32.07640625 21.15210938 32.76171875 21.828125 C48.75232924 38.64707793 52.27791054 59.90387868 51.82617188 82.18115234 C51.2194713 102.32435142 40.23261328 120.57372907 25.82421875 134.14453125 C18.45079796 140.78246026 9.84584427 145.06337761 0.74609375 148.83984375 C0.05902344 149.13761719 -0.62804687 149.43539062 -1.3359375 149.7421875 C-18.11127958 156.60948639 -38.68277058 155.6548684 -55.37304688 148.99414062 C-76.30741795 139.88971886 -92.24108697 125.0934633 -101.19140625 103.9296875 C-108.90236251 81.50554632 -107.9960071 59.54387348 -97.91015625 37.96484375 C-94.45542075 31.20891656 -90.26503338 23.57180303 -84.25390625 18.83984375 C-81.14453125 19.02734375 -81.14453125 19.02734375 -77.25390625 19.83984375 C-52.25237756 21.37963801 -26.69313697 18.0715949 -6.50390625 1.90234375 C-3.25390625 -0.16015625 -3.25390625 -0.16015625 0 0 Z " fill="#FEFDFD" transform="translate(203.25390625,146.16015625)"/>
<path d="M0 0 C17.19436431 10.63243344 28.67159768 35.32478037 33.25 54.25 C39.56288124 82.44860165 37.58964455 109.83475715 23.15625 135.24609375 C14.70726537 148.56016994 1.71800951 163.62371948 -13 170 C-16.25621971 169.07221681 -18.02349695 167.09080011 -20.25 164.625 C-28.35086771 156.2961529 -38.44039233 149.16045754 -48.49609375 143.37890625 C-50.6285925 141.42365415 -50.79359297 139.83699877 -51 137 C-47.20323941 129.56467719 -40.84156998 124.61385666 -33 122 C-30.32290919 121.51925482 -27.7150534 121.23816258 -25 121 C-24.05320675 118.79250992 -24.05320675 118.79250992 -24 116 C-25.56081793 113.80873404 -26.99141324 112.1229261 -28.875 110.25 C-29.38095703 109.72559326 -29.88691406 109.20118652 -30.40820312 108.66088867 C-31.44083398 107.59529806 -32.48023151 106.5362222 -33.52636719 105.48388672 C-34.81768462 104.18358397 -36.08657193 102.86108491 -37.3515625 101.53515625 C-45.14611173 93.47134078 -53.95901856 86.60587469 -63 80 C-61.48705075 76.29703581 -59.3194126 74.2799836 -56.3125 71.6875 C-36.61727163 54.62647014 -23.75321823 33.0135206 -13.8203125 9.16796875 C-10.88442495 2.12411452 -8.35782584 -1.39297097 0 0 Z " fill="#FCD6AC" transform="translate(475,0)"/>
<path d="M0 0 C3.3524496 0.7449888 5.10055949 1.47892034 7.8125 3.625 C9.24915164 6.38303303 10.12762831 9.29059711 11.0625 12.25 C20.00561066 38.2676758 36.508601 62.04419328 61.65185547 74.5390625 C68.51276296 77.76516038 75.57749653 80.3796541 82.8125 82.625 C82.3175 84.605 82.3175 84.605 81.8125 86.625 C77.76448292 87.69653393 74.90305206 87.31340998 70.8125 86.625 C51.96606442 85.57253671 34.65353342 90.21869303 20.265625 102.86328125 C12.99453683 109.57450385 12.99453683 109.57450385 9.5 118.4375 C9.58541667 120.59791667 9.58541667 120.59791667 10.8125 121.625 C12.31750845 121.73400148 13.827119 121.78081877 15.3359375 121.80078125 C37.8236079 122.30891145 37.8236079 122.30891145 45.64453125 127.9453125 C46.8125 129.625 46.8125 129.625 46.90234375 131.984375 C45.34849503 135.74925577 42.57864837 137.5616698 39.375 139.875 C38.0826822 140.8502818 36.79232624 141.82816842 35.50390625 142.80859375 C34.86984863 143.28796387 34.23579102 143.76733398 33.58251953 144.26123047 C24.22801002 151.46871876 16.09149935 160.2386361 7.8125 168.625 C-12.21004532 159.27516317 -26.42670062 139.2051802 -34 119.0625 C-34.2902002 118.29550781 -34.58040039 117.52851562 -34.87939453 116.73828125 C-42.25396309 96.20260952 -41.52391381 71.35794021 -35.1875 50.625 C-34.97851074 49.93696289 -34.76952148 49.24892578 -34.55419922 48.54003906 C-29.71654135 33.2262247 -17.42056404 3.41579687 0 0 Z " fill="#FCD6AC" transform="translate(39.1875,-0.625)"/>
<path d="M0 0 C2.74735404 0.75482858 4.42651729 2.21842769 6.0625 4.51953125 C7.11489243 6.94994426 7.2109754 8.88774501 7.30859375 11.53125 C7.73824772 19.80774232 11.43444383 27.77761645 17.08203125 33.8359375 C24.79867287 40.14463047 32.70329895 43.13906783 42.61540222 43.05937195 C43.54834761 43.06772861 44.48129301 43.07608527 45.44250947 43.08469516 C48.54677224 43.10754535 51.65030693 43.10207386 54.75463867 43.09643555 C56.9893879 43.10677473 59.22413001 43.11876534 61.4588623 43.13227844 C67.51491746 43.16327958 73.57073444 43.16860368 79.62685943 43.16734672 C84.69111275 43.1681785 89.75531475 43.18043107 94.81955224 43.19229633 C107.45695219 43.22121933 120.09420355 43.22419854 132.73161564 43.21623889 C143.67930142 43.2102627 154.62653862 43.24062718 165.57411262 43.28786161 C176.84071642 43.33608954 188.10711119 43.35736771 199.37384111 43.3525508 C205.68894238 43.35023385 212.00358052 43.35844563 218.31859398 43.39362144 C224.26230538 43.42569338 230.20507118 43.42367578 236.14879608 43.39617729 C238.32149747 43.39174055 240.49426225 43.39908193 242.66687202 43.41952133 C256.21151691 43.53824232 267.21749106 42.88841699 277.99939251 33.78753185 C283.72801441 28.02224017 287.03090823 19.71804336 287.43359375 11.71875 C287.6313118 8.18010379 287.91934486 5.76353556 289.99609375 2.84375 C293.28518574 0.25446481 294.90631991 -0.33286855 298.99609375 0.0234375 C302.57950702 0.96263856 303.93661176 2.47337133 305.93359375 5.53125 C307.62171282 16.9729459 303.28201876 29.94926743 296.6953125 39.21484375 C295.82326172 40.36146484 295.82326172 40.36146484 294.93359375 41.53125 C294.50691406 42.16160156 294.08023437 42.79195313 293.640625 43.44140625 C285.45689022 54.49574339 272.03518773 59.4714313 258.93359375 61.53125 C251.5241471 62.21860289 244.07069081 62.06976993 236.63745117 62.03295898 C234.43621476 62.03675004 232.23498075 62.04225651 230.03375244 62.04933167 C224.1022292 62.06319679 218.17099891 62.05218148 212.23949218 62.03562045 C206.01067785 62.02168855 199.78187913 62.02823892 193.55305481 62.03175354 C182.43449931 62.03462039 171.31607071 62.01814639 160.19754586 61.99333281 C150.1366239 61.97135315 140.07583228 61.96746495 130.01489258 61.97729492 C117.04162271 61.9899479 104.06844525 61.98739346 91.0951786 61.97163582 C86.1556566 61.9658937 81.21618554 61.96594463 76.27666283 61.97070122 C70.45949506 61.97548814 64.64253688 61.96529826 58.82540894 61.94374657 C56.69660969 61.93820318 54.56779021 61.93769077 52.43898964 61.94269943 C33.34353729 61.98197999 17.16054986 59.55464076 2.93359375 45.53125 C-6.14066332 34.64783963 -11.64541684 22.04617665 -11.40234375 7.65625 C-11.06640625 5.53125 -11.06640625 5.53125 -9.06640625 2.46875 C-5.76132368 0.33421751 -3.87508809 -0.29301233 0 0 Z " fill="#812D40" transform="translate(108.06640625,317.46875)"/>
<path d="M0 0 C13.31741848 6.75329318 21.05515308 16.44574349 26.5 30.1875 C28.87493537 42.92578971 26.73538025 54.99178699 19.875 65.9765625 C12.57734353 76.24880721 4.00141095 80.93702968 -7.8125 84.875 C-22.89168665 85.66464522 -33.71834307 84.64414194 -45.8125 74.875 C-46.46347656 74.35035156 -47.11445313 73.82570313 -47.78515625 73.28515625 C-54.94229657 66.85159495 -60.12519961 56.42362464 -60.99926758 46.82373047 C-61.079385 44.64939818 -61.0857062 42.48808125 -61.0625 40.3125 C-61.07023437 39.58353516 -61.07796875 38.85457031 -61.0859375 38.10351562 C-61.06989185 33.64683661 -60.48366317 30.07280272 -58.8125 25.875 C-56.59646706 26.94197882 -54.57435744 28.03675721 -52.53515625 29.421875 C-47.41310092 32.1555975 -41.14148568 31.81683047 -35.6171875 30.25390625 C-31.4217702 28.21068354 -29.24235759 25.23658497 -27.48046875 21.07421875 C-25.9208065 15.93919041 -25.79426735 11.97915129 -28.1640625 7.08203125 C-29.63388236 4.61259456 -31.16256986 2.22713255 -32.8125 -0.125 C-23.9340518 -4.74031023 -9.02072672 -3.59672565 0 0 Z " fill="#CB67A1" transform="translate(351.8125,179.125)"/>
<path d="M0 0 C11.23755608 6.31869503 20.05352583 16.11448065 24.5625 28.27734375 C27.51927994 41.00146417 25.39786162 53.95027201 18.5078125 65.01953125 C12.68324469 73.05743482 6.5097299 78.52816026 -2.7421875 82.26953125 C-3.63421875 82.63433594 -4.52625 82.99914062 -5.4453125 83.375 C-15.81346209 86.18815907 -28.59648924 85.62844928 -38.19921875 80.8203125 C-50.05387362 73.59097612 -56.82824988 65.31467508 -61.7421875 52.26953125 C-63.83789696 42.60667927 -63.46230523 33.41482067 -59.7421875 24.26953125 C-59.26910156 24.69105469 -58.79601562 25.11257812 -58.30859375 25.546875 C-53.31117213 29.68703911 -49.31945536 31.75247749 -42.7421875 31.26953125 C-36.5245071 30.08414614 -33.28081956 27.41663242 -29.7421875 22.26953125 C-28.20122453 17.64664233 -28.22417573 13.09740096 -28.7421875 8.26953125 C-30.44683027 4.79171917 -30.44683027 4.79171917 -32.7421875 2.26953125 C-33.4021875 1.27953125 -34.0621875 0.28953125 -34.7421875 -0.73046875 C-24.59440667 -4.86904168 -9.96579342 -4.42056354 0 0 Z " fill="#CB67A1" transform="translate(194.7421875,179.73046875)"/>
<path d="M0 0 C34.29358951 -0.92132032 71.32874319 7.85499109 98 31 C98 31.66 98 32.32 98 33 C98.56847656 33.26039062 99.13695312 33.52078125 99.72265625 33.7890625 C112.61094906 40.6421856 130.09893198 56.68962628 138 69 C137.58974359 73.41025641 137.58974359 73.41025641 136 75 C134.31595278 75.27228883 132.62750511 75.51753712 130.9375 75.75 C123.92944045 76.98618171 118.88748217 79.70012619 114.0625 84.9375 C111.91864325 88.12080245 111.27085355 90.2080503 111 94 C111.51046875 94.32871094 112.0209375 94.65742188 112.546875 94.99609375 C122.8696805 101.74984416 132.34659052 109.06964249 141.30859375 117.51953125 C143.88865895 119.98156036 143.88865895 119.98156036 146.4609375 121.84375 C149.89320502 124.75853718 152.47590118 128.10783293 155.1875 131.6875 C155.75557373 132.43717041 156.32364746 133.18684082 156.90893555 133.95922852 C169.13559834 150.39014728 177.69383784 168.31284577 184 187.75 C184.30317139 188.67901123 184.60634277 189.60802246 184.91870117 190.56518555 C186.33151381 195.10153814 187.60430931 199.19574101 187 204 C185 206 185 206 182 206.3125 C180.66416237 206.24795322 179.33021966 206.13836226 178 206 C177.14921875 205.91621094 176.2984375 205.83242187 175.421875 205.74609375 C172.52162177 205.20759644 170.48491681 204.60098996 168 203 C166.68187491 200.30051874 166.26538194 197.79189838 165.75 194.83203125 C163.00455505 180.80452348 156.7988887 167.48091684 150 155 C149.18789063 153.46859375 149.18789063 153.46859375 148.359375 151.90625 C135.89363295 129.39529834 117.74293326 109.72608418 95.125 97.25 C92 95 92 95 91.125 92.1875 C92.73204963 86.33324779 96.29843419 82.34707293 101 78.625 C106.26073618 75.77543457 111.10903277 74.80856413 117 74 C118.22952675 72.96643813 118.22952675 72.96643813 118.35327148 70.76757812 C117.85490882 66.86333543 116.11209555 65.48095531 113.34765625 62.71875 C112.86102509 62.22803009 112.37439392 61.73731018 111.87301636 61.23171997 C110.28350771 59.63963375 108.67489267 58.06888371 107.0625 56.5 C106.243759 55.69281525 106.243759 55.69281525 105.40847778 54.86932373 C97.07322733 46.65818763 88.53075373 39.0015283 78.89990234 32.31884766 C77.03419802 31.0237391 75.19876095 29.69293852 73.36328125 28.35546875 C59.09652703 18.18092383 42.82535421 10.79601218 26 6 C24.9790625 5.70609375 23.958125 5.4121875 22.90625 5.109375 C15.36320583 3.08466314 7.74156199 1.97342126 0 1 C0 0.67 0 0.34 0 0 Z " fill="#813034" transform="translate(314,47)"/>
<path d="M0 0 C2.52339396 1.04051746 4.80538825 2.08322058 7.1875 3.375 C7.83460938 3.72369141 8.48171875 4.07238281 9.1484375 4.43164062 C16.04277766 8.3257915 21.50081532 13.35916965 27 19 C27.66515625 19.65613281 28.3303125 20.31226563 29.015625 20.98828125 C45.00623549 37.80723418 48.53181679 59.06403493 48.08007812 81.34130859 C47.47337755 101.48450767 36.48651953 119.73388532 22.078125 133.3046875 C14.70470421 139.94261651 6.09975052 144.22353386 -3 148 C-3.68707031 148.29777344 -4.37414062 148.59554687 -5.08203125 148.90234375 C-16.40080147 153.53589327 -27.99309091 153.23776058 -40 153 C-37.15698622 151.10465748 -35.14308625 150.49962638 -31.85986328 149.80957031 C-17.84216814 146.834195 -5.61448391 140.68373625 5 131 C5.6084375 130.48308594 6.216875 129.96617187 6.84375 129.43359375 C19.37851784 118.06683837 27.65770125 99.56541795 29.30371094 82.93066406 C29.43546224 79.8429286 29.46834789 76.77783208 29.4375 73.6875 C29.42847656 72.59445557 29.41945313 71.50141113 29.41015625 70.37524414 C29.00627817 51.43644723 21.8256965 33.98479678 9 20 C8.37480469 19.29488281 7.74960938 18.58976562 7.10546875 17.86328125 C2.06160394 12.47014678 -3.69116532 8.77103204 -10 5 C-10.99 4.34 -11.98 3.68 -13 3 C-8.19614443 -0.8665179 -5.96443022 -1.32889502 0 0 Z " fill="#E6E4E5" transform="translate(207,147)"/>
<path d="M0 0 C3.40307369 1.53900198 6.70815062 3.23697395 10 5 C8.94390682 26.47389466 0.08560666 48.29364531 -9.96289062 67.06152344 C-10.65199238 68.34953378 -11.33306327 69.64187436 -12.00585938 70.93847656 C-23.53094194 93.13039086 -41.8326819 119.8884546 -63 134 C-66.1875 133.625 -66.1875 133.625 -69 133 C-69.99 130.03 -70.98 127.06 -72 124 C-70.71029297 122.67162109 -70.71029297 122.67162109 -69.39453125 121.31640625 C-56.10204161 107.45710908 -44.62582361 92.62899419 -35 76 C-34.61360352 75.33564941 -34.22720703 74.67129883 -33.82910156 73.98681641 C-21.50396012 52.51338264 -13.39483516 28.31387219 -9 4 C-8.55078125 1.65234375 -8.55078125 1.65234375 -8 0 C-4.957139 -1.5214305 -3.31253882 -0.8281347 0 0 Z " fill="#802F34" transform="translate(465,365)"/>
<path d="M0 0 C15.71164011 17.30894178 21.06319308 38.63845514 20.17041016 61.56054688 C18.86925017 80.18689445 8.51447182 99.53611554 -4.90234375 112.25 C-23.72288648 127.95130939 -44.73493816 134.22276347 -69 133 C-65.44792396 130.98299199 -61.82491081 130.10639468 -57.875 129.125 C-36.74134967 123.62094183 -20.28925509 111.81542515 -9 93 C0.92157842 74.49993892 4.0887925 53.68755973 -1.02734375 33.19921875 C-4.47674393 21.85360129 -9.53850958 10.44297512 -18 2 C-18 1.34 -18 0.68 -18 0 C-15.75265248 -0.39058179 -13.50195579 -0.76192958 -11.25 -1.125 C-9.99703125 -1.33382812 -8.7440625 -1.54265625 -7.453125 -1.7578125 C-2.74292937 -2.08816559 -2.74292937 -2.08816559 0 0 Z " fill="#E6E4E5" transform="translate(394,167)"/>
<path d="M0 0 C1.36540454 0.09714867 2.73003506 0.20569026 4.09375 0.32421875 C5.12822266 0.39672852 5.12822266 0.39672852 6.18359375 0.47070312 C11.29955717 0.86462234 11.29955717 0.86462234 13.59375 2.01171875 C13.861875 2.74519531 14.13 3.47867188 14.40625 4.234375 C15.89657562 7.71997208 17.94790816 9.73948584 20.59375 12.44921875 C45.18873682 38.56925656 58.78315928 73.91885283 58.77905273 109.67456055 C58.78126201 111.83596856 58.79952701 113.99688361 58.81835938 116.15820312 C58.82128971 117.53255035 58.82327691 118.90689998 58.82421875 120.28125 C58.82832764 121.52495361 58.83243652 122.76865723 58.83666992 124.05004883 C58.59375 127.01171875 58.59375 127.01171875 56.59375 129.01171875 C51.07850665 129.4407688 46.71140967 128.66188981 41.890625 125.9453125 C36.72130403 119.34299949 38.47344319 109.04667811 38.57861328 101.02539062 C38.7353954 69.81057704 22.92783617 38.0346097 2.59375 15.01171875 C1.29209719 13.75042727 -0.01978666 12.49957065 -1.34375 11.26171875 C-3.76527391 8.92312374 -4.39695567 8.04069519 -5.46875 4.69921875 C-5.36926504 0.42136556 -4.14824332 0.01427148 0 0 Z " fill="#802F34" transform="translate(453.40625,247.98828125)"/>
<path d="M0 0 C8.02277743 3.8485203 13.04982397 9.23776697 17.16015625 17.05859375 C19.46066827 24.31405474 18.15347418 31.25120943 15.16015625 38.05859375 C11.27955417 45.4082189 4.90523171 49.41110169 -2.83984375 52.05859375 C-11.17993615 53.1792568 -17.96501147 51.98278158 -24.83984375 47.05859375 C-30.42479639 42.02159873 -34.50375954 36.53068208 -35.08203125 28.8359375 C-35.26423891 19.69518649 -35.26423891 19.69518649 -32.83984375 16.05859375 C-31.0703125 15.3203125 -31.0703125 15.3203125 -29.02734375 14.74609375 C-24.57148471 13.18815753 -22.50494147 11.0181675 -19.83984375 7.05859375 C-18.75622697 4.75473025 -17.80972727 2.41402515 -16.83984375 0.05859375 C-11.91372226 -2.40446699 -5.08287019 -1.68496797 0 0 Z " fill="#2E2F39" transform="translate(184.83984375,194.94140625)"/>
<path d="M0 0 C7.49764328 3.85631473 12.93451758 8.57526719 15.68359375 16.69921875 C17.55102334 24.83007677 17.09245447 31.87920654 12.92578125 39.1796875 C8.52462645 45.33917291 2.82081541 49.92512987 -4.6875 51.4375 C-12.85408417 52.53047142 -18.8250729 50.94602742 -25.6875 46.4375 C-28.5 44.125 -28.5 44.125 -30.6875 41.4375 C-31.1515625 40.94378906 -31.615625 40.45007813 -32.09375 39.94140625 C-37.50489759 33.19250273 -36.10464176 24.59493889 -35.6875 16.4375 C-35.09582031 16.20675781 -34.50414062 15.97601563 -33.89453125 15.73828125 C-28.32654603 13.44023841 -23.29198046 11.28825311 -20.828125 5.375 C-20.57546875 4.653125 -20.3228125 3.93125 -20.0625 3.1875 C-19.60875 1.95 -19.155 0.7125 -18.6875 -0.5625 C-12.60805439 -2.58898187 -5.9480854 -2.42061214 0 0 Z " fill="#2D2F39" transform="translate(344.6875,195.5625)"/>
<path d="M0 0 C17.49 0 34.98 0 53 0 C53 15.43681319 53 15.43681319 48 21 C41.47981881 27.35299706 34.25306543 27.36399481 25.625 27.375 C24.62210938 27.39949219 23.61921875 27.42398437 22.5859375 27.44921875 C16.19192332 27.47432614 11.31253108 26.71399015 6 23 C-0.92375556 15.89404035 0 10.28188369 0 0 Z " fill="#F4EEC9" transform="translate(150,379)"/>
<path d="M0 0 C17.49 0 34.98 0 53 0 C53 15.72312704 53 15.72312704 49 21 C42.58956856 27.41043144 35.18192139 27.36408556 26.625 27.375 C25.62210937 27.39949219 24.61921875 27.42398437 23.5859375 27.44921875 C16.55093496 27.47684311 10.72815575 26.54976937 5.47949219 21.55224609 C-0.94490956 14.18989096 0 10.790202 0 0 Z " fill="#F4EEC9" transform="translate(308,379)"/>
<path d="M0 0 C2.39456675 0.92841265 4.74988788 1.91778703 7.10253906 2.94775391 C7.93382324 3.30788574 8.76510742 3.66801758 9.62158203 4.0390625 C23.71766827 10.25038311 23.71766827 10.25038311 26.72753906 13.26025391 C27.87414473 17.53120833 27.83496775 21.73224279 27.79003906 26.13525391 C27.78101563 27.28767578 27.77199219 28.44009766 27.76269531 29.62744141 C27.75109375 30.49626953 27.73949219 31.36509766 27.72753906 32.26025391 C23.64405958 31.75345973 20.92109766 31.02579988 17.54003906 28.69775391 C11.10705302 24.63171387 4.14059481 21.95428676 -2.88183594 19.09228516 C-14.10198493 14.48062392 -14.10198493 14.48062392 -16.27246094 10.26025391 C-16.85736466 6.33304322 -16.61840399 4.77916848 -14.39746094 1.44775391 C-10.10378241 -2.97220929 -5.46278444 -1.77828071 0 0 Z " fill="#81705E" transform="translate(483.2724609375,49.73974609375)"/>
<path d="M0 0 C2.69990662 1.79993774 4.5418865 3.083773 6 6 C6.39983603 9.59852427 6.36072367 11.43025064 4.40234375 14.5234375 C1.51488499 17.5001023 -0.85299308 18.42847716 -4.75 19.8125 C-10.5499834 21.96498949 -16.10295588 24.39631336 -21.625 27.1875 C-22.28725586 27.52048096 -22.94951172 27.85346191 -23.63183594 28.1965332 C-26.40570768 29.60938979 -29.0891916 31.05719058 -31.7109375 32.73828125 C-34 34 -34 34 -38 34 C-38.05469084 31.9794772 -38.09310129 29.95851112 -38.125 27.9375 C-38.14820313 26.81214844 -38.17140625 25.68679687 -38.1953125 24.52734375 C-37.97734343 20.59082226 -37.54624796 17.64075004 -36 14 C-33.68901682 12.25834513 -31.87768895 11.13628904 -29.3125 9.9375 C-28.6512915 9.60878906 -27.99008301 9.28007813 -27.30883789 8.94140625 C-25.22121291 7.92336539 -23.11773012 6.95370881 -21 6 C-20.31454102 5.69078613 -19.62908203 5.38157227 -18.92285156 5.06298828 C-6.10660679 -0.60892091 -6.10660679 -0.60892091 0 0 Z " fill="#81705E" transform="translate(38,48)"/>
<path d="M0 0 C6.45027515 0.26327654 9.47915791 2.50664023 14 7 C10.15613489 18.19819887 -0.93411507 24.05929473 -11 29 C-35.56485401 40.87628062 -63.18540095 42.46615377 -90 42 C-90 41.67 -90 41.34 -90 41 C-89.34217529 40.93006836 -88.68435059 40.86013672 -88.0065918 40.78808594 C-59.12390312 37.66346078 -26.51391412 34.11526106 -6.65625 10.21875 C-4.20058562 6.9290864 -2.06445469 3.5482815 0 0 Z " fill="#812F34" transform="translate(351,470)"/>
<path d="M0 0 C10.39501163 -0.19905341 20.7018375 -0.14031434 31.0625 0.8125 C31.91231445 0.88259277 32.76212891 0.95268555 33.63769531 1.02490234 C34.82443848 1.14599365 34.82443848 1.14599365 36.03515625 1.26953125 C36.7300415 1.33760986 37.42492676 1.40568848 38.14086914 1.47583008 C40.50773805 2.14315346 41.50272455 3.06889932 43 5 C43.1875 7.8125 43.1875 7.8125 42 11 C40.12369645 12.72393551 38.14823461 14.13263317 36.05078125 15.578125 C30.38721799 19.5048622 23.37504474 26.54638288 21.296875 33.27734375 C21.19890625 33.84582031 21.1009375 34.41429687 21 35 C15.2869573 36.28744624 9.87031033 37.48919253 4 37 C2 35 2 35 1.9375 32.4375 C5.0589607 22.33865655 14.7746123 15.05299411 23 9 C22.67 7.35 22.34 5.7 22 4 C20.74703125 3.87882812 19.4940625 3.75765625 18.203125 3.6328125 C16.55204135 3.46395167 14.90100191 3.29465817 13.25 3.125 C12.425 3.04636719 11.6 2.96773437 10.75 2.88671875 C9.55117188 2.76103516 9.55117188 2.76103516 8.328125 2.6328125 C7.5949707 2.55949707 6.86181641 2.48618164 6.10644531 2.41064453 C3.80047095 1.96110247 2.04608159 1.1362627 0 0 Z " fill="#802F34" transform="translate(274,13)"/>
<path d="M0 0 C1.13898241 2.27796482 1.10306874 3.47572298 1.0625 6 C1.05484619 6.80002441 1.04719238 7.60004883 1.03930664 8.42431641 C1.01288353 10.15576837 0.98602097 11.88721368 0.95874023 13.61865234 C0.91498574 18.12918807 1.113236 22.19510135 2.0625 26.625 C2.4966575 29.9072307 2.12610133 30.81182662 0.23828125 33.62890625 C-2.08227794 36.14124719 -4.0764105 38.21743524 -7 40 C-9.63671875 39.96484375 -9.63671875 39.96484375 -12 39 C-13.51171875 37.3984375 -13.51171875 37.3984375 -14.6875 35.375 C-15.08324219 34.72273438 -15.47898438 34.07046875 -15.88671875 33.3984375 C-18.67579592 27.38968878 -19.35715678 21.57443826 -19.625 15.0625 C-19.66367188 14.28326172 -19.70234375 13.50402344 -19.7421875 12.70117188 C-19.83544127 10.80112621 -19.91875962 8.90059722 -20 7 C-18.41779413 6.03980636 -16.83418669 5.08192202 -15.25 4.125 C-13.92742187 3.32449219 -13.92742187 3.32449219 -12.578125 2.5078125 C-7.77625798 -0.30055215 -5.6145172 -1.49720459 0 0 Z " fill="#812F34" transform="translate(192,3)"/>
<path d="M0 0 C1.61541205 0.4540262 3.20809978 0.98780373 4.79296875 1.5390625 C4.37724609 2.374375 4.37724609 2.374375 3.953125 3.2265625 C0.62656452 10.23483227 -1.3863135 15.68773746 1.23046875 23.2265625 C1.50890625 23.97550781 1.78734375 24.72445313 2.07421875 25.49609375 C2.96408001 28.02542765 3.33745763 29.89440221 2.79296875 32.5390625 C1.28125 34.19140625 1.28125 34.19140625 -1.20703125 35.5390625 C-4.06401531 35.5935632 -6.63695212 35.50807217 -9.45703125 35.2265625 C-10.20210937 35.16533203 -10.9471875 35.10410156 -11.71484375 35.04101562 C-13.5468528 34.8883482 -15.37717441 34.71566496 -17.20703125 34.5390625 C-17.17609375 33.61738281 -17.14515625 32.69570313 -17.11328125 31.74609375 C-17.00415849 28.42038953 -17.00415849 28.42038953 -18.70703125 25.2265625 C-21.23458311 19.0129975 -21.02666808 13.9119729 -18.45703125 7.7265625 C-14.09609768 -0.87500302 -9.3159424 -1.94563045 0 0 Z " fill="#812F34" transform="translate(196.20703125,476.4609375)"/>
<path d="M0 0 C2.97 0 5.94 0 9 0 C9.03738281 0.94101562 9.07476562 1.88203125 9.11328125 2.8515625 C9.21189453 4.71941406 9.21189453 4.71941406 9.3125 6.625 C9.39951172 8.46964844 9.39951172 8.46964844 9.48828125 10.3515625 C10.20948697 15.49359414 11.70345807 18.82994997 15.5625 22.3125 C19.25644269 24.86984494 21.32729619 25.18363447 25.8125 25.25 C26.85019531 25.27578125 27.88789063 25.3015625 28.95703125 25.328125 C32.37667646 24.95938277 34.16694076 23.87881764 37 22 C37.66 22 38.32 22 39 22 C41.77245698 16.65311868 43.25704608 12.25873971 43.625 6.1875 C43.69976562 5.02605469 43.77453125 3.86460937 43.8515625 2.66796875 C43.90054688 1.78753906 43.94953125 0.90710938 44 0 C46.97 0 49.94 0 53 0 C53.92029547 13.41586279 53.92029547 13.41586279 49.421875 19.41796875 C45.1452669 24.17628271 40.9426078 26.64983544 34.48754883 27.22314453 C31.53068967 27.34126549 28.58414838 27.37122558 25.625 27.375 C24.62210938 27.39949219 23.61921875 27.42398437 22.5859375 27.44921875 C16.19192332 27.47432614 11.31253108 26.71399015 6 23 C2.12293109 19.02090296 0.13142438 15.24209985 -0.1953125 9.66796875 C-0.17210937 8.51941406 -0.14890625 7.37085938 -0.125 6.1875 C-0.10695312 5.02605469 -0.08890625 3.86460937 -0.0703125 2.66796875 C-0.04710937 1.78753906 -0.02390625 0.90710938 0 0 Z " fill="#F5DEA9" transform="translate(150,379)"/>
<path d="M0 0 C2.97 0 5.94 0 9 0 C9.10957031 1.10859375 9.21914063 2.2171875 9.33203125 3.359375 C9.49152762 4.82298873 9.65172049 6.28652667 9.8125 7.75 C9.88275391 8.47960937 9.95300781 9.20921875 10.02539062 9.9609375 C10.50575761 14.18816696 11.17281115 16.80876217 14 20 C14 20.66 14 21.32 14 22 C14.804375 22.309375 15.60875 22.61875 16.4375 22.9375 C19 24 19 24 20 25 C26.44433273 25.5211591 32.5713143 25.93579713 38 22 C42.40966976 17.11360918 43.20113957 13.79655256 43.5625 7.375 C43.62727539 6.31539063 43.62727539 6.31539063 43.69335938 5.234375 C43.79944751 3.48981463 43.90022889 1.74493303 44 0 C46.97 0 49.94 0 53 0 C53.8046043 14.66167837 53.8046043 14.66167837 49 21 C42.58956856 27.41043144 35.18192139 27.36408556 26.625 27.375 C25.62210937 27.39949219 24.61921875 27.42398437 23.5859375 27.44921875 C16.55093496 27.47684311 10.72815575 26.54976937 5.47949219 21.55224609 C1.02455615 16.44689582 -0.25977267 12.98863331 -0.125 6.25 C-0.09792969 4.49429687 -0.09792969 4.49429687 -0.0703125 2.703125 C-0.04710937 1.81109375 -0.02390625 0.9190625 0 0 Z " fill="#F5DEA9" transform="translate(308,379)"/>
<path d="M0 0 C1.55548099 2.96382188 2.63698965 5.65727973 3 9 C1.08371266 13.6382864 -2.21906998 17.70824691 -6 21 C-8.5625 21.3125 -8.5625 21.3125 -11 21 C-14.33987309 17.66012691 -14.72177366 13.01635943 -15.34765625 8.48046875 C-15 6 -15 6 -12.98828125 3.9453125 C-12.10527344 3.34460938 -11.22226562 2.74390625 -10.3125 2.125 C-9.44238281 1.50882812 -8.57226562 0.89265625 -7.67578125 0.2578125 C-4.56534881 -1.20431779 -3.21678778 -1.03169049 0 0 Z " fill="#812F34" transform="translate(43,408)"/>
<path d="M0 0 C2.97 0 5.94 0 9 0 C9.03738281 0.94101562 9.07476562 1.88203125 9.11328125 2.8515625 C9.21189453 4.71941406 9.21189453 4.71941406 9.3125 6.625 C9.39951172 8.46964844 9.39951172 8.46964844 9.48828125 10.3515625 C10.20699622 15.47583564 11.66452604 18.82738872 15.5625 22.25 C16.7690625 23.11625 16.7690625 23.11625 18 24 C18.66 24.66 19.32 25.32 20 26 C14.79373534 26.65078308 11.01412085 26.51314789 6.625 23.4375 C3.15729638 20.45334071 0.80048155 17.5764905 0 13 C-0.2188601 8.65333671 -0.176511 4.34740063 0 0 Z " fill="#F8E7AF" transform="translate(150,379)"/>
<path d="M0 0 C2.97 0 5.94 0 9 0 C9.80695122 14.70444453 9.80695122 14.70444453 5 21 C0.94051621 24.86146019 -2.13923643 26.14290962 -7.6875 26.0625 C-8.89986328 26.04896484 -8.89986328 26.04896484 -10.13671875 26.03515625 C-10.75160156 26.02355469 -11.36648438 26.01195312 -12 26 C-11.01 25.34 -10.02 24.68 -9 24 C-4.01383985 20.24915045 -4.01383985 20.24915045 -1 15 C-0.70585235 12.3915208 -0.49362383 9.86466689 -0.375 7.25 C-0.31699219 6.20392578 -0.31699219 6.20392578 -0.2578125 5.13671875 C-0.16401376 3.42489182 -0.08093826 1.71248318 0 0 Z " fill="#F8E8AF" transform="translate(352,379)"/>
<path d="M0 0 C5.7383134 -0.29641619 10.35582754 0.71957103 15.8125 2.4375 C16.57498047 2.66759766 17.33746094 2.89769531 18.12304688 3.13476562 C23.62797619 4.8139881 23.62797619 4.8139881 26 6 C26.125 8.375 26.125 8.375 26 11 C25.34 11.66 24.68 12.32 24 13 C18.78333566 12.68597475 14.6122327 11.19165184 9.875 9.0625 C8.69679688 8.53785156 7.51859375 8.01320313 6.3046875 7.47265625 C5.21414062 6.98667969 4.12359375 6.50070313 3 6 C1.3371833 5.32378787 -0.32794948 4.65304615 -2 4 C-1.34 2.68 -0.68 1.36 0 0 Z " fill="#822F34" transform="translate(105,45)"/>
<path d="M0 0 C1.85625 0.0309375 1.85625 0.0309375 3.75 0.0625 C4.41 1.3825 5.07 2.7025 5.75 4.0625 C3.19342265 5.40838326 0.63076095 6.73925328 -1.9375 8.0625 C-2.65873047 8.4440625 -3.37996094 8.825625 -4.12304688 9.21875 C-11.12142701 12.79783025 -11.12142701 12.79783025 -15.25 12.0625 C-17.25 10.0625 -17.25 10.0625 -17.375 7.4375 C-17.33375 6.65375 -17.2925 5.87 -17.25 5.0625 C-15.83521865 4.41254703 -14.41808513 3.76771278 -13 3.125 C-12.21109375 2.76535156 -11.4221875 2.40570313 -10.609375 2.03515625 C-6.97503403 0.53689317 -3.9268481 -0.06544747 0 0 Z " fill="#822F34" transform="translate(18.25,264.9375)"/>
<path d="M0 0 C6.6 0 13.2 0 20 0 C20.33 0.99 20.66 1.98 21 3 C18.24915453 2.88588196 15.49988053 2.75914051 12.75 2.625 C11.97269531 2.5940625 11.19539063 2.563125 10.39453125 2.53125 C9.64042969 2.49257812 8.88632812 2.45390625 8.109375 2.4140625 C7.41811523 2.3826416 6.72685547 2.3512207 6.01464844 2.31884766 C4 2 4 2 0 0 Z " fill="#8C3236" transform="translate(274,13)"/>
<path d="M0 0 C0.66 0.33 1.32 0.66 2 1 C-2.29 5.29 -6.58 9.58 -11 14 C-11 9.40845608 -8.09282279 7.18698368 -5 4 C-3.3719908 2.61973133 -1.71956118 1.26438322 0 0 Z " fill="#B43D3F" transform="translate(170,11)"/>
<path d="M0 0 C0.99 0 1.98 0 3 0 C2.67 6.6 2.34 13.2 2 20 C1.67 20 1.34 20 1 20 C0.67 13.4 0.34 6.8 0 0 Z " fill="#DB8C8C" transform="translate(254,206)"/>
</svg>
