<?xml version="1.0" encoding="UTF-8"?>
<svg version="1.1" xmlns="http://www.w3.org/2000/svg" width="512" height="512">
<path d="M0 0 C0.75385483 -0.0065712 1.50770966 -0.0131424 2.28440857 -0.01991272 C4.76732511 -0.03953852 7.25018118 -0.05129033 9.7331543 -0.0612793 C11.0169803 -0.06739259 11.0169803 -0.06739259 12.32674217 -0.07362938 C16.86561206 -0.09445429 21.40445213 -0.108766 25.94335938 -0.11816406 C30.58492538 -0.12916279 35.2260033 -0.16349649 39.86739826 -0.20333576 C43.47528341 -0.2297519 47.08305721 -0.23787824 50.6910305 -0.24144554 C52.39911344 -0.24625494 54.10719337 -0.25770283 55.81517982 -0.27648354 C84.94406144 -0.57662484 110.90890838 9.90147442 131.86987305 30.30200195 C148.21804475 46.75212217 160.3841111 70.96618644 160.3503418 94.46606445 C160.37257813 96.25077148 160.37257813 96.25077148 160.39526367 98.0715332 C160.41976895 100.53495849 160.42534895 102.99865347 160.41088867 105.4621582 C160.55075576 113.33709904 161.93270738 118.81576427 165.86328125 125.66674805 C167.98066821 129.51388936 168.37042046 132.59160509 168.3425293 136.94262695 C168.33930664 137.83208008 168.33608398 138.7215332 168.33276367 139.63793945 C168.32438477 140.55833008 168.31600586 141.4787207 168.30737305 142.42700195 C168.30286133 143.36286133 168.29834961 144.2987207 168.29370117 145.26293945 C168.28194223 147.56769236 168.2655073 149.87231422 168.24487305 152.17700195 C168.93468262 152.13551025 169.62449219 152.09401855 170.33520508 152.05126953 C182.4264915 151.44348119 193.53918518 155.43106729 204.26318359 160.62646484 C214.37997679 165.40051569 224.9366919 166.68274757 235.99487305 167.36450195 C237.7737793 167.48728516 237.7737793 167.48728516 239.58862305 167.61254883 C242.47353984 167.81030522 245.35872413 167.99830198 248.24487305 168.17700195 C236.01824282 180.67333726 221.93002235 192.43769806 205.24487305 198.17700195 C204.57327148 198.41032227 203.90166992 198.64364258 203.2097168 198.8840332 C196.76216216 200.78681472 189.91647653 200.82093323 183.24487305 201.17700195 C199.40935029 215.47781006 217.05869059 221.21254289 238.24487305 223.17700195 C240.26575907 223.38482357 242.28660302 223.59305548 244.30737305 223.80200195 C246.25643555 223.98762695 246.25643555 223.98762695 248.24487305 224.17700195 C233.60998474 239.13412633 214.95394372 256.01890244 193.03540039 256.46972656 C177.59494077 256.57914714 165.54626907 253.59395462 153.7800293 242.9465332 C151.88376408 241.0635985 150.03939726 239.15663468 148.24487305 237.17700195 C147.57004883 238.59239258 147.57004883 238.59239258 146.8815918 240.03637695 C142.18100495 249.54840179 136.72324771 256.70918996 129.24487305 264.17700195 C128.4765918 265.01618164 127.70831055 265.85536133 126.91674805 266.7199707 C114.65061579 279.84139449 99.54035744 288.09356417 83.24487305 295.17700195 C86.47401464 297.32976301 89.28452458 298.29447359 92.97265625 299.49609375 C93.65286331 299.71922745 94.33307037 299.94236115 95.03388977 300.17225647 C96.51138529 300.65648939 97.98953568 301.13872766 99.468256 301.61920738 C101.82220678 302.38485721 104.1738538 303.15722113 106.52494812 303.93159485 C113.21062121 306.13273772 119.89912854 308.32509859 126.59179688 310.50488281 C130.6897207 311.84009722 134.78399271 313.18605344 138.87630272 314.53837013 C140.42362259 315.04740318 141.97223835 315.55251719 143.52224159 316.05331993 C167.34257776 323.75297668 186.50096776 335.14604157 198.31039047 358.15902424 C201.94395514 366.0055617 204.06765507 374.04765443 205.62670898 382.52001953 C205.83211807 383.5946344 206.03752716 384.66924927 206.24916077 385.77642822 C206.91826559 389.28981303 207.5740765 392.8055258 208.22924805 396.3215332 C208.69370423 398.78020851 209.15882313 401.23875871 209.62457275 403.69718933 C210.71894433 409.48592869 211.80431597 415.27630308 212.88598371 421.06742829 C213.87117856 426.33785755 214.8670768 431.60621719 215.8659246 436.8740738 C216.95078643 442.59635471 218.02931727 448.31980985 219.10480499 454.04385948 C219.56111774 456.47020553 220.01884579 458.89628585 220.47801971 461.32209206 C221.11767306 464.70738572 221.75015024 468.09394181 222.38061523 471.48095703 C222.57069656 472.48003586 222.76077789 473.47911469 222.95661926 474.50846863 C223.12753586 475.43479095 223.29845245 476.36111328 223.47454834 477.31550598 C223.69904726 478.51360759 223.69904726 478.51360759 223.92808151 479.73591328 C224.24487305 482.17700195 224.24487305 482.17700195 224.24487305 488.17700195 C97.52487305 488.17700195 -29.19512695 488.17700195 -159.75512695 488.17700195 C-159.08076018 480.75896741 -158.25704105 473.68141435 -156.88500977 466.40405273 C-156.69782379 465.38944977 -156.51063782 464.3748468 -156.31777954 463.32949829 C-155.7034766 460.00937976 -155.08144502 456.690775 -154.45825195 453.37231445 C-154.02316185 451.04265034 -153.58816589 448.71296864 -153.15325928 446.38327026 C-152.24245203 441.51252245 -151.32720346 436.6426319 -150.40942383 431.77319336 C-149.23984726 425.56328419 -148.08642778 419.35049306 -146.93700027 413.13682747 C-146.04456105 408.3274019 -145.14090312 403.52013273 -144.23421478 398.71337509 C-143.80443882 396.42502699 -143.37866212 394.13592373 -142.95713043 391.84604263 C-138.69533682 368.74219184 -132.15898293 345.36891114 -111.75512695 331.17700195 C-113.21258119 327.81364602 -115.06630549 325.6316619 -117.66918945 323.06762695 C-118.81000977 321.93647461 -118.81000977 321.93647461 -119.97387695 320.7824707 C-120.76793945 320.00516602 -121.56200195 319.22786133 -122.38012695 318.42700195 C-123.58282227 317.2378418 -123.58282227 317.2378418 -124.80981445 316.0246582 C-126.78715541 314.07085702 -128.76901604 312.12188092 -130.75512695 310.17700195 C-133.9286654 311.69418694 -136.27241051 313.36479439 -138.88012695 315.73950195 C-143.89968105 320.29498407 -147.0116557 320.5229323 -153.77075195 320.45825195 C-159.09614771 319.9563822 -161.65733146 317.42314819 -165.06762695 313.55200195 C-168.70742741 308.42931982 -168.32658622 303.3101282 -167.75512695 297.17700195 C-165.40472057 292.29538869 -161.64099952 288.88624395 -157.75512695 285.17700195 C-159.35580256 281.20173971 -162.12656252 278.53679891 -165.12280273 275.58227539 C-165.66929474 275.03549133 -166.21578674 274.48870728 -166.77883911 273.925354 C-168.58133788 272.12424547 -170.39081091 270.33031948 -172.20043945 268.53637695 C-173.45355062 267.286997 -174.70622014 266.03717394 -175.95846558 264.78692627 C-179.25188651 261.50113324 -182.55126986 258.22139125 -185.85192871 254.94287109 C-189.22041689 251.59485943 -192.58323455 248.24116288 -195.9465332 244.88793945 C-202.54385871 238.31204899 -209.14749678 231.7425368 -215.75512695 225.17700195 C-214.45792772 222.31921179 -213.09144435 220.26691659 -210.8659668 218.06079102 C-209.99529068 217.19034149 -209.99529068 217.19034149 -209.10702515 216.30230713 C-208.48300812 215.68861267 -207.85899109 215.07491821 -207.21606445 214.44262695 C-206.57520905 213.80460144 -205.93435364 213.16657593 -205.27407837 212.50921631 C-203.23074874 210.47706126 -201.18056713 208.45197978 -199.13012695 206.42700195 C-197.74164835 205.04855665 -196.35362205 203.66965559 -194.96606445 202.2902832 C-191.56763998 198.91388301 -188.16305442 195.54380907 -184.75512695 192.17700195 C-180.77986471 193.77767756 -178.11492391 196.54843752 -175.16040039 199.54467773 C-174.3402243 200.36441574 -174.3402243 200.36441574 -173.503479 201.20071411 C-171.70237047 203.00321288 -169.90844448 204.81268591 -168.11450195 206.62231445 C-166.865122 207.87542562 -165.61529894 209.12809514 -164.36505127 210.38034058 C-161.07925824 213.67376151 -157.79951625 216.97314486 -154.52099609 220.27380371 C-151.17298443 223.64229189 -147.81928788 227.00510955 -144.46606445 230.3684082 C-137.89017399 236.96573371 -131.3206618 243.56937178 -124.75512695 250.17700195 C-121.5815885 248.65981697 -119.2378434 246.98920952 -116.63012695 244.61450195 C-111.61057285 240.05901984 -108.49859821 239.83107161 -101.73950195 239.89575195 C-96.4141062 240.39762171 -93.85292245 242.93085571 -90.44262695 246.80200195 C-86.80282649 251.92468408 -87.18366768 257.0438757 -87.75512695 263.17700195 C-90.10553334 268.05861521 -93.86925439 271.46775996 -97.75512695 275.17700195 C-96.43674537 278.07744144 -95.0010988 280.20226835 -92.79345703 282.49267578 C-91.89660942 283.4280291 -91.89660942 283.4280291 -90.98164368 284.38227844 C-90.01293587 285.37314705 -90.01293587 285.37314705 -89.0246582 286.3840332 C-88.35601242 287.06882248 -87.68736664 287.75361176 -86.99845886 288.45915222 C-85.58337934 289.90184978 -84.16519461 291.34150722 -82.74414062 292.77832031 C-80.5750766 294.98193364 -78.43414357 297.21069919 -76.29223633 299.44067383 C-74.91304698 300.84010812 -73.53223984 302.23795025 -72.1496582 303.6340332 C-71.51397415 304.30473343 -70.8782901 304.97543365 -70.2233429 305.66645813 C-66.47580773 309.4236904 -66.47580773 309.4236904 -61.36889648 310.26977539 C-60.17635254 309.90916016 -58.98380859 309.54854492 -57.75512695 309.17700195 C-57.05858505 308.97253952 -56.36204315 308.76807709 -55.64439392 308.55741882 C-53.25749005 307.83281352 -50.90066362 307.04227227 -48.5402832 306.2355957 C-47.25667152 305.80489525 -47.25667152 305.80489525 -45.9471283 305.36549377 C-43.23535086 304.45415124 -40.52648878 303.53447005 -37.81762695 302.61450195 C-35.97080849 301.99220267 -34.12380504 301.37045211 -32.27661133 300.74926758 C-27.76728463 299.23151966 -23.26055209 297.70629081 -18.75512695 296.17700195 C-21.05992922 294.64046711 -23.17448985 293.42381185 -25.6418457 292.21606445 C-52.25396291 278.91981135 -75.5446088 259.94347724 -85.75512695 231.17700195 C-87.62746199 224.70566749 -88.13867663 218.45649791 -88.13012695 211.73950195 C-88.13286621 210.81661377 -88.13560547 209.89372559 -88.13842773 208.94287109 C-88.05352563 203.02225961 -87.41882891 198.25349853 -84.43481445 193.0168457 C-83.53222146 191.15837043 -83.53222146 191.15837043 -84.4074707 189.1730957 C-85.90158069 186.96008062 -87.56380116 185.19928379 -89.44262695 183.30200195 C-101.26653696 170.2312069 -104.55163435 154.30366448 -104.11450195 137.17700195 C-103.76383545 130.36695674 -102.07528456 124.55855491 -98.20532227 118.91821289 C-96.52106064 115.73456146 -96.38653383 113.7433838 -96.3840332 110.16137695 C-96.36953125 109.00065674 -96.3550293 107.83993652 -96.34008789 106.64404297 C-96.33267578 105.41741943 -96.32526367 104.1907959 -96.31762695 102.92700195 C-95.68814205 73.31656303 -85.1135503 47.9146781 -63.97558594 26.90771484 C-47.18202091 10.90176343 -23.32954365 0.08964379 0 0 Z " fill="#5F7BB6" transform="translate(239.755126953125,15.822998046875)"/>
<path d="M0 0 C3.97526224 1.6006756 6.64020304 4.37143556 9.59472656 7.36767578 C10.14151062 7.91416779 10.68829468 8.46065979 11.25164795 9.02371216 C13.05275649 10.82621093 14.84668247 12.63568396 16.640625 14.4453125 C17.89000495 15.69842367 19.13982801 16.95109319 20.39007568 18.20333862 C23.67586872 21.49675955 26.9556107 24.79614291 30.23413086 28.09680176 C33.58214253 31.46528994 36.93583907 34.8281076 40.2890625 38.19140625 C46.86495296 44.78873176 53.43446516 51.39236983 60 58 C63.17353845 56.48281502 65.51728355 54.81220756 68.125 52.4375 C73.1445541 47.88201788 76.25652875 47.65406965 83.015625 47.71875 C88.34102075 48.22061976 90.9022045 50.75385376 94.3125 54.625 C97.95230046 59.74768213 97.57145927 64.86687375 97 71 C94.64959362 75.88161326 90.88587257 79.290758 87 83 C88.31838158 85.90043948 89.75402816 88.0252664 91.96166992 90.31567383 C92.55956833 90.93924271 93.15746674 91.56281158 93.77348328 92.20527649 C94.41928848 92.86585556 95.06509369 93.52643463 95.73046875 94.20703125 C96.39911453 94.89182053 97.06776031 95.5766098 97.75666809 96.28215027 C99.17174761 97.72484783 100.58993235 99.16450526 102.01098633 100.60131836 C104.18005035 102.80493169 106.32098338 105.03369724 108.46289062 107.26367188 C109.84207997 108.66310617 111.22288711 110.0609483 112.60546875 111.45703125 C113.2411528 112.12773148 113.87683685 112.7984317 114.53178406 113.48945618 C118.2866088 117.25137867 118.2866088 117.25137867 123.40600586 118.0949707 C127.60536229 116.81556621 131.76517246 115.50301518 135.8984375 114.0234375 C137.61173556 113.42898492 139.32528524 112.83525714 141.0390625 112.2421875 C143.70996119 111.31066127 146.37854788 110.37373512 149.04296875 109.42382812 C151.63516615 108.50296627 154.2345672 107.60550214 156.8359375 106.7109375 C158.01293716 106.28136246 158.01293716 106.28136246 159.2137146 105.84310913 C167.39890766 103.0649466 174.1447241 104.57196927 182.3125 106.9375 C193.56822859 110.19410794 204.47494508 111.36528373 216.1875 111.3125 C217.46181885 111.30831055 218.7361377 111.30412109 220.04907227 111.29980469 C233.62791987 111.13756615 245.75841646 109.07757062 258.65625 104.671875 C268.39153392 102.71571982 278.02002759 107.04092214 287.13671875 110.1015625 C288.70441561 110.62192898 290.27227459 111.14180727 291.84028625 111.66122437 C295.1194123 112.74982902 298.39624664 113.84501455 301.67163086 114.94482422 C305.82790493 116.33972772 309.98974469 117.71707726 314.15356731 119.08925819 C317.39329916 120.15933758 320.62961015 121.23948238 323.86506081 122.32242966 C325.3958924 122.83341529 326.9277634 123.34129979 328.46076012 123.84575272 C352.16843107 131.66423493 371.28804617 143.03130332 383.06551743 165.98202229 C386.69908209 173.82855975 388.82278203 181.87065248 390.38183594 190.34301758 C390.58724503 191.41763245 390.79265411 192.49224731 391.00428772 193.59942627 C391.67339254 197.11281108 392.32920345 200.62852385 392.984375 204.14453125 C393.44883118 206.60320656 393.91395008 209.06175676 394.37969971 211.52018738 C395.47407128 217.30892673 396.55944292 223.09930113 397.64111066 228.89042634 C398.62630552 234.1608556 399.62220376 239.42921523 400.62105155 244.69707185 C401.70591338 250.41935276 402.78444422 256.1428079 403.85993195 261.86685753 C404.31624469 264.29320357 404.77397275 266.71928389 405.23314667 269.1450901 C405.87280001 272.53038377 406.50527719 275.91693985 407.13574219 279.30395508 C407.32582352 280.30303391 407.51590485 281.30211273 407.71174622 282.33146667 C407.88266281 283.257789 408.05357941 284.18411133 408.22967529 285.13850403 C408.45417421 286.33660564 408.45417421 286.33660564 408.68320847 287.55891132 C409 290 409 290 409 296 C282.28 296 155.56 296 25 296 C25.67436678 288.58196546 26.4980859 281.50441239 27.87011719 274.22705078 C28.05730316 273.21244781 28.24448914 272.19784485 28.43734741 271.15249634 C29.05165036 267.8323778 29.67368193 264.51377305 30.296875 261.1953125 C30.7319651 258.86564839 31.16696106 256.53596669 31.60186768 254.20626831 C32.51267492 249.3355205 33.4279235 244.46562995 34.34570312 239.59619141 C35.5152797 233.38628224 36.66869917 227.17349111 37.81812668 220.95982552 C38.7105659 216.15039995 39.61422383 211.34313077 40.52091217 206.53637314 C40.95068813 204.24802504 41.37646484 201.95892178 41.79799652 199.66904068 C46.05979013 176.56518989 52.59614402 153.19190919 73 139 C71.54254576 135.63664406 69.68882146 133.45465995 67.0859375 130.890625 C66.32539062 130.13652344 65.56484375 129.38242187 64.78125 128.60546875 C63.9871875 127.82816406 63.193125 127.05085938 62.375 126.25 C61.57320313 125.45722656 60.77140625 124.66445313 59.9453125 123.84765625 C57.96797154 121.89385507 55.98611091 119.94487897 54 118 C50.82646155 119.51718498 48.48271645 121.18779244 45.875 123.5625 C40.8554459 128.11798212 37.74347125 128.34593035 30.984375 128.28125 C25.65897925 127.77938024 23.0977955 125.24614624 19.6875 121.375 C16.04769954 116.25231787 16.42854073 111.13312625 17 105 C19.35040638 100.11838674 23.11412743 96.709242 27 93 C25.3993244 89.02473776 22.62856444 86.35979696 19.63232422 83.40527344 C18.81258621 82.58509735 18.81258621 82.58509735 17.97628784 81.74835205 C16.17378907 79.94724351 14.36431604 78.15331753 12.5546875 76.359375 C11.30157633 75.10999505 10.04890681 73.86017199 8.79666138 72.60992432 C5.50324045 69.32413128 2.20385709 66.0443893 -1.09680176 62.76586914 C-4.46528994 59.41785747 -7.8281076 56.06416093 -11.19140625 52.7109375 C-17.78873176 46.13504704 -24.39236983 39.56553484 -31 33 C-29.70280076 30.14220983 -28.3363174 28.08991464 -26.11083984 25.88378906 C-25.5303891 25.30348938 -24.94993835 24.7231897 -24.35189819 24.12530518 C-23.72788116 23.51161072 -23.10386414 22.89791626 -22.4609375 22.265625 C-21.82008209 21.62759949 -21.17922668 20.98957397 -20.51895142 20.33221436 C-18.47562179 18.30005931 -16.42544018 16.27497782 -14.375 14.25 C-12.9865214 12.8715547 -11.5984951 11.49265364 -10.2109375 10.11328125 C-6.81251303 6.73688106 -3.40792746 3.36680712 0 0 Z " fill="#D5DEEC" transform="translate(55,208)"/>
<path d="M0 0 C1.63134766 2.2019043 1.63134766 2.2019043 3.4140625 5.32421875 C3.90397171 6.17080803 3.90397171 6.17080803 4.40377808 7.03450012 C5.48787794 8.91308145 6.55614777 10.8002083 7.625 12.6875 C8.38488497 14.00979497 9.14597124 15.33140025 9.90820312 16.65234375 C11.49329749 19.40147237 13.07314038 22.1535199 14.64941406 24.90771484 C17.87517372 30.53514587 21.16298119 36.12586291 24.45159912 41.71670532 C26.22077758 44.72601845 27.98512332 47.73816273 29.75 50.75 C30.45831063 51.95834664 31.16664395 53.16667998 31.875 54.375 C42.5 72.5 42.5 72.5 53.125 90.625 C53.475625 91.22311996 53.82625 91.82123993 54.1875 92.43748474 C54.89585109 93.64585853 55.60418442 94.85424273 56.3125 96.06263733 C58.08291632 99.08293726 59.85364042 102.10305591 61.625 105.12280273 C64.81774543 110.56636216 68.00827504 116.0111562 71.18725586 121.46276855 C72.95664362 124.49690477 74.72791396 127.52993905 76.5 130.5625 C76.84530762 131.15359558 77.19061523 131.74469116 77.54638672 132.35369873 C83.81123138 143.06762382 90.23056427 153.68445107 96.73242188 164.25610352 C97.7465918 165.91210571 97.7465918 165.91210571 98.78125 167.6015625 C99.38001953 168.57432129 99.97878906 169.54708008 100.59570312 170.54931641 C102 173 102 173 103 176 C37 176 -29 176 -97 176 C-96.32563322 168.58196546 -95.5019141 161.50441239 -94.12988281 154.22705078 C-93.94269684 153.21244781 -93.75551086 152.19784485 -93.56265259 151.15249634 C-92.94834964 147.8323778 -92.32631807 144.51377305 -91.703125 141.1953125 C-91.2680349 138.86564839 -90.83303894 136.53596669 -90.39813232 134.20626831 C-89.48732508 129.3355205 -88.5720765 124.46562995 -87.65429688 119.59619141 C-86.4847203 113.38628224 -85.33130083 107.17349111 -84.18187332 100.95982552 C-83.2894341 96.15039995 -82.38577617 91.34313077 -81.47908783 86.53637314 C-81.04931187 84.24802504 -80.62353516 81.95892178 -80.20200348 79.66904068 C-75.74293538 55.49573401 -68.77317837 33.21682671 -48 18 C-38.15530769 12.06727753 -27.50791782 8.22026727 -16.6875 4.5 C-16.03458984 4.27463562 -15.38167969 4.04927124 -14.70898438 3.81707764 C-3.59053666 0 -3.59053666 0 0 0 Z " fill="#4864AA" transform="translate(177,328)"/>
<path d="M0 0 C26.48737082 6.90154563 53.04067646 15.2027843 68.05078125 39.75878906 C73.11382262 48.4362794 76.09408839 56.73079794 78.08984375 66.53125 C78.29776047 67.54154266 78.50567719 68.55183533 78.71989441 69.59274292 C82.19478004 86.67270482 85.40275135 103.80697667 88.64038086 120.93310547 C89.6247602 126.13878349 90.61632913 131.34306588 91.60948658 136.54707527 C92.37925839 140.58697308 93.14411577 144.62778985 93.9075985 148.66888046 C94.27141529 150.59011597 94.63702317 152.51101324 95.00449562 154.43155289 C95.5144481 157.09941443 96.01746886 159.76849498 96.51879883 162.43798828 C96.66990616 163.22027802 96.82101349 164.00256775 96.97669983 164.80856323 C97.18042206 165.90482025 97.18042206 165.90482025 97.38825989 167.02322388 C97.50712964 167.65021242 97.62599939 168.27720097 97.74847126 168.92318916 C98.07556319 171.62390662 98.03776069 174.28259232 98 177 C80.4237051 177.32749079 62.84836597 177.57413073 45.26971531 177.72537041 C37.10691224 177.79747126 28.9460078 177.89570119 20.78442383 178.05615234 C13.66802894 178.19598873 6.55300895 178.2860801 -0.56472164 178.31723893 C-4.33214141 178.33544828 -8.09562933 178.37800398 -11.86178398 178.48022079 C-34.74525466 179.07767386 -34.74525466 179.07767386 -40.11825371 175.64780807 C-43.7964675 171.97041621 -45.37247745 167.86197562 -47 163 C-47.97975522 161.14538489 -48.98747016 159.30476583 -50.04296875 157.4921875 C-50.74365479 156.17299316 -50.74365479 156.17299316 -51.45849609 154.82714844 C-53.23773195 151.56399494 -55.13112411 148.37688643 -57.05078125 145.1953125 C-57.57307816 144.32685699 -57.57307816 144.32685699 -58.10592651 143.44085693 C-59.53867695 141.06056999 -60.97361016 138.68171018 -62.41821289 136.30859375 C-63.48987361 134.5455774 -64.55221818 132.77722145 -65.61328125 131.0078125 C-66.24016846 129.97285645 -66.86705566 128.93790039 -67.51293945 127.87158203 C-68.9581594 125.08079611 -69.81842232 123.12945182 -70 120 C-69.09814453 117.68945312 -69.09814453 117.68945312 -67.6328125 115.28125 C-67.0857666 114.36432373 -66.5387207 113.44739746 -65.97509766 112.50268555 C-65.36456543 111.51179932 -64.7540332 110.52091309 -64.125 109.5 C-62.82250468 107.32967428 -61.52043988 105.15909014 -60.21875 102.98828125 C-59.52105693 101.83531389 -58.823137 100.68248377 -58.125 99.52978516 C-55.9995293 96.01087713 -53.91597356 92.4684372 -51.84375 88.91796875 C-51.49834167 88.32616318 -51.15293335 87.7343576 -50.79705811 87.12461853 C-50.09419522 85.9198724 -49.39145732 84.71505333 -48.68884277 83.51016235 C-42.79747184 73.41658435 -36.84561498 63.35936227 -30.875 53.3125 C-20.38699868 35.65558343 -10.15757597 17.84877567 0 0 Z " fill="#4764AA" transform="translate(366,327)"/>
<path d="M0 0 C0.92590942 -0.0080365 1.85181885 -0.016073 2.80578613 -0.02435303 C30.83525446 -0.20860233 73.91633446 2.80246622 96.109375 22.28125 C102.29674431 28.92883686 104.5295678 35.27712181 104.29296875 44.32421875 C103.73462493 49.1161586 101.97411543 53.04458563 99.9375 57.375 C99.23795721 59.05754343 98.55038885 60.74511636 97.875 62.4375 C97.53984375 63.26121094 97.2046875 64.08492187 96.859375 64.93359375 C95.97773598 67.26844285 95.30037565 69.59912193 94.625 72 C92.62811234 78.00128472 89.07961541 82.44515403 83.6796875 85.76171875 C73.08713318 90.61522033 61.85241507 88.26897265 50.875 86 C15.0945354 79.09623006 -20.2228472 80.00670049 -55.97998047 86.69799805 C-66.66339654 88.65767359 -76.72426396 90.17607996 -86.265625 83.93359375 C-93.16140472 78.42973994 -95.54784755 72.11004475 -97.359375 63.65625 C-98.29460675 60.62194254 -99.74676028 57.95262 -101.1875 55.125 C-104.60039649 47.89768979 -105.5393614 41.63426754 -103.359375 33.87109375 C-100.06130326 25.61193951 -95.12698421 20.27475173 -87.046875 16.6171875 C-86.06203125 16.20726562 -85.0771875 15.79734375 -84.0625 15.375 C-82.95390625 14.90320313 -81.8453125 14.43140625 -80.703125 13.9453125 C-68.87031477 9.11321392 -56.53481398 6.06004074 -44.0625 3.375 C-43.23202148 3.19275879 -42.40154297 3.01051758 -41.54589844 2.82275391 C-27.84827767 -0.01796192 -13.92805014 0.06737403 0 0 Z " fill="#EFB7A1" transform="translate(272.0625,127.625)"/>
<path d="M0 0 C10.06465427 2.65765622 19.94159575 3.39444652 30.32421875 3.34765625 C32.23569702 3.34137207 32.23569702 3.34137207 34.18579102 3.33496094 C47.76463862 3.1727224 59.89513521 1.11272687 72.79296875 -3.29296875 C80.28149178 -4.79767197 87.42385059 -2.5087932 94.51171875 -0.12890625 C95.3622583 0.15111237 96.21279785 0.43113098 97.08911133 0.71963501 C98.86868768 1.3085762 100.64675688 1.90208973 102.42333984 2.5 C105.15230957 3.41538592 107.88807369 4.30794445 110.625 5.19921875 C112.35852492 5.775987 114.09161477 6.35406488 115.82421875 6.93359375 C116.64390137 7.19933197 117.46358398 7.46507019 118.30810547 7.73886108 C120.28417085 8.41399028 122.216625 9.21425808 124.13671875 10.03515625 C125.13671875 13.03515625 125.13671875 13.03515625 123.828125 15.87890625 C123.12950012 17.10400105 122.41863843 18.32215612 121.69921875 19.53515625 C121.30234863 20.2223877 120.90547852 20.90961914 120.49658203 21.61767578 C119.05685673 24.0983593 117.59845685 26.56737994 116.13671875 29.03515625 C115.55615723 30.01709961 114.9755957 30.99904297 114.37744141 32.01074219 C111.7325439 36.48058459 109.08455644 40.94856521 106.42822266 45.41162109 C101.74243534 53.28954495 97.13531817 61.20916413 92.57421875 69.16015625 C87.09482351 78.70634627 81.48384256 88.16389912 75.79443359 97.58618164 C68.7370023 109.30353027 61.93096729 121.16379079 55.13671875 133.03515625 C52.24590394 129.56887721 49.85215408 126.0554166 47.58984375 122.15234375 C47.26191833 121.58955719 46.93399292 121.02677063 46.59613037 120.44692993 C45.89094499 119.23574109 45.1875668 118.02349856 44.48583984 116.81030273 C42.97899789 114.20529364 41.4633375 111.60545367 39.94812012 109.00531006 C39.16424025 107.66006237 38.3807966 106.3145604 37.59777832 104.96881104 C33.81409351 98.46903304 29.97944373 92.00021324 26.13671875 85.53515625 C20.54380669 76.11525965 14.98442021 66.67653493 9.44921875 57.22265625 C4.41900319 48.63255656 -0.61452996 40.04452661 -5.67578125 31.47265625 C-6.18995605 30.60116943 -6.70413086 29.72968262 -7.23388672 28.83178711 C-9.90869466 24.30757699 -12.60639977 19.79848113 -15.33203125 15.3046875 C-16.17350708 13.91455444 -16.17350708 13.91455444 -17.03198242 12.49633789 C-18.10366535 10.72876936 -19.17917015 8.96351068 -20.2590332 7.20092773 C-20.73300537 6.41919189 -21.20697754 5.63745605 -21.6953125 4.83203125 C-22.11530518 4.14463867 -22.53529785 3.45724609 -22.96801758 2.74902344 C-23.86328125 1.03515625 -23.86328125 1.03515625 -23.86328125 -0.96484375 C-24.52328125 -1.29484375 -25.18328125 -1.62484375 -25.86328125 -1.96484375 C-17.13120936 -5.7711315 -8.68924293 -2.51404938 0 0 Z " fill="#94AECE" transform="translate(240.86328125,315.96484375)"/>
<path d="M0 0 C0 0.66 0 1.32 0 2 C-0.66 2 -1.32 2 -2 2 C-2.24878906 2.52980469 -2.49757812 3.05960937 -2.75390625 3.60546875 C-4.91688818 7.76191992 -7.52223129 11.65660831 -10.02734375 15.61328125 C-20.2312279 33.13163285 -21.48100085 54.93808199 -16.96875 74.38671875 C-11.39960241 95.158741 -2.01705219 111.41185496 14 126 C14.66 126.33 15.32 126.66 16 127 C16.33 110.17 16.66 93.34 17 76 C22.28 76 27.56 76 33 76 C33 96.79 33 117.58 33 139 C38.40147065 140.80049022 43.72684182 142.55776025 49.1875 144.125 C50.91033203 144.62386719 50.91033203 144.62386719 52.66796875 145.1328125 C58.0778972 146.54078919 63.0066345 147.11394847 68.59692383 146.96728516 C69.88879105 146.938815 71.18065826 146.91034485 72.51167297 146.88101196 C73.19495478 146.86498554 73.87823658 146.84895912 74.58222389 146.83244705 C79.00171631 146.74220937 83.42222721 146.72469418 87.84247303 146.69610023 C91.71430438 146.66700438 95.58208336 146.61085345 99.45239258 146.49609375 C124.63016221 145.77942971 124.63016221 145.77942971 130.31097412 149.52282715 C133.82781953 153.25048666 137 158.69863485 137 164 C71 164 5 164 -63 164 C-62.32563322 156.58196546 -61.5019141 149.50441239 -60.12988281 142.22705078 C-59.94269684 141.21244781 -59.75551086 140.19784485 -59.56265259 139.15249634 C-58.94834964 135.8323778 -58.32631807 132.51377305 -57.703125 129.1953125 C-57.2680349 126.86564839 -56.83303894 124.53596669 -56.39813232 122.20626831 C-55.48732508 117.3355205 -54.5720765 112.46562995 -53.65429688 107.59619141 C-52.4847203 101.38628224 -51.33130083 95.17349111 -50.18187332 88.95982552 C-49.2894341 84.15039995 -48.38577617 79.34313077 -47.47908783 74.53637314 C-47.04931187 72.24802504 -46.62353516 69.95892178 -46.20200348 67.66904068 C-41.75041016 43.53625596 -34.79153834 21.15585337 -14 6 C-11.96705292 4.86217596 -9.90295799 3.77834952 -7.8125 2.75 C-6.76707031 2.22921875 -5.72164062 1.7084375 -4.64453125 1.171875 C-2 0 -2 0 0 0 Z " fill="#294E9D" transform="translate(143,340)"/>
<path d="M0 0 C3.97526224 1.6006756 6.64020304 4.37143556 9.59472656 7.36767578 C10.14151062 7.91416779 10.68829468 8.46065979 11.25164795 9.02371216 C13.05275649 10.82621093 14.84668247 12.63568396 16.640625 14.4453125 C17.89000495 15.69842367 19.13982801 16.95109319 20.39007568 18.20333862 C23.67586872 21.49675955 26.9556107 24.79614291 30.23413086 28.09680176 C33.58214253 31.46528994 36.93583907 34.8281076 40.2890625 38.19140625 C46.86495296 44.78873176 53.43446516 51.39236983 60 58 C63.17353845 56.48281502 65.51728355 54.81220756 68.125 52.4375 C73.1445541 47.88201788 76.25652875 47.65406965 83.015625 47.71875 C88.34102075 48.22061976 90.9022045 50.75385376 94.3125 54.625 C96.87773278 58.23532761 97.20811873 60.33302416 97.3125 64.75 C97.36857422 66.28914063 97.36857422 66.28914063 97.42578125 67.859375 C96.60907418 73.88352623 92.27264953 77.97834532 88.11132812 82.14746094 C87.40320229 82.86084373 87.40320229 82.86084373 86.68077087 83.58863831 C85.13588536 85.14224888 83.58389252 86.68851956 82.03125 88.234375 C80.94766517 89.31930868 79.86437725 90.40453897 78.78137207 91.49005127 C76.51845273 93.75590898 74.25198135 96.01813542 71.98291016 98.27783203 C69.07757248 101.17174864 66.18134314 104.07458898 63.28769684 106.98019028 C61.05567287 109.21944433 58.8189036 111.45390936 56.58067322 113.68695831 C55.51070937 114.75559027 54.44222295 115.82570366 53.3752594 116.89733124 C51.88452052 118.39315719 50.38750668 119.88240938 48.88867188 121.37011719 C48.0391394 122.21805847 47.18960693 123.06599976 46.31433105 123.93963623 C41.39498822 128.31914612 37.34440462 128.43374826 30.9140625 128.31640625 C25.64048686 127.74380621 23.07301726 125.21801959 19.6875 121.375 C16.04769954 116.25231787 16.42854073 111.13312625 17 105 C19.35040638 100.11838674 23.11412743 96.709242 27 93 C25.3993244 89.02473776 22.62856444 86.35979696 19.63232422 83.40527344 C18.81258621 82.58509735 18.81258621 82.58509735 17.97628784 81.74835205 C16.17378907 79.94724351 14.36431604 78.15331753 12.5546875 76.359375 C11.30157633 75.10999505 10.04890681 73.86017199 8.79666138 72.60992432 C5.50324045 69.32413128 2.20385709 66.0443893 -1.09680176 62.76586914 C-4.46528994 59.41785747 -7.8281076 56.06416093 -11.19140625 52.7109375 C-17.78873176 46.13504704 -24.39236983 39.56553484 -31 33 C-29.70280076 30.14220983 -28.3363174 28.08991464 -26.11083984 25.88378906 C-25.5303891 25.30348938 -24.94993835 24.7231897 -24.35189819 24.12530518 C-23.72788116 23.51161072 -23.10386414 22.89791626 -22.4609375 22.265625 C-21.82008209 21.62759949 -21.17922668 20.98957397 -20.51895142 20.33221436 C-18.47562179 18.30005931 -16.42544018 16.27497782 -14.375 14.25 C-12.9865214 12.8715547 -11.5984951 11.49265364 -10.2109375 10.11328125 C-6.81251303 6.73688106 -3.40792746 3.36680712 0 0 Z " fill="#8E6558" transform="translate(55,208)"/>
<path d="M0 0 C1.31871094 0.00676758 1.31871094 0.00676758 2.6640625 0.01367188 C4.81773803 0.02537663 6.97137817 0.04330931 9.125 0.0625 C9.125 0.3925 9.125 0.7225 9.125 1.0625 C7.6709375 1.28292969 7.6709375 1.28292969 6.1875 1.5078125 C-14.43863482 4.86235269 -32.29007351 12.97170363 -47.875 27.0625 C-48.79023438 27.88363281 -49.70546875 28.70476563 -50.6484375 29.55078125 C-68.86802428 46.77518051 -76.53712398 67.87904187 -80.875 92.0625 C-79.8962793 91.72927734 -78.91755859 91.39605469 -77.90917969 91.05273438 C-74.27337319 89.81664382 -70.63491423 88.58852975 -66.99560547 87.36279297 C-65.42162911 86.83143411 -63.84837788 86.29792223 -62.27587891 85.76220703 C-60.01392347 84.99202764 -57.7494632 84.22965894 -55.484375 83.46875 C-54.78318542 83.22813843 -54.08199585 82.98752686 -53.35955811 82.73962402 C-49.97504642 81.61093733 -47.48966748 81.0625 -43.875 81.0625 C-43.20279649 82.99808599 -42.53741923 84.93604372 -41.875 86.875 C-41.50375 87.95394531 -41.1325 89.03289062 -40.75 90.14453125 C-39.875 93.0625 -39.875 93.0625 -39.875 96.0625 C-41.41824951 96.58420776 -41.41824951 96.58420776 -42.99267578 97.11645508 C-46.82960984 98.4148379 -50.66459062 99.71890904 -54.49902344 101.0246582 C-56.15507586 101.58772249 -57.81164568 102.14926753 -59.46875 102.70922852 C-61.85816715 103.51694916 -64.24563611 104.33021553 -66.6328125 105.14453125 C-67.73473434 105.51503349 -67.73473434 105.51503349 -68.85891724 105.89302063 C-73.03359049 107.32391263 -77.06150013 108.80449707 -80.875 111.0625 C-82.10233742 114.27049496 -82.10233742 114.27049496 -82.875 118.0625 C-83.81320694 120.29369802 -84.83196556 122.47239665 -85.875 124.65625 C-91.38182789 137.9070546 -89.61144524 151.89287177 -84.875 165.0625 C-82.5776498 170.31358617 -80.05511882 175.29232177 -76.875 180.0625 C-76.17375 179.77375 -75.4725 179.485 -74.75 179.1875 C-71.82047497 178.04116412 -68.86578347 177.03624346 -65.875 176.0625 C-64.82218188 180.56090469 -64.11937998 184.39619787 -66.07421875 188.70703125 C-67.1154267 190.34825734 -68.19926119 191.96354826 -69.33203125 193.54296875 C-75.23886811 203.18830995 -73.72805152 215.893018 -71.375 226.5 C-68.43405593 238.51366044 -63.16508512 249.67353059 -54.34375 258.4609375 C-52.875 260.0625 -52.875 260.0625 -52.875 262.0625 C-51.885 262.3925 -50.895 262.7225 -49.875 263.0625 C-49.875 263.7225 -49.875 264.3825 -49.875 265.0625 C-49.30523437 265.30871094 -48.73546875 265.55492187 -48.1484375 265.80859375 C-45.49995777 267.26935319 -43.67352724 269.02194549 -41.5 271.125 C-22.64995434 288.32153289 1.52515607 297.07001467 26.125 302.0625 C26.125 302.3925 26.125 302.7225 26.125 303.0625 C-1.31465477 303.80300043 -27.74844401 295.35099968 -49.875 279.0625 C-50.67679688 278.48371094 -51.47859375 277.90492188 -52.3046875 277.30859375 C-70.55868739 263.45350859 -86.23165468 245.37991007 -89.875 222.0625 C-90.17741139 218.57785772 -90.25445081 215.12175021 -90.25 211.625 C-90.25273926 210.70211182 -90.25547852 209.77922363 -90.25830078 208.82836914 C-90.17339868 202.90775766 -89.53870196 198.13899657 -86.5546875 192.90234375 C-85.65209451 191.04386848 -85.65209451 191.04386848 -86.52734375 189.05859375 C-88.02145374 186.84557866 -89.68367421 185.08478184 -91.5625 183.1875 C-103.38641 170.11670494 -106.67150739 154.18916253 -106.234375 137.0625 C-105.88370849 130.25245478 -104.19515761 124.44405296 -100.32519531 118.80371094 C-98.64093369 115.6200595 -98.50640688 113.62888184 -98.50390625 110.046875 C-98.48215332 108.30579468 -98.48215332 108.30579468 -98.45996094 106.52954102 C-98.45254883 105.30291748 -98.44513672 104.07629395 -98.4375 102.8125 C-97.8080151 73.20206108 -87.23342335 47.80017615 -66.09545898 26.79321289 C-48.55837538 10.07861371 -24.23863914 -0.23727583 0 0 Z " fill="#4864AA" transform="translate(241.875,15.9375)"/>
<path d="M0 0 C10.06465427 2.65765622 19.94159575 3.39444652 30.32421875 3.34765625 C32.23569702 3.34137207 32.23569702 3.34137207 34.18579102 3.33496094 C46.66448915 3.18586686 57.67984157 1.43688544 69.63671875 -2.21484375 C75.33249561 -3.95120067 79.32326829 -4.1676266 85.13671875 -2.96484375 C86.13671875 0.03515625 86.13671875 0.03515625 85.26318359 2.04614258 C84.79605957 2.8120874 84.32893555 3.57803223 83.84765625 4.3671875 C83.32494141 5.23666016 82.80222656 6.10613281 82.26367188 7.00195312 C81.68552734 7.94103516 81.10738281 8.88011719 80.51171875 9.84765625 C79.30051298 11.85400474 78.08958297 13.86051972 76.87890625 15.8671875 C76.25467773 16.89408691 75.63044922 17.92098633 74.98730469 18.97900391 C72.16424209 23.64115398 69.40162487 28.33837145 66.63671875 33.03515625 C65.55108845 34.87257738 64.46514999 36.70981646 63.37890625 38.546875 C61.23597617 42.17312454 59.09552849 45.80082218 56.95703125 49.4296875 C54.27862936 53.97342693 51.59406118 58.5134696 48.90478516 63.05078125 C47.64787377 65.17236158 46.39250085 67.29485369 45.13818359 69.41796875 C43.08160271 72.89835735 41.01564958 76.37310679 38.94921875 79.84765625 C38.30098145 80.94634033 37.65274414 82.04502441 36.98486328 83.17700195 C36.3814209 84.18851318 35.77797852 85.20002441 35.15625 86.2421875 C34.62104736 87.14428955 34.08584473 88.0463916 33.53442383 88.97583008 C32.13671875 91.03515625 32.13671875 91.03515625 30.13671875 92.03515625 C22.5676099 79.2682316 14.99868912 66.50120715 7.44921875 53.72265625 C6.92634277 52.83771484 6.4034668 51.95277344 5.86474609 51.04101562 C3.1957977 46.52319139 0.52859877 42.00434225 -2.13671875 37.484375 C-3.23303782 35.62628137 -4.32939179 33.76820834 -5.42578125 31.91015625 C-5.9554248 31.01159912 -6.48506836 30.11304199 -7.03076172 29.18725586 C-9.77762686 24.53487368 -12.54564385 19.89675079 -15.34765625 15.27734375 C-15.90638428 14.35453613 -16.4651123 13.43172852 -17.04077148 12.48095703 C-18.10931047 10.71915212 -19.18158495 8.95960594 -20.25805664 7.20263672 C-20.73235107 6.42033691 -21.20664551 5.63803711 -21.6953125 4.83203125 C-22.11530518 4.14463867 -22.53529785 3.45724609 -22.96801758 2.74902344 C-23.86328125 1.03515625 -23.86328125 1.03515625 -23.86328125 -0.96484375 C-24.52328125 -1.29484375 -25.18328125 -1.62484375 -25.86328125 -1.96484375 C-17.13120936 -5.7711315 -8.68924293 -2.51404938 0 0 Z " fill="#EFB7A1" transform="translate(240.86328125,315.96484375)"/>
<path d="M0 0 C0.94617188 0.53109375 1.89234375 1.0621875 2.8671875 1.609375 C10.31961502 5.63784305 17.13703824 8.54227848 25.5 10.0625 C31.70771917 11.22393587 35.51959053 12.36480541 39.97265625 17.0703125 C52.87598345 29.35209215 72.44362979 33.74280135 89.5625 35.125 C90.57119141 35.21136719 91.57988281 35.29773438 92.61914062 35.38671875 C95.07902365 35.59656659 97.53922902 35.80088467 100 36 C85.36511169 50.95712438 66.70907067 67.84190048 44.79052734 68.29272461 C28.0252285 68.41153381 16.06039869 64.28961831 3.25 53.125 C1.21575581 50.97036176 0.11499115 49.75011666 -0.3359375 46.80859375 C-0.11280401 44.4326353 0.35149919 42.29561328 1 40 C4.02913552 28.99486734 5.23270752 16.35851767 -0.22265625 5.98046875 C-1.16756187 3.57309613 -0.85566884 2.39479644 0 0 Z " fill="#294E9D" transform="translate(388,204)"/>
<path d="M0 0 C5.28 0 10.56 0 16 0 C16 23.76 16 47.52 16 72 C41.74 72 67.48 72 94 72 C96.25 83.25 96.25 83.25 96 88 C78.4237051 88.32749079 60.84836597 88.57413073 43.26971531 88.72537041 C35.10691224 88.79747126 26.9460078 88.89570119 18.78442383 89.05615234 C11.66802894 89.19598873 4.55300895 89.2860801 -2.56472164 89.31723893 C-6.33214141 89.33544828 -10.09562933 89.37800398 -13.86178398 89.48022079 C-36.80043861 90.07968308 -36.80043861 90.07968308 -42.16728592 86.59128571 C-45.99847406 82.741235 -49 77.56115312 -49 72 C-32.83 72 -16.66 72 0 72 C0 48.24 0 24.48 0 0 Z " fill="#294E9D" transform="translate(368,416)"/>
<path d="M0 0 C13.35872482 -0.89555697 25.13619918 2.69364988 37.01855469 8.44946289 C47.13492036 13.22394647 57.69211789 14.50576406 68.75 15.1875 C69.9359375 15.26935547 71.121875 15.35121094 72.34375 15.43554688 C75.22866679 15.63330327 78.11385108 15.82130003 81 16 C65.29948563 32.04684925 45.97644977 47.97418191 22.54101562 48.38061523 C7.33888972 48.3485961 -5.11070065 45.34618108 -18 37 C-18.33 36.34 -18.66 35.68 -19 35 C-18.34 35 -17.68 35 -17 35 C-16.59201172 34.12214844 -16.59201172 34.12214844 -16.17578125 33.2265625 C-15.02033513 31.03850838 -13.73753986 29.29721302 -12.1875 27.375 C-5.89081172 19.05601767 -2.7977597 9.97190327 0 0 Z " fill="#4763AA" transform="translate(407,168)"/>
<path d="M0 0 C10.26409072 4.97419328 20.87361004 11.87893025 25 23 C27.25539271 34.4748428 26.52240299 46.53894914 26.00854492 58.15527344 C25.96603607 59.32952377 25.92352722 60.50377411 25.87973022 61.71360779 C25.78779015 63.94366549 25.65576994 66.17255654 25.47720337 68.39735413 C25.19750604 74.32972846 25.19750604 74.32972846 27.8008728 79.51254272 C29.77920471 81.50242901 31.77383955 83.29507545 34 85 C32.46126823 88.71860179 31.52488612 89.35633541 28 92 C8.53 72.53 -10.94 53.06 -31 33 C-29.38306333 29.76612666 -28.52804407 28.27997412 -26.11083984 25.88378906 C-25.5303891 25.30348938 -24.94993835 24.7231897 -24.35189819 24.12530518 C-23.72788116 23.51161072 -23.10386414 22.89791626 -22.4609375 22.265625 C-21.82008209 21.62759949 -21.17922668 20.98957397 -20.51895142 20.33221436 C-18.47562179 18.30005931 -16.42544018 16.27497782 -14.375 14.25 C-12.9865214 12.8715547 -11.5984951 11.49265364 -10.2109375 10.11328125 C-6.81251303 6.73688106 -3.40792746 3.36680712 0 0 Z " fill="#4C4C4C" transform="translate(55,208)"/>
<path d="M0 0 C4.80395654 4.00099626 9.31584859 8.1891301 13.703125 12.640625 C14.3075946 13.24888123 14.91206421 13.85713745 15.53485107 14.48382568 C17.44237772 16.4034452 19.34658963 18.32629946 21.25 20.25 C23.77315748 22.79975703 26.29961627 25.34617583 28.828125 27.890625 C29.40314758 28.47394592 29.97817017 29.05726685 30.57061768 29.65826416 C32.95254732 32.05482493 35.17868225 34.1191215 38 36 C37.06841064 36.29656494 36.13682129 36.59312988 35.17700195 36.89868164 C31.65209616 38.02461472 28.13288822 39.16756371 24.61499023 40.31518555 C23.10472658 40.80536867 21.59304214 41.29120027 20.07983398 41.7722168 C11.0106915 44.65881077 2.78660389 47.83513738 -5.37426758 52.77514648 C-8 54 -8 54 -10.05639648 53.97119141 C-12.81154958 52.59448006 -14.61035733 50.72405888 -16.765625 48.52734375 C-17.65507813 47.62822266 -18.54453125 46.72910156 -19.4609375 45.80273438 C-20.84152344 44.38444336 -20.84152344 44.38444336 -22.25 42.9375 C-23.19461673 41.97783027 -24.13992195 41.01883771 -25.0859375 40.06054688 C-27.39749172 37.71361172 -29.7017634 35.35996609 -32 33 C-28.10023279 28.33125463 -24.04785356 23.90872191 -19.7265625 19.62890625 C-19.15795502 19.06171371 -18.58934753 18.49452118 -18.00350952 17.91014099 C-16.21303764 16.12520087 -14.41909516 14.34379744 -12.625 12.5625 C-11.39950677 11.34203061 -10.17424428 10.12132947 -8.94921875 8.90039062 C-5.96880226 5.93091244 -2.98527106 2.96459743 0 0 Z " fill="#B2B2B2" transform="translate(140,292)"/>
<path d="M0 0 C10.06465427 2.65765622 19.94159575 3.39444652 30.32421875 3.34765625 C32.23569702 3.34137207 32.23569702 3.34137207 34.18579102 3.33496094 C46.66448915 3.18586686 57.67984157 1.43688544 69.63671875 -2.21484375 C75.33249561 -3.95120067 79.32326829 -4.1676266 85.13671875 -2.96484375 C85.13671875 -1.64484375 85.13671875 -0.32484375 85.13671875 1.03515625 C64.23120022 9.17003286 45.70771546 12.42501838 23.22973633 11.78833008 C21.1921038 11.73364616 19.15537172 11.70473665 17.1171875 11.6796875 C15.32124146 11.63871948 15.32124146 11.63871948 13.48901367 11.59692383 C9.43540172 12.12683669 7.31194102 13.51371649 4.13671875 16.03515625 C1.36802091 20.1479603 1.39046862 24.25553884 2.13671875 29.03515625 C3.19051518 31.48902583 3.19051518 31.48902583 4.65234375 33.95703125 C5.19761719 34.9200415 5.74289063 35.88305176 6.3046875 36.87524414 C6.90925781 37.91801514 7.51382813 38.96078613 8.13671875 40.03515625 C8.77222656 41.14044678 9.40773437 42.2457373 10.0625 43.38452148 C12.15298901 47.0075943 14.26781192 50.61615006 16.38671875 54.22265625 C16.75811981 54.85601898 17.12952087 55.48938171 17.51217651 56.14193726 C23.22353006 65.87695099 29.04575179 75.53205055 35.13671875 85.03515625 C33.81671875 87.34515625 32.49671875 89.65515625 31.13671875 92.03515625 C27.15365808 87.4407865 24.24268177 82.33226633 21.19921875 77.09765625 C20.03395785 75.10931423 18.86859031 73.12103471 17.703125 71.1328125 C17.11031738 70.11848145 16.51750977 69.10415039 15.90673828 68.05908203 C13.16523566 63.37546114 10.40056647 58.70561324 7.63671875 54.03515625 C6.55453893 52.2045149 5.47250816 50.37378544 4.390625 48.54296875 C3.85453613 47.63579102 3.31844727 46.72861328 2.76611328 45.79394531 C1.12674765 43.01827381 -0.51103263 40.24167232 -2.1484375 37.46484375 C-3.24085647 35.61326417 -4.3333042 33.76170156 -5.42578125 31.91015625 C-5.95518311 31.01200195 -6.48458496 30.11384766 -7.0300293 29.18847656 C-9.77715057 24.53569458 -12.54539773 19.89715654 -15.34765625 15.27734375 C-15.90638428 14.35453613 -16.4651123 13.43172852 -17.04077148 12.48095703 C-18.10931047 10.71915212 -19.18158495 8.95960594 -20.25805664 7.20263672 C-20.73235107 6.42033691 -21.20664551 5.63803711 -21.6953125 4.83203125 C-22.11530518 4.14463867 -22.53529785 3.45724609 -22.96801758 2.74902344 C-23.86328125 1.03515625 -23.86328125 1.03515625 -23.86328125 -0.96484375 C-24.52328125 -1.29484375 -25.18328125 -1.62484375 -25.86328125 -1.96484375 C-17.13120936 -5.7711315 -8.68924293 -2.51404938 0 0 Z " fill="#CD8C7B" transform="translate(240.86328125,315.96484375)"/>
<path d="M0 0 C2.65499376 2.65499376 2.32897553 4.04963297 2.375 7.75 C2.40335937 8.77609375 2.43171875 9.8021875 2.4609375 10.859375 C1.57778339 16.8767979 -2.7203521 20.97133384 -6.88867188 25.14746094 C-7.36075577 25.62304947 -7.83283966 26.098638 -8.31922913 26.58863831 C-9.86411464 28.14224888 -11.41610748 29.68851956 -12.96875 31.234375 C-14.05233483 32.31930868 -15.13562275 33.40453897 -16.21862793 34.49005127 C-18.48154727 36.75590898 -20.74801865 39.01813542 -23.01708984 41.27783203 C-25.92242752 44.17174864 -28.81865686 47.07458898 -31.71230316 49.98019028 C-33.94432713 52.21944433 -36.1810964 54.45390936 -38.41932678 56.68695831 C-39.48929063 57.75559027 -40.55777705 58.82570366 -41.6247406 59.89733124 C-43.11547948 61.39315719 -44.61249332 62.88240938 -46.11132812 64.37011719 C-46.9608606 65.21805847 -47.81039307 66.06599976 -48.68566895 66.93963623 C-53.60501178 71.31914612 -57.65559538 71.43374826 -64.0859375 71.31640625 C-69.35951314 70.74380621 -71.92698274 68.21801959 -75.3125 64.375 C-78.95253443 59.25198859 -78.57072679 54.13330334 -78 48 C-75.67554306 43.08287955 -72.22490815 40.26470175 -68 37 C-67.41992188 37.72316406 -67.41992188 37.72316406 -66.828125 38.4609375 C-66.30734375 39.09257812 -65.7865625 39.72421875 -65.25 40.375 C-64.73953125 41.00148438 -64.2290625 41.62796875 -63.703125 42.2734375 C-60.60540792 45.41378371 -57.66894435 46.331635 -53.3125 46.5 C-43.36157254 46.150874 -36.43226191 37.86446251 -29.84375 31.171875 C-29.01540649 30.34165833 -28.18706299 29.51144165 -27.33361816 28.65606689 C-25.59908322 26.91485278 -23.86812763 25.17006628 -22.140625 23.421875 C-19.48702073 20.73686713 -16.8226613 18.06290945 -14.15625 15.390625 C-12.46812042 13.69333428 -10.78059824 11.99543918 -9.09375 10.296875 C-7.89703674 9.09378693 -7.89703674 9.09378693 -6.67614746 7.86639404 C-5.94448364 7.12512268 -5.21281982 6.38385132 -4.45898438 5.62011719 C-3.81328491 4.96758972 -3.16758545 4.31506226 -2.50231934 3.64276123 C-0.91442046 2.0568344 -0.91442046 2.0568344 0 0 Z " fill="#77534A" transform="translate(150,265)"/>
<path d="M0 0 C0 0.33 0 0.66 0 1 C-0.56170898 1.03963867 -1.12341797 1.07927734 -1.70214844 1.12011719 C-44.47865749 4.23601922 -44.47865749 4.23601922 -81.6015625 23.25390625 C-87.3299936 30.40644453 -88.91468096 36.94442845 -88 46 C-87.10136369 49.44890076 -85.820958 52.69361371 -84.5 56 C-80.72092676 66.20377555 -80.2244649 75.22867923 -81 86 C-87.39942747 84.22187982 -90.20604853 81.28649583 -94 76 C-96.15690984 71.83493273 -97.2505112 67.90639302 -98.26171875 63.3515625 C-99.22086192 60.29651388 -100.67185209 57.6018453 -102.125 54.75 C-105.53789649 47.52268979 -106.4768614 41.25926754 -104.296875 33.49609375 C-100.99880326 25.23693951 -96.06448421 19.89975173 -87.984375 16.2421875 C-86.99953125 15.83226562 -86.0146875 15.42234375 -85 15 C-83.89140625 14.52820313 -82.7828125 14.05640625 -81.640625 13.5703125 C-55.55332952 2.91718944 -27.98703187 -0.75609188 0 0 Z " fill="#CB8C7B" transform="translate(273,128)"/>
<path d="M0 0 C4.90473901 4.11329871 9.5219528 8.38542461 14.02734375 12.9296875 C14.66112442 13.56488312 15.29490509 14.20007874 15.94789124 14.85452271 C17.94681406 16.85898716 19.94220784 18.86692214 21.9375 20.875 C23.30250133 22.24502389 24.6677336 23.61481774 26.03320312 24.984375 C29.35814211 28.32026543 32.67992353 31.65927036 36 35 C32.48759425 39.1769213 28.9137655 43.20905116 25.0390625 47.05859375 C24.15605469 47.93837891 23.27304688 48.81816406 22.36328125 49.72460938 C21.45964844 50.61986328 20.55601563 51.51511719 19.625 52.4375 C18.69816406 53.35982422 17.77132812 54.28214844 16.81640625 55.23242188 C14.54654154 57.49058625 12.27436462 59.74636942 10 62 C8.8944811 61.06409496 7.79064547 60.12620142 6.6875 59.1875 C6.07261719 58.66542969 5.45773438 58.14335937 4.82421875 57.60546875 C4.22222656 57.07566406 3.62023437 56.54585938 3 56 C2.21159981 55.36888557 2.21159981 55.36888557 1.40727234 54.72502136 C-0.52647831 52.35464777 -0.36220663 50.8296631 -0.34057617 47.79418945 C-0.34034958 46.73331619 -0.34012299 45.67244293 -0.33988953 44.579422 C-0.32440567 43.43559555 -0.30892181 42.2917691 -0.29296875 41.11328125 C-0.28872391 39.94113571 -0.28447906 38.76899017 -0.28010559 37.56132507 C-0.26329072 33.81148466 -0.22563232 30.06217843 -0.1875 26.3125 C-0.17245684 23.77279421 -0.1587678 21.23308001 -0.14648438 18.69335938 C-0.11337796 12.46205681 -0.06315028 6.23106656 0 0 Z " fill="#656565" transform="translate(80,232)"/>
<path d="M0 0 C7.49883636 1.47841243 14.69991366 3.69204542 21.94702148 6.09375 C23.9264927 6.74637095 25.91114941 7.3811036 27.89648438 8.015625 C35.54761882 10.51177878 42.35114776 13.43447082 49 18 C50.01835937 18.6496875 51.03671875 19.299375 52.0859375 19.96875 C54.74633961 22.79203387 54.66888445 24.6732759 54.625 28.5 C54.63789063 29.6240625 54.65078125 30.748125 54.6640625 31.90625 C53.81993018 35.83891352 52.30587294 36.85905372 49 39 C45.92376519 37.63053582 43.88419639 36.04555388 41.5 33.6875 C32.91837094 26.05513877 20.48234545 23.32706007 9.75 19.6875 C8.40742681 19.22888219 7.06497815 18.76989968 5.72265625 18.31054688 C2.48318922 17.20284152 -0.75791287 16.10001672 -4 15 C-3.69212844 13.57378028 -3.38174037 12.14810365 -3.0703125 10.72265625 C-2.89773926 9.92867432 -2.72516602 9.13469238 -2.54736328 8.31665039 C-1.87644396 5.47706365 -0.98536789 2.74495341 0 0 Z " fill="#4864AA" transform="translate(346,97)"/>
<path d="M0 0 C0.43661453 0.71399963 0.87322906 1.42799927 1.32307434 2.16363525 C1.92506653 3.14718994 2.52705872 4.13074463 3.14729309 5.144104 C4.06961731 6.73158447 4.06961731 6.73158447 5.01057434 8.35113525 C5.63319153 9.41718994 6.25580872 10.48324463 6.89729309 11.581604 C8.32307434 14.16363525 8.32307434 14.16363525 8.32307434 15.16363525 C1.65357102 15.52028948 -5.01346184 15.76439767 -11.69035339 15.93267822 C-13.95788909 16.00284653 -16.22479644 16.09822122 -18.49015808 16.2197876 C-36.85145815 17.18001379 -36.85145815 17.18001379 -41.62059021 13.77655029 C-45.1709519 9.95650145 -48.67692566 4.51993857 -48.67692566 -0.83636475 C-42.03907733 -1.08049068 -35.40076085 -1.29298558 -28.76115417 -1.4833374 C-26.50180579 -1.55186648 -24.24266628 -1.62768036 -21.98381042 -1.71087646 C-18.73985969 -1.82909728 -15.49606371 -1.92124012 -12.25114441 -2.00823975 C-10.73226875 -2.07201813 -10.73226875 -2.07201813 -9.18270874 -2.13708496 C-7.77158562 -2.16756927 -7.77158562 -2.16756927 -6.33195496 -2.19866943 C-5.50366684 -2.22531677 -4.67537872 -2.25196411 -3.82199097 -2.27941895 C-1.67692566 -1.83636475 -1.67692566 -1.83636475 0 0 Z " fill="#BECDE5" transform="translate(319.6769256591797,488.83636474609375)"/>
<path d="M0 0 C0.99 0.33 1.98 0.66 3 1 C3 18.49 3 35.98 3 54 C0.525 51.525 0.525 51.525 -2 49 C-3.13502392 48.09050999 -4.27962164 47.19270969 -5.4375 46.3125 C-10.76735237 41.69563227 -14.37891325 36.63481643 -15.58203125 29.59375 C-15.97529232 21.17979227 -14.36972195 15.4762101 -9 9 C-6.11691575 5.86376689 -3.13474046 2.88396122 0 0 Z " fill="#656565" transform="translate(61,214)"/>
<path d="M0 0 C1.98 1.65 3.96 3.3 6 5 C5.175 5.969375 4.35 6.93875 3.5 7.9375 C2.95730469 8.576875 2.41460937 9.21625 1.85546875 9.875 C0.57633719 11.33994225 -0.73606642 12.7762659 -2.07421875 14.1875 C-7.7112409 20.18920935 -10.38253815 24.74637391 -11.5625 32.875 C-11.35875101 38.2904336 -8.23541866 42.82215435 -5 47 C-2.91004084 48.75671058 -2.91004084 48.75671058 -1 50 C-7.39321363 54.05723173 -7.39321363 54.05723173 -9.82226562 53.828125 C-12.85421943 52.67516678 -14.49881153 50.83774979 -16.765625 48.52734375 C-17.65507813 47.62822266 -18.54453125 46.72910156 -19.4609375 45.80273438 C-20.84152344 44.38444336 -20.84152344 44.38444336 -22.25 42.9375 C-23.19461673 41.97783027 -24.13992195 41.01883771 -25.0859375 40.06054688 C-27.39749172 37.71361172 -29.7017634 35.35996609 -32 33 C-28.10023279 28.33125463 -24.04785356 23.90872191 -19.7265625 19.62890625 C-19.15795502 19.06171371 -18.58934753 18.49452118 -18.00350952 17.91014099 C-16.21303764 16.12520087 -14.41909516 14.34379744 -12.625 12.5625 C-11.39950677 11.34203061 -10.17424428 10.12132947 -8.94921875 8.90039062 C-5.96880226 5.93091244 -2.98527106 2.96459743 0 0 Z " fill="#989999" transform="translate(140,292)"/>
<path d="M0 0 C5.28 0 10.56 0 16 0 C16 7.92 16 15.84 16 24 C10.72 24 5.44 24 0 24 C0 16.08 0 8.16 0 0 Z " fill="#4C4C4C" transform="translate(312,160)"/>
<path d="M0 0 C5.28 0 10.56 0 16 0 C16 7.92 16 15.84 16 24 C10.72 24 5.44 24 0 24 C0 16.08 0 8.16 0 0 Z " fill="#4C4C4C" transform="translate(216,160)"/>
</svg>
