<?xml version="1.0" encoding="UTF-8"?>
<svg version="1.1" xmlns="http://www.w3.org/2000/svg" width="512" height="512">
<path d="M0 0 C3.9684025 1.56331008 6.41568551 4.32122701 9.1875 7.4375 C9.9136853 8.24102905 9.9136853 8.24102905 10.65454102 9.06079102 C14.45992298 13.30628944 18.04811377 17.71008778 21.62109375 22.15234375 C24.7972857 25.95438633 28.17270822 29.54903752 31.55834961 33.16381836 C35.44880916 37.34131452 39.05531702 41.69348113 42.62109375 46.15234375 C45.98142669 50.17481126 49.56493475 53.97870891 53.19140625 57.76171875 C57 61.78851318 57 61.78851318 57 64 C46.44 64 35.88 64 25 64 C25.33 82.81 25.66 101.62 26 121 C47.07409691 129.80203245 68.16311701 138.56039499 89.30726624 147.19262695 C99.56904124 151.396341 109.77718474 155.69565673 120 160 C120.33 144.16 120.66 128.32 121 112 C110.44 112 99.88 112 89 112 C90.93276774 108.13446451 93.1339874 105.50962091 96.0625 102.4375 C99.67048999 98.58430108 103.13592936 94.68643989 106.4375 90.5625 C110.28110057 85.78378372 114.36960164 81.30842313 118.55834961 76.83618164 C122.44732042 72.66028406 126.05038267 68.30734979 129.62109375 63.85546875 C134.19025126 58.3709792 139.11331146 53.20089186 144 48 C147.9684025 49.56331008 150.41568551 52.32122701 153.1875 55.4375 C153.67162354 55.97318604 154.15574707 56.50887207 154.65454102 57.06079102 C158.45992298 61.30628944 162.04811377 65.71008778 165.62109375 70.15234375 C168.7972857 73.95438633 172.17270822 77.54903752 175.55834961 81.16381836 C179.44880916 85.34131452 183.05531702 89.69348113 186.62109375 94.15234375 C189.98142669 98.17481126 193.56493475 101.97870891 197.19140625 105.76171875 C201 109.78851318 201 109.78851318 201 112 C190.44 112 179.88 112 169 112 C169.33 184.93 169.66 257.86 170 333 C176.93 335.64 183.86 338.28 191 341 C196.41756293 343.56832613 201.73522948 346.15582959 207 349 C207.61987793 349.33 208.23975586 349.66 208.87841797 350 C229.19893035 360.88010702 229.19893035 360.88010702 233 369 C231.06979986 370.50825091 229.13872867 372.01535784 227.20629883 373.52075195 C225.56263408 374.80336918 223.92185958 376.0896985 222.28393555 377.37963867 C218.62652142 380.24706001 214.98676138 383.06947065 211.09765625 385.6171875 C210.01355469 386.34164063 208.92945313 387.06609375 207.8125 387.8125 C206.84957031 388.41707031 205.88664062 389.02164062 204.89453125 389.64453125 C202.57533959 391.99238727 202.57533959 391.99238727 203.19775391 395.81030273 C204.05040099 402.08389531 205.51522418 408.22743606 206.94140625 414.390625 C207.38008902 416.3198968 207.81876581 418.24916998 208.25708675 420.17852402 C209.17656254 424.21849784 210.10476297 428.2564755 211.03198242 432.29467773 C211.7992763 435.63760134 212.56451429 438.98096178 213.32420349 442.32562256 C213.89241939 444.8253206 214.46537741 447.3239465 215.04359436 449.8213501 C215.30063644 450.95312683 215.55767853 452.08490356 215.82250977 453.25097656 C216.16440086 454.73914886 216.16440086 454.73914886 216.51319885 456.25738525 C216.98306886 458.90461074 217.09218756 461.31843727 217 464 C212.54781634 460.82875186 208.41598233 457.5019021 204.4375 453.75 C171.3721788 423.83137855 123.7292 410.71565456 80.07910156 409.28979492 C74.09139216 409.09139216 74.09139216 409.09139216 73 408 C72.83996512 405.33573315 72.74057111 402.69439572 72.68359375 400.02734375 C72.66281265 399.22970108 72.64203156 398.43205841 72.62062073 397.61024475 C72.55503842 395.05275389 72.49620033 392.4951572 72.4375 389.9375 C72.39432301 388.20767118 72.35070899 386.47785321 72.30664062 384.74804688 C72.19934828 380.4988074 72.09810574 376.2494611 72 372 C71.03449219 372.72058594 70.06898438 373.44117188 69.07421875 374.18359375 C51.44419316 387.31730588 32.99140817 398.93404071 14 410 C13.01370605 410.59844727 12.02741211 411.19689453 11.01123047 411.81347656 C10.05748535 412.37260742 9.10374023 412.93173828 8.12109375 413.5078125 C7.27861084 414.01199707 6.43612793 414.51618164 5.56811523 415.03564453 C1.73275557 416.4758642 -1.22710245 415.72041974 -4.95263672 414.20654297 C-5.52256348 413.88830566 -6.09249023 413.57006836 -6.6796875 413.2421875 C-7.3490332 412.87158203 -8.01837891 412.50097656 -8.70800781 412.11914062 C-9.42311523 411.70857422 -10.13822266 411.29800781 -10.875 410.875 C-11.64166992 410.44123047 -12.40833984 410.00746094 -13.19824219 409.56054688 C-28.29783927 400.91341128 -43.19692135 391.74551274 -57.16650391 381.35595703 C-61.42288225 378.20816404 -65.7166138 375.11088985 -70 372 C-70.02505615 373.08531006 -70.0501123 374.17062012 -70.07592773 375.28881836 C-70.16983755 379.301316 -70.27009767 383.31363382 -70.37231445 387.32592773 C-70.41572573 389.06514288 -70.45739612 390.80440235 -70.49731445 392.54370117 C-70.55486768 395.03838488 -70.6186042 397.5328441 -70.68359375 400.02734375 C-70.70866249 401.2007859 -70.70866249 401.2007859 -70.73423767 402.39793396 C-70.88612829 407.88612829 -70.88612829 407.88612829 -72 409 C-73.9408671 409.09682818 -75.88239761 409.18560534 -77.82495117 409.23876953 C-126.90707693 410.65789849 -173.45514446 427.59715621 -210.0859375 460.4453125 C-213 463 -213 463 -215 464 C-214.33650695 456.28779613 -212.75570011 448.92755841 -211.0234375 441.390625 C-210.58113909 439.42747672 -210.13885232 437.46432573 -209.6972599 435.50101852 C-208.61493892 430.69544602 -207.52238864 425.89221602 -206.42382812 421.09033203 C-205.80454136 418.38155921 -205.19063674 415.67166974 -204.58242798 412.96038818 C-204.0111248 410.41538125 -203.43163727 407.87219467 -202.84310913 405.33111572 C-202.45743271 403.60341949 -202.45743271 403.60341949 -202.06396484 401.84082031 C-201.83381683 400.83094055 -201.60366882 399.82106079 -201.36654663 398.78057861 C-200.97968772 395.84591353 -201.14144496 393.82322498 -202 391 C-203.91091465 388.96040589 -203.91091465 388.96040589 -206.41015625 387.22265625 C-207.31830078 386.54396484 -208.22644531 385.86527344 -209.16210938 385.16601562 C-210.11923828 384.47185547 -211.07636719 383.77769531 -212.0625 383.0625 C-212.99255859 382.37220703 -213.92261719 381.68191406 -214.88085938 380.97070312 C-216.712138 379.61300885 -218.54750579 378.26081022 -220.38720703 376.91455078 C-223.94714652 374.30596869 -227.47548277 371.65614878 -231 369 C-225.13874255 356.17221942 -204.55785481 348.64134878 -192.5 342.8125 C-191.25585327 342.20643921 -191.25585327 342.20643921 -189.98657227 341.58813477 C-182.74673079 338.15600202 -175.65899694 335.73535605 -168 333 C-167.67 260.07 -167.34 187.14 -167 112 C-177.56 112 -188.12 112 -199 112 C-197.06723226 108.13446451 -194.8660126 105.50962091 -191.9375 102.4375 C-188.32951001 98.58430108 -184.86407064 94.68643989 -181.5625 90.5625 C-177.71889943 85.78378372 -173.63039836 81.30842313 -169.44165039 76.83618164 C-165.55267958 72.66028406 -161.94961733 68.30734979 -158.37890625 63.85546875 C-153.80974874 58.3709792 -148.88668854 53.20089186 -144 48 C-140.0315975 49.56331008 -137.58431449 52.32122701 -134.8125 55.4375 C-134.32837646 55.97318604 -133.84425293 56.50887207 -133.34545898 57.06079102 C-129.54007702 61.30628944 -125.95188623 65.71008778 -122.37890625 70.15234375 C-119.2027143 73.95438633 -115.82729178 77.54903752 -112.44165039 81.16381836 C-108.55119084 85.34131452 -104.94468298 89.69348113 -101.37890625 94.15234375 C-98.01857331 98.17481126 -94.43506525 101.97870891 -90.80859375 105.76171875 C-87 109.78851318 -87 109.78851318 -87 112 C-97.56 112 -108.12 112 -119 112 C-118.67 127.84 -118.34 143.68 -118 160 C-112.864375 157.855 -107.72875 155.71 -102.4375 153.5 C-86.54873911 146.87158246 -70.6315422 140.31449188 -54.69273376 133.80737305 C-44.43095876 129.603659 -34.22281526 125.30434327 -24 121 C-23.67 102.19 -23.34 83.38 -23 64 C-33.56 64 -44.12 64 -55 64 C-53.06723226 60.13446451 -50.8660126 57.50962091 -47.9375 54.4375 C-44.32951001 50.58430108 -40.86407064 46.68643989 -37.5625 42.5625 C-33.71889943 37.78378372 -29.63039836 33.30842313 -25.44165039 28.83618164 C-21.55267958 24.66028406 -17.94961733 20.30734979 -14.37890625 15.85546875 C-9.80974874 10.3709792 -4.88668854 5.20089186 0 0 Z " fill="#75452E" transform="translate(255,24)"/>
<path d="M0 0 C1.00657654 0.38927673 2.01315308 0.77855347 3.05023193 1.17962646 C4.13290344 1.60495667 5.21557495 2.03028687 6.33105469 2.46850586 C7.47544006 2.91260803 8.61982544 3.35671021 9.79888916 3.81427002 C12.25846572 4.76947635 14.71716292 5.72663975 17.17456055 6.68740845 C21.01698345 8.18966138 24.86212897 9.68484258 28.70800781 11.17822266 C29.34838486 11.42688993 29.9887619 11.67555719 30.64854431 11.93175983 C31.94516876 12.43523062 33.24180471 12.93867178 34.53845215 13.44208336 C36.491663 14.20066728 38.44458213 14.95999839 40.39746094 15.71943665 C48.52976486 18.88036954 56.67352728 22.00988158 64.83105469 25.10522461 C65.81865784 25.4800145 66.80626099 25.85480438 67.8237915 26.24095154 C71.5414497 27.65055283 75.25968981 29.05857798 78.97961426 30.46218872 C81.47777096 31.40489971 83.97478836 32.35057475 86.47167969 33.29663086 C87.20429016 33.57162415 87.93690063 33.84661743 88.69171143 34.12994385 C93.63975445 36.00767437 93.63975445 36.00767437 94.75292969 37.12084961 C94.88604993 66.29520185 89.56059685 96.55631643 84.69042969 125.24584961 C84.57268188 125.94880157 84.45493408 126.65175354 84.33361816 127.37600708 C77.68426573 166.69980324 61.91349598 189.77050818 29.75292969 213.12084961 C23.08361925 217.73373186 16.26709954 222.11410821 9.40869141 226.43920898 C6.96877686 227.98417418 4.54882154 229.5559947 2.13183594 231.13647461 C0.79822681 231.98704421 -0.53632865 232.8361329 -1.87207031 233.68334961 C-2.45690186 234.07176025 -3.0417334 234.4601709 -3.64428711 234.86035156 C-6.21656307 236.44961649 -7.65279195 237.24737339 -10.66894531 236.60522461 C-11.94511719 235.87045898 -11.94511719 235.87045898 -13.24707031 235.12084961 C-13.79991699 234.82170654 -14.35276367 234.52256348 -14.92236328 234.21435547 C-34.9147399 223.28061531 -54.16713219 209.92432827 -70.80957031 194.34741211 C-73.2087205 192.0978211 -73.2087205 192.0978211 -75.78222656 190.14428711 C-92.52483621 176.3999578 -97.8668391 154.06443584 -101.80957031 133.74584961 C-102.03176743 132.61934998 -102.03176743 132.61934998 -102.25845337 131.47009277 C-105.31711856 115.87157485 -107.3610625 100.23088502 -109.0055542 84.42816162 C-109.26545651 81.94519798 -109.53137249 79.46292655 -109.79833984 76.98071289 C-110.37286273 71.63245036 -110.93800223 66.28324891 -111.49707031 60.93334961 C-111.58628754 60.08148071 -111.67550476 59.22961182 -111.76742554 58.35192871 C-112.0195933 55.92761205 -112.26703405 53.50286456 -112.51269531 51.07788086 C-112.58746597 50.36060318 -112.66223663 49.6433255 -112.73927307 48.90431213 C-113.13312826 44.95601325 -113.27427801 41.08606593 -113.24707031 37.12084961 C-106.15096136 33.80673864 -99.01162334 30.78117624 -91.67675781 28.03881836 C-90.69262909 27.66700943 -89.70850037 27.2952005 -88.69454956 26.91212463 C-85.50498679 25.70748444 -82.31363372 24.50767827 -79.12207031 23.30834961 C-74.64439966 21.62247317 -70.16785555 19.93364598 -65.69238281 18.24194336 C-64.56783691 17.81688507 -63.44329102 17.39182678 -62.28466797 16.95388794 C-54.84533973 14.1320807 -47.4394732 11.23508672 -40.05175781 8.28100586 C-39.10505219 7.90409103 -38.15834656 7.52717621 -37.18295288 7.13883972 C-32.72060327 5.36194317 -28.26439003 3.57205385 -23.81689453 1.75830078 C-22.22618148 1.12326525 -20.63521324 0.48886845 -19.04394531 -0.14477539 C-18.33680389 -0.43960312 -17.62966248 -0.73443085 -16.90109253 -1.03819275 C-10.60115387 -3.51470811 -6.13334726 -2.39225743 0 0 Z " fill="#AC6642" transform="translate(265.2470703125,170.879150390625)"/>
<path d="M0 0 C3.9684025 1.56331008 6.41568551 4.32122701 9.1875 7.4375 C9.67162354 7.97318604 10.15574707 8.50887207 10.65454102 9.06079102 C14.45992298 13.30628944 18.04811377 17.71008778 21.62109375 22.15234375 C24.7972857 25.95438633 28.17270822 29.54903752 31.55834961 33.16381836 C35.44880916 37.34131452 39.05531702 41.69348113 42.62109375 46.15234375 C45.98142669 50.17481126 49.56493475 53.97870891 53.19140625 57.76171875 C57 61.78851318 57 61.78851318 57 64 C46.44 64 35.88 64 25 64 C25 80.5 25 97 25 114 C20.05 115.98 15.1 117.96 10 120 C11.69720828 150.42727015 15.84622885 180.51938067 20.875 210.5625 C21.17577957 212.39151352 21.17577957 212.39151352 21.4826355 214.25747681 C28.46829815 256.47211413 37.10193843 290.30765653 70 319 C70.99 319.66 71.98 320.32 73 321 C73.27902671 323.9678122 73.3717594 326.72414274 73.328125 329.69140625 C73.32625183 330.55185043 73.32437866 331.41229462 73.32244873 332.29881287 C73.31572136 334.11876293 73.30179329 335.93869837 73.28125 337.75854492 C73.25008737 340.5546603 73.24028002 343.35021256 73.234375 346.14648438 C73.2252057 347.91146525 73.21483016 349.67644037 73.203125 351.44140625 C73.19887512 352.28304825 73.19462524 353.12469025 73.19024658 353.99183655 C73.11714861 359.88285139 73.11714861 359.88285139 72 361 C70.0591329 361.09682818 68.11760239 361.18560534 66.17504883 361.23876953 C17.09292307 362.65789849 -29.45514446 379.59715621 -66.0859375 412.4453125 C-69 415 -69 415 -71 416 C-70.33650695 408.28779613 -68.75570011 400.92755841 -67.0234375 393.390625 C-66.58113909 391.42747672 -66.13885232 389.46432573 -65.6972599 387.50101852 C-64.61493892 382.69544602 -63.52238864 377.89221602 -62.42382812 373.09033203 C-61.80454136 370.38155921 -61.19063674 367.67166974 -60.58242798 364.96038818 C-60.0111248 362.41538125 -59.43163727 359.87219467 -58.84310913 357.33111572 C-58.45743271 355.60341949 -58.45743271 355.60341949 -58.06396484 353.84082031 C-57.83381683 352.83094055 -57.60366882 351.82106079 -57.36654663 350.78057861 C-56.97968772 347.84591353 -57.14144496 345.82322498 -58 343 C-59.91091465 340.96040589 -59.91091465 340.96040589 -62.41015625 339.22265625 C-63.31830078 338.54396484 -64.22644531 337.86527344 -65.16210938 337.16601562 C-66.11923828 336.47185547 -67.07636719 335.77769531 -68.0625 335.0625 C-68.99255859 334.37220703 -69.92261719 333.68191406 -70.88085938 332.97070312 C-72.712138 331.61300885 -74.54750579 330.26081022 -76.38720703 328.91455078 C-79.94714652 326.30596869 -83.47548277 323.65614878 -87 321 C-81.13874255 308.17221942 -60.55785481 300.64134878 -48.5 294.8125 C-47.25585327 294.20643921 -47.25585327 294.20643921 -45.98657227 293.58813477 C-38.74673079 290.15600202 -31.65899694 287.73535605 -24 285 C-23.67 212.07 -23.34 139.14 -23 64 C-33.56 64 -44.12 64 -55 64 C-53.06723226 60.13446451 -50.8660126 57.50962091 -47.9375 54.4375 C-44.32951001 50.58430108 -40.86407064 46.68643989 -37.5625 42.5625 C-33.71889943 37.78378372 -29.63039836 33.30842313 -25.44165039 28.83618164 C-21.55267958 24.66028406 -17.94961733 20.30734979 -14.37890625 15.85546875 C-9.80974874 10.3709792 -4.88668854 5.20089186 0 0 Z " fill="#C6302D" transform="translate(111,72)"/>
<path d="M0 0 C3.9684025 1.56331008 6.41568551 4.32122701 9.1875 7.4375 C9.67162354 7.97318604 10.15574707 8.50887207 10.65454102 9.06079102 C14.45992298 13.30628944 18.04811377 17.71008778 21.62109375 22.15234375 C24.7972857 25.95438633 28.17270822 29.54903752 31.55834961 33.16381836 C35.44880916 37.34131452 39.05531702 41.69348113 42.62109375 46.15234375 C45.98142669 50.17481126 49.56493475 53.97870891 53.19140625 57.76171875 C57 61.78851318 57 61.78851318 57 64 C46.44 64 35.88 64 25 64 C25.33 136.93 25.66 209.86 26 285 C32.93 287.64 39.86 290.28 47 293 C52.41756293 295.56832613 57.73522948 298.15582959 63 301 C63.61987793 301.33 64.23975586 301.66 64.87841797 302 C85.19893035 312.88010702 85.19893035 312.88010702 89 321 C87.06979986 322.50825091 85.13872867 324.01535784 83.20629883 325.52075195 C81.56263408 326.80336918 79.92185958 328.0896985 78.28393555 329.37963867 C74.62652142 332.24706001 70.98676138 335.06947065 67.09765625 337.6171875 C66.01355469 338.34164063 64.92945313 339.06609375 63.8125 339.8125 C62.84957031 340.41707031 61.88664063 341.02164062 60.89453125 341.64453125 C58.57533959 343.99238727 58.57533959 343.99238727 59.19775391 347.81030273 C60.05040099 354.08389531 61.51522418 360.22743606 62.94140625 366.390625 C63.38008902 368.3198968 63.81876581 370.24916998 64.25708675 372.17852402 C65.17656254 376.21849784 66.10476297 380.2564755 67.03198242 384.29467773 C67.7992763 387.63760134 68.56451429 390.98096178 69.32420349 394.32562256 C69.89241939 396.8253206 70.46537741 399.3239465 71.04359436 401.8213501 C71.30063644 402.95312683 71.55767853 404.08490356 71.82250977 405.25097656 C72.05043716 406.24309143 72.27836456 407.2352063 72.51319885 408.25738525 C72.98306886 410.90461074 73.09218756 413.31843727 73 416 C68.54781634 412.82875186 64.41598233 409.5019021 60.4375 405.75 C27.3721788 375.83137855 -20.2708 362.71565456 -63.92089844 361.28979492 C-69.90860784 361.09139216 -69.90860784 361.09139216 -71 360 C-71.48822079 354.62808059 -71.65694936 349.25737818 -71.78955078 343.86621094 C-71.84598935 342.0556617 -71.92755983 340.24570119 -72.03564453 338.4375 C-72.88999578 323.86799911 -72.88999578 323.86799911 -69.77148438 319.13577271 C-66.79353861 315.89324112 -63.36895453 313.48368248 -59.6686554 311.13458252 C-35.08307027 294.41790441 -28.67429659 261.01907872 -23 234 C-21.36365667 225.25939541 -19.97816033 216.47801475 -18.60522461 207.69287109 C-17.99202015 203.95130973 -17.28920185 200.23340285 -16.5859375 196.5078125 C-14.28825159 183.90668463 -13.00714664 171.14634178 -11.54907227 158.42700195 C-11.23143673 155.67186607 -10.90702199 152.91754493 -10.58262348 150.16319847 C-10.19294419 146.84624645 -9.80958823 143.52857423 -9.42578125 140.2109375 C-9.21022331 138.37648575 -9.21022331 138.37648575 -8.99031067 136.50497437 C-8.85984848 135.35912872 -8.72938629 134.21328308 -8.5949707 133.03271484 C-8.47966507 132.03364105 -8.36435944 131.03456726 -8.24555969 130.00521851 C-7.97387066 126.68022289 -8 123.33607715 -8 120 C-12.95 118.02 -17.9 116.04 -23 114 C-23 97.5 -23 81 -23 64 C-33.56 64 -44.12 64 -55 64 C-53.06723226 60.13446451 -50.8660126 57.50962091 -47.9375 54.4375 C-44.32951001 50.58430108 -40.86407064 46.68643989 -37.5625 42.5625 C-33.71889943 37.78378372 -29.63039836 33.30842313 -25.44165039 28.83618164 C-21.55267958 24.66028406 -17.94961733 20.30734979 -14.37890625 15.85546875 C-9.80974874 10.3709792 -4.88668854 5.20089186 0 0 Z " fill="#C7302D" transform="translate(399,72)"/>
<path d="M0 0 C3.9684025 1.56331008 6.41568551 4.32122701 9.1875 7.4375 C9.67162354 7.97318604 10.15574707 8.50887207 10.65454102 9.06079102 C14.45992298 13.30628944 18.04811377 17.71008778 21.62109375 22.15234375 C24.7972857 25.95438633 28.17270822 29.54903752 31.55834961 33.16381836 C35.44880916 37.34131452 39.05531702 41.69348113 42.62109375 46.15234375 C45.98142669 50.17481126 49.56493475 53.97870891 53.19140625 57.76171875 C57 61.78851318 57 61.78851318 57 64 C46.44 64 35.88 64 25 64 C25 122.08 25 180.16 25 240 C16.75 236.7 8.5 233.4 0 230 C-6.65221394 227.58101311 -13.27523318 225.19177585 -20 223 C-19.88372713 221.02030146 -19.7564632 219.04124787 -19.625 217.0625 C-19.55539062 215.96035156 -19.48578125 214.85820312 -19.4140625 213.72265625 C-19.10739636 210.96555407 -18.70061654 208.50392726 -18.07421875 205.82421875 C-16.7629849 200.17961832 -15.97008722 194.48870062 -15.1875 188.75 C-15.0215332 187.53940918 -14.85556641 186.32881836 -14.68457031 185.08154297 C-13.02741778 172.78421286 -11.6326204 160.4556838 -10.25 148.125 C-10.13731781 147.12915894 -10.02463562 146.13331787 -9.90853882 145.1072998 C-9.5855258 142.24128697 -9.26829696 139.37469709 -8.953125 136.5078125 C-8.80811302 135.22346817 -8.80811302 135.22346817 -8.66017151 133.91317749 C-8.52916298 132.70149399 -8.52916298 132.70149399 -8.39550781 131.46533203 C-8.31874817 130.76892609 -8.24198853 130.07252014 -8.16290283 129.35501099 C-7.94768015 126.24363614 -8 123.11880974 -8 120 C-12.95 118.02 -17.9 116.04 -23 114 C-23 97.5 -23 81 -23 64 C-33.56 64 -44.12 64 -55 64 C-53.06723226 60.13446451 -50.8660126 57.50962091 -47.9375 54.4375 C-44.32951001 50.58430108 -40.86407064 46.68643989 -37.5625 42.5625 C-33.71889943 37.78378372 -29.63039836 33.30842313 -25.44165039 28.83618164 C-21.55267958 24.66028406 -17.94961733 20.30734979 -14.37890625 15.85546875 C-9.80974874 10.3709792 -4.88668854 5.20089186 0 0 Z " fill="#FED239" transform="translate(399,72)"/>
<path d="M0 0 C3.9684025 1.56331008 6.41568551 4.32122701 9.1875 7.4375 C9.67162354 7.97318604 10.15574707 8.50887207 10.65454102 9.06079102 C14.45992298 13.30628944 18.04811377 17.71008778 21.62109375 22.15234375 C24.7972857 25.95438633 28.17270822 29.54903752 31.55834961 33.16381836 C35.44880916 37.34131452 39.05531702 41.69348113 42.62109375 46.15234375 C45.98142669 50.17481126 49.56493475 53.97870891 53.19140625 57.76171875 C57 61.78851318 57 61.78851318 57 64 C46.44 64 35.88 64 25 64 C25 80.5 25 97 25 114 C20.05 115.98 15.1 117.96 10 120 C10.66696862 132.30664672 11.79557003 144.50543505 13.1875 156.75 C13.29371674 157.69612152 13.39993347 158.64224304 13.5093689 159.61703491 C15.22377763 174.7746709 17.41885167 189.80468589 20.11987305 204.81738281 C20.245466 205.52402573 20.37105896 206.23066864 20.50045776 206.95872498 C20.83676068 208.83993088 21.1822703 210.71948459 21.52856445 212.59887695 C22.01516099 216.1093774 22.08212776 219.46060378 22 223 C21.20529297 223.26627197 20.41058594 223.53254395 19.59179688 223.80688477 C16.55547593 224.82814877 13.52148121 225.85601135 10.48876953 226.88793945 C8.56577315 227.54019074 6.64034644 228.18526324 4.71484375 228.83007812 C-4.84643219 232.09071838 -13.66596393 235.91635922 -23 240 C-23 181.92 -23 123.84 -23 64 C-33.56 64 -44.12 64 -55 64 C-53.06723226 60.13446451 -50.8660126 57.50962091 -47.9375 54.4375 C-44.32951001 50.58430108 -40.86407064 46.68643989 -37.5625 42.5625 C-33.71889943 37.78378372 -29.63039836 33.30842313 -25.44165039 28.83618164 C-21.55267958 24.66028406 -17.94961733 20.30734979 -14.37890625 15.85546875 C-9.80974874 10.3709792 -4.88668854 5.20089186 0 0 Z " fill="#FED239" transform="translate(111,72)"/>
<path d="M0 0 C3.42298219 1.4224114 5.06230951 3.0374541 7.20703125 6.03515625 C7.79419922 6.84533203 8.38136719 7.65550781 8.98632812 8.49023438 C9.58896484 9.33908203 10.19160156 10.18792969 10.8125 11.0625 C12.60680726 13.55731108 14.40417074 16.04823099 16.2277832 18.52172852 C18 21 18 21 19.52807617 23.50756836 C22.8304528 28.5669556 25.49041882 30.58540964 31.38671875 32.12109375 C33.81334341 32.59692835 36.24765077 33.03493131 38.6875 33.4375 C39.89083984 33.66630859 41.09417969 33.89511719 42.33398438 34.13085938 C45.88341849 34.79625842 49.43772863 35.40752966 53 36 C54.76657959 36.29801514 54.76657959 36.29801514 56.56884766 36.60205078 C59.37836463 37.07353484 62.18863475 37.53968787 65 38 C63.59819095 40.99713099 61.95595812 43.57319526 59.98828125 46.23046875 C59.39466797 47.03419922 58.80105469 47.83792969 58.18945312 48.66601562 C57.57005859 49.49810547 56.95066406 50.33019531 56.3125 51.1875 C55.71244141 52.00025391 55.11238281 52.81300781 54.49414062 53.65039062 C53.89408203 54.46056641 53.29402344 55.27074219 52.67578125 56.10546875 C52.07717285 56.92063965 51.47856445 57.73581055 50.86181641 58.57568359 C49 61 49 61 46.94677734 63.30322266 C43.40212828 67.21159627 43.40212828 67.21159627 41.67871094 72.06005859 C41.89819643 74.46492882 42.40165052 76.65922853 43 79 C43.47065235 81.287637 43.94064989 83.57540877 44.41015625 85.86328125 C44.9564653 88.34734194 45.50734457 90.83040138 46.0625 93.3125 C46.61969108 95.80774699 47.17324281 98.30381023 47.72265625 100.80078125 C47.96765869 101.89559814 48.21266113 102.99041504 48.46508789 104.1184082 C49 107 49 107 49 111 C42.32250691 109.36057684 35.84433539 107.30031331 29.3671875 105.01171875 C27.80344709 104.46531826 26.239644 103.91909713 24.67578125 103.37304688 C22.26475474 102.53024571 19.85702902 101.68099164 17.45556641 100.8112793 C15.09966921 99.96100371 12.73505479 99.14046783 10.3671875 98.32421875 C9.66069061 98.06082199 8.95419373 97.79742523 8.22628784 97.52604675 C2.60995777 95.63318447 -1.40899455 96.24336146 -7 98 C-7.73694092 98.22852158 -8.47388184 98.45704315 -9.2331543 98.69248962 C-11.54204613 99.44108742 -13.83161696 100.23313042 -16.12109375 101.0390625 C-16.94706558 101.32478119 -17.77303741 101.61049988 -18.6240387 101.90487671 C-21.23017541 102.80691371 -23.8339935 103.71540218 -26.4375 104.625 C-29.06622574 105.54105289 -31.69543044 106.4556368 -34.32594299 107.36654663 C-35.95524503 107.93095369 -37.58349112 108.49842021 -39.21055603 109.06924438 C-44.77571797 111 -44.77571797 111 -47 111 C-46.32099873 103.66987268 -44.99720534 96.57869653 -43.5 89.375 C-42.83790518 86.16667767 -42.18000229 82.95918292 -41.56005859 79.74243164 C-41.11510737 77.56364477 -40.55030425 75.40940947 -39.9453125 73.26953125 C-40.03261642 68.05000418 -43.09113908 65.16998274 -46.375 61.3125 C-47.66751571 59.72855704 -48.95918035 58.14391921 -50.25 56.55859375 C-51.20712891 55.40206299 -51.20712891 55.40206299 -52.18359375 54.22216797 C-54.67479817 51.17446063 -57.03627773 48.0403312 -59.375 44.875 C-60.08398438 43.92367187 -60.79296875 42.97234375 -61.5234375 41.9921875 C-62.01070312 41.33476562 -62.49796875 40.67734375 -63 40 C-62.67 39.34 -62.34 38.68 -62 38 C-59.2796831 37.47043834 -56.60654417 37.05432957 -53.86328125 36.6875 C-32.78600765 34.48503074 -32.78600765 34.48503074 -15.70629883 23.60888672 C-13.66325961 20.56120338 -11.82774924 17.48054599 -10.171875 14.20605469 C-8.36363297 10.80203907 -6.01322474 7.88555437 -3.625 4.875 C-2.41492365 3.25129755 -1.20580367 1.62687797 0 0 Z " fill="#FED13A" transform="translate(255,225)"/>
<path d="M0 0 C3.9684025 1.56331008 6.41568551 4.32122701 9.1875 7.4375 C9.67162354 7.97318604 10.15574707 8.50887207 10.65454102 9.06079102 C14.45992298 13.30628944 18.04811377 17.71008778 21.62109375 22.15234375 C24.7972857 25.95438633 28.17270822 29.54903752 31.55834961 33.16381836 C35.44880916 37.34131452 39.05531702 41.69348113 42.62109375 46.15234375 C45.98142669 50.17481126 49.56493475 53.97870891 53.19140625 57.76171875 C57 61.78851318 57 61.78851318 57 64 C46.44 64 35.88 64 25 64 C25 83.14 25 102.28 25 122 C17.41 119.03 9.82 116.06 2 113 C-8.96342933 116.12746911 -8.96342933 116.12746911 -23 122 C-23 102.86 -23 83.72 -23 64 C-33.56 64 -44.12 64 -55 64 C-53.06723226 60.13446451 -50.8660126 57.50962091 -47.9375 54.4375 C-44.32951001 50.58430108 -40.86407064 46.68643989 -37.5625 42.5625 C-33.71889943 37.78378372 -29.63039836 33.30842313 -25.44165039 28.83618164 C-21.55267958 24.66028406 -17.94961733 20.30734979 -14.37890625 15.85546875 C-9.80974874 10.3709792 -4.88668854 5.20089186 0 0 Z " fill="#FED239" transform="translate(255,24)"/>
<path d="M0 0 C8.44010154 1.94618812 16.54840621 4.42077344 24.6875 7.375 C25.75033203 7.74882812 26.81316406 8.12265625 27.90820312 8.5078125 C29.98988517 9.25778308 32.05869518 10.04468135 34.11132812 10.87084961 C36.93657371 12.04387196 36.93657371 12.04387196 39.73242188 12.69360352 C42.76298587 13.71788855 44.064144 14.42421771 46 17 C47.38390954 23.71164624 47.2128287 30.36046729 47.125 37.1875 C47.13072486 39.21697166 47.13981377 41.24643636 47.15209961 43.27587891 C47.17272624 49.85183981 47.09322125 56.42480255 47 63 C46.98523621 64.15933044 46.97047241 65.31866089 46.95526123 66.51312256 C46.75625373 82.0119973 46.43218708 97.50594609 46 113 C45.39978027 112.74420166 44.79956055 112.48840332 44.18115234 112.22485352 C21.10276468 102.47895679 -2.35083084 94.682748 -27.10522461 90.49487305 C-28.11721924 90.3225415 -29.12921387 90.15020996 -30.171875 89.97265625 C-31.0597168 89.83093994 -31.94755859 89.68922363 -32.86230469 89.54321289 C-35 89 -35 89 -37 87 C-36.31035156 86.36835938 -35.62070312 85.73671875 -34.91015625 85.0859375 C-16.99537137 68.03125889 -10.55267815 47.1577371 -4.9375 23.5625 C-4.68162109 22.50740234 -4.42574219 21.45230469 -4.16210938 20.36523438 C-2.54519953 13.61079092 -1.16482216 6.84684 0 0 Z " fill="#EA423E" transform="translate(378,295)"/>
<path d="M0 0 C0.12004395 0.64211426 0.24008789 1.28422852 0.36376953 1.94580078 C8.11996341 45.14652275 8.11996341 45.14652275 30.88671875 81.7109375 C33.04982163 84.05396576 35.03515137 86.48960649 37 89 C35.86949219 89.20753906 34.73898438 89.41507812 33.57421875 89.62890625 C9.00132003 94.26731018 -17.15468258 99.69273245 -39.51953125 111.26953125 C-43 113 -43 113 -46 113 C-46.88088384 81.29017921 -47.02288654 49.70716338 -46 18 C-35.74069536 12.5997419 -25.57088866 8.12575618 -14.5625 4.5 C-13.24639724 4.05571571 -11.93064064 3.61040469 -10.61523438 3.1640625 C-1.21639655 0 -1.21639655 0 0 0 Z " fill="#EA423E" transform="translate(134,294)"/>
<path d="M0 0 C1.31150823 0.27173316 2.62546282 0.53187952 3.94140625 0.78125 C25.70054774 5.0080844 46.7403582 12.09657602 67 21 C67 21.99 67 22.98 67 24 C51.09676867 28.59969504 35.03360699 32.57708633 18.97387695 36.58544922 C15.06175598 37.56201538 11.15101639 38.5439979 7.24059772 39.52735519 C4.19822774 40.29163575 1.15504656 41.05264505 -1.88837624 41.81272125 C-3.33144524 42.173616 -4.77424014 42.5356088 -6.21674156 42.89876556 C-8.2265902 43.40433016 -10.23752162 43.90534814 -12.2487793 44.40527344 C-13.38695602 44.68997498 -14.52513275 44.97467651 -15.69779968 45.26800537 C-19.11934662 46.02645542 -22.52578183 46.54814479 -26 47 C-26.2989205 41.62939508 -26.5153584 36.2637173 -26.65917969 30.88671875 C-26.71916602 29.06261819 -26.80079709 27.23908601 -26.90527344 25.41699219 C-27.78953045 9.58705787 -27.78953045 9.58705787 -23.50830078 4.50634766 C-15.81387347 -2.84379797 -9.8646736 -2.68758909 0 0 Z " fill="#962523" transform="translate(354,385)"/>
<path d="M0 0 C5.56745438 0.52559181 9.99755293 4.31021748 13.5690918 8.4251709 C17.34798453 14.51338697 15.85733082 23.05345979 15.45507812 29.88037109 C15.39479022 31.66534698 15.34005391 33.45051948 15.29101562 35.23583984 C15.15968881 39.58059433 14.95327248 43.91578827 14.70507812 48.25537109 C8.79635503 47.7244585 3.17681655 46.80020104 -2.56518555 45.32177734 C-3.33714767 45.1281662 -4.1091098 44.93455505 -4.90446472 44.7350769 C-7.42535229 44.10146858 -9.94407219 43.45965043 -12.46289062 42.81787109 C-14.22912589 42.37270505 -15.99551142 41.92813479 -17.76203918 41.48413086 C-22.39202535 40.31906316 -27.02029894 39.14734086 -31.64813232 37.97375488 C-39.06422977 36.09405837 -46.48265987 34.22361004 -53.90154457 32.35494995 C-56.48456056 31.7031738 -59.06669124 31.0479794 -61.64872742 30.39233398 C-63.23674159 29.99111613 -64.82477852 29.58998829 -66.4128418 29.18896484 C-67.12518982 29.00711639 -67.83753784 28.82526794 -68.57147217 28.63790894 C-72.46047738 27.65914593 -76.32961881 26.85498192 -80.29492188 26.25537109 C-80.29492188 25.59537109 -80.29492188 24.93537109 -80.29492188 24.25537109 C-56.12111549 11.66231617 -27.12375253 3.01823885 0 0 Z " fill="#962523" transform="translate(169.294921875,382.74462890625)"/>
</svg>
