<?xml version="1.0" encoding="UTF-8"?>
<svg version="1.1" xmlns="http://www.w3.org/2000/svg" width="512" height="512">
<path d="M0 0 C2.81389632 7.88756784 4.76556212 15.91894898 6.6875 24.0625 C7.01069999 25.41870748 7.33426502 26.77482801 7.65820312 28.13085938 C8.44238433 31.41973875 9.22288202 34.70944587 10 38 C13.77773509 38 17.17086901 37.54482963 20.87890625 36.92578125 C23 37 23 37 24.67578125 38.33203125 C27.02393231 41.28973185 28.83372175 43.83605227 29.375 47.625 C29.77268104 50.25932547 29.77268104 50.25932547 32.5 51.5 C35 53 35 53 35.8125 55.6875 C35.9053125 56.8321875 35.9053125 56.8321875 36 58 C34.02 59.32 32.04 60.64 30 62 C31.59890486 67.19644079 33.74138003 72.06612142 36 77 C38.27987196 74.15193565 40.07375316 71.15400567 41.85327148 67.97436523 C48.69699866 55.90653647 57.20475436 45.03673127 70 39 C70.64066406 38.66484375 71.28132812 38.3296875 71.94140625 37.984375 C80.23468081 34.17535537 90.4017659 35.10688922 98.83984375 38.015625 C102.93963406 39.88388387 105.8985442 42.29775012 108.375 46.125 C109 48 109 48 109 51 C109.73089844 51.10054687 110.46179688 51.20109375 111.21484375 51.3046875 C117.06044536 52.76403825 122.32238965 57.40375713 125.5625 62.4375 C127.5197952 67.2881881 127.93451555 71.11350819 126.33984375 76.0390625 C120.15504072 89.90801475 105.09642332 96.21835071 92 102 C92.72888428 102.06993164 93.45776855 102.13986328 94.20874023 102.21191406 C141.84013165 106.8786425 183.37774147 123.7442182 214.72265625 161.1875 C241.62018985 194.50481037 253.48771117 237.19673915 249.5390625 279.6484375 C247.43945102 298.36222142 242.27249595 316.10242436 234 333 C233.70399902 333.62036133 233.40799805 334.24072266 233.10302734 334.87988281 C226.05580066 349.52258071 216.21302535 362.28549767 205 374 C203.90365234 375.19109375 203.90365234 375.19109375 202.78515625 376.40625 C191.34647847 388.43494277 177.68861387 397.44627932 163 405 C162.39365723 405.31807617 161.78731445 405.63615234 161.16259766 405.96386719 C126.24091199 424.10229497 83.17619846 426.99905239 45.6015625 416.15234375 C9.5527151 404.61827652 -22.02345545 382.95704621 -43 351 C-43.40299316 350.38801758 -43.80598633 349.77603516 -44.22119141 349.14550781 C-66.59644903 314.66203416 -74.99490816 270.73538536 -66.5390625 230.40234375 C-59.90009486 200.81564012 -46.43901227 171.97559842 -24 151 C-24.99 150.34 -25.98 149.68 -27 149 C-26.125 144.125 -26.125 144.125 -25 143 C-25.56589844 142.76925781 -26.13179687 142.53851563 -26.71484375 142.30078125 C-32.72388815 139.62892144 -32.72388815 139.62892144 -34.125 136.4375 C-34 134 -34 134 -32 131 C-33.98 130.67 -35.96 130.34 -38 130 C-38.6875 128.1875 -38.6875 128.1875 -39 126 C-37.47698387 124.0418364 -36.21773977 123.10886989 -34 122 C-34 121.01 -34 120.02 -34 119 C-35.65 119 -37.3 119 -39 119 C-40.0625 117.125 -40.0625 117.125 -41 115 C-40.67 114.34 -40.34 113.68 -40 113 C-39.34 113 -38.68 113 -38 113 C-38.6496875 111.41058594 -38.6496875 111.41058594 -39.3125 109.7890625 C-39.87518135 108.40111517 -40.43767145 107.0130903 -41 105.625 C-41.28617188 104.92632812 -41.57234375 104.22765625 -41.8671875 103.5078125 C-44 98.2265625 -44 98.2265625 -44 96 C-45.093125 96.061875 -46.18625 96.12375 -47.3125 96.1875 C-51 96 -51 96 -52.9375 94.75 C-54 93 -54 93 -54 89 C-54.78375 88.79375 -55.5675 88.5875 -56.375 88.375 C-59 87 -59 87 -60.3125 83.875 C-60.539375 82.92625 -60.76625 81.9775 -61 81 C-61.66 81 -62.32 81 -63 81 C-63.495 78.03 -63.495 78.03 -64 75 C-60.37 72.36 -56.74 69.72 -53 67 C-53.68964844 66.18917969 -54.37929687 65.37835938 -55.08984375 64.54296875 C-60.47056532 58.20642312 -65.80153267 51.83673995 -71.05078125 45.390625 C-73.34602523 42.57561635 -75.66739759 39.78407384 -78 37 C-74.60243784 28.575104 -63.03053625 24.13701349 -55.375 20.1875 C-54.39297607 19.67832031 -53.41095215 19.16914062 -52.39916992 18.64453125 C-13.40477354 -1.21861578 -13.40477354 -1.21861578 0 0 Z M55.546875 59.93359375 C48.92162429 68.44947583 48.92162429 68.44947583 44 78 C44.33 78.66 44.66 79.32 45 80 C45.804375 79.12601563 45.804375 79.12601563 46.625 78.234375 C61.70918112 62.45552764 78.76673992 50.52778279 101 49 C97.31972691 44.91080768 94.28922171 43.26553854 88.80078125 42.62890625 C73.93064128 42.34582408 64.94264782 48.69756607 55.546875 59.93359375 Z M48 86 C45.25744564 89.33024458 44.37823907 91.65025067 44 96 C44.33 96.66 44.66 97.32 45 98 C45.66 98 46.32 98 47 98 C47.33 99.98 47.66 101.96 48 104 C50.88387426 105.31689245 50.88387426 105.31689245 53.20703125 104.13671875 C66.15688517 96.93372654 77.35846746 88.26091141 88 78 C88.68964844 77.36191406 89.37929688 76.72382813 90.08984375 76.06640625 C95.32524448 71.10594998 100.04633835 65.56033681 101.9375 58.5 C101.958125 57.675 101.97875 56.85 102 56 C100.91891468 54.69769433 100.91891468 54.69769433 98.3203125 54.83984375 C78.20996437 55.80987231 60.92106182 71.87632853 48 86 Z M109 58 C108.63390625 58.85980469 108.2678125 59.71960938 107.890625 60.60546875 C103.39961707 70.41083607 97.72249167 77.52905529 90 85 C89.11570312 85.85851562 88.23140625 86.71703125 87.3203125 87.6015625 C82.23699184 92.33649358 76.91314815 96.35784353 71 100 C75.11877953 101.75623087 78.47173434 100.04742094 82.375 98.5 C83.07890869 98.22663818 83.78281738 97.95327637 84.50805664 97.67163086 C105.43027598 89.39125604 105.43027598 89.39125604 120 73 C120.50590547 69.892295 120.5205401 67.84020063 118.8359375 65.12109375 C115.84944515 61.45306852 113.52969572 59.57420431 109 58 Z M43 80 C44 82 44 82 44 82 Z " fill="#F3D7B5" transform="translate(179,59)"/>
<path d="M0 0 C-0.433125 0.59425781 -0.86625 1.18851562 -1.3125 1.80078125 C-5.60062114 8.18333193 -7.45515673 13.30675335 -6 21 C-5.0988197 22.83702138 -4.04420992 24.43439311 -2.90234375 26.12890625 C-0.72002538 30.6541465 -1.22469879 36.50131497 -2.68359375 41.203125 C-3.21753712 42.5009395 -3.76269892 43.79420941 -4.3203125 45.08203125 C-5.53770684 48.51732217 -5.37366653 51.38789022 -5 55 C-1.57670149 57.28219901 -0.15862332 57.29741163 3.875 57.3125 C4.90367187 57.32925781 5.93234375 57.34601563 6.9921875 57.36328125 C11.4145702 56.82914931 14.00245222 55.0277765 17.0625 51.875 C25.86826112 38.80838672 26.55000744 22.79876354 24.546875 7.55078125 C24.10746327 5.35058395 23.56924165 3.1702338 23 1 C29.25107435 1.42954941 35.04204521 2.01401507 41 4 C43.1990322 39.51029778 26.79048026 80.48198243 5 108 C4.32710937 108.87527344 3.65421875 109.75054687 2.9609375 110.65234375 C-17.75494552 136.90501732 -46.01674283 156.16253209 -79 163 C-80.10214844 163.27714844 -81.20429688 163.55429687 -82.33984375 163.83984375 C-114.99420464 171.27530683 -150.9332615 164.8042235 -179.21142578 147.15722656 C-212.37585658 125.69948673 -233.29012191 92.10892839 -247 55.8125 C-247.30309082 55.02254639 -247.60618164 54.23259277 -247.91845703 53.41870117 C-249.46321646 49.1939701 -250.69398896 45.54948318 -250 41 C-248.390625 38.40234375 -248.390625 38.40234375 -246.25 35.9375 C-245.55390625 35.12152344 -244.8578125 34.30554688 -244.140625 33.46484375 C-243.43421875 32.65144531 -242.7278125 31.83804687 -242 31 C-241.32582031 30.14148438 -240.65164062 29.28296875 -239.95703125 28.3984375 C-227.01353898 12.53555475 -207.72341758 3.38026557 -187.81640625 0.546875 C-179.64539206 0.09803028 -172.16263972 1.96760998 -164.25 3.8125 C-137.27628456 10.07369502 -111.16182113 10.442337 -83.61968994 10.03387451 C-80.30417388 9.99100246 -76.98878226 9.9739868 -73.67304993 9.95724487 C-70.68517787 9.9368254 -67.69798017 9.89398282 -64.71047974 9.84338379 C-62.70419808 9.81367284 -60.69764588 9.80436619 -58.69116211 9.79589844 C-51.00741082 9.61207422 -45.03133417 8.2345627 -37.9609375 5.23168945 C-33.94675691 3.56187241 -29.93827566 2.54801491 -25.6875 1.6875 C-24.89496826 1.52217773 -24.10243652 1.35685547 -23.28588867 1.18652344 C-15.48650045 -0.31506281 -7.91956114 -0.39324717 0 0 Z " fill="#42E999" transform="translate(377,303)"/>
<path d="M0 0 C2.81389632 7.88756784 4.76556212 15.91894898 6.6875 24.0625 C7.01069999 25.41870748 7.33426502 26.77482801 7.65820312 28.13085938 C8.44238433 31.41973875 9.22288202 34.70944587 10 38 C13.77773509 38 17.17086901 37.54482963 20.87890625 36.92578125 C23 37 23 37 24.67578125 38.33203125 C27.02393231 41.28973185 28.83372175 43.83605227 29.375 47.625 C29.77268104 50.25932547 29.77268104 50.25932547 32.5 51.5 C35 53 35 53 35.8125 55.6875 C35.9053125 56.8321875 35.9053125 56.8321875 36 58 C34.02 59.32 32.04 60.64 30 62 C31.59890486 67.19644079 33.74138003 72.06612142 36 77 C38.27987196 74.15193565 40.07375316 71.15400567 41.85327148 67.97436523 C48.69699866 55.90653647 57.20475436 45.03673127 70 39 C70.64066406 38.66484375 71.28132812 38.3296875 71.94140625 37.984375 C80.23468081 34.17535537 90.4017659 35.10688922 98.83984375 38.015625 C102.93963406 39.88388387 105.8985442 42.29775012 108.375 46.125 C109 48 109 48 109 51 C109.73089844 51.10054687 110.46179688 51.20109375 111.21484375 51.3046875 C117.06044536 52.76403825 122.32238965 57.40375713 125.5625 62.4375 C127.5197952 67.2881881 127.93451555 71.11350819 126.33984375 76.0390625 C120.00460225 90.24536161 103.62704074 97.4632673 90 103 C85.56730068 104.43625005 81.10131633 105.67252753 76.58642578 106.81567383 C74.60229345 107.31825153 72.62335966 107.83829299 70.64453125 108.36132812 C60.82195647 110.91400333 60.82195647 110.91400333 56.39941406 111.37670898 C52.57410977 112.07808803 50.83028349 113.19695889 47.8203125 115.609375 C42.08905847 119.99520006 36.13331353 123.66723437 29.875 127.25 C28.76133057 127.88969727 27.64766113 128.52939453 26.50024414 129.18847656 C18.6145255 133.65658849 10.6053843 137.81853972 2.4375 141.75 C1.42220215 142.23887695 0.4069043 142.72775391 -0.63916016 143.23144531 C-9.1313938 147.22895713 -16.51255331 150.51749709 -26 150 C-26.625 147.625 -26.625 147.625 -27 145 C-26.34 144.34 -25.68 143.68 -25 143 C-25.56589844 142.76925781 -26.13179687 142.53851563 -26.71484375 142.30078125 C-32.72388815 139.62892144 -32.72388815 139.62892144 -34.125 136.4375 C-34 134 -34 134 -32 131 C-33.98 130.67 -35.96 130.34 -38 130 C-38.6875 128.1875 -38.6875 128.1875 -39 126 C-37.47698387 124.0418364 -36.21773977 123.10886989 -34 122 C-34 121.01 -34 120.02 -34 119 C-35.65 119 -37.3 119 -39 119 C-40.0625 117.125 -40.0625 117.125 -41 115 C-40.67 114.34 -40.34 113.68 -40 113 C-39.34 113 -38.68 113 -38 113 C-38.6496875 111.41058594 -38.6496875 111.41058594 -39.3125 109.7890625 C-39.87518135 108.40111517 -40.43767145 107.0130903 -41 105.625 C-41.28617188 104.92632812 -41.57234375 104.22765625 -41.8671875 103.5078125 C-44 98.2265625 -44 98.2265625 -44 96 C-45.093125 96.061875 -46.18625 96.12375 -47.3125 96.1875 C-51 96 -51 96 -52.9375 94.75 C-54 93 -54 93 -54 89 C-54.78375 88.79375 -55.5675 88.5875 -56.375 88.375 C-59 87 -59 87 -60.3125 83.875 C-60.539375 82.92625 -60.76625 81.9775 -61 81 C-61.66 81 -62.32 81 -63 81 C-63.495 78.03 -63.495 78.03 -64 75 C-60.37 72.36 -56.74 69.72 -53 67 C-53.68964844 66.18917969 -54.37929687 65.37835938 -55.08984375 64.54296875 C-60.47056532 58.20642312 -65.80153267 51.83673995 -71.05078125 45.390625 C-73.34602523 42.57561635 -75.66739759 39.78407384 -78 37 C-74.60243784 28.575104 -63.03053625 24.13701349 -55.375 20.1875 C-54.39297607 19.67832031 -53.41095215 19.16914062 -52.39916992 18.64453125 C-13.40477354 -1.21861578 -13.40477354 -1.21861578 0 0 Z M55.546875 59.93359375 C48.92162429 68.44947583 48.92162429 68.44947583 44 78 C44.33 78.66 44.66 79.32 45 80 C45.804375 79.12601563 45.804375 79.12601563 46.625 78.234375 C61.70918112 62.45552764 78.76673992 50.52778279 101 49 C97.31972691 44.91080768 94.28922171 43.26553854 88.80078125 42.62890625 C73.93064128 42.34582408 64.94264782 48.69756607 55.546875 59.93359375 Z M48 86 C45.25744564 89.33024458 44.37823907 91.65025067 44 96 C44.33 96.66 44.66 97.32 45 98 C45.66 98 46.32 98 47 98 C47.33 99.98 47.66 101.96 48 104 C50.88387426 105.31689245 50.88387426 105.31689245 53.20703125 104.13671875 C66.15688517 96.93372654 77.35846746 88.26091141 88 78 C88.68964844 77.36191406 89.37929688 76.72382813 90.08984375 76.06640625 C95.32524448 71.10594998 100.04633835 65.56033681 101.9375 58.5 C101.958125 57.675 101.97875 56.85 102 56 C100.91891468 54.69769433 100.91891468 54.69769433 98.3203125 54.83984375 C78.20996437 55.80987231 60.92106182 71.87632853 48 86 Z M109 58 C108.63390625 58.85980469 108.2678125 59.71960938 107.890625 60.60546875 C103.39961707 70.41083607 97.72249167 77.52905529 90 85 C89.11570312 85.85851562 88.23140625 86.71703125 87.3203125 87.6015625 C82.23699184 92.33649358 76.91314815 96.35784353 71 100 C75.11877953 101.75623087 78.47173434 100.04742094 82.375 98.5 C83.07890869 98.22663818 83.78281738 97.95327637 84.50805664 97.67163086 C105.43027598 89.39125604 105.43027598 89.39125604 120 73 C120.50590547 69.892295 120.5205401 67.84020063 118.8359375 65.12109375 C115.84944515 61.45306852 113.52969572 59.57420431 109 58 Z M43 80 C44 82 44 82 44 82 Z " fill="#DD9665" transform="translate(179,59)"/>
<path d="M0 0 C23.96198007 5.90196553 48.30137472 5.80610806 72.79986572 5.60491943 C77.03148741 5.57361236 81.26316769 5.5603999 85.49487305 5.54541016 C93.72158969 5.51372992 101.94803165 5.46288809 110.17456055 5.39892578 C107.47856203 7.44650624 104.7928853 9.26569816 101.86206055 10.96142578 C98.16751168 13.14260988 94.60996069 15.44939138 91.08129883 17.88378906 C76.48379161 27.89759399 61.32781045 35.29111375 44.46606445 40.65820312 C42.40935743 41.3230283 40.37608687 42.03029814 38.3425293 42.76220703 C18.33967983 49.64284641 -3.474271 52.61500552 -24.57543945 52.52392578 C-26.30177612 52.51776245 -26.30177612 52.51776245 -28.06298828 52.51147461 C-49.05684402 52.37346453 -71.08331482 50.81841303 -88.82543945 38.39892578 C-85.62416494 28.79510223 -76.66706824 20.50119143 -68.82543945 14.39892578 C-67.57827148 13.41472656 -67.57827148 13.41472656 -66.3059082 12.41064453 C-45.3884345 -3.47945352 -25.02658068 -6.41707197 0 0 Z " fill="#1CB968" transform="translate(215.825439453125,307.60107421875)"/>
<path d="M0 0 C3 1 3 1 4.04321289 2.75 C4.50328735 3.86375 4.50328735 3.86375 4.97265625 5 C5.48602539 6.2065625 5.48602539 6.2065625 6.00976562 7.4375 C6.35716797 8.283125 6.70457031 9.12875 7.0625 10 C7.7558457 11.66911845 8.45479123 13.33592524 9.16015625 15 C9.46574463 15.7425 9.77133301 16.485 10.08618164 17.25 C10.87820307 19.18320062 10.87820307 19.18320062 13 20 C32.17327916 21.17433512 53.70537697 18.68334593 69 6 C69.99 6.495 69.99 6.495 71 7 C61.04051244 17.96100028 48.55757893 25.29741657 33.53808594 26.21044922 C25.35468835 26.42203436 17.18015107 26.28020121 9 26 C8.7110083 26.89404541 8.4220166 27.78809082 8.12426758 28.70922852 C7.19302768 31.43500106 6.18041357 34.02383518 5.01171875 36.65234375 C-5.40203268 60.32832051 -15.6502284 87.26018456 -14.8125 113.5 C-14.73811781 119.63991198 -14.73811781 119.63991198 -17 122.75 C-17.99 123.4925 -18.98 124.235 -20 125 C-21.48093817 126.60685897 -22.91526761 128.25734666 -24.3125 129.9375 C-25.00988281 130.75089844 -25.70726562 131.56429687 -26.42578125 132.40234375 C-28.36929497 135.60938252 -28.24365819 137.28898604 -28 141 C-27.3087704 143.74105753 -27.3087704 143.74105753 -26.234375 146.46484375 C-25.65030884 148.01909058 -25.65030884 148.01909058 -25.05444336 149.60473633 C-24.62397705 150.70454834 -24.19351074 151.80436035 -23.75 152.9375 C-23.30470947 154.08178467 -22.85941895 155.22606934 -22.40063477 156.4050293 C-14.45131311 176.3312373 -4.3184079 194.29461752 9.2734375 210.87890625 C11.50587933 213.62147619 13.59546981 216.29148759 15.3515625 219.3671875 C28.01943044 239.59975383 51.56955997 253.85902567 72 265 C68.85618813 266.02704284 67.10729017 265.98464609 64.015625 264.84765625 C63.2534668 264.57010498 62.49130859 264.29255371 61.70605469 264.0065918 C60.89555664 263.6950415 60.08505859 263.38349121 59.25 263.0625 C58.40598633 262.7425708 57.56197266 262.4226416 56.69238281 262.09301758 C25.57868477 250.03514418 -1.61714428 229.00565023 -20 201 C-20.40299316 200.38801758 -20.80598633 199.77603516 -21.22119141 199.14550781 C-43.59644903 164.66203416 -51.99490816 120.73538536 -43.5390625 80.40234375 C-36.77995624 50.28023976 -22.947155 21.21650365 0 0 Z " fill="#EECAA4" transform="translate(156,209)"/>
<path d="M0 0 C26.57314577 14.3981985 48.87028577 43.55048787 57.69140625 72.28125 C59.28803042 78.88689118 60.09463067 84.43129638 57.81640625 90.90625 C55.6741429 94.0088383 54.53782162 95.1778356 51.00390625 96.53125 C39.3582016 98.45792908 29.23498483 92.22742651 20.02734375 85.77734375 C8.77867078 77.42077146 -0.97445901 67.73609848 -10.7746582 57.76733398 C-16.00408102 52.45556457 -21.3148932 47.35730486 -26.99609375 42.53125 C-29.45483834 40.38754902 -31.88675572 38.21648694 -34.30859375 36.03125 C-34.91509766 35.50144531 -35.52160156 34.97164062 -36.14648438 34.42578125 C-40.95399564 30.05723966 -43.45957099 25.91259111 -44.5 19.35546875 C-44.65116385 11.26316411 -43.30946966 5.76112524 -37.99609375 -0.46875 C-26.27764283 -11.17357963 -12.68340066 -6.21767751 0 0 Z " fill="#F6EDDC" transform="translate(331.99609375,189.46875)"/>
<path d="M0 0 C2.82576909 2.20614261 4.97944639 4.40318292 6.12109375 7.828125 C6.12109375 8.818125 6.12109375 9.808125 6.12109375 10.828125 C6.85199219 10.92867187 7.58289063 11.02921875 8.3359375 11.1328125 C14.18153911 12.59216325 19.4434834 17.23188213 22.68359375 22.265625 C24.64088895 27.1163131 25.0556093 30.94163319 23.4609375 35.8671875 C17.125696 50.07348661 0.74813449 57.2913923 -12.87890625 62.828125 C-17.31160557 64.26437505 -21.77758992 65.50065253 -26.29248047 66.64379883 C-28.2766128 67.14637653 -30.25554659 67.66641799 -32.234375 68.18945312 C-42.05694978 70.74212833 -42.05694978 70.74212833 -46.47949219 71.20483398 C-50.30479648 71.90621303 -52.04862276 73.02508389 -55.05859375 75.4375 C-60.78984778 79.82332506 -66.74559272 83.49535937 -73.00390625 87.078125 C-74.11757568 87.71782227 -75.23124512 88.35751953 -76.37866211 89.01660156 C-84.26438075 93.48471349 -92.27352195 97.64666472 -100.44140625 101.578125 C-101.4567041 102.06700195 -102.47200195 102.55587891 -103.51806641 103.05957031 C-112.01030005 107.05708213 -119.39145956 110.34562209 -128.87890625 109.828125 C-129.50390625 107.453125 -129.50390625 107.453125 -129.87890625 104.828125 C-128.88890625 103.838125 -128.88890625 103.838125 -127.87890625 102.828125 C-128.44480469 102.59738281 -129.01070312 102.36664063 -129.59375 102.12890625 C-135.6027944 99.45704644 -135.6027944 99.45704644 -137.00390625 96.265625 C-136.87890625 93.828125 -136.87890625 93.828125 -134.87890625 90.828125 C-136.85890625 90.498125 -138.83890625 90.168125 -140.87890625 89.828125 C-141.56640625 88.015625 -141.56640625 88.015625 -141.87890625 85.828125 C-140.35589012 83.8699614 -139.09664602 82.93699489 -136.87890625 81.828125 C-136.87890625 80.838125 -136.87890625 79.848125 -136.87890625 78.828125 C-138.52890625 78.828125 -140.17890625 78.828125 -141.87890625 78.828125 C-142.53890625 77.508125 -143.19890625 76.188125 -143.87890625 74.828125 C-141.43614167 71.89527599 -141.43614167 71.89527599 -139.03125 71.60546875 C-138.30035156 71.65832031 -137.56945312 71.71117187 -136.81640625 71.765625 C-122.6166595 72.07566314 -111.39378926 70.09935155 -99.02832031 63.04150391 C-95.83480202 61.23871132 -92.58722291 59.54270349 -89.33959961 57.83984375 C-87.70168647 56.9802365 -86.06687387 56.11468552 -84.43579102 55.2421875 C-83.68354248 54.84128906 -82.93129395 54.44039062 -82.15625 54.02734375 C-81.43308594 53.6394165 -80.70992187 53.25148926 -79.96484375 52.85180664 C-78.01811368 51.89644157 -76.11707179 51.23272891 -74.0625 50.5546875 C-69.56045973 48.1130902 -68.72740169 45.1703629 -67.00390625 40.515625 C-60.14065548 23.72982481 -49.76528382 6.93017484 -32.87890625 -1.171875 C-31.91597656 -1.67654297 -31.91597656 -1.67654297 -30.93359375 -2.19140625 C-21.63399819 -6.45209961 -8.65393257 -5.39746314 0 0 Z M-47.33203125 19.76171875 C-53.95728196 28.27760083 -53.95728196 28.27760083 -58.87890625 37.828125 C-58.54890625 38.488125 -58.21890625 39.148125 -57.87890625 39.828125 C-57.07453125 38.95414063 -57.07453125 38.95414063 -56.25390625 38.0625 C-41.16972513 22.28365264 -24.11216633 10.35590779 -1.87890625 8.828125 C-5.55917934 4.73893268 -8.58968454 3.09366354 -14.078125 2.45703125 C-28.94826497 2.17394908 -37.93625843 8.52569107 -47.33203125 19.76171875 Z M-54.87890625 45.828125 C-57.62146061 49.15836958 -58.50066718 51.47837567 -58.87890625 55.828125 C-58.54890625 56.488125 -58.21890625 57.148125 -57.87890625 57.828125 C-57.21890625 57.828125 -56.55890625 57.828125 -55.87890625 57.828125 C-55.54890625 59.808125 -55.21890625 61.788125 -54.87890625 63.828125 C-51.99503199 65.14501745 -51.99503199 65.14501745 -49.671875 63.96484375 C-36.72202108 56.76185154 -25.52043879 48.08903641 -14.87890625 37.828125 C-14.18925781 37.19003906 -13.49960937 36.55195313 -12.7890625 35.89453125 C-7.55366177 30.93407498 -2.8325679 25.38846181 -0.94140625 18.328125 C-0.92078125 17.503125 -0.90015625 16.678125 -0.87890625 15.828125 C-1.95999157 14.52581933 -1.95999157 14.52581933 -4.55859375 14.66796875 C-24.66894188 15.63799731 -41.95784443 31.70445353 -54.87890625 45.828125 Z M6.12109375 17.828125 C5.755 18.68792969 5.38890625 19.54773438 5.01171875 20.43359375 C0.52071082 30.23896107 -5.15641458 37.35718029 -12.87890625 44.828125 C-13.76320313 45.68664062 -14.6475 46.54515625 -15.55859375 47.4296875 C-20.64191441 52.16461858 -25.9657581 56.18596853 -31.87890625 59.828125 C-27.76012672 61.58435587 -24.40717191 59.87554594 -20.50390625 58.328125 C-19.79999756 58.05476318 -19.09608887 57.78140137 -18.37084961 57.49975586 C2.55136973 49.21938104 2.55136973 49.21938104 17.12109375 32.828125 C17.62699922 29.72042 17.64163385 27.66832563 15.95703125 24.94921875 C12.9705389 21.28119352 10.65078947 19.40232931 6.12109375 17.828125 Z M-59.87890625 39.828125 C-58.87890625 41.828125 -58.87890625 41.828125 -58.87890625 41.828125 Z " fill="#773C14" transform="translate(281.87890625,99.171875)"/>
<path d="M0 0 C2.55183299 7.19868935 4.47952058 14.48187357 6.27197266 21.90429688 C6.75464991 23.89416959 7.25017316 25.88057934 7.74609375 27.8671875 C8.20435547 29.754375 8.20435547 29.754375 8.671875 31.6796875 C9.09098145 33.39260986 9.09098145 33.39260986 9.51855469 35.14013672 C10 38 10 38 9 41 C6.35069675 42.03112951 3.78132009 42.88484349 1.0625 43.6875 C-13.74591495 48.36236824 -27.38995844 54.98523403 -41.0090332 62.40698242 C-41.84781006 62.85920166 -42.68658691 63.3114209 -43.55078125 63.77734375 C-44.28981689 64.18202881 -45.02885254 64.58671387 -45.7902832 65.00366211 C-48.18224288 66.08217138 -50.41708593 66.58025163 -53 67 C-59.0825049 59.8487933 -65.12253837 52.67054983 -71.05078125 45.390625 C-73.34602523 42.57561635 -75.66739759 39.78407384 -78 37 C-74.60243784 28.575104 -63.03053625 24.13701349 -55.375 20.1875 C-54.39297607 19.67832031 -53.41095215 19.16914062 -52.39916992 18.64453125 C-13.40477354 -1.21861578 -13.40477354 -1.21861578 0 0 Z " fill="#CC6730" transform="translate(179,59)"/>
<path d="M0 0 C1.21010794 2.34477274 2.39242709 4.69783837 3.5625 7.0625 C3.90474609 7.71927734 4.24699219 8.37605469 4.59960938 9.05273438 C7.49760638 14.99509186 7.05718494 18.92930734 4.89453125 25.2109375 C2.43661237 28.82939952 -0.39217878 30.03287691 -4.3125 31.625 C-10.56819332 34.33197433 -16.48951487 37.34586081 -22.40063477 40.74243164 C-31.35318773 45.87187399 -38.53834701 49.64086863 -49 50 C-50.41853133 50.19523341 -51.83555202 50.40210061 -53.25 50.625 C-57.52224354 51.05222435 -61.71176132 51.08933831 -66 51 C-71.02811238 41.46193949 -71.02811238 41.46193949 -72.1875 36.9375 C-72.455625 35.968125 -72.72375 34.99875 -73 34 C-73.66 33.67 -74.32 33.34 -75 33 C-74.31711914 32.77449463 -73.63423828 32.54898926 -72.93066406 32.31665039 C-36.63750675 20.45181835 -36.63750675 20.45181835 -3.83007812 1.33740234 C-2 0 -2 0 0 0 Z " fill="#EEC9A2" transform="translate(208,121)"/>
<path d="M0 0 C5.15952264 3.55433782 6.40311041 8.23824971 8 14 C8.495 15.485 8.495 15.485 9 17 C10.25251712 31.72466722 9.1220753 47.63240976 -0.328125 59.6953125 C-3.23417493 62.75891936 -5.55542718 63.8943491 -9.77734375 64.203125 C-10.82019531 64.21859375 -11.86304688 64.2340625 -12.9375 64.25 C-13.97777344 64.27578125 -15.01804687 64.3015625 -16.08984375 64.328125 C-19.37211739 63.95804314 -20.72261102 63.36913214 -23 61 C-23.53877754 56.45887503 -23.29684027 53.36579843 -21.5 49.1875 C-19.45101288 44.20718682 -19.23913374 39.31004555 -20 34 C-20.85107248 32.12114772 -20.85107248 32.12114772 -22 30.5 C-25.01502473 25.96661749 -24.95905497 21.24529294 -24 16 C-19.96382236 6.58716236 -10.6826704 -1.74620574 0 0 Z " fill="#F4EDDC" transform="translate(394,297)"/>
<path d="M0 0 C4.92265695 2.2855193 7.81049249 5.71694706 11 10 C12.67075165 15.01225494 13.06531518 20.30456892 11.09375 25.29296875 C7.92013117 30.71456759 4.02930315 33.99023228 -2 36 C-8.98082206 36.99546018 -13.50813759 35.88300974 -19.15234375 31.65234375 C-23.82920943 27.46986133 -24.77569772 23.24302277 -25.375 17.25 C-25.30951477 12.23570253 -23.10856929 8.80968682 -20 5 C-13.6916875 -0.72149273 -8.33537877 -0.72172182 0 0 Z " fill="#1CB968" transform="translate(364,368)"/>
<path d="M0 0 C0.66 0 1.32 0 2 0 C7 9.56747405 7 9.56747405 7 14.8125 C4.37207817 23.18900084 4.37207817 23.18900084 -0.23828125 25.9140625 C-1.58899968 26.5015811 -2.94778793 27.07076236 -4.3125 27.625 C-10.56817094 30.33196464 -16.48961344 33.3455023 -22.40039062 36.74267578 C-31.24243952 41.80761229 -38.60303875 45.91037102 -49 46 C-49.9178125 46.02835938 -50.835625 46.05671875 -51.78125 46.0859375 C-53.85411778 46.1179262 -55.92807549 46.07023473 -58 46 C-59.49821059 42.62902617 -60 40.79557881 -60 37 C-58.88882813 37.04640625 -57.77765625 37.0928125 -56.6328125 37.140625 C-39.64350683 37.64930975 -30.06554809 31.90599695 -17.55859375 20.83984375 C-12.34298136 15.84815748 -7.94415195 10.28951415 -3.62841797 4.52050781 C-2.46219391 2.97995593 -1.23592195 1.48521903 0 0 Z " fill="#F2D6B3" transform="translate(208,125)"/>
<path d="M0 0 C-1.49795464 4.20944216 -4.48536486 5.99743763 -8.125 8.25 C-8.74318604 8.63913574 -9.36137207 9.02827148 -9.99829102 9.42919922 C-16.46075387 13.4161773 -23.18964708 16.80383929 -30.04150391 20.06347656 C-31.89416596 20.94939175 -33.73463239 21.86068099 -35.57421875 22.7734375 C-43.02411537 26.39593949 -50.60998084 29.48822164 -58.375 32.375 C-59.29039551 32.72111328 -60.20579102 33.06722656 -61.14892578 33.42382812 C-66.82663335 35.48319653 -71.97216644 36.57031736 -78 37 C-74.60243784 28.575104 -63.03053625 24.13701349 -55.375 20.1875 C-54.39297607 19.67832031 -53.41095215 19.16914062 -52.39916992 18.64453125 C-13.40477354 -1.21861578 -13.40477354 -1.21861578 0 0 Z " fill="#DE9665" transform="translate(179,59)"/>
<path d="M0 0 C4.12326498 1.7409341 6.69835882 4.16393137 9 8 C9.62495824 13.6246242 9.15907697 17.14856037 6 22 C2.75953856 24.93666818 0.06485065 25.89954239 -4.3125 26.3125 C-8.75886282 25.93568959 -10.63948122 24.90226622 -14 22 C-16.59623815 18.19218405 -17.64827614 14.6862407 -17.49609375 10.03125 C-16.56122422 6.20343775 -13.87712858 3.57152684 -11 1 C-7.54849768 -0.72575116 -3.7810938 -0.36104194 0 0 Z " fill="#1CB968" transform="translate(222,403)"/>
<path d="M0 0 C4.55340837 2.13228638 8.15882144 4.15336819 10 9 C10.77029703 13.00702589 10.87813383 16.54811616 8.7265625 20.10546875 C3.95122634 25.75434201 3.95122634 25.75434201 -0.171875 26.2734375 C-7.99106636 26.58146625 -7.99106636 26.58146625 -11.5 23.75 C-15.29344221 19.57721357 -16.58389606 16.92786609 -16.453125 11.09765625 C-15.60988393 7.19403166 -12.9811205 4.52984996 -10 2 C-6.45395335 -0.03897683 -4.12061603 -0.55469831 0 0 Z " fill="#3AE090" transform="translate(245,428)"/>
<path d="M0 0 C3.71168084 0.96768822 5.55692692 2.80821076 8.1875 5.5703125 C9.95984774 9.11500799 9.21056495 12.83837748 8.1875 16.5703125 C5.50896137 19.85152232 4.05174925 21.17387285 -0.03515625 22.04296875 C-4.15996394 22.31152885 -6.29392842 21.90522331 -9.8125 19.6328125 C-12.43808352 15.61238773 -13.47497826 12.37123519 -12.8125 7.5703125 C-10.16271564 1.74930027 -6.31735453 -0.49087552 0 0 Z " fill="#20B969" transform="translate(276.8125,274.4296875)"/>
<path d="M0 0 C4.87569049 0.97231978 9.53453976 2.28329979 13 6 C15.14070653 11.0319443 15.44699121 16.58176653 16.12109375 21.9609375 C16.88699746 27.97003789 18.46053099 33.47384231 20.4375 39.1875 C20.73769043 40.06067871 21.03788086 40.93385742 21.34716797 41.83349609 C23.32890456 47.43639612 25.54640392 52.83936018 28.25 58.13671875 C28.4975 58.75160156 28.745 59.36648438 29 60 C28.67 60.66 28.34 61.32 28 62 C0 20.15184382 0 20.15184382 0 0 Z " fill="#67D78E" transform="translate(127,346)"/>
<path d="M0 0 C0.66 0 1.32 0 2 0 C2.99 2.97 3.98 5.94 5 9 C7.97 9.33 10.94 9.66 14 10 C12 14 12 14 9 16 C8.41810734 18.42521494 8.41810734 18.42521494 8.3125 21.125 C8.24675781 22.03507812 8.18101562 22.94515625 8.11328125 23.8828125 C8.07589844 24.58148438 8.03851563 25.28015625 8 26 C5 25 2 24 -1 23 C-3.08894035 23.52660718 -3.08894035 23.52660718 -5.1875 24.4375 C-6.26064453 24.86869141 -6.26064453 24.86869141 -7.35546875 25.30859375 C-8.16951172 25.65083984 -8.16951172 25.65083984 -9 26 C-8.86980469 25.35933594 -8.73960937 24.71867187 -8.60546875 24.05859375 C-7.69957341 18.80216185 -7.69957341 18.80216185 -9.046875 13.77734375 C-10.5549795 11.65000002 -10.5549795 11.65000002 -13 9 C-9.7 8.67 -6.4 8.34 -3 8 C-2.690625 7.05125 -2.38125 6.1025 -2.0625 5.125 C-1 2 -1 2 0 0 Z " fill="#EDC311" transform="translate(286,362)"/>
<path d="M0 0 C2.74999027 3.22824944 3.10429689 4.52148447 4 9 C7.3 9.66 10.6 10.32 14 11 C11 14 11 14 8 17 C7.92794489 18.68608966 7.91613932 20.37500659 7.9375 22.0625 C7.94652344 22.98160156 7.95554687 23.90070313 7.96484375 24.84765625 C7.97644531 25.55792969 7.98804688 26.26820313 8 27 C7.29875 26.690625 6.5975 26.38125 5.875 26.0625 C0.21655757 23.97133649 -3.34874578 23.71258758 -9 26 C-8.94199219 25.35933594 -8.88398438 24.71867187 -8.82421875 24.05859375 C-8.46894051 17.24740229 -9.52540645 14.14578259 -14 9 C-10.7 9 -7.4 9 -4 9 C-3.71125 8.071875 -3.4225 7.14375 -3.125 6.1875 C-2 3 -2 3 0 0 Z " fill="#EEC310" transform="translate(325,416)"/>
<path d="M0 0 C0.66 0 1.32 0 2 0 C2.309375 1.093125 2.61875 2.18625 2.9375 3.3125 C4.02083679 5.93587439 4.64402303 6.8169622 7.203125 8.1328125 C9.45669284 8.86274171 11.68709439 9.49086983 14 10 C10.25 14.875 10.25 14.875 8 16 C8 19.3 8 22.6 8 26 C7.154375 25.484375 6.30875 24.96875 5.4375 24.4375 C0.28271515 22.2818627 -3.78811725 23.67995983 -9 25 C-8.86980469 24.33613281 -8.73960937 23.67226563 -8.60546875 22.98828125 C-8.17882414 20.25695831 -7.88144777 17.76480735 -8 15 C-10.27127334 11.97590636 -10.27127334 11.97590636 -13 10 C-13 9.34 -13 8.68 -13 8 C-12.39671875 8.00902344 -11.7934375 8.01804687 -11.171875 8.02734375 C-8.61470177 7.93248087 -6.45386542 7.74333961 -4 7 C-1.96119166 4.77389955 -1.1862622 2.83671396 0 0 Z " fill="#EFC30F" transform="translate(272,417)"/>
<path d="M0 0 C2.1291174 1.83878321 2.94425028 2.77142613 3.625 5.5625 C4.74614289 8.16977946 4.74614289 8.16977946 7.125 8.765625 C9.41209256 9.2659265 11.68117496 9.68032659 14 10 C12.38405168 12.04119788 10.7143618 14.04072937 9 16 C8.34 16 7.68 16 7 16 C7 19.3 7 22.6 7 26 C6.13375 25.484375 5.2675 24.96875 4.375 24.4375 C0.5340753 22.80155059 -1.03401323 22.96539476 -5 24 C-6.3330518 24.33445744 -7.66633065 24.66801364 -9 25 C-8.93039062 23.98679687 -8.93039062 23.98679687 -8.859375 22.953125 C-8.45571224 17.30381121 -8.45571224 17.30381121 -11 12.5 C-11.66 12.005 -12.32 11.51 -13 11 C-13 10.34 -13 9.68 -13 9 C-12.39671875 8.93683594 -11.7934375 8.87367188 -11.171875 8.80859375 C-6.30280837 8.15707247 -6.30280837 8.15707247 -2.51171875 5.30859375 C-1.28504265 3.17971755 -1.28504265 3.17971755 0 0 Z " fill="#F0C30F" transform="translate(339,316)"/>
<path d="M0 0 C2.9375 2.125 2.9375 2.125 5 5 C5 8.20731148 4.50971468 10.1005035 2.9375 12.875 C-0.23984537 14.71991022 -3.43328301 14.65253866 -7 14 C-9.0625 12.4375 -9.0625 12.4375 -10 10 C-9.87890756 6.54886548 -9.63213135 4.03137221 -7.8125 1.0625 C-4.99452602 -0.58941578 -3.20595185 -0.5129523 0 0 Z " fill="#35DA8A" transform="translate(257,402)"/>
<path d="M0 0 C2.5 2.125 2.5 2.125 4 5 C3.936318 8.18409977 3.51040601 10.14932332 1.875 12.875 C-1.20515368 14.72309221 -3.50442383 14.49060718 -7 14 C-9.5 11.875 -9.5 11.875 -11 9 C-10.936318 5.81590023 -10.51040601 3.85067668 -8.875 1.125 C-5.79484632 -0.72309221 -3.49557617 -0.49060718 0 0 Z " fill="#AFCE9D" transform="translate(296,259)"/>
<path d="M0 0 C1.2263757 2.45275141 1.11415314 4.0505781 1.09765625 6.7890625 C1.09443359 7.73007812 1.09121094 8.67109375 1.08789062 9.640625 C1.07951172 10.62546875 1.07113281 11.6103125 1.0625 12.625 C1.05798828 13.61757813 1.05347656 14.61015625 1.04882812 15.6328125 C1.03702145 18.0886016 1.020554 20.54427104 1 23 C-2.67245883 22.33784052 -5.18761274 21.50310345 -8.3125 19.4375 C-9.00988281 18.98246094 -9.70726562 18.52742188 -10.42578125 18.05859375 C-10.94527344 17.70925781 -11.46476562 17.35992187 -12 17 C-10.53416665 12.45928635 -7.95468267 9.23733031 -4.875 5.6875 C-4.40707031 5.13771484 -3.93914062 4.58792969 -3.45703125 4.02148438 C-2.31047517 2.67603591 -1.15602549 1.337321 0 0 Z " fill="#4AB269" transform="translate(139,329)"/>
<path d="M0 0 C-43.03451117 24.92042222 -43.03451117 24.92042222 -55 24 C-55.33 23.01 -55.66 22.02 -56 21 C-55.27296875 20.91363281 -54.5459375 20.82726562 -53.796875 20.73828125 C-39.51043212 18.74184244 -24.54669689 11.98723413 -13.0625 3.125 C-9.38801909 0.57536018 -4.38369882 -2.19184941 0 0 Z " fill="#E9CBA8" transform="translate(210,179)"/>
<path d="M0 0 C0 0.66 0 1.32 0 2 C-7.35617662 4.60367872 -14.77478854 6.49675973 -22.375 8.25 C-23.54933594 8.53101563 -24.72367188 8.81203125 -25.93359375 9.1015625 C-27.05636719 9.36195313 -28.17914063 9.62234375 -29.3359375 9.890625 C-30.35220215 10.12813477 -31.3684668 10.36564453 -32.41552734 10.61035156 C-35 11 -35 11 -38 10 C-32.44013083 6.38910671 -27.49652747 4.99007561 -21 3.875 C-19.27033766 3.56262814 -17.54115781 3.24757138 -15.8125 2.9296875 C-14.99136719 2.77983398 -14.17023438 2.62998047 -13.32421875 2.47558594 C-11.21188626 2.04335656 -9.18690253 1.50819765 -7.125 0.8828125 C-4 0 -4 0 0 0 Z " fill="#E4C4A1" transform="translate(204,168)"/>
<path d="M0 0 C3.0625 0.3125 3.0625 0.3125 5 1.5 C6.0625 3.3125 6.0625 3.3125 5.875 5.875 C5.0625 8.3125 5.0625 8.3125 3.0625 10.3125 C0.0625 10.5625 0.0625 10.5625 -2.9375 10.3125 C-4.9375 8.3125 -4.9375 8.3125 -5.1875 5.3125 C-4.84687504 1.2250005 -4.07761768 0.43378911 0 0 Z " fill="#26BA6B" transform="translate(300.9375,280.6875)"/>
<path d="M0 0 C-2.56207058 1.12598637 -5.12463699 2.25081988 -7.6875 3.375 C-8.40873047 3.69210938 -9.12996094 4.00921875 -9.87304688 4.3359375 C-11.91277076 5.23006304 -13.95592016 6.11588879 -16 7 C-17.37671875 7.60328125 -17.37671875 7.60328125 -18.78125 8.21875 C-21.88213212 9.3106099 -24.74386181 9.12769169 -28 9 C-28 8.34 -28 7.68 -28 7 C-4.75554017 -1.58518006 -4.75554017 -1.58518006 0 0 Z " fill="#DEBC98" transform="translate(182,186)"/>
<path d="M0 0 C0.33 0.99 0.66 1.98 1 3 C-2.64578405 6.32875935 -7.21084385 8.0219329 -12 9 C-13.32 8.67 -14.64 8.34 -16 8 C-10.72 5.36 -5.44 2.72 0 0 Z " fill="#E5C5A3" transform="translate(207,156)"/>
<path d="M0 0 C-2.2008849 2.47859908 -4.06372969 3.61210366 -7.1875 4.6875 C-7.90292969 4.93886719 -8.61835938 5.19023437 -9.35546875 5.44921875 C-9.89816406 5.63097656 -10.44085938 5.81273437 -11 6 C-11.33 4.35 -11.66 2.7 -12 1 C-7.95858806 0.36605303 -4.0934693 -0.12404452 0 0 Z " fill="#DFB791" transform="translate(157,176)"/>
<path d="M0 0 C-2.85306797 2.32472205 -5.54074837 3.7508258 -9 5 C-9.66 4.34 -10.32 3.68 -11 3 C-9.73581754 2.30034557 -8.46334598 1.61565237 -7.1875 0.9375 C-6.47980469 0.55464844 -5.77210938 0.17179688 -5.04296875 -0.22265625 C-3 -1 -3 -1 0 0 Z " fill="#DBB996" transform="translate(185,192)"/>
<path d="M0 0 C0 0.66 0 1.32 0 2 C-4.07369424 4.03684712 -6.58937864 4.0257259 -11 3 C-7.13828168 1.00255949 -4.44822596 0 0 0 Z " fill="#D3AF8B" transform="translate(204,168)"/>
<path d="M0 0 C1.98 0 3.96 0 6 0 C6.33 0.99 6.66 1.98 7 3 C5.02 3 3.04 3 1 3 C0.67 2.01 0.34 1.02 0 0 Z " fill="#E0BA95" transform="translate(154,200)"/>
<path d="M0 0 C-3.96 1.98 -3.96 1.98 -8 4 C-8 3.34 -8 2.68 -8 2 C-8.66 1.67 -9.32 1.34 -10 1 C-8.71073008 0.63720544 -7.41846728 0.28503302 -6.125 -0.0625 C-5.40570313 -0.25972656 -4.68640625 -0.45695313 -3.9453125 -0.66015625 C-2 -1 -2 -1 0 0 Z " fill="#CCA783" transform="translate(210,179)"/>
</svg>
