<?xml version="1.0" encoding="UTF-8"?>
<svg version="1.1" xmlns="http://www.w3.org/2000/svg" width="512" height="512">
<path d="M0 0 C5.18758139 3.06980472 8.62450508 6.66470408 10.7734375 12.359375 C14.88869349 32.59271695 3.00622592 54.9668732 -7.8203125 71.3359375 C-12.19701593 77.64219058 -17.50737597 84.56008283 -24.0390625 88.65234375 C-27.97872079 92.52255294 -29.04798504 97.42091578 -30.6640625 102.609375 C-31.00630859 103.64384766 -31.34855469 104.67832031 -31.70117188 105.74414062 C-33.86178109 112.44412688 -35.40448894 119.09090296 -36.4765625 126.046875 C-35.80923096 125.13349365 -35.80923096 125.13349365 -35.12841797 124.20166016 C-29.88753475 117.09627839 -23.16553971 108.77282864 -14.4765625 106.046875 C-7.01939395 105.22178212 -1.47054234 105.37157073 4.5234375 110.046875 C9.01794817 114.54138567 11.63441982 118.01345967 11.8359375 124.546875 C11.5719484 141.10619147 -0.6104471 153.80660354 -11.4765625 165.046875 C-12.24097656 165.86285156 -13.00539063 166.67882812 -13.79296875 167.51953125 C-22.46500797 176.56389416 -32.12870076 182.8185408 -43.4765625 188.046875 C-44.13911943 202.86851882 -42.02113683 217.5567811 -38.02734375 231.83203125 C-37.4765625 234.046875 -37.4765625 234.046875 -37.4765625 237.046875 C-36.8165625 237.046875 -36.1565625 237.046875 -35.4765625 237.046875 C-35.43789062 236.17289062 -35.43789062 236.17289062 -35.3984375 235.28125 C-34.60714666 223.84350058 -30.92932284 211.8277418 -22.86328125 203.3515625 C-17.98494762 199.11479632 -13.70476149 198.6195725 -7.46484375 198.71875 C-1.50779605 199.3728572 3.21917807 201.48831667 7.2578125 205.97265625 C13.18674298 215.61549542 11.54947938 228.58130433 9.13110352 239.12280273 C5.33220686 253.88645373 -0.43683116 267.98279704 -9.203125 280.48046875 C-9.62335938 281.32738281 -10.04359375 282.17429687 -10.4765625 283.046875 C-4.38377975 299.34000347 18.4615155 311.36335767 32.5234375 320.046875 C32.49725342 319.10368408 32.47106934 318.16049316 32.4440918 317.1887207 C32.35866828 313.67554355 32.29609452 310.16347592 32.2487793 306.6496582 C32.22369641 305.13157699 32.1896209 303.61361582 32.14624023 302.09594727 C32.08530457 299.90871535 32.05716855 297.72308461 32.03515625 295.53515625 C32.00897217 294.22071533 31.98278809 292.90627441 31.95581055 291.55200195 C32.66267317 287.18708725 34.13495734 285.78233856 37.5234375 283.046875 C39.83164258 281.89277246 41.13128026 281.9258453 43.69775391 281.93334961 C44.98886581 281.93346291 44.98886581 281.93346291 46.30606079 281.93357849 C47.23631073 281.93873978 48.16656067 281.94390106 49.125 281.94921875 C50.07660004 281.9506337 51.02820007 281.95204865 52.00863647 281.95350647 C55.05526847 281.95911488 58.10182763 281.97166881 61.1484375 281.984375 C63.21093644 281.98938892 65.27343653 281.99395201 67.3359375 281.99804688 C72.39846567 282.00908704 77.46093923 282.02635733 82.5234375 282.046875 C82.5995652 281.04591545 82.5995652 281.04591545 82.67723083 280.0247345 C83.23171161 273.30785684 84.16161989 266.74854573 85.37109375 260.12109375 C85.54724716 259.12987015 85.72340057 258.13864655 85.90489197 257.11738586 C86.64967093 252.92650924 87.40504198 248.73756481 88.16040039 244.54858398 C88.71401531 241.46932401 89.26149512 238.38901705 89.80859375 235.30859375 C90.06637352 233.89751595 90.06637352 233.89751595 90.32936096 232.45793152 C91.69964749 225.7651971 91.69964749 225.7651971 91.5234375 219.046875 C89.63963231 216.62567334 87.87795153 214.67613743 85.6796875 212.58203125 C85.07717163 211.98563339 84.47465576 211.38923553 83.85388184 210.77476501 C81.92403175 208.87181174 79.97413792 206.99092386 78.0234375 205.109375 C76.74086912 203.8483447 75.45960428 202.58598714 74.1796875 201.32226562 C68.683929 195.91832086 63.1495469 190.59971315 57.29003906 185.58862305 C53.94481173 182.66917713 50.79960838 179.54763321 47.6484375 176.421875 C46.98585937 175.77992188 46.32328125 175.13796875 45.640625 174.4765625 C41.72046314 170.58827187 38.7607298 167.54541535 38.37109375 161.80078125 C38.7951681 157.47522285 39.37860211 153.46797542 42.56323242 150.23608398 C53.11389338 143.83525331 71.45914379 144.1571998 83.39672852 142.40258789 C87.10981738 141.85585884 90.82152284 141.30034306 94.53320312 140.74414062 C96.9061723 140.39270409 99.27921658 140.04177426 101.65234375 139.69140625 C102.7555043 139.52582718 103.85866486 139.36024811 104.99525452 139.18965149 C109.87412396 138.47840405 114.57666496 137.82170566 119.5234375 138.046875 C119.79359177 137.1832132 120.06374603 136.31955139 120.34208679 135.42971802 C121.50098386 132.11117186 122.87038971 129.07205559 124.42504883 125.92138672 C124.70991653 125.3417215 124.99478424 124.76205627 125.2882843 124.16482544 C126.22294357 122.26652669 127.16364089 120.37131386 128.10546875 118.4765625 C128.42837072 117.8251038 128.7512727 117.1736451 129.08395958 116.50244522 C130.79065165 113.05919243 132.50186393 109.61823286 134.21704102 106.17919922 C135.98309759 102.63609466 137.73417439 99.0858061 139.48186207 95.5336132 C140.83357433 92.79287936 142.19603795 90.05759476 143.56146812 87.32367325 C144.21170102 86.01717251 144.85794923 84.70868044 145.50004005 83.39815903 C146.39994813 81.56408172 147.31483497 79.73824062 148.23364258 77.91357422 C148.74945389 76.87466034 149.2652652 75.83574646 149.79670715 74.76535034 C152.62808346 70.30777728 155.27868017 68.34802597 160.3984375 67.109375 C164.80012043 66.79437697 167.73132098 67.68574585 171.5234375 70.046875 C176.54502422 76.36254283 179.7788502 84.26536429 183.35546875 91.4453125 C183.99827655 92.72957841 184.64132166 94.01372556 185.28459167 95.29776001 C186.62258499 97.97081694 187.95771121 100.64528049 189.29077148 103.32080078 C191.00135036 106.75343067 192.71917305 110.18237658 194.43910694 113.61032677 C195.76394194 116.25278675 197.08497737 118.89713165 198.40485191 121.5420723 C199.03723352 122.80817031 199.67080563 124.07367442 200.30558205 125.33857346 C201.18780986 127.09796964 202.06438618 128.86019631 202.94067383 130.62255859 C203.69082512 132.12524796 203.69082512 132.12524796 204.45613098 133.65829468 C205.5234375 136.046875 205.5234375 136.046875 205.5234375 138.046875 C206.31082809 138.0988504 207.09821869 138.15082581 207.9094696 138.20437622 C215.84260053 138.76593266 223.67318654 139.65260275 231.54296875 140.7890625 C232.72638351 140.95810089 233.90979828 141.12713928 235.1290741 141.30130005 C237.6074556 141.6570803 240.08550684 142.01516835 242.56323242 142.37548828 C246.34226698 142.92279167 250.12315166 143.45578078 253.90429688 143.98828125 C256.32564685 144.33766943 258.74687538 144.68790058 261.16796875 145.0390625 C262.84944756 145.27361649 262.84944756 145.27361649 264.56489563 145.51290894 C278.72770659 147.60957113 278.72770659 147.60957113 283.9609375 152.171875 C286.04883768 156.01361133 286.91873922 159.66980687 286.5234375 164.046875 C284.60002745 168.50443526 282.35935341 171.57863632 278.91796875 174.98046875 C278.01626953 175.87701172 277.11457031 176.77355469 276.18554688 177.69726562 C275.24517578 178.61701172 274.30480469 179.53675781 273.3359375 180.484375 C272.41490234 181.40025391 271.49386719 182.31613281 270.54492188 183.25976562 C266.02184412 187.73148125 261.43594035 192.07152958 256.62036133 196.2253418 C252.13260153 200.12372063 247.7779529 204.14846956 243.4609375 208.234375 C242.00010742 209.53858398 242.00010742 209.53858398 240.50976562 210.86914062 C235.56384408 215.49549094 235.56384408 215.49549094 232.98657227 221.57299805 C233.18351898 224.83969939 233.82022449 227.84741161 234.5234375 231.046875 C234.82268961 232.77201445 235.11229845 234.49884115 235.39477539 236.22680664 C236.39948203 242.32358513 237.48861668 248.40368301 238.5859375 254.484375 C239.15273727 257.6329682 239.71785509 260.78181728 240.2776947 263.93165588 C240.62408482 265.88010402 240.97445654 267.82784974 241.32936096 269.77476501 C241.56476845 271.09753197 241.56476845 271.09753197 241.80493164 272.44702148 C241.94403458 273.21690903 242.08313751 273.98679657 242.22645569 274.78001404 C242.54682629 277.22540153 242.57343882 279.58335422 242.5234375 282.046875 C243.79985107 282.03116455 245.07626465 282.0154541 246.39135742 281.99926758 C251.13429434 281.94490119 255.8772038 281.91050037 260.62036133 281.88208008 C262.67184076 281.86700878 264.72328806 281.84654818 266.7746582 281.82055664 C269.72615498 281.78410076 272.67722513 281.76713194 275.62890625 281.75390625 C277.00105537 281.73068047 277.00105537 281.73068047 278.40092468 281.70698547 C283.25209123 281.70570805 286.63044716 281.80847922 290.5234375 285.046875 C292.91973205 288.64131683 292.78125081 291.19549152 292.71875 295.33984375 C292.71450516 296.39888664 292.71450516 296.39888664 292.71017456 297.47932434 C292.69899214 299.73118133 292.6738917 301.98263852 292.6484375 304.234375 C292.63840517 305.76236404 292.62927976 307.29035933 292.62109375 308.81835938 C292.59905922 312.56135163 292.56454317 316.30404556 292.5234375 320.046875 C308.71906585 309.99910661 322.31078825 298.80423177 335.5234375 285.046875 C334.03040106 280.94864233 332.01871898 277.40530815 329.7734375 273.671875 C319.35480827 255.76034738 310.1513529 231.79753849 315.3046875 210.875 C317.6713419 205.16122009 321.09972313 202.19860933 326.76953125 199.82421875 C332.66319464 198.16061731 338.72182948 197.7892845 344.3359375 200.546875 C353.761294 207.02540166 358.15407377 219.33928104 360.25390625 230.1328125 C360.58131295 232.45787455 360.67462116 234.70352829 360.5234375 237.046875 C361.1834375 237.046875 361.8434375 237.046875 362.5234375 237.046875 C362.68779297 236.11681641 362.68779297 236.11681641 362.85546875 235.16796875 C363.85793283 229.56884013 364.93903678 223.9933388 366.0859375 218.421875 C368.1397245 208.12182202 368.65807018 198.56318325 368.5234375 188.046875 C367.66363281 187.66917969 366.80382812 187.29148438 365.91796875 186.90234375 C356.46213069 182.49924358 349.11104921 177.16168851 341.5234375 170.046875 C340.97268555 169.53850098 340.42193359 169.03012695 339.85449219 168.50634766 C328.49143983 157.93798352 314.7178325 143.96617057 313.3203125 127.6796875 C313.22070982 122.35094392 313.33549968 118.52991255 316.5234375 114.046875 C321.76589091 108.78257803 325.49508159 105.93596984 333.0859375 105.609375 C342.02520191 105.70642371 347.63585141 110.03848982 353.8984375 116.046875 C356.87050787 119.17537013 359.30562112 122.35051437 361.5234375 126.046875 C358.93279674 109.92380599 355.96643876 92.91377774 342.546875 82.51953125 C326.28156521 69.21728177 315.75267343 41.85022494 313.23828125 21.76953125 C312.97096544 15.90020593 314.18927312 9.69113368 318.140625 5.21484375 C324.26586598 -0.18746106 328.99518989 -1.55346006 337.19921875 -1.37890625 C343.60599656 -0.55829664 347.30235749 2.45027219 351.41796875 7.26171875 C359.65719631 18.91151981 363.10525605 34.18147488 365.5234375 48.046875 C365.72453125 49.09359375 365.925625 50.1403125 366.1328125 51.21875 C366.45981989 54.42342246 366.46348182 57.17044973 366.26953125 60.36328125 C365.25239537 78.86141326 369.41280076 94.12440105 376.5234375 111.046875 C376.8534375 111.376875 377.1834375 111.706875 377.5234375 112.046875 C378.08611328 111.14195312 378.08611328 111.14195312 378.66015625 110.21875 C382.41195473 104.35951812 385.94801873 99.80018639 392.5234375 97.046875 C399.8547983 96.14616496 406.50588727 96.49192379 412.5234375 101.046875 C417.10099212 105.42988355 418.65135544 109.26621322 418.8671875 115.59204102 C419.19930029 139.0241554 405.40416251 161.70759542 390.5234375 179.046875 C390.01022949 179.43447998 389.49702148 179.82208496 388.96826172 180.22143555 C386.78583604 182.97878546 386.84107544 185.95831121 386.609375 189.34765625 C386.51941757 190.41864815 386.51941757 190.41864815 386.42764282 191.51127625 C386.23844778 193.79315151 386.06784721 196.07595344 385.8984375 198.359375 C385.71806514 200.63163268 385.53387137 202.90354034 385.34780884 205.17533875 C385.23344308 206.58745333 385.12301486 207.99989428 385.0171814 209.41267395 C384.71372843 213.33705894 384.22977902 217.17475735 383.5234375 221.046875 C384.05453125 220.76972656 384.585625 220.49257813 385.1328125 220.20703125 C385.83921875 219.84480469 386.545625 219.48257813 387.2734375 219.109375 C387.96953125 218.74972656 388.665625 218.39007813 389.3828125 218.01953125 C394.24121133 215.81197412 399.3584202 215.03064121 404.54296875 216.6953125 C410.71055242 219.454805 414.66617607 223.67003604 417.8984375 229.546875 C419.76348888 237.0070805 417.80825543 243.30926549 414.5234375 250.046875 C412.16463371 253.68714431 409.45248911 256.85329492 406.5234375 260.046875 C405.64558594 261.0059375 404.76773437 261.965 403.86328125 262.953125 C391.86092795 275.6638004 372.76143323 292.26523483 354.52734375 293.2890625 C349.60373803 293.82975797 347.47975161 296.47536793 344.4609375 300.171875 C343.4925984 301.30095055 342.52253178 302.4285467 341.55078125 303.5546875 C341.06077637 304.12783691 340.57077148 304.70098633 340.06591797 305.29150391 C335.0605402 310.98771571 329.55667646 315.84575721 323.5234375 320.421875 C322.79157227 320.97987793 322.05970703 321.53788086 321.30566406 322.11279297 C314.35663819 327.32381388 307.06364194 331.75675868 299.5234375 336.046875 C298.60046875 336.62179687 297.6775 337.19671875 296.7265625 337.7890625 C294.5234375 339.046875 294.5234375 339.046875 292.5234375 339.046875 C292.5234375 343.336875 292.5234375 347.626875 292.5234375 352.046875 C293.56469284 352.03577194 294.60594818 352.02466888 295.67875671 352.01322937 C305.4927705 351.91186026 315.30667804 351.83691292 325.12109661 351.78781414 C330.16680919 351.76172314 335.21209906 351.72633399 340.25756836 351.66967773 C345.12700872 351.61534048 349.99604257 351.58545072 354.86576271 351.57248878 C356.72335014 351.56325199 358.58091538 351.5452144 360.4383297 351.51822472 C363.04099934 351.48191086 365.64199072 351.47693051 368.24487305 351.47924805 C369.0123587 351.46127167 369.77984436 351.44329529 370.57058716 351.42477417 C374.59474121 351.46353102 376.31755874 351.8789288 379.47834778 354.45735168 C382.68770081 358.52108268 382.95697237 360.84445652 382.5234375 366.046875 C379.4839045 371.57116763 375.16765582 375.41527566 370.5234375 379.609375 C364.10216395 385.42873222 364.10216395 385.42873222 358.5234375 392.046875 C360.70933501 394.09027989 362.89710101 396.13162214 365.0859375 398.171875 C365.69501953 398.74164063 366.30410156 399.31140625 366.93164062 399.8984375 C370.54352806 403.26188824 374.20666596 406.49766711 378.05834961 409.58544922 C380.35016286 411.87153389 381.46983354 414.03197337 381.640625 417.265625 C381.23676954 421.06968286 380.98609234 423.43000188 378.6484375 426.546875 C375.29589647 428.91337455 372.59073054 429.17388248 368.60269165 429.18731689 C367.58768082 429.19302704 366.57266998 429.19873718 365.52690125 429.20462036 C364.41410294 429.20573822 363.30130463 429.20685608 362.15478516 429.20800781 C360.9821965 429.21297272 359.80960785 429.21793762 358.60148621 429.22305298 C355.38448269 429.23516055 352.16751552 429.24261937 348.95049334 429.24706364 C346.94015123 429.24999613 344.9298148 429.25410126 342.91947556 429.25856781 C336.62810818 429.27223888 330.33675381 429.28190768 324.04537261 429.2857697 C316.78546571 429.29025092 309.52574705 429.30780321 302.26589739 429.3367703 C296.65221319 429.35839093 291.03858194 429.36847417 285.42485654 429.36981082 C282.07286361 429.3708585 278.72104772 429.37675829 275.36909866 429.39463043 C271.6295462 429.41164902 267.89045418 429.40982072 264.15087891 429.40332031 C263.04212906 429.4125351 261.93337921 429.42174988 260.79103088 429.4312439 C251.30560531 429.37948692 251.30560531 429.37948692 247.5234375 426.046875 C238.30389304 413.75414906 244.5234375 395.41278243 244.5234375 380.046875 C190.4034375 380.046875 136.2834375 380.046875 80.5234375 380.046875 C80.5234375 393.906875 80.5234375 407.766875 80.5234375 422.046875 C75.5234375 428.046875 75.5234375 428.046875 72.5234375 429.046875 C70.88532595 429.14277922 69.24359887 429.18178921 67.60269165 429.18731689 C66.58768082 429.19302704 65.57266998 429.19873718 64.52690125 429.20462036 C63.41410294 429.20573822 62.30130463 429.20685608 61.15478516 429.20800781 C59.9821965 429.21297272 58.80960785 429.21793762 57.60148621 429.22305298 C54.38448269 429.23516055 51.16751552 429.24261937 47.95049334 429.24706364 C45.94015123 429.24999613 43.9298148 429.25410126 41.91947556 429.25856781 C35.62810818 429.27223888 29.33675381 429.28190768 23.04537261 429.2857697 C15.78546571 429.29025092 8.52574705 429.30780321 1.26589739 429.3367703 C-4.34778681 429.35839093 -9.96141806 429.36847417 -15.57514346 429.36981082 C-18.92713639 429.3708585 -22.27895228 429.37675829 -25.63090134 429.39463043 C-29.3704538 429.41164902 -33.10954582 429.40982072 -36.84912109 429.40332031 C-37.95787094 429.4125351 -39.06662079 429.42174988 -40.20896912 429.4312439 C-49.60037358 429.37999994 -49.60037358 429.37999994 -53.4765625 426.046875 C-55.60394388 423.33262979 -56.40565811 421.5229473 -56.9140625 418.109375 C-56.00542574 411.74891768 -51.29635469 407.63045245 -46.6640625 403.546875 C-46.13651367 403.0727417 -45.60896484 402.5986084 -45.06542969 402.11010742 C-41.25324067 398.69584924 -37.39324069 395.34044529 -33.4765625 392.046875 C-38.81823964 385.66291939 -44.36751622 379.80260646 -50.7265625 374.421875 C-54.90892436 370.7744664 -57.24224321 368.23385507 -57.8515625 362.546875 C-57.45197786 358.81741835 -56.74886446 356.99245162 -54.4765625 354.046875 C-50.71431701 351.53871134 -47.77870038 351.77941358 -43.42504883 351.81982422 C-42.60531082 351.81953217 -41.78557281 351.81924011 -40.94099426 351.81893921 C-38.23008661 351.82033312 -35.51945342 351.83589719 -32.80859375 351.8515625 C-30.92958222 351.85529241 -29.05056874 351.85813949 -27.17155457 351.86013794 C-22.22476842 351.86777611 -17.27809963 351.88742621 -12.33135986 351.9095459 C-7.28407377 351.93000034 -2.23676872 351.9391388 2.81054688 351.94921875 C12.71489532 351.9706719 22.61915665 352.0048101 32.5234375 352.046875 C32.5234375 347.756875 32.5234375 343.466875 32.5234375 339.046875 C30.8734375 338.386875 29.2234375 337.726875 27.5234375 337.046875 C11.81039657 329.03630511 -1.83404882 318.26475463 -14.4765625 306.046875 C-15.18683594 305.36496094 -15.89710937 304.68304688 -16.62890625 303.98046875 C-19.19262578 301.47095048 -21.32162543 299.29588101 -23.2265625 296.234375 C-25.84126094 293.69230708 -26.71355318 293.69441193 -30.2265625 293.234375 C-48.54738326 290.59617681 -64.63164268 276.41885963 -77.4765625 264.046875 C-78.15589844 263.43070312 -78.83523437 262.81453125 -79.53515625 262.1796875 C-87.3161756 254.93588775 -92.69540664 246.20747037 -93.8515625 235.609375 C-93.19138083 229.33764917 -90.72647354 224.87826351 -86.0390625 220.671875 C-80.98792492 216.72533863 -76.95664423 215.40948991 -70.4765625 216.046875 C-66.34347788 217.41836404 -62.37049279 219.09990985 -58.4765625 221.046875 C-58.56220459 220.36286621 -58.64784668 219.67885742 -58.73608398 218.97412109 C-58.98951618 216.93879189 -59.24088686 214.90320543 -59.49072266 212.86743164 C-59.77405154 210.56142214 -60.06151917 208.25591755 -60.35302734 205.95092773 C-61.55912665 196.15293227 -61.55912665 196.15293227 -61.58203125 191.62109375 C-61.61747544 185.24822774 -62.06018963 181.80708313 -66.4765625 177.046875 C-67.28996094 176.25539062 -68.10335937 175.46390625 -68.94140625 174.6484375 C-82.27758761 160.96292628 -93.81206698 136.98155092 -93.9765625 117.984375 C-93.98300781 117.2819165 -93.98945312 116.57945801 -93.99609375 115.85571289 C-93.83921919 109.57997648 -92.11040069 105.60967674 -87.6015625 101.296875 C-81.19611833 96.6849552 -75.21987378 96.09028908 -67.4765625 97.046875 C-60.46599266 99.55481596 -55.73472771 105.53054457 -52.4765625 112.046875 C-52.06792969 110.94085938 -51.65929688 109.83484375 -51.23828125 108.6953125 C-50.0396749 105.48070805 -48.75663795 102.3136091 -47.43359375 99.1484375 C-42.18971167 86.05134644 -40.91978413 75.1203976 -41.375 61.08984375 C-41.61121358 53.11701365 -40.41966765 45.75164395 -38.4765625 38.046875 C-38.29963867 37.33208984 -38.12271484 36.61730469 -37.94042969 35.88085938 C-34.60980131 22.77693633 -30.42848003 9.34214304 -19.4765625 0.671875 C-13.68414397 -2.33207072 -6.01706863 -2.31571726 0 0 Z M-38.4765625 127.046875 C-37.4765625 129.046875 -37.4765625 129.046875 -37.4765625 129.046875 Z M362.5234375 127.046875 C363.5234375 129.046875 363.5234375 129.046875 363.5234375 129.046875 Z " fill="#EC6263" transform="translate(93.4765625,42.953125)"/>
<path d="M0 0 C2.95214006 2.6844536 4.32092454 5.08314405 6.09309387 8.65066528 C6.56236046 9.58306534 6.56236046 9.58306534 7.04110718 10.53430176 C8.06451508 12.57513714 9.07054745 14.62400313 10.07624817 16.6736145 C10.78561503 18.09846792 11.4959312 19.52284908 12.20715332 20.94677734 C13.69113275 23.92391904 15.1671897 26.90480404 16.63703918 29.88894653 C18.52371531 33.71904707 20.4243441 37.54200056 22.33018208 41.36259651 C23.79465407 44.29983904 25.25458214 47.23931888 26.71283531 50.17965317 C27.41263727 51.59066767 28.11319851 53.00130585 28.8145237 54.41156387 C29.79050827 56.37723449 30.76101922 58.34550508 31.72981262 60.31472778 C32.28320816 61.43517487 32.8366037 62.55562195 33.4067688 63.71002197 C34.58796692 66.353302 34.58796692 66.353302 34.58796692 68.353302 C35.37535751 68.4052774 36.16274811 68.45725281 36.97399902 68.51080322 C44.90712995 69.07235966 52.73771596 69.95902975 60.60749817 71.0954895 C61.79091293 71.26452789 62.9743277 71.43356628 64.19360352 71.60772705 C66.67198502 71.96350731 69.15003626 72.32159536 71.62776184 72.68191528 C75.4067964 73.22921868 79.18768107 73.76220779 82.96882629 74.29470825 C85.39017627 74.64409644 87.8114048 74.99432758 90.23249817 75.3454895 C91.35348404 75.50185883 92.47446991 75.65822815 93.62942505 75.81933594 C107.79223601 77.91599813 107.79223601 77.91599813 113.02546692 82.478302 C115.1133671 86.32003833 115.98326864 89.97623387 115.58796692 94.353302 C113.66455687 98.81086226 111.42388283 101.88506332 107.98249817 105.28689575 C107.08079895 106.18343872 106.17909973 107.07998169 105.25007629 108.00369263 C104.3097052 108.92343872 103.36933411 109.84318481 102.40046692 110.790802 C101.47943176 111.70668091 100.55839661 112.62255981 99.60945129 113.56619263 C95.08637354 118.03790825 90.50046977 122.37795658 85.68489075 126.5317688 C81.19713095 130.43014764 76.84248231 134.45489656 72.52546692 138.540802 C71.5515802 139.41027466 70.57769348 140.27974731 69.57429504 141.17556763 C68.6597052 142.05277466 67.74511536 142.92998169 66.80281067 143.83377075 C65.96870667 144.60616089 65.13460266 145.37855103 64.27522278 146.17434692 C61.59183589 151.2301103 62.74065444 155.83646935 63.58796692 161.353302 C63.73818802 162.35416336 63.88840912 163.35502472 64.04318237 164.38621521 C64.544122 167.50887192 65.09302002 170.61986915 65.65437317 173.73220825 C66.06148378 176.05834346 66.46837833 178.38451649 66.87507629 180.71072388 C67.51255276 184.32063395 68.1529989 187.92997481 68.79768372 191.53860474 C69.42466845 195.0601012 70.04011949 198.58347209 70.65437317 202.10720825 C70.94496361 203.70454552 70.94496361 203.70454552 71.24142456 205.33415222 C74.14859318 222.11644754 74.14859318 222.11644754 70.90046692 228.853302 C67.56512387 232.45907827 65.3642006 234.18786847 60.40046692 234.650177 C55.80964633 234.29269507 52.8863011 232.89919304 48.90046692 230.728302 C47.50080085 229.99639056 46.10106045 229.26462127 44.70124817 228.5329895 C44.0124054 228.16657349 43.32356262 227.80015747 42.61384583 227.42263794 C39.63015955 225.84773484 36.61060744 224.35207275 33.58796692 222.853302 C31.92130025 222.01996867 30.25463359 221.18663534 28.58796692 220.353302 C28.25925598 221.054552 27.93054504 221.755802 27.59187317 222.478302 C22.20756222 233.21774063 14.84360518 240.00968321 3.58796692 244.353302 C0.21296692 245.165802 0.21296692 245.165802 -3.41203308 245.353302 C-4.31824402 245.40357544 -5.22445496 245.45384888 -6.15812683 245.50564575 C-18.57995992 245.90124553 -27.04053066 242.59020428 -36.41203308 234.353302 C-40.33380085 230.08877811 -42.88019977 225.54944826 -45.41203308 220.353302 C-47.10558778 221.20007935 -48.7990898 222.04696221 -50.49235535 222.89431763 C-51.94766444 223.62139903 -53.40389512 224.34663852 -54.86100769 225.07009888 C-58.23219428 226.74660491 -61.58042829 228.44343964 -64.90031433 230.2204895 C-74.79615717 235.47647718 -74.79615717 235.47647718 -80.41203308 234.353302 C-84.75384389 232.09890024 -87.64688779 229.96229248 -89.41203308 225.353302 C-90.12296257 216.94464409 -88.70945659 208.83162526 -87.22453308 200.58377075 C-86.88540374 198.62843005 -86.54627953 196.67308844 -86.2074585 194.71769428 C-85.73602126 192.00999028 -85.25629603 189.3037826 -84.77641296 186.5975647 C-83.93365415 181.84056528 -83.0991383 177.08213626 -82.2721405 172.32237244 C-81.83234881 169.79611439 -81.38741099 167.27074542 -80.93669128 164.74641418 C-80.73648376 163.60114761 -80.53627625 162.45588104 -80.33000183 161.27590942 C-80.15235291 160.27428268 -79.97470398 159.27265594 -79.79167175 158.24067688 C-79.39177541 155.19923052 -79.18439815 152.41552753 -79.41203308 149.353302 C-81.29583827 146.93210034 -83.05751905 144.98256443 -85.25578308 142.88845825 C-85.85829895 142.29206039 -86.46081482 141.69566254 -87.08158875 141.08119202 C-89.01143883 139.17823875 -90.96133266 137.29735086 -92.91203308 135.415802 C-94.19460146 134.1547717 -95.4758663 132.89241415 -96.75578308 131.62869263 C-102.25154158 126.22474786 -107.78592368 120.90614015 -113.64543152 115.89505005 C-116.99065885 112.97560414 -120.13586221 109.85406021 -123.28703308 106.728302 C-124.28090027 105.76537231 -124.28090027 105.76537231 -125.29484558 104.7829895 C-129.21500744 100.89469887 -132.17474078 97.85184235 -132.56437683 92.10720825 C-132.14030248 87.78164986 -131.55686847 83.77440242 -128.37223816 80.54251099 C-117.8215772 74.14168031 -99.4763268 74.4636268 -87.53874207 72.70901489 C-83.8256532 72.16228584 -80.11394774 71.60677006 -76.40226746 71.05056763 C-74.02929829 70.69913109 -71.656254 70.34820126 -69.28312683 69.99783325 C-68.17996628 69.83225418 -67.07680573 69.66667511 -65.94021606 69.49607849 C-61.06134662 68.78483105 -56.35880562 68.12813266 -51.41203308 68.353302 C-51.14187881 67.4896402 -50.87172455 66.62597839 -50.59338379 65.73614502 C-49.43448672 62.41759886 -48.06508087 59.37848259 -46.51042175 56.22781372 C-46.22555405 55.6481485 -45.94068634 55.06848328 -45.64718628 54.47125244 C-44.71252701 52.57295369 -43.77182969 50.67774086 -42.83000183 48.7829895 C-42.50709986 48.1315308 -42.18419788 47.4800721 -41.851511 46.80887222 C-40.14481893 43.36561943 -38.43360665 39.92465987 -36.71842957 36.48562622 C-34.952373 32.94252166 -33.20129619 29.39223311 -31.45360851 25.84004021 C-30.10189625 23.09930636 -28.73943263 20.36402176 -27.37400246 17.63010025 C-26.72376956 16.32359951 -26.07752135 15.01510744 -25.43543053 13.70458603 C-24.53552245 11.87050873 -23.62063561 10.04466763 -22.701828 8.22000122 C-22.18601669 7.18108734 -21.67020538 6.14217346 -21.13876343 5.07177734 C-18.93764849 1.60645533 -16.36466026 -0.77138237 -12.59953308 -2.459198 C-7.80358122 -2.87027959 -3.97530916 -2.71394853 0 0 Z " fill="#FFCE8A" transform="translate(264.4120330810547,112.64669799804688)"/>
<path d="M0 0 C12.48045288 7.45390215 16.51891143 22.87320581 19.92626953 36.10839844 C20.88015841 40.06402862 21.69552739 44.03501139 22.39453125 48.04296875 C22.69617188 49.61304687 22.69617188 49.61304687 23.00390625 51.21484375 C23.33091364 54.41951621 23.33457557 57.16654348 23.140625 60.359375 C22.12348912 78.85750701 26.28389451 94.1204948 33.39453125 111.04296875 C33.72453125 111.37296875 34.05453125 111.70296875 34.39453125 112.04296875 C34.76964844 111.4396875 35.14476562 110.83640625 35.53125 110.21484375 C39.28304848 104.35561187 42.81911248 99.79628014 49.39453125 97.04296875 C56.72589205 96.14225871 63.37698102 96.48801754 69.39453125 101.04296875 C73.97208587 105.4259773 75.52244919 109.26230697 75.73828125 115.58813477 C76.07039404 139.02024915 62.27525626 161.70368917 47.39453125 179.04296875 C46.88132324 179.43057373 46.36811523 179.81817871 45.83935547 180.2175293 C43.65692979 182.97487921 43.71216919 185.95440496 43.48046875 189.34375 C43.42049713 190.0577446 43.36052551 190.7717392 43.29873657 191.50737 C43.10954153 193.78924526 42.93894096 196.07204719 42.76953125 198.35546875 C42.58915889 200.62772643 42.40496512 202.89963409 42.21890259 205.1714325 C42.10453683 206.58354708 41.99410861 207.99598803 41.88827515 209.4087677 C41.58482218 213.33315269 41.10087277 217.1708511 40.39453125 221.04296875 C40.925625 220.76582031 41.45671875 220.48867188 42.00390625 220.203125 C42.7103125 219.84089844 43.41671875 219.47867188 44.14453125 219.10546875 C45.18867188 218.56599609 45.18867188 218.56599609 46.25390625 218.015625 C51.11230508 215.80806787 56.22951395 215.02673496 61.4140625 216.69140625 C67.58164617 219.45089875 71.53726982 223.66612979 74.76953125 229.54296875 C76.63458263 237.00317425 74.67934918 243.30535924 71.39453125 250.04296875 C69.03572746 253.68323806 66.32358286 256.84938867 63.39453125 260.04296875 C62.51667969 261.00203125 61.63882813 261.96109375 60.734375 262.94921875 C48.7320217 275.65989415 29.63252698 292.26132858 11.3984375 293.28515625 C6.47483178 293.82585172 4.35084536 296.47146168 1.33203125 300.16796875 C0.36369215 301.2970443 -0.60637447 302.42464045 -1.578125 303.55078125 C-2.06812988 304.12393066 -2.55813477 304.69708008 -3.06298828 305.28759766 C-8.06836605 310.98380946 -13.57222979 315.84185096 -19.60546875 320.41796875 C-20.33733398 320.97597168 -21.06919922 321.53397461 -21.82324219 322.10888672 C-28.77226806 327.31990763 -36.06526431 331.75285243 -43.60546875 336.04296875 C-44.5284375 336.61789062 -45.45140625 337.1928125 -46.40234375 337.78515625 C-48.60546875 339.04296875 -48.60546875 339.04296875 -50.60546875 339.04296875 C-52.25339078 326.18656118 -52.25339078 326.18656118 -50.60546875 320.04296875 C-47.09973966 316.19814384 -43.21141721 314.31684251 -38.57666016 312.07519531 C-35.33215764 310.37619152 -32.52449714 308.19541581 -29.66796875 305.91796875 C-28.82250488 305.25220825 -28.82250488 305.25220825 -27.95996094 304.57299805 C-20.63502715 298.65218185 -14.12060308 291.82669741 -7.60546875 285.04296875 C-9.09850519 280.94473608 -11.11018727 277.4014019 -13.35546875 273.66796875 C-23.77409798 255.75644113 -32.97755335 231.79363224 -27.82421875 210.87109375 C-25.45756435 205.15731384 -22.02918312 202.19470308 -16.359375 199.8203125 C-10.46571161 198.15671106 -4.40707677 197.78537825 1.20703125 200.54296875 C10.63238775 207.02149541 15.02516752 219.33537479 17.125 230.12890625 C17.4524067 232.4539683 17.54571491 234.69962204 17.39453125 237.04296875 C18.05453125 237.04296875 18.71453125 237.04296875 19.39453125 237.04296875 C19.50410156 236.42292969 19.61367188 235.80289063 19.7265625 235.1640625 C20.72902658 229.56493388 21.81013053 223.98943255 22.95703125 218.41796875 C25.01081825 208.11791577 25.52916393 198.559277 25.39453125 188.04296875 C24.53472656 187.66527344 23.67492187 187.28757813 22.7890625 186.8984375 C13.33322444 182.49533733 5.98214296 177.15778226 -1.60546875 170.04296875 C-2.1562207 169.53459473 -2.70697266 169.0262207 -3.27441406 168.50244141 C-14.63746642 157.93407727 -28.41107375 143.96226432 -29.80859375 127.67578125 C-29.90819643 122.34703767 -29.79340657 118.5260063 -26.60546875 114.04296875 C-21.36301534 108.77867178 -17.63382466 105.93206359 -10.04296875 105.60546875 C-1.10370434 105.70251746 4.50694516 110.03458357 10.76953125 116.04296875 C13.74160162 119.17146388 16.17671487 122.34660812 18.39453125 126.04296875 C15.80389049 109.91989974 12.83753251 92.90987149 -0.58203125 82.515625 C-16.84734104 69.21337552 -27.37623282 41.84631869 -29.890625 21.765625 C-30.15794081 15.89629968 -28.93963313 9.68722743 -24.98828125 5.2109375 C-17.74124653 -1.1807605 -9.45533214 -3.47309801 0 0 Z M19.39453125 127.04296875 C20.39453125 129.04296875 20.39453125 129.04296875 20.39453125 129.04296875 Z " fill="#83B832" transform="translate(436.60546875,42.95703125)"/>
<path d="M0 0 C5.18758139 3.06980472 8.62450508 6.66470408 10.7734375 12.359375 C14.88869349 32.59271695 3.00622592 54.9668732 -7.8203125 71.3359375 C-12.19701593 77.64219058 -17.50737597 84.56008283 -24.0390625 88.65234375 C-27.97872079 92.52255294 -29.04798504 97.42091578 -30.6640625 102.609375 C-31.00630859 103.64384766 -31.34855469 104.67832031 -31.70117188 105.74414062 C-33.86178109 112.44412688 -35.40448894 119.09090296 -36.4765625 126.046875 C-35.80923096 125.13349365 -35.80923096 125.13349365 -35.12841797 124.20166016 C-29.88753475 117.09627839 -23.16553971 108.77282864 -14.4765625 106.046875 C-7.01939395 105.22178212 -1.47054234 105.37157073 4.5234375 110.046875 C9.01794817 114.54138567 11.63441982 118.01345967 11.8359375 124.546875 C11.5719484 141.10619147 -0.6104471 153.80660354 -11.4765625 165.046875 C-12.24097656 165.86285156 -13.00539063 166.67882812 -13.79296875 167.51953125 C-22.46500797 176.56389416 -32.12870076 182.8185408 -43.4765625 188.046875 C-44.13911943 202.86851882 -42.02113683 217.5567811 -38.02734375 231.83203125 C-37.4765625 234.046875 -37.4765625 234.046875 -37.4765625 237.046875 C-36.8165625 237.046875 -36.1565625 237.046875 -35.4765625 237.046875 C-35.43789062 236.17289062 -35.43789062 236.17289062 -35.3984375 235.28125 C-34.60714666 223.84350058 -30.92932284 211.8277418 -22.86328125 203.3515625 C-17.98494762 199.11479632 -13.70476149 198.6195725 -7.46484375 198.71875 C-1.50779605 199.3728572 3.21917807 201.48831667 7.2578125 205.97265625 C13.18674298 215.61549542 11.54947938 228.58130433 9.13110352 239.12280273 C5.33220686 253.88645373 -0.43683116 267.98279704 -9.203125 280.48046875 C-9.62335938 281.32738281 -10.04359375 282.17429687 -10.4765625 283.046875 C-5.88308671 295.33060384 10.14269586 305.47868415 20.5859375 312.49609375 C21.54790039 313.14421021 21.54790039 313.14421021 22.52929688 313.80541992 C24.52640731 315.09734413 24.52640731 315.09734413 26.78320312 316.1418457 C29.02364043 317.28162609 30.74779509 318.2630434 32.5234375 320.046875 C33.48529264 323.37042803 33.28897119 326.43552231 33.0234375 329.859375 C32.98734375 330.74302734 32.95125 331.62667969 32.9140625 332.53710938 C32.82014703 334.70890472 32.67665257 336.87845615 32.5234375 339.046875 C14.58836561 332.32538238 -0.87106483 319.19539412 -14.4765625 306.046875 C-15.18683594 305.36496094 -15.89710937 304.68304688 -16.62890625 303.98046875 C-19.19262578 301.47095048 -21.32162543 299.29588101 -23.2265625 296.234375 C-25.84126094 293.69230708 -26.71355318 293.69441193 -30.2265625 293.234375 C-48.54738326 290.59617681 -64.63164268 276.41885963 -77.4765625 264.046875 C-78.15589844 263.43070312 -78.83523437 262.81453125 -79.53515625 262.1796875 C-87.3161756 254.93588775 -92.69540664 246.20747037 -93.8515625 235.609375 C-93.19138083 229.33764917 -90.72647354 224.87826351 -86.0390625 220.671875 C-80.98792492 216.72533863 -76.95664423 215.40948991 -70.4765625 216.046875 C-66.34347788 217.41836404 -62.37049279 219.09990985 -58.4765625 221.046875 C-58.56220459 220.36286621 -58.64784668 219.67885742 -58.73608398 218.97412109 C-58.98951618 216.93879189 -59.24088686 214.90320543 -59.49072266 212.86743164 C-59.77405154 210.56142214 -60.06151917 208.25591755 -60.35302734 205.95092773 C-61.55912665 196.15293227 -61.55912665 196.15293227 -61.58203125 191.62109375 C-61.61747544 185.24822774 -62.06018963 181.80708313 -66.4765625 177.046875 C-67.28996094 176.25539062 -68.10335937 175.46390625 -68.94140625 174.6484375 C-82.27758761 160.96292628 -93.81206698 136.98155092 -93.9765625 117.984375 C-93.98300781 117.2819165 -93.98945312 116.57945801 -93.99609375 115.85571289 C-93.83921919 109.57997648 -92.11040069 105.60967674 -87.6015625 101.296875 C-81.19611833 96.6849552 -75.21987378 96.09028908 -67.4765625 97.046875 C-60.46599266 99.55481596 -55.73472771 105.53054457 -52.4765625 112.046875 C-52.06792969 110.94085938 -51.65929688 109.83484375 -51.23828125 108.6953125 C-50.0396749 105.48070805 -48.75663795 102.3136091 -47.43359375 99.1484375 C-42.18971167 86.05134644 -40.91978413 75.1203976 -41.375 61.08984375 C-41.61121358 53.11701365 -40.41966765 45.75164395 -38.4765625 38.046875 C-38.29963867 37.33208984 -38.12271484 36.61730469 -37.94042969 35.88085938 C-34.60980131 22.77693633 -30.42848003 9.34214304 -19.4765625 0.671875 C-13.68414397 -2.33207072 -6.01706863 -2.31571726 0 0 Z M-38.4765625 127.046875 C-37.4765625 129.046875 -37.4765625 129.046875 -37.4765625 129.046875 Z " fill="#84BA32" transform="translate(93.4765625,42.953125)"/>
<path d="M0 0 C12.58927516 1.47688753 25.15684934 3.08432132 37.6875 5 C38.74316162 5.1537207 39.79882324 5.30744141 40.88647461 5.46582031 C46.85703635 6.40447482 51.21626423 7.41510249 55.75 11.625 C57.64339433 15.22244922 58.30179176 18.94549333 58 23 C56.08080721 27.45922205 53.83541046 30.53226096 50.39453125 33.93359375 C49.04198242 35.2784082 49.04198242 35.2784082 47.66210938 36.65039062 C46.25155273 38.03000977 46.25155273 38.03000977 44.8125 39.4375 C43.89146484 40.35337891 42.97042969 41.26925781 42.02148438 42.21289062 C37.49840662 46.68460625 32.91250285 51.02465458 28.09692383 55.1784668 C23.60916403 59.07684563 19.2545154 63.10159456 14.9375 67.1875 C13.96361328 68.05697266 12.98972656 68.92644531 11.98632812 69.82226562 C11.07173828 70.69947266 10.15714844 71.57667969 9.21484375 72.48046875 C8.38073975 73.25285889 7.54663574 74.02524902 6.68725586 74.82104492 C4.00386897 79.8768083 5.15268753 84.48316734 6 90 C6.1502211 91.00086136 6.3004422 92.00172272 6.45521545 93.03291321 C6.95615508 96.15556991 7.5050531 99.26656715 8.06640625 102.37890625 C8.47351686 104.70504146 8.88041141 107.03121449 9.28710938 109.35742188 C9.92458584 112.96733195 10.56503198 116.57667281 11.2097168 120.18530273 C11.83670153 123.7067992 12.45215257 127.23017009 13.06640625 130.75390625 C13.35699669 132.35124352 13.35699669 132.35124352 13.65345764 133.98085022 C16.56062626 150.76314554 16.56062626 150.76314554 13.3125 157.5 C9.97715695 161.10577627 7.77623368 162.83456647 2.8125 163.296875 C-1.77832059 162.93939307 -4.70166582 161.54589104 -8.6875 159.375 C-10.08716607 158.64308856 -11.48690647 157.91131926 -12.88671875 157.1796875 C-13.57556152 156.81327148 -14.2644043 156.44685547 -14.97412109 156.06933594 C-17.95780737 154.49443284 -20.97735948 152.99877075 -24 151.5 C-25.66666667 150.66666667 -27.33333333 149.83333333 -29 149 C-29.32871094 149.70125 -29.65742188 150.4025 -29.99609375 151.125 C-35.38040469 161.86443863 -42.74436174 168.65638121 -54 173 C-57.375 173.8125 -57.375 173.8125 -61 174 C-61.90621094 174.05027344 -62.81242187 174.10054687 -63.74609375 174.15234375 C-76.16792684 174.54794353 -84.62849758 171.23690228 -94 163 C-97.92176777 158.73547611 -100.46816669 154.19614626 -103 149 C-104.6935547 149.84677735 -106.38705672 150.69366021 -108.08032227 151.54101562 C-109.53563136 152.26809702 -110.99186204 152.99333652 -112.44897461 153.71679688 C-115.8201612 155.39330291 -119.16839521 157.09013764 -122.48828125 158.8671875 C-132.38412409 164.12317518 -132.38412409 164.12317518 -138 163 C-142.34181081 160.74559823 -145.23485471 158.60899048 -147 154 C-147.75274118 145.73112405 -146.35189907 137.63473495 -144.91870117 129.51757812 C-144.55839186 127.47673085 -144.2107519 125.43402394 -143.86523438 123.390625 C-142.16508222 113.49524666 -142.16508222 113.49524666 -141 110 C-139.02001953 109.25146484 -139.02001953 109.25146484 -136.3828125 108.7109375 C-135.39684082 108.49655029 -134.41086914 108.28216309 -133.39501953 108.0612793 C-131.77635986 107.72157104 -131.77635986 107.72157104 -130.125 107.375 C-98.3059456 100.18775084 -67.77800419 88.72899744 -43 67 C-42.17242187 66.30519531 -41.34484375 65.61039062 -40.4921875 64.89453125 C-20.68911837 47.85395922 -7.80158131 24.73869305 0 0 Z " fill="#FEB54E" transform="translate(322,184)"/>
<path d="M0 0 C4.2290362 -0.08725659 8.45784012 -0.1404789 12.6875 -0.1875 C13.88568359 -0.21263672 15.08386719 -0.23777344 16.31835938 -0.26367188 C17.47529297 -0.27333984 18.63222656 -0.28300781 19.82421875 -0.29296875 C20.88729248 -0.3086792 21.95036621 -0.32438965 23.0456543 -0.34057617 C26.4515233 0.05205148 28.26569571 0.96157034 31 3 C33.3639196 6.54587941 33.24355585 8.01503682 33.22705078 12.21557617 C33.22689972 13.4966777 33.22674866 14.77777924 33.22659302 16.09770203 C33.21637973 17.49612584 33.20594774 18.89454808 33.1953125 20.29296875 C33.19158178 21.72357485 33.18873509 23.15418352 33.18673706 24.58479309 C33.17910522 28.34792144 33.15946069 32.11089511 33.1373291 35.8739624 C33.11686094 39.71478178 33.10773327 43.55562617 33.09765625 47.39648438 C33.07621429 54.93106006 33.04208387 62.46550834 33 70 C34.04125534 69.98889694 35.08251068 69.97779388 36.15531921 69.96635437 C45.969333 69.86498526 55.78324054 69.79003792 65.59765911 69.74093914 C70.64337169 69.71484814 75.68866156 69.67945899 80.73413086 69.62280273 C85.60357122 69.56846548 90.47260507 69.53857572 95.34232521 69.52561378 C97.19991264 69.51637699 99.05747788 69.4983394 100.9148922 69.47134972 C103.51756184 69.43503586 106.11855322 69.43005551 108.72143555 69.43237305 C109.4889212 69.41439667 110.25640686 69.39642029 111.04714966 69.37789917 C115.07130371 69.41665602 116.79412124 69.8320538 119.95491028 72.41047668 C123.16426331 76.47420768 123.43353487 78.79758152 123 84 C119.960467 89.52429263 115.64421832 93.36840066 111 97.5625 C104.57872645 103.38185722 104.57872645 103.38185722 99 110 C101.18589751 112.04340489 103.37366351 114.08474714 105.5625 116.125 C106.47612305 116.97964844 106.47612305 116.97964844 107.40820312 117.8515625 C111.02009056 121.21501324 114.68322846 124.45079211 118.53491211 127.53857422 C120.82672536 129.82465889 121.94639604 131.98509837 122.1171875 135.21875 C121.71333204 139.02280786 121.46265484 141.38312688 119.125 144.5 C115.77245897 146.86649955 113.06729304 147.12700748 109.07925415 147.14044189 C108.06424332 147.14615204 107.04923248 147.15186218 106.00346375 147.15774536 C104.89066544 147.15886322 103.77786713 147.15998108 102.63134766 147.16113281 C100.87246468 147.16858017 100.87246468 147.16858017 99.07804871 147.17617798 C95.86104519 147.18828555 92.64407802 147.19574437 89.42705584 147.20018864 C87.41671373 147.20312113 85.4063773 147.20722626 83.39603806 147.21169281 C77.10467068 147.22536388 70.81331631 147.23503268 64.52193511 147.2388947 C57.26202821 147.24337592 50.00230955 147.26092821 42.74245989 147.2898953 C37.12877569 147.31151593 31.51514444 147.32159917 25.90141904 147.32293582 C22.54942611 147.3239835 19.19761022 147.32988329 15.84566116 147.34775543 C12.1061087 147.36477402 8.36701668 147.36294572 4.62744141 147.35644531 C3.51869156 147.3656601 2.40994171 147.37487488 1.26759338 147.3843689 C-5.19592522 147.34910088 -8.84315578 146.77152795 -13.79418945 142.42480469 C-15.75171498 138.48835125 -15.36585819 134.53363501 -15.29296875 130.203125 C-15.28872391 129.25435486 -15.28447906 128.30558472 -15.28010559 127.32806396 C-15.26333082 124.30175234 -15.22568056 121.2761099 -15.1875 118.25 C-15.17245162 116.19662421 -15.15876348 114.14323797 -15.14648438 112.08984375 C-15.11343117 107.05963852 -15.06165683 102.02993267 -15 97 C-13.83082031 96.98582031 -12.66164063 96.97164063 -11.45703125 96.95703125 C-9.90881543 96.91011562 -8.36063956 96.86186831 -6.8125 96.8125 C-6.04357422 96.80669922 -5.27464844 96.80089844 -4.48242188 96.79492188 C-3.73154297 96.76591797 -2.98066406 96.73691406 -2.20703125 96.70703125 C-1.5210083 96.6913208 -0.83498535 96.67561035 -0.12817383 96.65942383 C3.33201374 95.58726981 4.81645902 93.8522612 7 91 C7.49484895 88.0373164 7.68581766 85.65049557 7.64697266 82.69311523 C7.65573425 81.86975677 7.66449585 81.04639832 7.67352295 80.1980896 C7.69547812 77.48438371 7.6809801 74.77231534 7.6640625 72.05859375 C7.66743144 70.16959826 7.67228472 68.28060489 7.67855835 66.39161682 C7.68592412 62.43640465 7.67523255 58.48175772 7.65185547 54.52661133 C7.62334823 49.45639608 7.63978571 44.38750298 7.66971779 39.31733608 C7.68778214 35.41821826 7.68203706 31.51941419 7.66907883 27.62028694 C7.66574344 25.75077216 7.66983658 23.88122888 7.68147659 22.01174736 C7.69417355 19.39956014 7.67482728 16.7895176 7.64697266 14.17749023 C7.66215439 13.01862556 7.66215439 13.01862556 7.67764282 11.83634949 C7.60144621 7.98047437 7.37784584 6.37325578 4.58456421 3.61390686 C3.73165802 3.0813176 2.87875183 2.54872833 2 2 C1.34 1.34 0.68 0.68 0 0 Z " fill="#E74649" transform="translate(353,325)"/>
<path d="M0 0 C0.81973801 -0.00029205 1.63947601 -0.00058411 2.48405457 -0.00088501 C5.19496222 0.0005089 7.9055954 0.01607297 10.61645508 0.03173828 C12.49546661 0.03546819 14.37448009 0.03831527 16.25349426 0.04031372 C21.2002804 0.04795189 26.1469492 0.06760199 31.09368896 0.08972168 C36.14097506 0.11017612 41.18828011 0.11931458 46.2355957 0.12939453 C56.13994415 0.15084768 66.04420548 0.18498588 75.94848633 0.22705078 C75.96306885 0.80672607 75.97765137 1.38640137 75.99267578 1.98364258 C76.06747161 4.62792631 76.1640253 7.2709908 76.26098633 9.91455078 C76.28354492 10.8265625 76.30610352 11.73857422 76.3293457 12.67822266 C76.57180427 19.46427746 76.57180427 19.46427746 79.94848633 25.22705078 C82.66230289 27.04491731 84.84248064 27.48453169 88.07446289 27.54589844 C88.87499084 27.56576813 89.6755188 27.58563782 90.50030518 27.60610962 C91.35461121 27.61766083 92.20891724 27.62921204 93.08911133 27.64111328 C93.97129333 27.66047943 94.85347534 27.67984558 95.76239014 27.69979858 C98.57432449 27.75947926 101.38630003 27.80593362 104.19848633 27.85205078 C106.10735814 27.89024116 108.01621292 27.92929352 109.92504883 27.96923828 C114.59938929 28.06517136 119.27381041 28.14924494 123.94848633 28.22705078 C124.07238185 34.09855506 124.16296557 39.96929321 124.22314453 45.84179688 C124.24823905 47.83802551 124.28232259 49.83416271 124.32568359 51.83007812 C124.38655879 54.70481966 124.41474657 57.57834326 124.43676758 60.45361328 C124.46257401 61.3413443 124.48838043 62.22907532 124.51496887 63.14370728 C124.51689901 67.43894963 124.32891689 70.33710676 121.60546875 73.77539062 C118.06394711 77.04323592 115.66558201 77.35186929 111.02774048 77.36749268 C110.01272964 77.37320282 108.99771881 77.37891296 107.95195007 77.38479614 C106.83915176 77.385914 105.72635345 77.38703186 104.57983398 77.38818359 C102.820951 77.39563095 102.820951 77.39563095 101.02653503 77.40322876 C97.80953152 77.41533633 94.59256434 77.42279515 91.37554216 77.42723942 C89.36520006 77.43017191 87.35486363 77.43427704 85.34452438 77.43874359 C79.05315701 77.45241466 72.76180264 77.46208346 66.47042143 77.46594548 C59.21051454 77.4704267 51.95079588 77.487979 44.69094622 77.51694608 C39.07726202 77.53856671 33.46363077 77.54864995 27.84990537 77.5499866 C24.49791244 77.55103428 21.14609655 77.55693407 17.79414749 77.57480621 C14.05459503 77.5918248 10.31550301 77.5899965 6.57592773 77.58349609 C5.46717789 77.59271088 4.35842804 77.60192566 3.21607971 77.61141968 C-6.17532475 77.56017572 -6.17532475 77.56017572 -10.05151367 74.22705078 C-12.17889505 71.51280557 -12.98060929 69.70312309 -13.48901367 66.28955078 C-12.58037691 59.92909346 -7.87130586 55.81062823 -3.23901367 51.72705078 C-2.71146484 51.25291748 -2.18391602 50.77878418 -1.64038086 50.2902832 C2.17180815 46.87602502 6.03180814 43.52062107 9.94848633 40.22705078 C4.60680919 33.84309517 -0.9424674 27.98278225 -7.30151367 22.60205078 C-11.48387553 18.95464218 -13.81719438 16.41403086 -14.42651367 10.72705078 C-14.02692903 6.99759413 -13.32381563 5.1726274 -11.05151367 2.22705078 C-7.28926818 -0.28111288 -4.35365155 -0.04041063 0 0 Z " fill="#E74548" transform="translate(50.051513671875,394.77294921875)"/>
<path d="M0 0 C4.41529596 1.6524647 8.53104364 3.74496704 12.70703125 5.9140625 C13.43242599 6.28856537 14.15782074 6.66306824 14.90519714 7.04891968 C17.20874614 8.23880445 19.51063954 9.43185256 21.8125 10.625 C23.37944886 11.4351056 24.94650501 12.24500371 26.51367188 13.0546875 C30.34369442 15.03405792 34.17223589 17.01626592 38 19 C34.26771052 30.51585072 27.47853859 37.64169135 16.875 43.375 C7.88568554 47.49950899 -4.19546073 47.35536129 -13.48828125 44.16796875 C-23.94104055 39.30735439 -31.47886498 31.54931505 -36 21 C-36 20.34 -36 19.68 -36 19 C-34.94498291 18.45996338 -33.88996582 17.91992676 -32.80297852 17.36352539 C-28.90143201 15.36578509 -25.00117889 13.36553122 -21.10131836 11.36450195 C-19.41091716 10.49760037 -17.72016257 9.63138753 -16.02905273 8.76586914 C-13.60307815 7.52409428 -11.17837129 6.27987524 -8.75390625 5.03515625 C-7.99348526 4.64658951 -7.23306427 4.25802277 -6.44960022 3.85768127 C-3.00311497 2.25302952 -3.00311497 2.25302952 0 0 Z " fill="#FEC16D" transform="translate(255,312)"/>
<path d="M0 0 C1.23140213 -0.0071553 2.46280426 -0.01431061 3.73152161 -0.02168274 C7.10184277 -0.03568189 10.47062668 -0.02727507 13.84082222 -0.00759244 C17.37122618 0.00881513 20.90158077 -0.00002175 24.43200684 -0.00511169 C30.36023595 -0.00963034 36.28814931 0.00622259 42.21630859 0.03417969 C49.06531467 0.0662309 55.91375133 0.06621533 62.76279783 0.04896492 C69.35750674 0.03308846 75.95200733 0.03984047 82.54670715 0.05690193 C85.35046449 0.06376573 88.15405451 0.062747 90.95780945 0.05535698 C94.87443669 0.04625728 98.79048122 0.0702539 102.70703125 0.09765625 C104.44959953 0.08786743 104.44959953 0.08786743 106.22737122 0.07788086 C114.05965853 0.17117556 114.05965853 0.17117556 118.04626465 2.48085022 C120.4110219 5.29442019 120.92852883 6.9554565 120.85351562 10.63110352 C119.08312113 13.37826738 117.79059719 15.16256273 114.85351562 16.63110352 C113.19244427 16.73244857 111.52734715 16.77055141 109.86320496 16.77827454 C108.27964455 16.78900749 108.27964455 16.78900749 106.66409302 16.79995728 C105.50094574 16.80264618 104.33779846 16.80533508 103.1394043 16.80810547 C101.91819382 16.81467667 100.69698334 16.82124786 99.43876648 16.82801819 C96.08327159 16.84437389 92.7278398 16.85598051 89.37231994 16.86422372 C87.27605107 16.86937355 85.17978663 16.87544929 83.08352089 16.88173485 C76.52518553 16.90078771 69.96686143 16.91501851 63.40850371 16.92334682 C55.83724405 16.93312001 48.26627669 16.95944092 40.69512004 16.99984771 C34.84366742 17.03000516 28.99229861 17.04481532 23.14076978 17.04812783 C19.64562188 17.05047881 16.15078622 17.05944466 12.65572166 17.084589 C8.75565605 17.1121935 4.85597518 17.10803968 0.95581055 17.10107422 C-0.20126404 17.11388428 -1.35833862 17.12669434 -2.55047607 17.13989258 C-10.34239018 17.08904938 -10.34239018 17.08904938 -14.33256531 14.8165741 C-16.91362589 11.70682567 -17.28748213 9.64953949 -17.14648438 5.63110352 C-12.86221249 -0.94286122 -7.09791779 -0.07143789 0 0 Z " fill="#FECA89" transform="translate(204.146484375,377.368896484375)"/>
<path d="M0 0 C5.93132722 3.39327092 13.26050197 8.37110267 16.09375 14.81640625 C16.34074633 17.8023174 15.47663217 19.97978106 14.51953125 22.81640625 C9.8286299 38.48531978 8.72698831 54.66511819 9.26953125 70.94140625 C-6.43459481 59.70727218 -24.65746814 42.67117069 -28.73046875 22.94140625 C-29.24305691 16.96778268 -29.31289736 11.97919648 -25.73046875 6.94140625 C-18.39128656 -0.42835586 -10.40203061 -4.03283304 0 0 Z " fill="#8EC736" transform="translate(435.73046875,150.05859375)"/>
<path d="M0 0 C7.45859812 5.12667365 11.75012089 14.01161504 14.1875 22.5 C13.71992642 25.5384741 12.73790305 27.38921532 10.81640625 29.7578125 C10.32922119 30.37422607 9.84203613 30.99063965 9.34008789 31.62573242 C8.81535889 32.28549072 8.29062988 32.94524902 7.75 33.625 C-1.62458623 45.78453457 -8.92000694 58.92552069 -13.8125 73.5 C-16.6474253 70.08949896 -18.42896438 66.34791262 -20.1875 62.3125 C-20.49059082 61.61922607 -20.79368164 60.92595215 -21.10595703 60.21166992 C-27.62830497 44.84198932 -33.01406513 26.99231021 -29.046875 10.2734375 C-26.61666415 4.60865024 -23.22660417 1.6477098 -17.56640625 -0.72265625 C-11.67274286 -2.38625769 -5.61410802 -2.7575905 0 0 Z " fill="#8EC736" transform="translate(437.8125,243.5)"/>
<path d="M0 0 C7.97838814 2.58024467 13.76987755 6.43625737 20 12 C20.60457031 12.53367187 21.20914062 13.06734375 21.83203125 13.6171875 C35.13261588 26.13904938 48.94531911 45.75836789 52 64 C52.03824623 66.33301986 52.04574284 68.66711508 52 71 C30.36699036 65.0322732 7.56158871 46.77567131 -3.765625 27.4296875 C-6.50021262 22.04704984 -7.64136026 17.0929225 -7 11 C-5.36692505 6.64781503 -3.41990549 3.17492659 0 0 Z " fill="#BCEA72" transform="translate(7,264)"/>
<path d="M0 0 C7.04112044 1.67645725 11.7485182 4.04792548 16 10 C21.74416495 19.43328149 25.40162956 29.27856858 28 40 C28.28617188 41.07507813 28.57234375 42.15015625 28.8671875 43.2578125 C31.15476876 51.95062127 32.17998515 60.22227813 32.1875 69.1875 C32.19974609 69.96802734 32.21199219 70.74855469 32.22460938 71.55273438 C32.23549215 75.82966666 31.97809466 79.09854056 30 83 C16.92588022 78.70291168 8.70870143 60.74348016 2.75 49.0625 C-2.3266872 38.68850846 -6.3985783 28.65043824 -6.5 16.9375 C-6.50644531 16.2350415 -6.51289062 15.53258301 -6.51953125 14.80883789 C-6.38192584 9.30395991 -5.00815289 5.23128099 -1.3125 1.125 C-0.879375 0.75375 -0.44625 0.3825 0 0 Z " fill="#BCEA72" transform="translate(6,144)"/>
<path d="M0 0 C3.09308636 2.57757196 5.77910926 5.11534766 7 9 C7.92680308 20.12163695 2.8541383 27.95929456 -3.93359375 36.40625 C-15.91896904 50.30488704 -31.71880227 62.48202964 -49 69 C-49.99 69 -50.98 69 -52 69 C-53.74133148 54.02454931 -40.9780001 37.28004738 -32.22827148 26.00415039 C-28.37144539 21.23854456 -24.16245967 16.81526376 -19.875 12.4375 C-19.21814209 11.75824463 -18.56128418 11.07898926 -17.88452148 10.37915039 C-12.9082608 5.42650628 -7.17317234 0.97948025 0 0 Z " fill="#BCEA72" transform="translate(489,259)"/>
<path d="M0 0 C9.46999169 2.77501806 14.75063252 7.45912847 19.72265625 15.9375 C28.60931835 33.05578769 31.19212175 50.91504826 31.125 70 C31.13080078 71.69576172 31.13080078 71.69576172 31.13671875 73.42578125 C31.13542969 74.50214844 31.13414062 75.57851562 31.1328125 76.6875 C31.13168457 77.66074219 31.13055664 78.63398437 31.12939453 79.63671875 C31 82 31 82 30 84 C13.71392629 76.4914855 4.01799112 52.48281576 -1.875 36.625 C-5.67915405 25.35343246 -8.38650996 14.23852078 -3 3 C-1.39453125 1.23828125 -1.39453125 1.23828125 0 0 Z " fill="#BCEA72" transform="translate(413,47)"/>
<path d="M0 0 C5.77499879 6.09583206 5.56447371 11.94634591 5.40234375 19.9296875 C4.22607047 41.82260305 -10.92132462 66.07002951 -26 81 C-27.485 81.99 -27.485 81.99 -29 83 C-31.75070717 78.23844993 -31.34244964 73.6852044 -31.3125 68.3125 C-31.30758545 67.2817334 -31.3026709 66.2509668 -31.29760742 65.18896484 C-31.1615407 56.19739702 -30.14813372 47.7234173 -28 39 C-27.82307617 38.28086426 -27.64615234 37.56172852 -27.46386719 36.82080078 C-24.24462151 24.16343845 -20.20007415 8.95334018 -8.5 1.625 C-3.28103683 -0.79809004 -3.28103683 -0.79809004 0 0 Z " fill="#BCEB72" transform="translate(83,42)"/>
<path d="M0 0 C3.78186639 3.1792613 4.85005734 6.93473576 5.5234375 11.71875 C6.86618054 33.98084929 -6.25836945 56.37791228 -20 73 C-20.5671875 73.71800781 -21.134375 74.43601562 -21.71875 75.17578125 C-24.48863088 78.58867019 -26.99843475 80.99921738 -31 83 C-37.20745938 61.00678712 -28.82685747 32.15452072 -18.53515625 12.59765625 C-14.80589791 6.28733362 -8.41086234 -2.37229451 0 0 Z " fill="#BCEA72" transform="translate(491,140)"/>
<path d="M0 0 C6.83774923 -0.61051332 10.65622893 0.68935801 16 5 C20.58013335 9.58013335 21.89970997 14.33395675 22.140625 20.73828125 C21.86745315 44.49057318 7.35074388 68.58401727 -8.26171875 85.546875 C-12.36321948 89.22125796 -16.00698544 91.96622009 -21.6875 92.0625 C-25.64619446 90.79273008 -26.98467784 89.61078554 -29 86 C-28.65036348 82.41800948 -27.20388593 80.99937702 -24.5625 78.6875 C-9.54500506 64.15357377 3.8048829 38.72936409 4.59960938 17.67333984 C4.61217773 16.50472412 4.61217773 16.50472412 4.625 15.3125 C4.64143555 14.21736084 4.64143555 14.21736084 4.65820312 13.10009766 C4.51438963 7.73808571 2.93894964 4.46696927 0 0 Z " fill="#9BD63C" transform="translate(83,42)"/>
<path d="M0 0 C12.49384545 7.41487226 16.53100251 22.88591884 19.93408203 36.10449219 C20.88797091 40.06012237 21.70333989 44.03110514 22.40234375 48.0390625 C22.58667969 49.08964844 22.77101563 50.14023438 22.9609375 51.22265625 C23.54771925 56.29598161 23.62597011 61.31076316 23.65234375 66.4140625 C23.67296875 67.4040625 23.69359375 68.3940625 23.71484375 69.4140625 C23.75418146 76.86855879 23.12461241 83.7723401 18.21484375 89.6640625 C14.19343622 91.63008396 11.74554737 90.92242595 7.40234375 90.0390625 C6.43824073 86.82270901 6.31122733 83.98635679 6.375 80.63671875 C6.38885742 79.58798584 6.40271484 78.53925293 6.41699219 77.45874023 C6.4327832 76.35087158 6.44857422 75.24300293 6.46484375 74.1015625 C6.51786028 65.21561405 6.39300702 56.73982666 4.40234375 48.0390625 C4.26280273 47.40709961 4.12326172 46.77513672 3.97949219 46.12402344 C0.9239864 32.42938924 -2.75290777 19.68769227 -13.09765625 9.6015625 C-16.16937684 7.68173713 -19.22555974 6.36145329 -22.59765625 5.0390625 C-21.59765625 2.0390625 -21.59765625 2.0390625 -19.34765625 0.3515625 C-13.03916545 -1.85640928 -6.35934186 -2.35247834 0 0 Z " fill="#9BD63C" transform="translate(436.59765625,42.9609375)"/>
<path d="M0 0 C5.95198974 -0.49599915 10.04420893 0.60263379 15 4 C19.59718405 8.34746047 21.12873261 12.2432154 21.34375 18.54516602 C21.67088124 41.62580845 8.07123385 65.12021809 -7 82 C-11.68111579 86.60437618 -15.77353481 90.53069597 -22.4375 91.5 C-26.2433498 90.96584564 -26.64127363 90.76590904 -28.9375 88 C-29.618125 87.01 -30.29875 86.02 -31 85 C-29.93845758 82.29789203 -29.03488838 81.02719505 -26.71484375 79.21875 C-13.33447667 68.28342842 -5.19755546 49.69252825 1 34 C1.3403125 33.24976563 1.680625 32.49953125 2.03125 31.7265625 C5.25847883 23.92742617 5.62423711 13.17505848 3.09765625 5.125 C1.96393259 2.74529833 1.96393259 2.74529833 0 0 Z " fill="#9BD63C" transform="translate(491,140)"/>
<path d="M0 0 C6.84854215 0.30437965 11.39610019 1.35605686 16.40625 6.421875 C19.98970814 10.46368244 21.73585353 13.79877939 22.375 19.125 C21.38659454 29.33852309 16.81322208 36.57146229 10 44 C9.12214844 44.9590625 8.24429688 45.918125 7.33984375 46.90625 C-4.62057818 59.57251944 -22.90921359 75.22218133 -40.8515625 77.3359375 C-48.32250123 77.44116199 -48.32250123 77.44116199 -51.6875 75.25 C-53 73 -53 73 -53 69 C-52.319375 68.75507813 -51.63875 68.51015625 -50.9375 68.2578125 C-28.91081633 59.7634797 -5.82257946 42.96048122 4 21 C5.51143387 16.0085363 6.02183409 11.30448597 3.8828125 6.48046875 C2.65166021 4.27204586 1.37498921 2.12141192 0 0 Z " fill="#9BD63D" transform="translate(490,259)"/>
<path d="M0 0 C12.01859809 6.82822463 16.58448929 21.73889164 20.1796875 34.2734375 C23.20546445 45.36936212 24.8587757 55.55239297 24.91015625 67.09375 C24.93078125 68.24810547 24.95140625 69.40246094 24.97265625 70.59179688 C25.00636605 77.93631929 24.42851758 82.86528993 20.41015625 89.09375 C17.4340524 90.90067019 15.04410637 90.56465777 11.66015625 90.15625 C8.72265625 88.15625 8.72265625 88.15625 6.66015625 86.15625 C6.98371094 85.50269531 7.30726562 84.84914063 7.640625 84.17578125 C8.92537543 80.37075412 9.00148212 76.81366584 8.97265625 72.84375 C8.9684668 72.05121826 8.96427734 71.25868652 8.95996094 70.44213867 C8.81001393 62.43831827 7.48782602 54.92972957 5.66015625 47.15625 C5.37011719 45.88910156 5.08007812 44.62195313 4.78125 43.31640625 C1.46439844 29.86858548 -3.07871627 14.12598286 -15.33984375 6.15625 C-18.51906162 4.90068113 -18.51906162 4.90068113 -21.33984375 4.15625 C-21.33984375 3.49625 -21.33984375 2.83625 -21.33984375 2.15625 C-14.7279826 -1.45021972 -7.24121593 -2.61118972 0 0 Z " fill="#9AD63C" transform="translate(28.33984375,140.84375)"/>
<path d="M0 0 C3.54881314 2.44179531 6.78884776 5.13231566 10 8 C10.60457031 8.53367187 11.20914063 9.06734375 11.83203125 9.6171875 C24.44561816 21.49227401 40.59004969 42.86036964 42.23828125 60.55859375 C42.43304284 68.11329324 42.43304284 68.11329324 40.6875 71.6875 C36.33490501 73.81318592 31.75761206 73.47969312 27 73 C25.14842617 71.14842617 25.3295579 67.9274571 24.9375 65.4375 C21.06029521 44.15012974 4.5618934 20.53203072 -13 8 C-16.91524625 5.79589648 -20.89859264 3.83210075 -25 2 C-24 -1 -24 -1 -20.875 -2.6875 C-13.29742323 -5.5771236 -6.91114427 -3.68250523 0 0 Z " fill="#9AD63C" transform="translate(33,263)"/>
<path d="M0 0 C4.62 0 9.24 0 14 0 C14.03738281 1.38574219 14.07476562 2.77148438 14.11328125 4.19921875 C14.17895394 6.02867231 14.24540083 7.8580982 14.3125 9.6875 C14.33505859 10.59951172 14.35761719 11.51152344 14.38085938 12.45117188 C14.62331794 19.23722668 14.62331794 19.23722668 18 25 C20.78708037 26.66405012 22.89591037 27.25751729 26.12597656 27.31884766 C27.32676849 27.34865219 27.32676849 27.34865219 28.55181885 27.37905884 C29.40612488 27.39061005 30.26043091 27.40216125 31.140625 27.4140625 C32.02280701 27.43342865 32.90498901 27.4527948 33.81390381 27.4727478 C36.62583816 27.53242848 39.4378137 27.57888283 42.25 27.625 C44.15887181 27.66319038 46.06772659 27.70224273 47.9765625 27.7421875 C52.65090296 27.83812058 57.32532409 27.92219416 62 28 C62 32.62 62 37.24 62 42 C55.88025582 42.0992969 49.76098648 42.17167096 43.640625 42.21972656 C41.56111475 42.23977159 39.48166037 42.26701513 37.40234375 42.30175781 C34.40350513 42.35058948 31.40541537 42.37304028 28.40625 42.390625 C27.48509399 42.41127014 26.56393799 42.43191528 25.61486816 42.45318604 C18.44889754 42.45564541 13.52079794 40.61723032 7.79296875 36.359375 C7.26316406 35.82828125 6.73335938 35.2971875 6.1875 34.75 C5.64480469 34.22921875 5.10210937 33.7084375 4.54296875 33.171875 C-0.43136445 26.17002877 -0.38948317 19.27613091 -0.1875 11 C-0.17396484 9.93910156 -0.16042969 8.87820313 -0.14648438 7.78515625 C-0.1114131 5.18988179 -0.0576164 2.59487184 0 0 Z " fill="#D73337" transform="translate(112,395)"/>
<path d="M0 0 C4.62 0 9.24 0 14 0 C14.08128539 3.6879481 14.14064175 7.3740864 14.1875 11.0625 C14.21263672 12.10083984 14.23777344 13.13917969 14.26367188 14.20898438 C14.34099427 22.3278362 13.28155043 27.88704999 7.8125 34.1875 C7.28269531 34.82042969 6.75289063 35.45335937 6.20703125 36.10546875 C-0.16747149 41.57738703 -6.19394307 42.57468095 -14.40625 42.390625 C-15.3715564 42.38496521 -16.33686279 42.37930542 -17.3314209 42.37347412 C-20.38813717 42.35123963 -23.44364328 42.30106775 -26.5 42.25 C-28.5833163 42.22991828 -30.66665113 42.21167045 -32.75 42.1953125 C-37.8337934 42.15141725 -42.91669215 42.08248003 -48 42 C-48 37.38 -48 32.76 -48 28 C-46.81446533 27.98541748 -45.62893066 27.97083496 -44.4074707 27.95581055 C-39.99961523 27.89774062 -35.59226596 27.82050816 -31.18481445 27.73754883 C-29.27897369 27.70434038 -27.37303554 27.67629575 -25.46704102 27.65356445 C-22.72369985 27.61994332 -19.98124778 27.56762405 -17.23828125 27.51171875 C-15.96456413 27.50213387 -15.96456413 27.50213387 -14.66511536 27.49235535 C-9.98194916 27.37654667 -6.78327554 27.05882812 -3 24 C-0.87719437 20.81579155 -0.71980463 19.79462745 -0.5859375 16.11328125 C-0.54726563 15.17548828 -0.50859375 14.23769531 -0.46875 13.27148438 C-0.42234375 11.80678711 -0.42234375 11.80678711 -0.375 10.3125 C-0.33632813 9.32443359 -0.29765625 8.33636719 -0.2578125 7.31835938 C-0.16354601 4.8792139 -0.0806841 2.43963253 0 0 Z " fill="#D73337" transform="translate(386,395)"/>
<path d="M0 0 C0.93215332 0.49226074 1.86430664 0.98452148 2.82470703 1.49169922 C3.84306641 2.02666016 4.86142578 2.56162109 5.91064453 3.11279297 C6.95736328 3.66837891 8.00408203 4.22396484 9.08251953 4.79638672 C10.68740234 5.64136719 10.68740234 5.64136719 12.32470703 6.50341797 C14.9544597 7.88873411 17.58195036 9.27816268 20.20751953 10.67138672 C20.20751953 14.67138672 20.20751953 14.67138672 18.73876953 16.23388672 C7.26893961 24.35099713 -3.18401007 27.40918169 -17.40185547 25.28076172 C-24.39318737 23.54406144 -30.67852995 19.73672554 -35.79248047 14.67138672 C-35.79248047 13.35138672 -35.79248047 12.03138672 -35.79248047 10.67138672 C-32.07071784 8.61492415 -28.33573722 6.58568052 -24.58642578 4.58007812 C-23.31393932 3.89461913 -22.04530048 3.20196566 -20.78076172 2.50195312 C-18.95846497 1.494819 -17.12373326 0.51467541 -15.28466797 -0.46142578 C-14.18493652 -1.05842285 -13.08520508 -1.65541992 -11.95214844 -2.27050781 C-7.1046628 -3.89382745 -4.42287942 -2.10432854 0 0 Z " fill="#FED9A8" transform="translate(263.79248046875,332.32861328125)"/>
<path d="M0 0 C1.44921875 1.453125 1.44921875 1.453125 2.6875 3.25 C3.31205078 4.12398437 3.31205078 4.12398437 3.94921875 5.015625 C9.34730313 15.20977692 5.43626284 29.78325241 2.3671875 40.13427734 C1.00616159 44.45690345 -0.46936643 48.73479578 -2 53 C-4.58504672 50.63873344 -6.25694048 48.11504206 -8.0625 45.125 C-10.10976743 41.789366 -12.2096332 38.67388452 -14.75 35.703125 C-21.75468908 27.48615548 -21.75468908 27.48615548 -22.40234375 23.5625 C-21.94541048 21.07820264 -21.16260307 19.24355174 -20 17 C-19.58363281 16.08089844 -19.16726562 15.16179687 -18.73828125 14.21484375 C-15.83814022 8.31126899 -12.61812272 3.56403911 -7 0 C-3.84469315 -1.05176895 -2.99730158 -1.15872014 0 0 Z " fill="#8DC636" transform="translate(82,243)"/>
</svg>
